<?xml version="1.0" encoding="utf-8"?>
<!-- Generator: Adobe Illustrator 18.0.0, SVG Export Plug-In . SVG Version: 6.00 Build 0)  -->
<!DOCTYPE svg PUBLIC "-//W3C//DTD SVG 1.1//EN" "http://www.w3.org/Graphics/SVG/1.1/DTD/svg11.dtd" [
	<!ENTITY ns_flows "http://ns.adobe.com/Flows/1.0/">
	<!ENTITY ns_extend "http://ns.adobe.com/Extensibility/1.0/">
	<!ENTITY ns_ai "http://ns.adobe.com/AdobeIllustrator/10.0/">
	<!ENTITY ns_graphs "http://ns.adobe.com/Graphs/1.0/">
]>
<svg version="1.1" id="Layer_1" xmlns:x="&ns_extend;" xmlns:i="&ns_ai;" xmlns:graph="&ns_graphs;"
	 xmlns="http://www.w3.org/2000/svg" xmlns:xlink="http://www.w3.org/1999/xlink" xmlns:a="http://ns.adobe.com/AdobeSVGViewerExtensions/3.0/"
	 x="0px" y="0px" viewBox="0 0 1400 980" enable-background="new 0 0 1400 980" xml:space="preserve">
<g>
	<rect y="0" fill="#CFE8DF" width="1400" height="980"/>
	<g>
		<g>
			<path fill="#AEC4BE" d="M1050.3,309c0,17.1,9.5,32,23.8,39.4c-3.8,6.4-6.5,13.7-7.7,21.4c-3.7,4.1-6,9.1-6.7,14.6
				c-1,7.8,1.4,15.6,6.6,21.4c5.2,5.9,12.6,9.2,20.4,9.2c0.1,0,0.1,0,0.2,0c0,2,0,4,0.1,6.1c-6.7,3.4-11.3,10.4-11.3,18.5
				c0,11.4,9.3,20.7,20.7,20.7h41.5c5.5,0,10-4.5,10-10v-22.2h1.5v22.2c0,5.5,4.5,10,10.1,10h41.4c11.4,0,20.7-9.3,20.7-20.7
				c0-8.1-4.6-15-11.3-18.5c0.1-2.2,0.1-4.4,0-6.5c0.9,0,1.8-0.1,2.7-0.2c12.1-1.5,22-11.4,23.5-23.5c0.9-7.2-1.1-14.4-5.4-20.1
				c-1.1-8.4-4-16.4-8.2-23.2c13.6-7.7,22.7-22.4,22.7-38.8v-74.8l19.3-25c4.6-5.9,5.6-13.6,2.8-20.6c-1.1-2.8-2.8-5.2-4.9-7.2
				c-0.1-13.7-9.4-25.8-23.1-29.3l-2.6-0.6c-0.8-0.2-1.6-0.3-2.5-0.3c-1.9,0-3.7,0.5-5.3,1.5c-2.3,1.5-3.9,3.8-4.5,6.5l-4.4,22
				c-11.2-6.3-26-10.1-44.2-11.5c-8.7-0.7-16-1-22.9-1.3c-3.4-0.1-6.8-0.2-10-0.2c-23,0-41.5,2.6-56.6,8c-4,1.4-7.7,3.1-11,5
				l-4.4-22.2c-0.5-2.7-2.2-5-4.5-6.5c-1.6-1-3.5-1.5-5.3-1.5c-0.8,0-1.6,0.1-2.5,0.3l-2.5,0.6c-13.7,3.5-23,15.6-23.1,29.3
				c-2.1,2-3.7,4.5-4.9,7.2c-2.8,7-1.7,14.6,2.8,20.6l19,24.6V309z"/>
			<path fill="#AEC4BE" d="M299.1,553.6c-6.8,0-13.4,1.4-19.6,4.1h-76.4c-6.2-2.8-12.8-4.1-19.6-4.1c-26.8,0-48.6,21.8-48.6,48.6
				c0,11.8,4.4,23.3,12.2,32.1v57.6c0,13.2,6,25.7,15.8,34c-1.2,2.7-2,5.6-2.4,8.6c-0.9,7,0.6,14.2,4.2,20.2
				c-2.2,18,4.4,32.3,17.2,36.4c1.8,0.6,3.5,1,5.1,1.2c-0.1,3.9-0.1,7.9-0.1,11.7c-6.9,3.4-11.6,10.5-11.6,18.6
				c0,11.4,9.3,20.7,20.7,20.7h40.7c5.5,0,10-4.5,10-10v-22.2h1.3v8.2c0,0.7,0.1,1.3,0.2,1.9v12.1c0,5.5,4.5,10,10.1,10h40.4
				c11.4,0,20.7-9.3,20.7-20.7c0-8.2-4.8-15.3-11.7-18.7c0-0.3,0-0.5,0-0.8c0.2-3.6,0.2-7.2,0.2-10.9c1.6-0.2,3.2-0.6,4.9-1.1
				c5.8-1.8,10.7-6.1,13.7-12c4.2-8.2,5-19.5,2.3-31c0.6-1.9,1.1-3.8,1.3-5.8c0.8-6-0.2-12-2.7-17.3c9.3-8.3,14.7-20.2,14.7-33
				v-67.1c3.6-6.9,5.6-14.7,5.6-22.6C347.7,575.4,325.9,553.6,299.1,553.6z"/>
			<path fill="#AEC4BE" d="M1252.7,574.6c-6,0-11.1,4.3-12.2,10c-0.2,0.3-0.5,0.8-1,1.4c-3.7-6.5-9.1-12-16-16.5
				c-11.5-7.4-27.4-11.9-47.4-13.4c-8.7-0.7-16-1-22.9-1.3c-3.4-0.1-6.8-0.2-10-0.2c-23,0-41.5,2.6-56.6,8
				c-13,4.7-23.1,12.3-29.3,22c0-0.1-0.1-0.1-0.1-0.2c-1.2-5.7-6.2-10-12.2-10c-6.9,0-12.5,5.6-12.5,12.5v39.1
				c0,18.8,6.4,36.6,17.8,49.6v16.1c0,13.1,5.8,25.4,15.5,33.7c-0.1,2.9,0.8,5.8,2.6,8.1l2.7,3.4c0,0-0.3,0.8-0.3,0.8
				c-0.3,0.6-0.5,1.2-0.7,1.8c-0.4,0.9-0.7,1.8-1,2.7l-0.1,0.2c-0.3,0.9-0.6,1.9-0.9,2.9c0,0,0,0.1,0,0.1c-0.3,0.9-0.5,1.9-0.7,2.9
				c0,0,0,0.1,0,0.1c-0.3,1.4-0.6,2.8-0.8,4.2c-3.7,4.1-6,9.1-6.7,14.6c-0.5,4.1-0.1,8.2,1.2,12c-3.5,6.2-6.5,12.3-8.6,17
				c-1.1,2.6-1.9,4.7-2.4,6.5c-2.4,8.9,3,12.7,4.7,13.6c1.5,0.9,3.3,1.3,5,1.3c0.6,0,1.2,0,1.7-0.1c1.5,4.1,4.9,5.7,6.3,6.2
				c1.1,0.4,2.2,0.6,3.4,0.6c1.2,0,2.3-0.2,3.3-0.5c0.4,0.5,0.9,1,1.3,1.4c1.3,10.2,10,18,20.6,18h41.5c5.5,0,10-4.5,10-10v-22.2
				h1.5v22.2c0,5.5,4.5,10,10,10h41.4c10.8,0,19.6-8.2,20.6-18.7c0.2-0.2,0.4-0.4,0.6-0.7c1,0.3,2.1,0.5,3.3,0.5
				c1.2,0,2.3-0.2,3.4-0.6c1.3-0.5,4.7-2,6.3-6.2c0.6,0.1,1.1,0.1,1.7,0.1c0,0,0,0,0,0c1.8,0,3.5-0.5,5-1.3c1.7-1,7.1-4.8,4.7-13.6
				c-0.5-1.7-1.3-3.9-2.4-6.5c-2.1-4.8-5.1-10.8-8.6-17.1c-0.1-0.1-0.1-0.2-0.2-0.4c0.5-1.6,0.9-3.3,1.1-5.1
				c0.9-7.2-1.1-14.4-5.4-20.1c-0.2-1.7-0.5-3.5-0.9-5.2c0-0.1,0-0.1,0-0.2c-0.2-1-0.5-2-0.7-2.9c0,0,0-0.2-0.1-0.2
				c-0.3-1-0.6-1.9-0.9-2.8c0-0.1-0.1-0.2-0.1-0.3c-0.3-0.9-0.7-1.8-1-2.7c-0.2-0.6-0.5-1.2-0.8-1.8c0,0-0.3-0.8-0.3-0.8l2.7-3.4
				c2.1-2.7,3-6,2.5-9.3c8.9-8.3,14.1-20,14.1-32.5v-13.9c12.7-13.1,19.9-31.7,19.9-51.8v-39.1
				C1265.2,580.2,1259.5,574.6,1252.7,574.6z"/>
			<path fill="#AEC4BE" d="M630.9,620.2v-11c0-17.9-9-48.5-69.2-53c-8.7-0.7-16-1-22.9-1.3c-3.4-0.1-6.8-0.2-10-0.2
				c-23,0-41.5,2.6-56.6,8c-22.8,8.2-36.5,25.5-36.5,46.4v11c-7.3,4.3-12,12.2-12,21v20.9c0,8.9,4.7,16.7,12,21v8.8
				c0,17.1,9.5,32,23.8,39.4c-3.8,6.4-6.5,13.7-7.7,21.4c-3.7,4.1-6,9.1-6.7,14.6c-1,7.8,1.4,15.6,6.6,21.4
				c5.2,5.9,12.6,9.2,20.4,9.2c0.5,0,1,0,1.5,0c0,2,0.1,4.1,0.2,6.1l-11.2,7.6c-2.7,1.9-4.4,5-4.4,8.3v13.5c0,5.5,4.5,10,10,10h54.9
				c5.5,0,10-4.5,10-10v-22.2h1.5v22.2c0,5.5,4.5,10,10,10h55.6c5.5,0,10-4.5,10-10v-13.5c0-3.3-1.6-6.4-4.4-8.3l-11.8-8.1
				c0.1-2,0.2-4,0.2-6c0.2,0,0.3,0,0.5,0c1.2,0,2.3-0.1,3.5-0.2c12.1-1.5,22-11.4,23.5-23.5c0.9-7.2-1.1-14.4-5.4-20.1
				c-1.1-8.4-4-16.4-8.2-23.2c13.6-7.7,22.7-22.4,22.7-38.8v-8.8c7.3-4.3,12-12.2,12-21v-20.9C642.9,632.4,638.1,624.5,630.9,620.2z
				"/>
			<path fill="#AEC4BE" d="M991,222c-5.4-10.2-14.3-16.9-25-18.7c-3.5-0.6-6.9-0.9-10-0.9c-10.5,0-17.4,3.3-22,7.1
				c-12.4-21.1-38.9-32.3-62.2-34c-8.7-0.6-16-1-22.9-1.3c-3.4-0.1-6.8-0.2-10-0.2c-23,0-41.5,2.6-56.6,8
				c-12.4,4.4-23.1,14.4-29.7,27.2c-4.6-3.7-11.5-6.8-21.7-6.8c-3.1,0-6.5,0.3-10,0.9c-10.7,1.9-19.6,8.5-25,18.7
				c-8.6,16.2-8.4,40.7,0.6,61c9.8,22,6.7,48.8,2.4,53.3c-6.5,6.8-4.7,13.4-3.6,15.9c2.1,4.9,6.9,8,12.4,8c9.6,0,22.8-10.4,32.7-26
				c1.5-2.4,3.1-5.1,4.7-8.2c-2.9,15-10.1,22.1-11,22.9l-7.9,6.6c-3.5,3-4.6,8-2.5,12.1c1.7,3.4,5.2,5.5,8.9,5.5
				c0.8,0,1.5-0.1,2.3-0.3l10.2-2.4c6.8-1.6,12.7-3.8,17.7-6.5c-0.5,2.1-1,4.2-1.3,6.3c-3.5,4-5.7,8.9-6.3,14.2
				c-1,7.8,1.4,15.6,6.6,21.4c5.2,5.9,12.6,9.2,20.4,9.2c0.4,0,0.9,0,1.3,0c0,2,0,4,0.1,6.2c-6.7,3.4-11.3,10.4-11.3,18.5
				c0,11.4,9.3,20.7,20.7,20.7h41.4c5.5,0,10-4.5,10-10v-22.2h0.1v22.2c0,5.5,4.5,10,10,10h41.4c11.4,0,20.7-9.3,20.7-20.7
				c0-8.1-4.6-15-11.3-18.5c0.1-2.2,0.1-4.4,0-6.5c1,0,2.1-0.1,3.1-0.2c12.1-1.5,22-11.4,23.5-23.5c0.9-7.1-1-14.1-5.2-19.8
				c-0.3-2.3-0.7-4.5-1.2-6.7c4.7,2.5,10.2,4.4,16.5,5.9l10,2.3c0.8,0.2,1.5,0.3,2.3,0.3c3.7,0,7.2-2.1,8.9-5.5
				c2.1-4.1,1.1-9.1-2.5-12.1l-7.7-6.6c-0.7-0.7-8-7.9-11-22.9c1.6,3.1,3.2,5.8,4.7,8.2c9.9,15.5,23,26,32.7,26
				c5.5,0,10.3-3.1,12.4-8c1.1-2.5,2.9-9.1-3.6-15.9c-4.3-4.5-7.4-31.3,2.4-53.3C999.3,262.6,999.6,238.1,991,222z"/>
			<path fill="#AEC4BE" d="M871.7,559.3c-8.7-0.7-16-1-22.9-1.3c-3.4-0.1-6.8-0.2-10-0.2c-23,0-41.5,2.6-56.6,8
				c-22.8,8.2-36.5,25.5-36.5,46.4v79.6c0,17,9.4,31.8,23.6,39.3c-4.1,6.8-6.9,14.7-7.9,23c-3,3.8-4.9,8.4-5.5,13.1
				c-1,7.8,1.4,15.6,6.6,21.4c5.2,5.9,12.6,9.2,20.4,9.2c0.3,0,0.6,0,1,0c0,1,0,2,0.1,2.9c-0.4,1-0.7,2.1-0.8,3.2
				c-6.7,3.4-11.4,10.4-11.4,18.5c0,11.4,9.3,20.7,20.7,20.7h41.4c5.5,0,10-4.5,10-10v-22.2h0.8v22.2c0,5.5,4.5,10,10,10h41.4
				c11.4,0,20.7-9.3,20.7-20.7c0-8.1-4.6-15.1-11.4-18.5c-0.1-1.2-0.4-2.3-0.9-3.4c0-0.9,0.1-1.8,0.1-2.7c0.2,0,0.5,0,0.7,0
				c1.1,0,2.3-0.1,3.5-0.2c12.1-1.5,22-11.4,23.5-23.5c0.9-7.3-1.1-14.6-5.6-20.3c-1.1-8.5-4-16.6-8.3-23.4
				c13.5-7.7,22.5-22.4,22.5-38.7v-79.6C941,594.5,932,563.8,871.7,559.3z"/>
			<path fill="#AEC4BE" d="M623.2,221.6v-2.3c0-24.5-20-44.5-44.5-44.5H472.6c-24.5,0-44.5,20-44.5,44.5v25.9
				c-4.1,3.8-6.6,9.2-6.6,14.9v24c0,5.8,2.5,11.2,6.6,14.9v10c0,16,8.4,30.1,21.2,38c-1.3,1.3-2.5,2.7-3.3,4.4l-0.8,1.5
				c-2.6,4.8-2.7,10.4-0.6,15.2c-1,5.5-1.2,11-0.6,16.1c1.5,12.3,7.8,21,17.3,24c1.7,0.5,3.3,0.9,4.9,1.1c0,3.2,0,6.3,0.1,9.4
				c-1.9,2.8-3,6.2-3,9.7v1.7c0,5,2.2,9.7,5.7,12.9c0.5,2.7,1.1,5.4,1.8,8l0.5,1.9c1.1,4.4,5.1,7.5,9.7,7.5h34.7c5.5,0,10-4.5,10-10
				v-7.2c0.3-0.3,0.6-0.6,1-0.9c0.2,0.2,0.4,0.4,0.5,0.5v7.5c0,5.5,4.5,10,10,10h34.7c4.6,0,8.6-3.1,9.7-7.5l0.5-1.9
				c0.6-2.4,1.2-4.9,1.7-7.5c3.9-3.3,6.3-8.1,6.3-13.5v-1.7c0-3.8-1.2-7.4-3.4-10.3c0.1-2.9,0.1-5.8,0.1-8.8c1.6-0.2,3.2-0.6,5-1.1
				c9.5-3,15.8-11.8,17.3-24c0.5-4.2,0.5-8.8-0.2-13.4c3.4-5.2,3.9-12.1,0.8-17.9l-0.8-1.5c-1.2-2.3-2.9-4.2-4.8-5.7
				c11.8-8.1,19.4-21.6,19.4-36.7v-10c1.3-1.2,2.4-2.5,3.4-4c10.9-3.9,18.5-14.3,18.5-26.2c0-3.4-0.6-6.8-1.8-10
				c1.2-3.2,1.8-6.5,1.8-10C645.1,235.5,635.8,224.3,623.2,221.6z"/>
			<path fill="#AEC4BE" d="M172,350.4l-9.2,16.4c-5.5,4.4-9.1,10.7-10,17.7c-1,7.8,1.4,15.6,6.6,21.4c5.2,5.9,12.6,9.2,20.4,9.2
				c1.1,0,2.3-0.1,3.5-0.2c2.4-0.3,4.7-0.9,6.8-1.8l-5.1,36c-0.4,2.9,0.5,5.8,2.4,8c1.9,2.2,4.7,3.4,7.5,3.4h35.7
				c5.5,0,10-4.5,10-10v-22.2h1.5v22.2c0,5.5,4.5,10,10,10h35.7c2.9,0,5.6-1.3,7.5-3.4c1.9-2.2,2.8-5.1,2.4-8l-5.3-37.6
				c3.9,2.1,8.3,3.2,12.9,3.2c1.1,0,2.3-0.1,3.5-0.2c12.1-1.5,22-11.4,23.5-23.5c1-7.8-1.4-15.6-6.6-21.4c-2.1-2.4-4.7-4.4-7.5-6
				l-7.4-13.2c16.5-6.6,28.3-22.8,28.3-41.4V148.7c0-5.5-4.5-10-10-10h-37v-1.5c0-5.5-4.5-10-10-10H220c-5.5,0-10,4.5-10,10V161
				c-1.2-0.5-2.4-0.7-3.7-0.7h-0.1c-0.2-0.9-0.4-1.8-0.7-2.7c4.4-14.3,1.1-24.6-2.6-30.9c-10.3-17.6-33.1-21.3-35.7-21.6l-2.3-0.3
				c-0.5-0.1-0.9-0.1-1.4-0.1c-4.6,0-8.6,3.1-9.7,7.7l-0.5,2.2c-0.6,2.5-5.5,25.1,7,41.1c1.2,1.5,2.6,3.1,4.4,4.6h-11.1
				c-5.5,0-10,4.5-10,10V309C143.7,327.6,155.5,343.8,172,350.4z"/>
		</g>
		<g>
			<path fill="#FFFFFF" d="M1046.3,303.8c0,17.1,9.5,32,23.8,39.4c-3.8,6.4-6.5,13.7-7.7,21.4c-3.7,4.1-6,9.1-6.7,14.6
				c-1,7.8,1.4,15.6,6.6,21.4c5.2,5.9,12.6,9.2,20.4,9.2c0.1,0,0.1,0,0.2,0c0,2,0,4,0.1,6.1c-6.7,3.4-11.3,10.4-11.3,18.5
				c0,11.4,9.3,20.7,20.7,20.7h41.5c5.5,0,10-4.5,10-10V423h1.5v22.2c0,5.5,4.5,10,10.1,10h41.4c11.4,0,20.7-9.3,20.7-20.7
				c0-8.1-4.6-15-11.3-18.5c0.1-2.2,0.1-4.4,0-6.5c0.9,0,1.8-0.1,2.7-0.2c12.1-1.5,22-11.4,23.5-23.5c0.9-7.2-1.1-14.4-5.4-20.1
				c-1.1-8.4-4-16.4-8.2-23.2c13.6-7.7,22.7-22.4,22.7-38.8V229l19.3-25c4.6-5.9,5.6-13.6,2.8-20.6c-1.1-2.8-2.8-5.2-4.9-7.2
				c-0.1-13.7-9.4-25.8-23.1-29.3l-2.6-0.6c-0.8-0.2-1.6-0.3-2.5-0.3c-1.9,0-3.7,0.5-5.3,1.5c-2.3,1.5-3.9,3.8-4.5,6.5l-4.4,22
				c-11.2-6.3-26-10.1-44.2-11.5c-8.7-0.7-16-1-22.9-1.3c-3.4-0.1-6.8-0.2-10-0.2c-23,0-41.5,2.6-56.6,8c-4,1.4-7.7,3.1-11,5
				l-4.4-22.2c-0.5-2.7-2.2-5-4.5-6.5c-1.6-1-3.5-1.5-5.3-1.5c-0.8,0-1.6,0.1-2.5,0.3l-2.5,0.6c-13.7,3.5-23,15.6-23.1,29.3
				c-2.1,2-3.7,4.5-4.9,7.2c-2.8,7-1.7,14.6,2.8,20.6l19,24.6V303.8z"/>
			<path fill="#FFFFFF" d="M295.1,548.4c-6.8,0-13.4,1.4-19.6,4.1h-76.4c-6.2-2.8-12.8-4.1-19.6-4.1c-26.8,0-48.6,21.8-48.6,48.6
				c0,11.8,4.4,23.3,12.2,32.1v57.6c0,13.2,6,25.7,15.8,34c-1.2,2.7-2,5.6-2.4,8.6c-0.9,7,0.6,14.2,4.2,20.2
				c-2.2,18,4.4,32.3,17.2,36.4c1.8,0.6,3.5,1,5.1,1.2c-0.1,3.9-0.1,7.9-0.1,11.7c-6.9,3.4-11.6,10.5-11.6,18.6
				c0,11.4,9.3,20.7,20.7,20.7h40.7c5.5,0,10-4.5,10-10V806h1.3v8.2c0,0.7,0.1,1.3,0.2,1.9v12.1c0,5.5,4.5,10,10.1,10h40.4
				c11.4,0,20.7-9.3,20.7-20.7c0-8.2-4.8-15.3-11.7-18.7c0-0.3,0-0.5,0-0.8c0.2-3.6,0.2-7.2,0.2-10.9c1.6-0.2,3.2-0.6,4.9-1.1
				c5.8-1.8,10.7-6.1,13.7-12c4.2-8.2,5-19.5,2.3-31c0.6-1.9,1.1-3.8,1.3-5.8c0.8-6-0.2-12-2.7-17.3c9.3-8.3,14.7-20.2,14.7-33
				v-67.1c3.6-6.9,5.6-14.7,5.6-22.6C343.7,570.2,321.9,548.4,295.1,548.4z"/>
			<path fill="#FFFFFF" d="M1248.6,569.4c-6,0-11.1,4.3-12.2,10c-0.2,0.3-0.5,0.8-1,1.4c-3.7-6.5-9.1-12-16-16.5
				c-11.5-7.4-27.4-11.9-47.4-13.4c-8.7-0.7-16-1-22.9-1.3c-3.4-0.1-6.8-0.2-10-0.2c-23,0-41.5,2.6-56.6,8
				c-13,4.7-23.1,12.3-29.3,22c0-0.1-0.1-0.1-0.1-0.2c-1.2-5.7-6.2-10-12.2-10c-6.9,0-12.5,5.6-12.5,12.5V621
				c0,18.8,6.4,36.6,17.8,49.6v16.1c0,13.1,5.8,25.4,15.5,33.7c-0.1,2.9,0.8,5.8,2.6,8.1l2.7,3.4c0,0-0.3,0.8-0.3,0.8
				c-0.3,0.6-0.5,1.2-0.7,1.8c-0.4,0.9-0.7,1.8-1,2.7l-0.1,0.2c-0.3,0.9-0.6,1.9-0.9,2.9c0,0,0,0.1,0,0.1c-0.3,0.9-0.5,1.9-0.7,2.9
				c0,0,0,0.1,0,0.1c-0.3,1.4-0.6,2.8-0.8,4.2c-3.7,4.1-6,9.1-6.7,14.6c-0.5,4.1-0.1,8.2,1.2,12c-3.5,6.2-6.5,12.3-8.6,17
				c-1.1,2.6-1.9,4.7-2.4,6.5c-2.4,8.9,3,12.7,4.7,13.6c1.5,0.9,3.3,1.3,5,1.3c0.6,0,1.2,0,1.7-0.1c1.5,4.1,4.9,5.7,6.3,6.2
				c1.1,0.4,2.2,0.6,3.4,0.6c1.2,0,2.3-0.2,3.3-0.5c0.4,0.5,0.9,1,1.3,1.4c1.3,10.2,10,18,20.6,18h41.5c5.5,0,10-4.5,10-10V806h1.5
				v22.2c0,5.5,4.5,10,10,10h41.4c10.8,0,19.6-8.2,20.6-18.7c0.2-0.2,0.4-0.4,0.6-0.7c1,0.3,2.1,0.5,3.3,0.5c1.2,0,2.3-0.2,3.4-0.6
				c1.3-0.5,4.7-2,6.3-6.2c0.6,0.1,1.1,0.1,1.7,0.1c0,0,0,0,0,0c1.8,0,3.5-0.5,5-1.3c1.7-1,7.1-4.8,4.7-13.6
				c-0.5-1.7-1.3-3.9-2.4-6.5c-2.1-4.8-5.1-10.8-8.6-17.1c-0.1-0.1-0.1-0.2-0.2-0.4c0.5-1.6,0.9-3.3,1.1-5.1
				c0.9-7.2-1.1-14.4-5.4-20.1c-0.2-1.7-0.5-3.5-0.9-5.2c0-0.1,0-0.1,0-0.2c-0.2-1-0.5-2-0.7-2.9c0,0,0-0.2-0.1-0.2
				c-0.3-1-0.6-1.9-0.9-2.8c0-0.1-0.1-0.2-0.1-0.3c-0.3-0.9-0.7-1.8-1-2.7c-0.2-0.6-0.5-1.2-0.8-1.8c0,0-0.3-0.8-0.3-0.8l2.7-3.4
				c2.1-2.7,3-6,2.5-9.3c8.9-8.3,14.1-20,14.1-32.5v-13.9c12.7-13.1,19.9-31.7,19.9-51.8v-39.1
				C1261.1,575,1255.5,569.4,1248.6,569.4z"/>
			<path fill="#FFFFFF" d="M626.8,615v-11c0-17.9-9-48.5-69.2-53c-8.7-0.7-16-1-22.9-1.3c-3.4-0.1-6.8-0.2-10-0.2
				c-23,0-41.5,2.6-56.6,8c-22.8,8.2-36.5,25.5-36.5,46.4v11c-7.3,4.3-12,12.2-12,21v20.9c0,8.9,4.7,16.7,12,21v8.8
				c0,17.1,9.5,32,23.8,39.4c-3.8,6.4-6.5,13.7-7.7,21.4c-3.7,4.1-6,9.1-6.7,14.6c-1,7.8,1.4,15.6,6.6,21.4
				c5.2,5.9,12.6,9.2,20.4,9.2c0.5,0,1,0,1.5,0c0,2,0.1,4.1,0.2,6.1l-11.2,7.6c-2.7,1.9-4.4,5-4.4,8.3v13.5c0,5.5,4.5,10,10,10h54.9
				c5.5,0,10-4.5,10-10V806h1.5v22.2c0,5.5,4.5,10,10,10h55.6c5.5,0,10-4.5,10-10v-13.5c0-3.3-1.6-6.4-4.4-8.3l-11.8-8.1
				c0.1-2,0.2-4,0.2-6c0.2,0,0.3,0,0.5,0c1.2,0,2.3-0.1,3.5-0.2c12.1-1.5,22-11.4,23.5-23.5c0.9-7.2-1.1-14.4-5.4-20.1
				c-1.1-8.4-4-16.4-8.2-23.2c13.6-7.7,22.7-22.4,22.7-38.8v-8.8c7.3-4.3,12-12.2,12-21V636C638.8,627.1,634.1,619.3,626.8,615z"/>
			<path fill="#FFFFFF" d="M986.9,216.7c-5.4-10.2-14.3-16.9-25-18.7c-3.5-0.6-6.9-0.9-10-0.9c-10.5,0-17.4,3.3-22,7.1
				c-12.4-21.1-38.9-32.3-62.2-34c-8.7-0.6-16-1-22.9-1.3c-3.4-0.1-6.8-0.2-10-0.2c-23,0-41.5,2.6-56.6,8
				c-12.4,4.4-23.1,14.4-29.7,27.2c-4.6-3.7-11.5-6.8-21.7-6.8c-3.1,0-6.5,0.3-10,0.9c-10.7,1.9-19.6,8.5-25,18.7
				c-8.6,16.2-8.4,40.7,0.6,61c9.8,22,6.7,48.8,2.4,53.3c-6.5,6.8-4.7,13.4-3.6,15.9c2.1,4.9,6.9,8,12.4,8c9.6,0,22.8-10.4,32.7-26
				c1.5-2.4,3.1-5.1,4.7-8.2c-2.9,15-10.1,22.1-11,22.9l-7.9,6.6c-3.5,3-4.6,8-2.5,12.1c1.7,3.4,5.2,5.5,8.9,5.5
				c0.8,0,1.5-0.1,2.3-0.3l10.2-2.4c6.8-1.6,12.7-3.8,17.7-6.5c-0.5,2.1-1,4.2-1.3,6.3c-3.5,4-5.7,8.9-6.3,14.2
				c-1,7.8,1.4,15.6,6.6,21.4c5.2,5.9,12.6,9.2,20.4,9.2c0.4,0,0.9,0,1.3,0c0,2,0,4,0.1,6.2c-6.7,3.4-11.3,10.4-11.3,18.5
				c0,11.4,9.3,20.7,20.7,20.7h41.4c5.5,0,10-4.5,10-10V423h0.1v22.2c0,5.5,4.5,10,10,10h41.4c11.4,0,20.7-9.3,20.7-20.7
				c0-8.1-4.6-15-11.3-18.5c0.1-2.2,0.1-4.4,0-6.5c1,0,2.1-0.1,3.1-0.2c12.1-1.5,22-11.4,23.5-23.5c0.9-7.1-1-14.1-5.2-19.8
				c-0.3-2.3-0.7-4.5-1.2-6.7c4.7,2.5,10.2,4.4,16.5,5.9l10,2.3c0.8,0.2,1.5,0.3,2.3,0.3c3.7,0,7.2-2.1,8.9-5.5
				c2.1-4.1,1.1-9.1-2.5-12.1l-7.7-6.6c-0.7-0.7-8-7.9-11-22.9c1.6,3.1,3.2,5.8,4.7,8.2c9.9,15.5,23,26,32.7,26
				c5.5,0,10.3-3.1,12.4-8c1.1-2.5,2.9-9.1-3.6-15.9c-4.3-4.5-7.4-31.3,2.4-53.3C995.3,257.4,995.5,232.9,986.9,216.7z"/>
			<path fill="#FFFFFF" d="M867.7,554.1c-8.7-0.7-16-1-22.9-1.3c-3.4-0.1-6.8-0.2-10-0.2c-23,0-41.5,2.6-56.6,8
				c-22.8,8.2-36.5,25.5-36.5,46.4v79.6c0,17,9.4,31.8,23.6,39.3c-4.1,6.8-6.9,14.7-7.9,23c-3,3.8-4.9,8.4-5.5,13.1
				c-1,7.8,1.4,15.6,6.6,21.4c5.2,5.9,12.6,9.2,20.4,9.2c0.3,0,0.6,0,1,0c0,1,0,2,0.1,2.9c-0.4,1-0.7,2.1-0.8,3.2
				c-6.7,3.4-11.4,10.4-11.4,18.5c0,11.4,9.3,20.7,20.7,20.7h41.4c5.5,0,10-4.5,10-10V806h0.8v22.2c0,5.5,4.5,10,10,10H892
				c11.4,0,20.7-9.3,20.7-20.7c0-8.1-4.6-15.1-11.4-18.5c-0.1-1.2-0.4-2.3-0.9-3.4c0-0.9,0.1-1.8,0.1-2.7c0.2,0,0.5,0,0.7,0
				c1.1,0,2.3-0.1,3.5-0.2c12.1-1.5,22-11.4,23.5-23.5c0.9-7.3-1.1-14.6-5.6-20.3c-1.1-8.5-4-16.6-8.3-23.4
				c13.5-7.7,22.5-22.4,22.5-38.7v-79.6C936.9,589.2,927.9,558.6,867.7,554.1z"/>
			<path fill="#FFFFFF" d="M619.2,216.4v-2.3c0-24.5-20-44.5-44.5-44.5H468.5c-24.5,0-44.5,20-44.5,44.5V240
				c-4.1,3.8-6.6,9.2-6.6,14.9v24c0,5.8,2.5,11.2,6.6,14.9v10c0,16,8.4,30.1,21.2,38c-1.3,1.3-2.5,2.7-3.3,4.4l-0.8,1.5
				c-2.6,4.8-2.7,10.4-0.6,15.2c-1,5.5-1.2,11-0.6,16.1c1.5,12.3,7.8,21,17.3,24c1.7,0.5,3.3,0.9,4.9,1.1c0,3.2,0,6.3,0.1,9.4
				c-1.9,2.8-3,6.2-3,9.7v1.7c0,5,2.2,9.7,5.7,12.9c0.5,2.7,1.1,5.4,1.8,8l0.5,1.9c1.1,4.4,5.1,7.5,9.7,7.5h34.7c5.5,0,10-4.5,10-10
				V438c0.3-0.3,0.6-0.6,1-0.9c0.2,0.2,0.4,0.4,0.5,0.5v7.5c0,5.5,4.5,10,10,10h34.7c4.6,0,8.6-3.1,9.7-7.5l0.5-1.9
				c0.6-2.4,1.2-4.9,1.7-7.5c3.9-3.3,6.3-8.1,6.3-13.5v-1.7c0-3.8-1.2-7.4-3.4-10.3c0.1-2.9,0.1-5.8,0.1-8.8c1.6-0.2,3.2-0.6,5-1.1
				c9.5-3,15.8-11.8,17.3-24c0.5-4.2,0.5-8.8-0.2-13.4c3.4-5.2,3.9-12.1,0.8-17.9l-0.8-1.5c-1.2-2.3-2.9-4.2-4.8-5.7
				c11.8-8.1,19.4-21.6,19.4-36.7v-10c1.3-1.2,2.4-2.5,3.4-4c10.9-3.9,18.5-14.3,18.5-26.2c0-3.4-0.6-6.8-1.8-10
				c1.2-3.2,1.8-6.5,1.8-10C641.1,230.3,631.7,219.1,619.2,216.4z"/>
			<path fill="#FFFFFF" d="M167.9,345.1l-9.2,16.4c-5.5,4.4-9.1,10.7-10,17.7c-1,7.8,1.4,15.6,6.6,21.4c5.2,5.9,12.6,9.2,20.4,9.2
				c1.1,0,2.3-0.1,3.5-0.2c2.4-0.3,4.7-0.9,6.8-1.8l-5.1,36c-0.4,2.9,0.5,5.8,2.4,8c1.9,2.2,4.7,3.4,7.5,3.4h35.7
				c5.5,0,10-4.5,10-10V423h1.5v22.2c0,5.5,4.5,10,10,10h35.7c2.9,0,5.6-1.3,7.5-3.4c1.9-2.2,2.8-5.1,2.4-8l-5.3-37.6
				c3.9,2.1,8.3,3.2,12.9,3.2c1.1,0,2.3-0.1,3.5-0.2c12.1-1.5,22-11.4,23.5-23.5c1-7.8-1.4-15.6-6.6-21.4c-2.1-2.4-4.7-4.4-7.5-6
				l-7.4-13.2c16.5-6.6,28.3-22.8,28.3-41.4V143.5c0-5.5-4.5-10-10-10h-37V132c0-5.5-4.5-10-10-10H216c-5.5,0-10,4.5-10,10v23.7
				c-1.2-0.5-2.4-0.7-3.7-0.7h-0.1c-0.2-0.9-0.4-1.8-0.7-2.7c4.4-14.3,1.1-24.6-2.6-30.9c-10.3-17.6-33.1-21.3-35.7-21.6l-2.3-0.3
				c-0.5-0.1-0.9-0.1-1.4-0.1c-4.6,0-8.6,3.1-9.7,7.7l-0.5,2.2c-0.6,2.5-5.5,25.1,7,41.1c1.2,1.5,2.6,3.1,4.4,4.6h-11.1
				c-5.5,0-10,4.5-10,10v138.8C139.7,322.4,151.4,338.6,167.9,345.1z"/>
		</g>
		<g>
			<g>
				<g>
					<path fill="#E9C226" d="M1245.5,182.9l0.6-3.6c1.4-9.2-4.4-18.1-13.5-20.4l-12.5,62.6l3.8,9.8l27-35
						C1254.8,191.3,1251.8,183.8,1245.5,182.9z"/>
					<path d="M1223.1,236.4l-5.6-14.6l13.1-65.9l2.6,0.6c10.4,2.6,17,12.6,15.3,23.2l-0.2,1.4c2.7,1.1,4.9,3.2,6.1,6
						c1.5,3.6,0.9,7.6-1.5,10.7L1223.1,236.4z M1222.7,221.3l1.9,5l24.3-31.5c1.3-1.7,1.6-3.8,0.8-5.8c-0.8-2-2.5-3.3-4.6-3.6
						l-2.5-0.4l0.9-6.1c1.1-7.1-2.7-13.9-9.1-16.7L1222.7,221.3z"/>
				</g>
				<g>
					<path fill="#E9C226" d="M1042.6,182.9l-0.6-3.6c-1.4-9.2,4.4-18.1,13.5-20.4l12.5,62.6l-3.8,9.8l-27-35
						C1033.3,191.3,1036.3,183.8,1042.6,182.9z"/>
					<path d="M1065,236.4l-29.8-38.5c-2.4-3.1-2.9-7.1-1.5-10.7c1.1-2.8,3.3-5,6.1-6l-0.2-1.4c-1.6-10.6,5-20.5,15.3-23.2l2.6-0.6
						l13.1,65.9L1065,236.4z M1053.6,162.2c-6.4,2.8-10.2,9.6-9.1,16.7l0.9,6.1l-2.5,0.4c-2.1,0.3-3.8,1.7-4.6,3.6
						c-0.8,2-0.5,4.1,0.8,5.8l24.3,31.5l1.9-5L1053.6,162.2z"/>
				</g>
				<g>
					<path fill="#BE1E2D" d="M1214.9,372.6c-0.1-12.4-6.1-27.6-17.8-34.8c-6.1-3.8-12.7-5.6-19-6.5c-2.3-6.2-4-9.7-4-9.7h-29.6
						h-29.6c0,0-1.7,3.5-4,9.7c-6.3,0.9-12.8,2.8-18.9,6.5c-11.7,7.2-17.7,22.4-17.8,34.8c0,0,11.8,0,21.8,8.5
						c1.6-5.6,3-12.8,6.2-20.9c-5.3,22.8-8.7,53-1.2,82.5h30.3v-32.2h13.2h13.2v32.2h30.3c7.6-29.8,4.1-60.2-1.3-83.1
						c3.3,8.3,4.8,15.8,6.4,21.5C1203.1,372.6,1214.9,372.6,1214.9,372.6z"/>
					<path d="M1190,445.2h-34.7V413h-21.5v32.2h-34.7l-0.5-1.9c-5.3-20.6-5.2-41.5-3.1-59.4l-1.1-0.9c-9.1-7.8-20.1-7.9-20.2-7.9
						l-2.5,0l0-2.5c0.1-12.6,6.1-28.9,19-36.9c5.3-3.2,11.4-5.5,18.4-6.6c2-5.3,3.5-8.4,3.5-8.5l0.7-1.4h62.5l0.7,1.4
						c0.1,0.1,1.5,3.2,3.5,8.5c7,1.2,13.2,3.4,18.5,6.7c12.9,8,18.9,24.3,19,36.9l0,2.5l-2.5,0c-0.1,0-11.1,0.1-20.2,7.9l-1.2,1
						c2.1,17.9,2.2,38.7-3.1,59.3L1190,445.2z M1160.3,440.2h25.8c7.1-29.6,3-59.8-1.8-80l4.8-1.5c2.5,6.3,4,12.2,5.3,17
						c0.1,0.4,0.2,0.7,0.3,1.1c6.9-4.7,14-6.1,17.8-6.5c-0.8-10.6-6.1-23.9-16.5-30.3c-5.1-3.1-11.1-5.2-18-6.2l-1.5-0.2l-0.5-1.4
						c-1.4-3.7-2.6-6.5-3.2-8.1h-56c-0.7,1.6-1.8,4.3-3.2,8.1l-0.5,1.4l-1.5,0.2c-6.8,1-12.9,3.1-17.9,6.2
						c-10.5,6.4-15.7,19.7-16.5,30.3c3.7,0.4,10.9,1.8,17.8,6.5c0.1-0.4,0.2-0.7,0.3-1.1c1.2-4.9,2.7-10.4,5-16.4l4.8,1.5
						c-4.7,20.1-8.7,50-1.7,79.4h25.8V408h31.5V440.2z"/>
				</g>
				<g>
					<path fill="#BE1E2D" d="M1068.1,380.7c-1.2,9.6,6.9,17.7,16.5,16.5c6.5-0.8,11.8-6.1,12.7-12.7c1.2-9.6-6.9-17.7-16.5-16.5
						C1074.2,368.9,1068.9,374.2,1068.1,380.7z"/>
					<path d="M1082.7,399.8C1082.7,399.8,1082.7,399.8,1082.7,399.8c-4.9,0-9.6-2.1-12.9-5.8c-3.3-3.7-4.8-8.6-4.2-13.6
						c1-7.6,7.2-13.9,14.8-14.8c5.7-0.7,11.4,1.4,15.1,5.7c3.3,3.7,4.8,8.6,4.2,13.6c-1,7.6-7.2,13.9-14.8,14.8
						C1084.2,399.8,1083.4,399.8,1082.7,399.8z M1082.7,370.5c-0.5,0-1.1,0-1.6,0.1c-5.4,0.7-9.8,5.1-10.5,10.5
						c-0.4,3.6,0.6,7,2.9,9.7c2.3,2.6,5.6,4.1,9.1,4.1c0,0,0,0,0,0c0.5,0,1.1,0,1.6-0.1c5.4-0.7,9.8-5.1,10.5-10.5
						c0.4-3.6-0.6-7-2.9-9.7C1089.5,372,1086.2,370.5,1082.7,370.5z"/>
				</g>
				<g>
					<path fill="#BE1E2D" d="M1190.8,380.4c-1.2,9.6,6.9,17.7,16.5,16.5c6.5-0.8,11.8-6.1,12.7-12.7c1.2-9.6-6.9-17.7-16.5-16.5
						C1196.9,368.5,1191.6,373.8,1190.8,380.4z"/>
					<path d="M1205.4,399.5C1205.4,399.5,1205.4,399.5,1205.4,399.5c-4.9,0-9.6-2.1-12.9-5.8c-3.3-3.7-4.8-8.6-4.2-13.6
						c1-7.6,7.2-13.9,14.8-14.8c5.7-0.7,11.4,1.4,15.1,5.7c3.3,3.7,4.8,8.6,4.2,13.6c-1,7.6-7.2,13.9-14.8,14.8
						C1206.9,399.4,1206.1,399.5,1205.4,399.5z M1205.4,370.1c-0.5,0-1.1,0-1.6,0.1c-5.4,0.7-9.8,5.1-10.5,10.5
						c-0.4,3.6,0.6,7,2.9,9.7c2.3,2.6,5.6,4.1,9.1,4.1c0,0,0,0,0,0c0.5,0,1.1,0,1.6-0.1c5.4-0.7,9.8-5.1,10.5-10.5
						c0.4-3.6-0.6-7-2.9-9.7C1212.2,371.6,1208.9,370.1,1205.4,370.1z"/>
				</g>
				<g>
					<path fill="#EBB787" d="M1171.3,176.9c-7.1-0.5-14.6-1-22.3-1.2c-21.1-0.6-43.5,0.5-62,7.2c-15.7,5.6-28.2,17-28.2,34.6
						c0,0,0,4.7,0,11.5v47.5v27.3c0,17.7,14.3,32,32,32h106.2c17.7,0,32-14.3,32-32v-27.3V229c0-6.8,0-11.5,0-11.5
						C1228.9,186.6,1196.2,178.8,1171.3,176.9z"/>
					<path d="M1196.9,338.3h-106.2c-19,0-34.5-15.5-34.5-34.5v-86.3c0-16.7,10.9-30.2,29.8-37c14-5,31.4-7.4,53.3-7.4
						c3.1,0,6.4,0,9.7,0.1c6.7,0.2,13.9,0.6,22.4,1.2c39.2,2.9,60,17.8,60,43.1v86.3C1231.4,322.8,1216,338.3,1196.9,338.3z
						 M1139.4,178.1c-21.2,0-38.1,2.3-51.6,7.2c-9.9,3.5-26.5,12.4-26.5,32.3v86.3c0,16.3,13.2,29.5,29.5,29.5h106.2
						c16.3,0,29.5-13.2,29.5-29.5v-86.3c0-22.5-18.6-35.3-55.3-38.1c-8.5-0.6-15.6-1-22.2-1.2
						C1145.6,178.1,1142.4,178.1,1139.4,178.1z"/>
				</g>
				<path d="M1162.6,304.4c0,0-1.7,2.3-4.7,5.2c-1.5,1.4-3.4,3-5.6,4.5c-0.5,0.4-1.1,0.8-1.7,1.1c-0.6,0.4-1.2,0.7-1.9,1
					c-0.3,0.2-0.7,0.3-1,0.5c-0.4,0.2-0.7,0.3-1.1,0.4l-1.2,0.4c-0.2,0.1-0.5,0.1-0.8,0.1l-0.4,0l-0.2,0l-0.1,0l0,0l0,0
					c-0.1,0,0.3,0-0.3,0c-0.3,0-0.7-0.1-1-0.1c-0.5-0.1-1-0.3-1.5-0.4c-0.5-0.2-0.7-0.3-1.1-0.5c-0.4-0.2-0.7-0.3-1-0.5
					c-0.7-0.3-1.3-0.7-1.9-1c-0.6-0.4-1.2-0.7-1.7-1.1c-2.2-1.5-4.1-3.1-5.6-4.5c-3.1-2.8-4.7-5.2-4.7-5.2s0.7,0.2,1.8,0.7
					c1.1,0.5,2.7,1.2,4.6,2.1c1.8,0.9,3.9,1.9,6.2,3.1c1.1,0.6,2.3,1.1,3.4,1.6c0.3,0.1,0.6,0.2,0.8,0.3c0.3,0.1,0.6,0.2,0.8,0.3
					c0.2,0,0.3,0.1,0.5,0.2c0.3,0,0.7,0.1,1,0.1c-0.5,0-0.1,0-0.3,0l0,0l0,0l0,0l0.1,0l0.1,0c0.1,0,0.1,0,0.2,0l0.7-0.2
					c0.5-0.2,1.1-0.4,1.6-0.6c1.1-0.5,2.3-1,3.4-1.6c2.3-1.1,4.4-2.2,6.2-3.1c1.8-0.9,3.4-1.6,4.6-2.1
					C1161.9,304.6,1162.6,304.4,1162.6,304.4z"/>
				<g>
					<path fill="#E9C226" d="M1095.3,409.7c-0.2,5.7,0.3,11.5,1,16.5h-4.1c-4.6,0-8.2,3.7-8.2,8.2v0c0,4.6,3.7,8.2,8.2,8.2h7.4h31.4
						v-16.5V420L1095.3,409.7z"/>
					<path d="M1133.7,445.2h-41.4c-5.9,0-10.7-4.8-10.7-10.7s4.8-10.7,10.7-10.7h1.2c-0.6-5-0.8-9.7-0.7-14.1l0.1-3.2l40.7,11.7
						V445.2z M1092.3,428.7c-3.2,0-5.7,2.6-5.7,5.7s2.6,5.7,5.7,5.7h36.4v-18.3l-30.9-8.9c0.1,4,0.4,8.3,1,12.8l0.4,2.8H1092.3z"/>
				</g>
				<g>
					<path fill="#E9C226" d="M1193.7,409.7c0.2,5.7-0.3,11.5-1,16.5h4.1c4.6,0,8.2,3.7,8.2,8.2v0c0,4.6-3.7,8.2-8.2,8.2h-7.4h-31.4
						v-16.5V420L1193.7,409.7z"/>
					<path d="M1196.7,445.2h-41.4v-27.1l40.7-11.7l0.1,3.2c0.1,4.4-0.1,9.1-0.7,14.1h1.2c5.9,0,10.7,4.8,10.7,10.7
						S1202.6,445.2,1196.7,445.2z M1160.3,440.2h36.4c3.2,0,5.7-2.6,5.7-5.7s-2.6-5.7-5.7-5.7h-6.9l0.4-2.8c0.6-4.5,1-8.8,1-12.8
						l-30.9,8.9V440.2z"/>
				</g>
				<g>
					<path fill="#E9C226" d="M1191.7,388.8c-43.1,6.8-93.9,0-93.9,0l1.6-11.3c0,0,49.1,6.6,90.8,0L1191.7,388.8z"/>
					<path d="M1148.2,394.3c-27.7,0-50.5-3-50.7-3l-2.5-0.3l2.3-16.2l2.5,0.3c0.2,0,22,2.9,48.4,2.9c15.5,0,29.5-1,41.7-2.9l2.5-0.4
						l2.3,16.2l-2.4,0.4C1179.2,393.3,1164.4,394.3,1148.2,394.3z M1100.6,386.6c6.6,0.8,25.5,2.7,47.6,2.7c15,0,28.7-0.9,40.7-2.6
						l-0.9-6.3c-11.8,1.7-25.2,2.6-39.9,2.6c-21.6,0-40.1-1.9-46.6-2.6L1100.6,386.6z"/>
				</g>
				<polygon fill="#E9C226" points="1147.7,344.6 1135.9,356.5 1144.9,356.5 1135,367 1154.2,353.8 1143.7,353.8 				"/>
				<path fill="#D69576" d="M1171.1,190.4c-8.5-0.6-15.6-1-22.2-1.2c-3.3-0.1-6.5-0.1-9.5-0.1c-21.2,0-38.1,2.3-51.6,7.2
					c-9.9,3.5-26.5,12.4-26.5,32.3v55.7l43.5,18.6l39.1-16.1l39.1,16.1l43.5-18.6v-55.7C1226.4,205.9,1207.8,193.1,1171.1,190.4z"/>
				<g>
					<path fill="#BE1E2D" d="M1104.7,294.5l39.1-16.1l39.1,16.1l45.9-19.7V229c0-6.8,0-11.5,0-11.5c0-30.9-32.7-38.7-57.7-40.6
						c-7.1-0.5-14.6-1-22.3-1.2c-21.1-0.6-43.5,0.5-62,7.2c-15.7,5.6-28.2,17-28.2,34.6c0,0,0,4.7,0,11.5v45.8L1104.7,294.5z"/>
					<path d="M1183,297.2l-39.2-16.1l-39.2,16.1l-48.4-20.7v-59c0-16.7,10.9-30.2,29.8-37c14-5,31.4-7.4,53.3-7.4
						c3.1,0,6.4,0,9.7,0.1c6.7,0.2,13.9,0.6,22.4,1.2c39.2,2.9,60,17.8,60,43.1v59L1183,297.2z M1061.3,273.2l43.5,18.6l39.1-16.1
						l39.1,16.1l43.5-18.6v-55.7c0-22.5-18.6-35.3-55.3-38.1c-8.5-0.6-15.6-1-22.2-1.2c-3.3-0.1-6.5-0.1-9.5-0.1
						c-21.2,0-38.1,2.3-51.6,7.2c-9.9,3.5-26.5,12.4-26.5,32.3V273.2z"/>
				</g>
				<g>
					<circle cx="1106.4" cy="270.7" r="12.5"/>
					<circle cx="1181.4" cy="270.7" r="12.5"/>
					<circle fill="#FFFFFF" cx="1103" cy="266.9" r="3.4"/>
					<circle fill="#FFFFFF" cx="1178.5" cy="266.9" r="3.4"/>
				</g>
			</g>
			<g>
				<g>
					<path fill="#BE1E2D" d="M313.7,735.5c1.6-12.5-9-23.1-21.5-21.5c-2.3,0.3-4.5,1-6.6,2.1c-2.9-0.9-5.8-1.5-8.6-1.9
						c-2.3-6.2-4-9.7-4-9.7h-29.6h-29.6c0,0-1.6,3.5-3.9,9.6c-3.9,0.5-7.9,1.5-11.8,2.9c-3.6-2.3-8-3.4-12.7-2.8
						c-8.5,1.1-15.4,8-16.5,16.5c-0.8,6,1.3,11.6,5,15.5c-2.8,12.6-0.2,25,7.8,27.6c12.3,3.9,11.7-8,17-24.8c0.5-0.3,1-0.7,1.4-1.1
						c-4.6,22.1-7.1,50.1-0.1,77.5h30.3v-32.2h13.2h13.2v32.2H287c6.7-26.3,4.7-53.2,0.4-74.9c0.4,0.2,0.8,0.3,1.2,0.4
						c4.6,15.7,4.6,26.5,16.4,22.8c9-2.8,11.1-17.9,6.6-31.9C312.7,740.1,313.4,737.8,313.7,735.5z"/>
					<path d="M288.9,828.1h-34.7V796h-21.5v32.2H198l-0.5-1.9c-4.2-16.5-5.4-34.4-3.7-53.6c-1.8,2.8-4.2,4.6-8,4.6
						c-1.5,0-3.1-0.3-4.9-0.9c-8.7-2.8-12.6-14.7-9.8-29.2c-3.8-4.6-5.5-10.6-4.8-16.6c1.2-9.6,9.1-17.5,18.7-18.7
						c4.6-0.6,9.3,0.3,13.2,2.5c3.1-1.1,6.3-1.9,9.8-2.4c2-5.3,3.4-8.3,3.5-8.4l0.7-1.4h62.5l0.7,1.4c0.1,0.1,1.5,3.2,3.5,8.5
						c2.2,0.4,4.4,0.9,6.5,1.5c2.1-1,4.3-1.6,6.5-1.9c7.2-0.9,14.3,1.8,19.1,7.2c4.1,4.7,6,10.9,5.2,17.1c-0.3,2.2-0.9,4.4-1.9,6.5
						c3,10,2.8,20.3-0.7,27c-1.8,3.6-4.6,6-7.9,7.1c-1.8,0.6-3.4,0.9-4.9,0.9c0,0,0,0,0,0c-3.5,0-5.9-1.5-7.6-4
						c1.6,19,0.4,36.8-3.8,53.1L288.9,828.1z M259.2,823.1H285c5.1-21.5,5.1-45.7-0.1-71.9l-0.9-4.6l4.3,1.8c0.3,0.1,0.7,0.3,1,0.4
						l1.2,0.4l0.4,1.2c0.9,2.9,1.6,5.7,2.2,8.1c2.5,9.9,3.8,13.6,7.6,13.6c0,0,0,0,0,0c0.9,0,2.1-0.2,3.4-0.6c2-0.7,3.7-2.2,4.9-4.6
						c2.9-5.7,3-15.2,0.1-24.2l-0.3-1l0.5-0.9c1-1.8,1.6-3.7,1.8-5.7c0.6-4.9-0.8-9.6-4-13.2c-3.6-4.1-9.1-6.2-14.7-5.5
						c-2,0.2-3.9,0.9-5.7,1.8l-0.9,0.5l-1-0.3c-2.6-0.8-5.4-1.4-8.2-1.8l-1.5-0.2l-0.5-1.4c-1.4-3.7-2.6-6.5-3.2-8.1h-56
						c-0.7,1.5-1.8,4.3-3.2,8l-0.5,1.4l-1.5,0.2c-4,0.6-7.8,1.5-11.3,2.8l-1.2,0.4l-1.1-0.7c-3.3-2-7.1-2.9-11-2.4
						c-7.4,0.9-13.4,7-14.3,14.3c-0.6,5,1,9.9,4.3,13.5l0.9,1l-0.3,1.3c-2.7,12.1,0,22.7,6.1,24.6c6.5,2.1,7.9-0.6,11-13
						c0.8-3,1.7-6.5,2.8-10.1l0.3-0.8l0.7-0.5c0.5-0.3,0.9-0.6,1.3-0.9l5.5-4.6l-1.5,7c-5.7,27.2-5.9,52.3-0.6,74.5h25.8V791h31.5
						V823.1z"/>
					<path fill="#8B0E1A" d="M292.5,716.5c-2,0.2-3.9,0.9-5.7,1.8l-0.9,0.5l-1-0.3c-2.6-0.8-5.4-1.4-8.2-1.8l-1.5-0.2l-0.5-1.4
						c-1.4-3.7-2.6-6.5-3.2-8.1h-56c-0.7,1.5-1.8,4.3-3.2,8l-0.5,1.4l-1.5,0.2c-4,0.6-7.8,1.5-11.3,2.8l-1.2,0.4l-1.1-0.7
						c-3.3-2-7.1-2.9-11-2.4c-5.6,0.7-10.4,4.4-12.8,9.3c4.4,2.1,9.4,3.3,14.6,3.3h106.2c5.7,0,11.1-1.4,15.9-3.9
						c-0.6-1.2-1.4-2.4-2.4-3.5C303.6,717.9,298.1,715.8,292.5,716.5z"/>
				</g>
				<g>
					<path fill="#BE1E2D" d="M293.6,565H187.5c-17.7,0-32,14.3-32,32v89.7c0,17.7,14.3,32,32,32h106.2c17.7,0,32-14.3,32-32V597
						C325.6,579.3,311.3,565,293.6,565z"/>
					<path d="M293.6,721.2H187.5c-19,0-34.5-15.5-34.5-34.5V597c0-19,15.5-34.5,34.5-34.5h106.2c19,0,34.5,15.5,34.5,34.5v89.7
						C328.1,705.7,312.7,721.2,293.6,721.2z M187.5,567.5c-16.3,0-29.5,13.2-29.5,29.5v89.7c0,16.3,13.2,29.5,29.5,29.5h106.2
						c16.3,0,29.5-13.2,29.5-29.5V597c0-16.3-13.2-29.5-29.5-29.5H187.5z"/>
				</g>
				<g>
					<g>
						<defs>
							<rect id="SVGID_1_" x="187.1" y="653.2" width="35.7" height="18.1"/>
						</defs>
						<clipPath id="SVGID_2_">
							<use xlink:href="#SVGID_1_"  overflow="visible"/>
						</clipPath>
						<circle clip-path="url(#SVGID_2_)" cx="203.1" cy="653.6" r="12.5"/>
						<circle clip-path="url(#SVGID_2_)" fill="#FFFFFF" cx="199.7" cy="653.2" r="3.4"/>
					</g>
					<g>
						<defs>
							<rect id="SVGID_3_" x="262.8" y="653.2" width="35.7" height="18.1"/>
						</defs>
						<clipPath id="SVGID_4_">
							<use xlink:href="#SVGID_3_"  overflow="visible"/>
						</clipPath>
						<circle clip-path="url(#SVGID_4_)" cx="278.7" cy="653.6" r="12.5"/>
						<circle clip-path="url(#SVGID_4_)" fill="#FFFFFF" cx="275.3" cy="653.2" r="3.4"/>
					</g>
				</g>
				<path d="M279.7,680.8c0,0-0.9,1-2.7,2.5c-1.8,1.5-4.5,3.5-8,5.4c-1.8,1-3.7,2-5.8,2.9c-2.1,0.9-4.4,1.7-6.9,2.4
					c-2.4,0.7-5,1.3-7.7,1.7c-2.7,0.4-5.3,0.6-8.1,0.6l-2,0l-2.1-0.1c-1.4-0.1-2.7-0.2-4-0.4c-2.6-0.4-5.2-0.9-7.7-1.6
					c-2.4-0.7-4.7-1.5-6.9-2.4c-2.1-0.9-4.1-1.9-5.8-2.9c-3.5-2-6.2-4-8-5.5c-1.8-1.5-2.7-2.5-2.7-2.5s1.2,0.7,3.2,1.7
					c2.1,1,5,2.3,8.6,3.7c1.8,0.7,3.8,1.3,5.9,1.9c2.1,0.6,4.3,1.2,6.7,1.6c2.3,0.5,4.7,0.8,7.2,1.1c1.2,0.1,2.5,0.2,3.7,0.3
					l1.9,0.1l2,0c2.4,0,5-0.1,7.4-0.4c2.5-0.3,4.9-0.7,7.2-1.1c2.3-0.5,4.6-1.1,6.7-1.7c2.1-0.6,4.1-1.3,5.9-1.9
					c3.6-1.3,6.6-2.7,8.7-3.7C278.5,681.5,279.7,680.8,279.7,680.8z"/>
				<g>
					<circle fill="#BE1E2D" cx="179.4" cy="597" r="36.1"/>
					<path d="M179.4,635.6c-21.3,0-38.6-17.3-38.6-38.6s17.3-38.6,38.6-38.6s38.6,17.3,38.6,38.6S200.7,635.6,179.4,635.6z
						 M179.4,563.4c-18.5,0-33.6,15.1-33.6,33.6s15.1,33.6,33.6,33.6s33.6-15.1,33.6-33.6S198,563.4,179.4,563.4z"/>
				</g>
				<g>
					<circle fill="#BE1E2D" cx="295.1" cy="597" r="36.1"/>
					<path d="M295.1,635.6c-21.3,0-38.6-17.3-38.6-38.6s17.3-38.6,38.6-38.6s38.6,17.3,38.6,38.6S316.4,635.6,295.1,635.6z
						 M295.1,563.4c-18.5,0-33.6,15.1-33.6,33.6s15.1,33.6,33.6,33.6s33.6-15.1,33.6-33.6S313.6,563.4,295.1,563.4z"/>
				</g>
				<polygon points="241.2,704.5 222.8,711.2 222.8,718.7 241.2,718.7 259.7,718.7 259.7,711.2 				"/>
				<path d="M155.5,649.8l13.3,9.7v30c0,0,3.7,27.3,16.3,27.3c0,0-29.4,1.4-29.4-26S155.5,649.8,155.5,649.8z"/>
				<path d="M324,649.8l-13.3,9.7v30c0,0-3.7,27.3-16.3,27.3c0,0,29.4,1.4,29.4-26S324,649.8,324,649.8z"/>
				<g>
					<path d="M196.1,809.1H192c-4.6,0-8.2,3.7-8.2,8.2v0c0,4.6,3.7,8.2,8.2,8.2h7.4h30.4v-16.5V803h-33.8
						C196.3,805.1,195.8,807.2,196.1,809.1z"/>
					<path d="M232.4,828.1H192c-5.9,0-10.7-4.8-10.7-10.7c0-5.9,4.8-10.7,10.7-10.7h1.5c0-0.3,0-0.6,0-0.9c0.1-0.9,0.1-1.8,0-2.6
						l-0.2-2.7h39V828.1z M192,811.6c-3.2,0-5.7,2.6-5.7,5.7s2.6,5.7,5.7,5.7h35.4v-17.7h-28.8c0,0.2,0,0.4,0,0.6
						c-0.1,1-0.1,1.9,0,2.7l0.4,2.8H192z"/>
				</g>
				<g>
					<path d="M290.6,809.1h4.1c4.6,0,8.2,3.7,8.2,8.2v0c0,4.6-3.7,8.2-8.2,8.2h-7.4h-30.4v-16.5V803h33.8
						C290.4,805.1,290.9,807.2,290.6,809.1z"/>
					<path d="M294.6,828.1h-40.4v-27.7h39l-0.2,2.7c-0.1,0.8,0,1.7,0,2.6c0,0.3,0,0.6,0,0.9h1.5c5.9,0,10.7,4.8,10.7,10.7
						C305.4,823.3,300.6,828.1,294.6,828.1z M259.3,823.1h35.4c3.2,0,5.7-2.6,5.7-5.7s-2.6-5.7-5.7-5.7h-6.9l0.4-2.8
						c0.1-0.8,0.1-1.7,0-2.7c0-0.2,0-0.4,0-0.6h-28.8V823.1z"/>
				</g>
				<g>
					<path fill="#282829" d="M290,768.9L290,768.9c0,0-0.7-4.7-1.3-8.8c0,0-13.6,4.4-45.4,4.4s-45.4-4.4-45.4-4.4
						c-0.7,4.1-1.3,8.8-1.3,8.8c-1.2,10.7-1.6,31.2-0.6,42.8H230v-18.2h13.2h13.2v18.2h34.1C291.6,800.1,291.2,779.5,290,768.9z"/>
					<path d="M292.9,814.2H254V796h-21.5v18.2h-38.9l-0.2-2.3c-0.9-11.3-0.7-31.9,0.6-43.3c0-0.1,0.7-4.8,1.4-8.9l0.5-2.9l2.8,0.9
						c0.1,0,13.7,4.3,44.6,4.3s44.5-4.2,44.6-4.3l2.8-0.9l0.5,2.9c0.4,2.4,0.8,4.9,1,6.7h0.1l0.2,2.2c1.2,11.4,1.5,32,0.6,43.3
						L292.9,814.2z M259,809.2h29.3c0.7-11.3,0.4-29.5-0.7-39.9l0,0c0,0-0.4-2.9-0.9-6c-5.5,1.3-19.2,3.8-43.4,3.8
						s-37.9-2.5-43.4-3.8c-0.5,3.2-0.9,6-0.9,6c-1,9.3-1.5,27.8-0.7,40h29.3V791H259V809.2z"/>
				</g>
				<g>
					<path fill="#434345" d="M290,763.1c0,0-0.7-6.2-1.3-10.4c0,0-13.6,4.4-45.4,4.4s-45.4-4.4-45.4-4.4c-0.7,4.1-1.3,10.4-1.3,10.4
						l1.3,1.4c0,0,13.6,4.4,45.4,4.4s45.4-4.4,45.4-4.4L290,763.1L290,763.1z"/>
					<path d="M243.3,771.4c-31.9,0-45.6-4.3-46.2-4.5c-0.4-0.1-0.7-0.3-1-0.6l-1.3-1.4c-0.5-0.5-0.8-1.3-0.7-2
						c0-0.3,0.7-6.3,1.4-10.5c0.1-0.7,0.5-1.4,1.2-1.7c0.6-0.4,1.4-0.5,2.1-0.2c0.1,0,13.7,4.3,44.6,4.3s44.5-4.2,44.6-4.3
						c0.7-0.2,1.4-0.1,2.1,0.2c0.6,0.4,1,1,1.2,1.7c0.6,3.9,1.3,9.6,1.3,10.4c0.1,0.8-0.1,1.5-0.7,2.1l-1.3,1.4
						c-0.3,0.3-0.6,0.5-1,0.6C288.9,767.1,275.1,771.4,243.3,771.4z M199.2,762.3c2.8,0.8,16.6,4.1,44.1,4.1
						c27.5,0,41.2-3.3,44.1-4.1l0.1-0.1c-0.2-1.4-0.5-3.9-0.8-6.3c-5.5,1.3-19.2,3.8-43.4,3.8s-37.8-2.5-43.4-3.8
						C199.6,758.3,199.3,760.8,199.2,762.3L199.2,762.3z"/>
				</g>
			</g>
			<g>
				<g>
					<ellipse transform="matrix(0.8727 0.4883 -0.4883 0.8727 516.9103 -422.0304)" cx="1067.8" cy="780.3" rx="2.7" ry="25.6"/>
					<ellipse transform="matrix(0.9438 0.3305 -0.3305 0.9438 319.9296 -311.2744)" cx="1075.2" cy="785.1" rx="2.7" ry="25.6"/>
					<ellipse transform="matrix(0.9843 0.1766 -0.1766 0.9843 156.0887 -178.8453)" cx="1082.7" cy="787.4" rx="2.7" ry="25.6"/>
				</g>
				<g>
					<ellipse transform="matrix(-0.8727 0.4883 -0.4883 -0.8727 2665.9817 865.4738)" cx="1220.2" cy="780.3" rx="2.7" ry="25.6"/>
					<ellipse transform="matrix(-0.9438 0.3305 -0.3305 -0.9438 2616.7971 1125.1782)" cx="1212.7" cy="785.1" rx="2.7" ry="25.6"/>
					<ellipse transform="matrix(-0.9843 0.1766 -0.1766 -0.9843 2530.717 1349.4685)" cx="1205.3" cy="787.4" rx="2.7" ry="25.6"/>
				</g>
				<g>
					<path fill="#E9C226" d="M1214.7,755.6c-0.1-12.4-6.1-27.6-17.8-34.8c-6.1-3.8-12.7-5.6-19-6.5c-2.3-6.2-4-9.7-4-9.7h-29.6
						h-29.6c0,0-1.7,3.5-4,9.7c-6.3,0.9-12.8,2.8-18.9,6.5c-11.7,7.2-17.7,22.4-17.8,34.8c0,0,11.8,0,21.8,8.5
						c1.6-5.6,3-12.8,6.2-20.9c-5.3,22.8-8.7,53-1.2,82.5h30.3v-32.2h13.2h13.2v32.2h30.3c7.6-29.8,4.1-60.2-1.3-83.1
						c3.3,8.3,4.8,15.8,6.4,21.5C1202.9,755.5,1214.7,755.6,1214.7,755.6z"/>
					<path d="M1189.8,828.1h-34.7V796h-21.5v32.2h-34.7l-0.5-1.9c-5.3-20.6-5.2-41.5-3.1-59.4l-1.1-0.9c-9.1-7.8-20.1-7.9-20.2-7.9
						l-2.5,0l0-2.5c0.1-12.6,6.1-28.9,19-36.9c5.3-3.2,11.4-5.5,18.4-6.6c2-5.3,3.5-8.4,3.5-8.5l0.7-1.4h62.5l0.7,1.4
						c0.1,0.1,1.5,3.2,3.5,8.5c7,1.2,13.2,3.4,18.5,6.7c12.9,8,18.9,24.3,19,36.9l0,2.5l-2.5,0c-0.1,0-11.1,0.1-20.2,7.9l-1.2,1
						c2.1,17.9,2.2,38.7-3.1,59.3L1189.8,828.1z M1160.1,823.1h25.8c7.1-29.6,3-59.8-1.8-80l4.8-1.5c2.5,6.3,4,12.2,5.3,17
						c0.1,0.4,0.2,0.7,0.3,1.1c6.9-4.7,14-6.1,17.8-6.5c-0.8-10.6-6.1-23.9-16.5-30.3c-5.1-3.1-11.1-5.2-18-6.2l-1.5-0.2l-0.5-1.4
						c-1.4-3.7-2.6-6.5-3.2-8.1h-56c-0.7,1.6-1.8,4.3-3.2,8.1l-0.5,1.4l-1.5,0.2c-6.8,1-12.9,3.1-17.9,6.2
						c-10.5,6.4-15.7,19.7-16.5,30.3c3.7,0.4,10.9,1.8,17.8,6.5c0.1-0.4,0.2-0.7,0.3-1.1c1.2-4.9,2.7-10.4,5-16.4l4.8,1.5
						c-4.7,20.1-8.7,50-1.7,79.4h25.8V791h31.5V823.1z"/>
				</g>
				<g>
					<path fill="#EBB787" d="M1085.9,725.5c-7.8,8-11.8,19.9-11.9,30c0,0,11.8,0,21.8,8.5c1.2-4.3,2.4-9.7,4.3-15.6l0,0
						L1085.9,725.5z"/>
					<path d="M1097.2,768.5l-3-2.5c-9.1-7.8-20.1-7.9-20.2-7.9l-2.5,0l0-2.5c0.1-11.8,5-23.9,12.6-31.7l2.2-2.3l16.4,26.4l-0.3,1.3
						c-1.2,3.8-2.2,7.5-3,10.7c-0.4,1.7-0.8,3.3-1.3,4.8L1097.2,768.5z M1076.6,753.2c3.7,0.4,10.9,1.8,17.8,6.5
						c0.1-0.4,0.2-0.7,0.3-1.1c0.8-3,1.6-6.4,2.8-10l-11.8-19C1080.5,736,1077.2,744.6,1076.6,753.2z"/>
				</g>
				<g>
					<path fill="#EBB787" d="M1202.8,725.5c7.8,8,11.8,19.9,11.9,30c0,0-11.8,0-21.8,8.5c-1.2-4.3-2.4-9.7-4.3-15.6l0,0
						L1202.8,725.5z"/>
					<path d="M1191.6,768.5l-1.1-3.8c-0.4-1.5-0.8-3.1-1.3-4.8c-0.8-3.2-1.8-6.9-3-10.7l-0.1-0.3l-0.2-1l0.5-0.9l15.9-25.6l2.2,2.3
						c7.7,7.8,12.5,20,12.6,31.7l0,2.5l-2.5,0c-0.1,0-11.1,0.1-20.2,7.9L1191.6,768.5z M1191.3,748.7c1.1,3.6,2,7,2.8,10
						c0.1,0.4,0.2,0.7,0.3,1.1c6.9-4.7,14-6.1,17.8-6.5c-0.6-8.6-3.9-17.2-9-23.5L1191.3,748.7z"/>
				</g>
				<g>
					<path fill="#EBB787" d="M1171.1,571.6c-7.1-0.5-14.6-1-22.3-1.2c-21.1-0.6-43.5,0.5-62,7.2c-15.7,5.6-28.2,17-28.2,34.6
						c0,0,0,4.7,0,11.5v35.7v27.3c0,17.7,14.3,32,32,32h106.2c17.7,0,32-14.3,32-32v-27.3v-35.7c0-6.8,0-11.5,0-11.5
						C1228.8,581.4,1196.1,573.5,1171.1,571.6z"/>
					<path d="M1196.8,721.2h-106.2c-19,0-34.5-15.5-34.5-34.5v-74.5c0-16.7,10.9-30.2,29.8-37c14-5,31.4-7.4,53.3-7.4
						c3.1,0,6.4,0,9.7,0.1c6.7,0.2,13.9,0.6,22.4,1.2c39.2,2.9,60,17.8,60,43.1v74.5C1231.3,705.7,1215.8,721.2,1196.8,721.2z
						 M1139.2,572.8c-21.2,0-38.1,2.3-51.6,7.2c-9.9,3.5-26.5,12.4-26.5,32.3v74.5c0,16.3,13.2,29.5,29.5,29.5h106.2
						c16.3,0,29.5-13.2,29.5-29.5v-74.5c0-22.5-18.6-35.3-55.3-38.1c-8.5-0.6-15.6-1-22.2-1.2
						C1145.4,572.8,1142.2,572.8,1139.2,572.8z"/>
					<path fill="#D69576" d="M1226.3,680.7v-68.5c0-22.5-18.6-35.3-55.3-38.1c-8.5-0.6-15.6-1-22.2-1.2c-3.3-0.1-6.5-0.1-9.5-0.1
						c-21.2,0-38.1,2.3-51.6,7.2c-9.9,3.5-26.5,12.4-26.5,32.3v67c7.5,5.7,16.3,9,25.7,9h48c0.2,0,0.4,0,0.6-0.1h18.7
						c0.2,0,0.4,0.1,0.6,0.1h48C1211.2,688.2,1219.3,685.5,1226.3,680.7z"/>
				</g>
				<g>
					<path fill="#E9C226" d="M1171.1,563.4c-7.1-0.5-14.6-1-22.3-1.2c-21.1-0.6-43.5,0.5-62,7.2c-15.7,5.6-28.2,17-28.2,34.6
						c0,0,0,4.7,0,11.5v42.3l45.9,19.7h78.3l45.9-19.7v-42.3c0-6.8,0-11.5,0-11.5C1228.8,573.1,1196.1,565.3,1171.1,563.4z"/>
					<path d="M1183.3,679.9H1104l-0.5-0.2l-47.5-20.3V604c0-16.7,10.9-30.2,29.8-37c14-5,31.4-7.4,53.3-7.4c3.1,0,6.4,0,9.7,0.1
						c6.7,0.2,13.8,0.6,22.4,1.2c39.2,2.9,60,17.8,60,43.1v55.4L1183.3,679.9z M1105,674.9h77.2l44-18.8V604
						c0-22.5-18.6-35.3-55.3-38.1c-8.5-0.6-15.6-1-22.2-1.2c-3.3-0.1-6.5-0.1-9.5-0.1c-21.2,0-38.1,2.3-51.6,7.2
						c-9.9,3.5-26.5,12.4-26.5,32.3v52.1L1105,674.9z"/>
				</g>
				<path d="M1162.4,687.3c0,0-1.7,2.3-4.7,5.2c-1.5,1.4-3.4,3-5.6,4.5c-0.5,0.4-1.1,0.8-1.7,1.1c-0.6,0.4-1.2,0.7-1.9,1
					c-0.3,0.2-0.7,0.3-1,0.5c-0.4,0.2-0.7,0.3-1.1,0.4l-1.2,0.4c-0.5,0.1-1,0.2-1.6,0.2l-0.3,0l0,0l-0.1,0l-0.1,0l-0.3,0
					c-0.2,0-0.3,0-0.5-0.1c-0.5-0.1-1-0.3-1.5-0.4c-0.5-0.2-0.7-0.3-1.1-0.5c-0.4-0.2-0.7-0.3-1-0.5c-0.7-0.3-1.3-0.7-1.9-1
					c-0.6-0.4-1.2-0.7-1.7-1.1c-2.2-1.5-4.1-3.1-5.6-4.5c-3.1-2.8-4.7-5.2-4.7-5.2s0.7,0.2,1.8,0.7c1.1,0.5,2.7,1.2,4.6,2.1
					c1.8,0.9,3.9,1.9,6.2,3.1c1.1,0.6,2.3,1.1,3.4,1.6c0.3,0.1,0.6,0.2,0.8,0.3c0.3,0.1,0.6,0.2,0.8,0.3c0.2,0,0.3,0.1,0.5,0.2
					c0.1,0,0.3,0,0.5,0.1l0.3,0l0.1,0l0.1,0l0,0l0,0c-0.1,0,0.3,0-0.3,0c0.2,0,0.3,0,0.5-0.1l0.7-0.2c0.5-0.2,1.1-0.4,1.6-0.6
					c1.1-0.5,2.3-1,3.4-1.6c2.3-1.1,4.4-2.2,6.2-3.1c1.8-0.9,3.4-1.6,4.6-2.1C1161.8,687.6,1162.4,687.3,1162.4,687.3z"/>
				<g>
					<path fill="#538ECB" d="M1104.7,616.9c-2.6-0.6-5.1-1-7.4-1.3c-17.5-2.3-38.7-8.4-51.3-24.7c-1.4-1.8-5.2-6.3-5.2-9
						c0,0,0,39.1,0,39.1c0,31.2,20.6,56.5,46,56.5c0,0,48,0,48,0c0-13.6,3.1-32.8-4-44.5C1124.8,623.2,1114.1,619.1,1104.7,616.9z"
						/>
					<path d="M1134.8,680h-48c-26.7,0-48.5-26.5-48.5-59v-39.1c0-1.4,1.1-2.5,2.5-2.5s2.5,1.1,2.5,2.5c0,1,1.4,3.3,4.1,6.7l0.5,0.7
						c9.8,12.7,26.5,20.7,49.6,23.8c2.6,0.3,5.2,0.8,7.6,1.4c13.5,3.1,22.5,8.8,27.6,17.3c5.9,9.7,5.2,23.7,4.7,36.1
						c-0.2,3.5-0.3,6.7-0.3,9.7C1137.3,678.9,1136.2,680,1134.8,680z M1043.3,591.4V621c0,29.8,19.5,54,43.5,54h45.5
						c0.1-2.4,0.2-4.8,0.3-7.4c0.5-11.6,1.1-24.8-3.9-33.2c-4.5-7.4-12.3-12.2-24.5-15c-2.3-0.5-4.7-1-7.2-1.3
						c-24.5-3.3-42.3-11.9-52.9-25.7l-0.5-0.7C1043.5,591.6,1043.4,591.5,1043.3,591.4z"/>
				</g>
				<g>
					<path fill="#538ECB" d="M1184.7,616.9c2.6-0.6,5.1-1,7.4-1.3c17.5-2.3,38.7-8.4,51.3-24.7c1.4-1.8,5.2-6.3,5.2-9
						c0,0,0,39.1,0,39.1c0,31.2-20.6,56.5-46,56.5c0,0-48,0-48,0c0-13.6-3.1-32.8,4-44.5C1164.6,623.2,1175.3,619.1,1184.7,616.9z"
						/>
					<path d="M1202.6,680h-48c-1.4,0-2.5-1.1-2.5-2.5c0-3-0.2-6.2-0.3-9.7c-0.6-12.4-1.2-26.4,4.7-36.1c5.1-8.5,14.2-14.2,27.6-17.3
						c2.5-0.6,5-1,7.6-1.4c23.2-3.1,39.9-11.1,49.6-23.8l0.5-0.7c2.7-3.5,4.1-5.8,4.1-6.7c0-1.4,1.1-2.5,2.5-2.5s2.5,1.1,2.5,2.5
						V621C1251.1,653.5,1229.4,680,1202.6,680z M1157.1,675h45.5c24,0,43.5-24.2,43.5-54v-29.6c-0.1,0.1-0.1,0.2-0.2,0.3l-0.5,0.7
						c-10.6,13.8-28.4,22.4-52.9,25.7c-2.5,0.3-4.9,0.8-7.2,1.3c-12.2,2.9-20,7.6-24.5,15c-5.1,8.4-4.5,21.6-3.9,33.2
						C1157,670.2,1157.1,672.7,1157.1,675z"/>
				</g>
				<g>
					<path fill="#538ECB" d="M1067.9,763.7c-1.2,9.6,6.9,17.7,16.5,16.5c6.5-0.8,11.8-6.1,12.7-12.7c1.2-9.6-6.9-17.7-16.5-16.5
						C1074,751.9,1068.7,757.1,1067.9,763.7z"/>
					<path d="M1082.5,782.8L1082.5,782.8c-4.9,0-9.6-2.1-12.9-5.8c-3.3-3.7-4.8-8.6-4.2-13.6c1-7.6,7.2-13.9,14.8-14.8
						c5.7-0.7,11.4,1.4,15.1,5.7c3.3,3.7,4.8,8.6,4.2,13.6c-1,7.6-7.2,13.9-14.8,14.8C1084,782.7,1083.2,782.8,1082.5,782.8z
						 M1082.5,753.4c-0.5,0-1.1,0-1.6,0.1c-5.4,0.7-9.8,5.1-10.5,10.5c-0.4,3.6,0.6,7,2.9,9.7c2.3,2.6,5.6,4.1,9.1,4.1l0,0
						c0.5,0,1.1,0,1.6-0.1c5.4-0.7,9.8-5.1,10.5-10.5c0.4-3.6-0.6-7-2.9-9.7C1089.3,754.9,1086,753.4,1082.5,753.4z"/>
				</g>
				<g>
					<path fill="#538ECB" d="M1190.6,763.3c-1.2,9.6,6.9,17.7,16.5,16.5c6.5-0.8,11.8-6.1,12.7-12.7c1.2-9.6-6.9-17.7-16.5-16.5
						C1196.7,751.5,1191.5,756.8,1190.6,763.3z"/>
					<path d="M1205.2,782.4L1205.2,782.4c-4.9,0-9.6-2.1-12.9-5.8c-3.3-3.7-4.8-8.6-4.2-13.6c1-7.6,7.2-13.9,14.8-14.8
						c5.7-0.7,11.4,1.4,15.1,5.7c3.3,3.7,4.8,8.6,4.2,13.6c-1,7.6-7.2,13.9-14.8,14.8C1206.7,782.4,1205.9,782.4,1205.2,782.4z
						 M1205.2,753c-0.5,0-1.1,0-1.6,0.1c-5.4,0.7-9.8,5.1-10.5,10.5c-0.4,3.6,0.6,7,2.9,9.7c2.3,2.6,5.6,4.1,9.1,4.1l0,0
						c0.5,0,1.1,0,1.6-0.1c5.4-0.7,9.8-5.1,10.5-10.5c0.4-3.6-0.6-7-2.9-9.7C1212,754.5,1208.7,753,1205.2,753z"/>
				</g>
				<g>
					<circle cx="1106.2" cy="653.6" r="12.5"/>
					<circle cx="1181.2" cy="653.6" r="12.5"/>
					<circle fill="#FFFFFF" cx="1102.8" cy="649.8" r="3.4"/>
					<circle fill="#FFFFFF" cx="1178.3" cy="649.8" r="3.4"/>
				</g>
				<g>
					<path fill="#538ECB" d="M1095.1,792.7c-0.2,5.7,0.3,11.5,1,16.5h-4.1c-4.6,0-8.2,3.7-8.2,8.2v0c0,4.6,3.7,8.2,8.2,8.2h7.4h31.4
						v-16.5V803L1095.1,792.7z"/>
					<path d="M1131,828.1h-38.9c-5.9,0-10.7-4.8-10.7-10.7c0-5.9,4.8-10.7,10.7-10.7h1.2c-0.6-5-0.8-9.7-0.7-14.1
						c0-0.8,0.4-1.5,1-1.9s1.4-0.6,2.2-0.4l35.8,10.3c1.1,0.3,1.8,1.3,1.8,2.4v22.7C1133.5,827,1132.4,828.1,1131,828.1z
						 M1092.1,811.6c-3.2,0-5.7,2.6-5.7,5.7s2.6,5.7,5.7,5.7h36.4v-18.3l-30.9-8.9c0.1,4,0.4,8.3,1,12.8c0.1,0.7-0.1,1.4-0.6,2
						c-0.5,0.5-1.2,0.9-1.9,0.9H1092.1z"/>
				</g>
				<g>
					<path fill="#538ECB" d="M1193.5,792.7c0.2,5.7-0.3,11.5-1,16.5h4.1c4.6,0,8.2,3.7,8.2,8.2v0c0,4.6-3.7,8.2-8.2,8.2h-7.4h-31.4
						v-16.5V803L1193.5,792.7z"/>
					<path d="M1196.5,828.1h-38.9c-1.4,0-2.5-1.1-2.5-2.5V803c0-1.1,0.7-2.1,1.8-2.4l35.8-10.3c0.7-0.2,1.5-0.1,2.2,0.4
						c0.6,0.5,1,1.2,1,1.9c0.1,4.4-0.1,9.1-0.7,14.1h1.2c5.9,0,10.7,4.8,10.7,10.7C1207.3,823.3,1202.4,828.1,1196.5,828.1z
						 M1160.1,823.1h36.4c3.2,0,5.7-2.6,5.7-5.7s-2.6-5.7-5.7-5.7h-4.1c-0.7,0-1.4-0.3-1.9-0.9c-0.5-0.5-0.7-1.3-0.6-2
						c0.6-4.5,1-8.8,1-12.8l-30.9,8.9V823.1z"/>
				</g>
				<g>
					<polygon fill="#538ECB" points="1102,743.2 1091.8,720.8 1074,720.8 1099.4,753.2 					"/>
					<path d="M1099.4,755.7c-0.8,0-1.5-0.3-2-1l-25.4-32.4c-0.6-0.8-0.7-1.8-0.3-2.6c0.4-0.9,1.3-1.4,2.2-1.4h17.8
						c1,0,1.9,0.6,2.3,1.5l10.2,22.4c0.2,0.5,0.3,1.1,0.1,1.7l-2.6,10c-0.2,0.9-1,1.6-1.9,1.8
						C1099.8,755.7,1099.6,755.7,1099.4,755.7z M1079.2,723.3l19.1,24.4l1.1-4.3l-9.1-20.1H1079.2z"/>
				</g>
				<g>
					<polygon fill="#538ECB" points="1186.8,743.2 1196.9,720.8 1214.7,720.8 1189.3,753.2 					"/>
					<path d="M1189.3,755.7c-0.2,0-0.3,0-0.5-0.1c-0.9-0.2-1.7-0.9-1.9-1.8l-2.6-10c-0.1-0.6-0.1-1.1,0.1-1.7l10.2-22.4
						c0.4-0.9,1.3-1.5,2.3-1.5h17.8c1,0,1.8,0.5,2.2,1.4c0.4,0.9,0.3,1.9-0.3,2.6l-25.4,32.4
						C1190.8,755.3,1190.1,755.7,1189.3,755.7z M1189.4,743.4l1.1,4.3l19.1-24.4h-11.1L1189.4,743.4z"/>
				</g>
				<g>
					<path fill="#538ECB" d="M1190.7,765.8l-46.4,1.9l-46.4-1.9c-0.5,4.2-0.9,8.6-1.2,13.1c6.5,2.1,26.4,8.8,34.3,14.6h13.2h13.2
						c8-5.8,27.9-12.5,34.3-14.6C1191.7,774.4,1191.3,770,1190.7,765.8z"/>
					<path d="M1157.6,796h-26.5c-0.5,0-1.1-0.2-1.5-0.5c-7.7-5.7-27.7-12.4-33.6-14.3c-1.1-0.3-1.8-1.4-1.7-2.5
						c0.3-4.3,0.7-8.8,1.2-13.2c0.2-1.3,1.3-2.2,2.6-2.2l46.3,1.8l46.3-1.8c1.3,0,2.4,0.9,2.6,2.2c0.6,4.5,1,8.9,1.2,13.2
						c0.1,1.1-0.6,2.2-1.7,2.5c-5.9,1.9-25.9,8.6-33.6,14.3C1158.6,795.8,1158.1,796,1157.6,796z M1131.9,791h24.9
						c7.8-5.4,24.1-11.1,32.5-13.9c-0.2-2.9-0.5-5.8-0.8-8.7l-44.1,1.8c-0.1,0-0.1,0-0.2,0l-44.1-1.8c-0.3,2.9-0.6,5.8-0.8,8.7
						C1107.8,779.8,1124.1,785.6,1131.9,791z"/>
				</g>
				<g>
					<path fill="#BE1E2D" d="M1191.5,771.8c-43.1,6.8-93.9,0-93.9,0l1.6-11.3c0,0,49.1,6.6,90.8,0L1191.5,771.8z"/>
					<path d="M1148,777.3c-27.7,0-50.5-3-50.7-3l-2.5-0.3l2.3-16.2l2.5,0.3c0.2,0,22,2.9,48.4,2.9c15.5,0,29.5-1,41.7-2.9l2.5-0.4
						l2.3,16.2l-2.4,0.4C1179,776.3,1164.3,777.3,1148,777.3z M1100.4,769.6c6.6,0.8,25.5,2.7,47.6,2.7c15,0,28.7-0.9,40.7-2.6
						l-0.9-6.3c-11.8,1.7-25.2,2.6-39.9,2.6c-21.6,0-40.1-1.9-46.6-2.6L1100.4,769.6z"/>
				</g>
				<polygon points="1107.4,718.7 1116.9,743.5 1116.9,718.7 				"/>
				<polygon points="1181.6,718.7 1172.2,743.5 1172.2,718.7 				"/>
			</g>
			<g>
				<g>
					<path fill="#939798" d="M432.2,636v20.9c0,6.6,5.4,12,12,12V624C437.6,624,432.2,629.4,432.2,636z"/>
					<path d="M446.7,671.4h-2.5c-8,0-14.5-6.5-14.5-14.5V636c0-8,6.5-14.5,14.5-14.5h2.5V671.4z M441.7,626.9c-4,1.1-7,4.8-7,9.1
						v20.9c0,4.4,3,8,7,9.1V626.9z"/>
				</g>
				<g>
					<path fill="#939798" d="M626.3,636v20.9c0,6.6-5.4,12-12,12V624C620.9,624,626.3,629.4,626.3,636z"/>
					<path d="M614.3,671.4h-2.5v-49.8h2.5c8,0,14.5,6.5,14.5,14.5v20.9C628.8,664.9,622.3,671.4,614.3,671.4z M616.8,626.9V666
						c4-1.1,7-4.8,7-9.1V636C623.8,631.6,620.9,628,616.8,626.9z"/>
				</g>
				<g>
					<path fill="#939798" d="M572.1,742.6c3.3,8.3,4.8,15.8,6.4,21.5c10-8.5,21.8-8.5,21.8-8.5c-0.1-12.4-6.1-27.6-17.8-34.8
						c-6.1-3.8-12.7-5.6-19-6.5c-2.3-6.2-4-9.7-4-9.7h-29.6h-29.6c0,0-1.7,3.5-4,9.7c-6.3,0.9-12.8,2.8-18.9,6.5
						c-11.7,7.2-17.7,22.4-17.8,34.8c0,0,11.8,0,21.8,8.5c1.6-5.6,3-12.8,6.2-20.9c-4.1,17.5-7,39.3-4.8,61.9l-16,11v9.6h19.6h7.6
						h22.7v-32.2h13.2h13.2v32.2h23.3h7h20.3V816l-16.7-11.4C579.3,782,576.2,760.1,572.1,742.6z"/>
					<path d="M596.2,828.1h-55.6V796h-21.5v32.2h-54.9v-13.5l15.9-10.9c-1.1-11.8-0.8-24.2,0.7-37l-1.1-0.9
						c-9.1-7.8-20.1-7.9-20.2-7.9l-2.5,0l0-2.5c0.1-12.6,6.1-28.9,19-36.9c5.3-3.2,11.4-5.5,18.4-6.6c2-5.3,3.5-8.4,3.5-8.5l0.7-1.4
						h62.5l0.7,1.4c0.1,0.1,1.5,3.2,3.5,8.5c7,1.2,13.2,3.4,18.5,6.7c12.9,8,18.9,24.3,19,36.9l0,2.5l-2.5,0
						c-0.1,0-11.1,0.1-20.2,7.9l-1.2,1c1.5,12.6,1.7,24.8,0.7,36.5l16.5,11.3V828.1z M545.7,823.1h45.6v-5.8l-16.8-11.5l0.1-1.5
						c1.8-19,0.2-39.6-4.9-61.2l4.8-1.5c2.5,6.3,4,12.2,5.3,17c0.1,0.4,0.2,0.7,0.3,1.1c6.9-4.7,14-6.1,17.8-6.5
						c-0.8-10.6-6.1-23.9-16.5-30.3c-5.1-3.1-11.1-5.2-18-6.2l-1.5-0.2l-0.5-1.4c-1.4-3.7-2.6-6.5-3.2-8.1h-56
						c-0.7,1.6-1.8,4.3-3.2,8.1l-0.5,1.4l-1.5,0.2c-6.8,1-12.9,3.1-17.9,6.2c-10.5,6.4-15.7,19.7-16.5,30.3
						c3.7,0.4,10.9,1.8,17.8,6.5c0.1-0.4,0.2-0.7,0.3-1.1c1.2-4.9,2.7-10.4,5-16.4l4.8,1.5c-5,21.6-6.6,42.1-4.7,61.1l0.1,1.5
						l-16.2,11v5.8h44.9V791h31.5V823.1z"/>
				</g>
				<g>
					<path fill="#EBB787" d="M556.7,571.6c-7.1-0.5-14.6-1-22.3-1.2c-21.1-0.6-43.5,0.5-62,7.2c-15.7,5.6-28.2,17-28.2,34.6
						c0,0,0,4.7,0,11.5v35.7v27.3c0,17.7,14.3,32,32,32h106.2c17.7,0,32-14.3,32-32v-27.3v-35.7c0-6.8,0-11.5,0-11.5
						C614.3,581.4,581.6,573.5,556.7,571.6z"/>
					<path d="M582.3,721.2H476.2c-19,0-34.5-15.5-34.5-34.5v-74.5c0-16.7,10.9-30.2,29.8-37c14-5,31.4-7.4,53.3-7.4
						c3.1,0,6.4,0,9.7,0.1c6.7,0.2,13.9,0.6,22.4,1.2c39.2,2.9,60,17.8,60,43.1v74.5C616.8,705.7,601.4,721.2,582.3,721.2z
						 M524.7,572.8c-21.2,0-38.1,2.3-51.6,7.2c-9.9,3.5-26.5,12.4-26.5,32.3v74.5c0,16.3,13.2,29.5,29.5,29.5h106.2
						c16.3,0,29.5-13.2,29.5-29.5v-74.5c0-22.5-18.6-35.3-55.3-38.1c-8.5-0.6-15.6-1-22.2-1.2C531,572.8,527.8,572.8,524.7,572.8z"
						/>
					<path fill="#D69576" d="M556.5,574.1c-8.5-0.6-15.6-1-22.2-1.2c-3.3-0.1-6.5-0.1-9.5-0.1c-21.2,0-38.1,2.3-51.6,7.2
						c-9.9,3.5-26.5,12.4-26.5,32.3v74.5c0,0.5,0,1,0,1.5h165.1c0-0.5,0-1,0-1.5v-74.5C611.8,589.7,593.2,576.9,556.5,574.1z"/>
				</g>
				<g>
					<path fill="#939798" d="M556.7,563.4c-7.1-0.5-14.6-1-22.3-1.2c-21.1-0.6-43.5,0.5-62,7.2c-15.7,5.6-28.2,17-28.2,34.6
						c0,0,0,4.7,0,11.5v61.9h45.9h78.3h45.9v-61.9c0-6.8,0-11.5,0-11.5C614.3,573.1,581.6,565.3,556.7,563.4z"/>
					<path d="M616.8,679.9H441.7V604c0-16.7,10.9-30.2,29.8-37c14-5,31.4-7.4,53.3-7.4c3.1,0,6.4,0,9.7,0.1
						c6.7,0.2,13.8,0.6,22.4,1.2c39.2,2.9,60,17.8,60,43.1V679.9z M446.7,674.9h165.2V604c0-22.5-18.6-35.3-55.3-38.1
						c-8.5-0.6-15.6-1-22.2-1.2c-3.3-0.1-6.5-0.1-9.5-0.1c-21.2,0-38.1,2.3-51.6,7.2c-9.9,3.5-26.5,12.4-26.5,32.3V674.9z"/>
				</g>
				<g>
					<path d="M453.5,763.7c-1.2,9.6,6.9,17.7,16.5,16.5c6.5-0.8,11.8-6.1,12.7-12.7c1.2-9.6-6.9-17.7-16.5-16.5
						C459.6,751.9,454.3,757.1,453.5,763.7z"/>
					<path d="M468.1,782.8L468.1,782.8c-4.9,0-9.6-2.1-12.9-5.8c-3.3-3.7-4.8-8.6-4.2-13.6c1-7.6,7.2-13.9,14.8-14.8
						c5.7-0.7,11.4,1.4,15.1,5.7c3.3,3.7,4.8,8.6,4.2,13.6c-1,7.6-7.2,13.9-14.8,14.8C469.5,782.7,468.8,782.8,468.1,782.8z
						 M468.1,753.4c-0.5,0-1.1,0-1.6,0.1c-5.4,0.7-9.8,5.1-10.5,10.5c-0.4,3.6,0.6,7,2.9,9.7c2.3,2.6,5.6,4.1,9.1,4.1l0,0
						c0.5,0,1.1,0,1.6-0.1c5.4-0.7,9.8-5.1,10.5-10.5c0.4-3.6-0.6-7-2.9-9.7C474.9,754.9,471.6,753.4,468.1,753.4z"/>
				</g>
				<g>
					<path d="M576.2,763.3c-1.2,9.6,6.9,17.7,16.5,16.5c6.5-0.8,11.8-6.1,12.7-12.7c1.2-9.6-6.9-17.7-16.5-16.5
						C582.3,751.5,577,756.8,576.2,763.3z"/>
					<path d="M590.8,782.4L590.8,782.4c-4.9,0-9.6-2.1-12.9-5.8c-3.3-3.7-4.8-8.6-4.2-13.6c1-7.6,7.2-13.9,14.8-14.8
						c5.7-0.7,11.4,1.4,15.1,5.7c3.3,3.7,4.8,8.6,4.2,13.6c-1,7.6-7.2,13.9-14.8,14.8C592.3,782.4,591.5,782.4,590.8,782.4z
						 M590.8,753c-0.5,0-1.1,0-1.6,0.1c-5.4,0.7-9.8,5.1-10.5,10.5c-0.4,3.6,0.6,7,2.9,9.7c2.3,2.6,5.6,4.1,9.1,4.1l0,0
						c0.5,0,1.1,0,1.6-0.1c5.4-0.7,9.8-5.1,10.5-10.5c0.4-3.6-0.6-7-2.9-9.7C597.6,754.5,594.3,753,590.8,753z"/>
				</g>
				<g>
					<path d="M591,646.4H467.5c-2.4,0-4.4,2-4.4,4.4v10.9c0,2.4,2,4.4,4.4,4.4H591c2.4,0,4.4-2,4.4-4.4v-10.9
						C595.4,648.4,593.4,646.4,591,646.4z"/>
					<path d="M591,668.6H467.5c-3.8,0-6.9-3.1-6.9-6.9v-10.9c0-3.8,3.1-6.9,6.9-6.9H591c3.8,0,6.9,3.1,6.9,6.9v10.9
						C597.9,665.5,594.8,668.6,591,668.6z M467.5,648.9c-1,0-1.9,0.8-1.9,1.9v10.9c0,1,0.8,1.9,1.9,1.9H591c1,0,1.9-0.8,1.9-1.9
						v-10.9c0-1-0.8-1.9-1.9-1.9H467.5z"/>
				</g>
				<rect x="444.2" y="632.7" width="170.7" height="5"/>
				<g>
					<path d="M576.3,765.8l-0.1-2.5l-36.9-2.8l-9.4-5l-9.4,5l-36.7,3.4l-0.3,2c-0.5,4.2-0.9,8.6-1.2,13.1
						c6.5,2.1,26.4,8.8,34.3,14.6h13.2h13.2c8-5.8,27.9-12.5,34.3-14.6C577.2,774.4,576.8,770,576.3,765.8z"/>
					<path d="M544,796h-28.1l-0.7-0.5c-7.7-5.7-27.7-12.4-33.6-14.3l-1.8-0.6l0.1-1.9c0.3-4.3,0.7-8.8,1.2-13.2l0.5-3.9l38.2-3.5
						l10.1-5.3L540,758l38.6,3l0.2,4.6c0.6,4.4,1,8.8,1.2,13.1l0.1,1.9l-1.8,0.6c-5.9,1.9-25.9,8.6-33.6,14.3L544,796z M517.5,791
						h24.9c7.8-5.4,24.1-11.1,32.5-13.9c-0.2-3.6-0.6-7.3-1.1-11l0-0.4l-35.2-2.7l-8.7-4.6l-8.7,4.6l-35.2,3.2
						c-0.5,3.7-0.8,7.3-1.1,10.9C493.4,779.8,509.7,785.6,517.5,791z"/>
				</g>
				<polygon points="521.5,745.7 485.8,745.7 478.8,719.3 483.7,718.1 489.6,740.7 520,740.7 527.5,735.6 527.5,718.7 532.5,718.7 
					532.5,738.3 				"/>
				<polygon points="574.2,745.7 538.4,745.7 527.5,738.3 527.5,718.7 532.5,718.7 532.5,735.6 540,740.7 570.4,740.7 576.3,718.1 
					581.2,719.3 				"/>
				<rect x="527.5" y="737" width="5" height="27"/>
				<path d="M582.3,708.8c-21,0-32,0-32,0l-9-10.6h-12.1h-12.1l-9,10.6c0,0-11,0-32,0s-30.7-31.4-30.7-31.4l0.7,20.6
					c6.4,21.6,32.9,20.6,32.9,20.6h50.1h50.1c0,0,26.5,0.9,32.9-20.6l0.7-20.6C613,677.4,603.3,708.8,582.3,708.8z"/>
			</g>
			<g>
				<g>
					<path fill="#FAECE1" d="M892.6,337.8c-6.1-3.8-12.7-5.7-19-6.6c-2.3-6.2-4-9.7-4-9.7H840h-29.6c0,0-1.6,3.5-3.9,9.6
						c-6.4,0.9-13.1,2.8-19.3,6.6c-20.2,12.4-23.3,48.6-8.9,53.2c14.3,4.5,11.1-12.3,20.1-33.3c-5.7,23.1-9.6,54.4-1.8,85h30.3
						v-32.2H840h13.2v32.2h30.3c7.6-29.8,4.1-60.3-1.4-83.2c8,20.1,5.5,35.9,19.3,31.5C915.9,386.4,912.8,350.3,892.6,337.8z"/>
					<path d="M885.4,445.2h-34.7V413h-21.5v32.2h-34.7l-0.5-1.9c-4.7-18.4-5.2-37-3.7-53.7c-1.8,2.9-4.2,4.6-8.1,4.6
						c-1.5,0-3.1-0.3-4.9-0.9c-5.6-1.8-9.4-7.5-10.4-15.7c-1.7-13.7,4.3-33.1,18.7-42c5.4-3.3,11.7-5.6,18.8-6.7
						c2-5.3,3.4-8.3,3.5-8.4l0.7-1.4h62.5l0.7,1.4c0.1,0.1,1.5,3.2,3.5,8.5c7,1.2,13.2,3.4,18.5,6.7c14.4,8.9,20.4,28.3,18.7,42
						c-1,8.2-4.8,13.9-10.4,15.7c-1.8,0.6-3.4,0.9-4.9,0.9c0,0,0,0,0,0c-3.6,0-5.9-1.5-7.7-4.1c1.4,16.4,0.9,34.9-3.7,53.1
						L885.4,445.2z M855.7,440.2h25.8c7.1-29.7,3-59.8-1.8-80.1l4.8-1.5c2.5,6.3,4,12.3,5.3,17.1c2.5,9.9,3.8,13.6,7.6,13.6
						c0,0,0,0,0,0c0.9,0,2.1-0.2,3.4-0.6c3.6-1.2,6.2-5.4,6.9-11.6c1.5-12.3-4.2-29.6-16.4-37.1c-5.1-3.1-11.2-5.2-18-6.2l-1.5-0.2
						l-0.5-1.4c-1.4-3.7-2.6-6.5-3.2-8.1h-56c-0.7,1.5-1.8,4.3-3.2,8l-0.5,1.4l-1.5,0.2c-7,1-13.2,3.1-18.4,6.3
						c-12.2,7.5-17.9,24.8-16.4,37.1c0.8,6.2,3.3,10.4,6.9,11.6c6.5,2.1,7.9-0.6,11-13c1.4-5.3,3.1-12,6.1-19l4.7,1.6
						c-5.1,20.7-9.5,51.6-2.3,81.9h25.8V408h31.5V440.2z"/>
				</g>
				<g>
					<path fill="#154579" d="M887,388.7c-6.6,0.7-25,2.5-47,2.7c-22-0.2-40.4-2-47-2.7c-0.2,2.3-0.4,4.6-0.5,6.9
						c0.1,0,25.6,11.9,34.3,15H840h13.2c8.7-3,34.3-14.9,34.3-15C887.4,393.2,887.2,390.9,887,388.7z"/>
					<path d="M853.7,413h-27.3l-0.4-0.1c-8.8-3-34.3-15-34.6-15.1l-1.5-0.7l0.1-1.7c0.1-2.4,0.3-4.7,0.5-7l0.2-2.5l2.5,0.3
						c6.8,0.8,25,2.5,46.8,2.7c21.8-0.2,39.9-1.9,46.7-2.7l2.5-0.3l0.2,2.5c0.2,2.2,0.4,4.6,0.5,7l0.1,1.7l-1.5,0.7
						c-0.2,0.1-25.7,12-34.6,15.1L853.7,413z M827.2,408h25.6c7.6-2.7,26.6-11.4,32.1-14c-0.1-0.9-0.1-1.7-0.2-2.6
						c-8.2,0.8-25,2.3-44.8,2.4c-19.8-0.1-36.5-1.6-44.8-2.4c-0.1,0.8-0.1,1.7-0.2,2.6C800.6,396.6,819.5,405.3,827.2,408z"/>
				</g>
				<path fill="#BE1E2D" d="M884.8,391.4c-8.2,0.8-25,2.3-44.8,2.4c-19.8-0.1-36.5-1.6-44.8-2.4c-0.1,0.8-0.1,1.7-0.2,2.6
					c5.6,2.6,24.6,11.3,32.1,14h25.6c7.6-2.7,26.6-11.4,32.1-14C884.9,393.1,884.8,392.3,884.8,391.4z"/>
				<path fill="#538ECB" d="M852.8,408c7.6-2.7,26.6-11.4,32.1-14c-0.1-0.9-0.1-1.7-0.2-2.6c-8.2,0.8-25,2.3-44.8,2.4V408H852.8z"/>
				<g>
					<path fill="#FFFFFF" d="M791.8,409.7c-0.2,5.7,0.3,11.5,1,16.5h-4.1c-4.6,0-8.2,3.7-8.2,8.2v0c0,4.6,3.7,8.2,8.2,8.2h7.4h31.4
						v-16.5V420L791.8,409.7z"/>
					<path d="M830.1,445.2h-41.4c-5.9,0-10.7-4.8-10.7-10.7c0-5.9,4.8-10.7,10.7-10.7h1.2c-0.6-5-0.8-9.7-0.7-14.1l0.1-3.2
						l40.7,11.7V445.2z M788.8,428.7c-3.2,0-5.7,2.6-5.7,5.7s2.6,5.7,5.7,5.7h36.4v-18.3l-30.9-8.9c0.1,4,0.4,8.3,1,12.8l0.4,2.8
						H788.8z"/>
				</g>
				<g>
					<path fill="#FFFFFF" d="M888.6,409.7c0.2,5.7-0.3,11.5-1,16.5h4.1c4.6,0,8.2,3.7,8.2,8.2v0c0,4.6-3.7,8.2-8.2,8.2h-7.4h-31.4
						v-16.5V420L888.6,409.7z"/>
					<path d="M891.6,445.2h-41.4v-27.1l40.7-11.7l0.1,3.2c0.1,4.4-0.1,9.1-0.7,14.1h1.2c5.9,0,10.7,4.8,10.7,10.7
						C902.3,440.4,897.5,445.2,891.6,445.2z M855.2,440.2h36.4c3.2,0,5.7-2.6,5.7-5.7s-2.6-5.7-5.7-5.7h-6.9l0.4-2.8
						c0.6-4.5,1-8.8,1-12.8l-30.9,8.9V440.2z"/>
				</g>
				<g>
					<path fill="#FFFFFF" d="M909.4,372.3c-0.2-12.3-6.2-27.3-17.8-34.5c-6.2-3.8-12.9-5.7-19.3-6.6c-0.8-2.2-1.6-4.1-2.2-5.5
						l-30.7-0.6l-30.7,0.6c-0.6,1.5-1.4,3.3-2.2,5.5c-6.4,0.9-13.1,2.8-19.3,6.6c-11.6,7.2-17.6,22.1-17.8,34.5
						c0,0,10.8,6.2,21.9,8.5c1.7-6.1,3.3-14.2,7.1-23.1c-1.7,7.1-3.3,15-4.4,23.4l45.5,5l45.5-5c-1.1-8.4-2.7-16.3-4.4-23.4
						c3.8,8.9,5.4,17,7.1,23.1C898.6,378.5,909.3,372.3,909.4,372.3z"/>
					<path d="M839.3,388.6l-0.3,0l-46.1-5l-0.1,0.2l-2.3-0.5c-11.3-2.3-22.2-8.5-22.6-8.8l-1.3-0.7l0-1.5c0.2-12.5,6.2-28.7,19-36.5
						c5.4-3.3,11.7-5.6,18.8-6.7c0.6-1.5,1.1-2.9,1.7-4.2l0.6-1.5l32.4-0.7l0.1,0l32.4,0.7l0.6,1.5c0.6,1.4,1.1,2.8,1.7,4.2
						c7.1,1.1,13.4,3.4,18.8,6.7c12.8,7.9,18.8,24,19,36.5l0,1.5l-1.3,0.7c-0.5,0.3-11.4,6.5-22.6,8.8l-2.3,0.5l-0.1-0.2
						L839.3,388.6z M796.7,378.9l42.7,4.7l42.7-4.7c-1-6.8-2.4-13.7-4-20.6l4.7-1.6c3,7,4.7,13.7,6.1,19c0.2,0.7,0.4,1.4,0.6,2.1
						c7.6-1.9,14.7-5.4,17.5-7c-0.6-10.9-5.9-24.3-16.6-30.9c-5.2-3.2-11.3-5.3-18.4-6.3l-1.5-0.2l-0.5-1.4c-0.5-1.4-1-2.7-1.5-4
						l-29.1-0.6l-29.1,0.6c-0.5,1.3-1,2.6-1.5,4l-0.5,1.4l-1.5,0.2c-7,1-13.2,3.1-18.4,6.3c-10.7,6.6-15.9,20-16.6,30.9
						c2.9,1.5,10,5,17.5,7c0.2-0.7,0.4-1.4,0.5-2.1c1.4-5.3,3.1-12,6.1-19l4.7,1.6C799,365.2,797.6,372.1,796.7,378.9z"/>
				</g>
				<path fill="#BE1E2D" d="M870.4,333.5l-0.5-1.4c-0.5-1.4-1-2.7-1.5-4l-29.1-0.6l-29.1,0.6c-0.5,1.3-1,2.6-1.5,4l-0.5,1.4
					l-1.5,0.2c-7,1-13.2,3.1-18.4,6.3c-5.4,3.3-9.4,8.4-12.2,14.1h126.2c-2.7-5.6-6.7-10.7-12.2-14.1c-5.2-3.2-11.3-5.3-18.4-6.3
					L870.4,333.5z"/>
				<g>
					<path fill="#FAECE1" d="M892.4,197H786.2c-17.7,0-32,14.3-32,32v74.7c0,17.7,14.3,32,32,32h106.2c17.7,0,32-14.3,32-32V229
						C924.4,211.3,910.1,197,892.4,197z"/>
					<path d="M892.4,338.3H786.2c-19,0-34.5-15.5-34.5-34.5V229c0-19,15.5-34.5,34.5-34.5h106.2c19,0,34.5,15.5,34.5,34.5v74.8
						C926.9,322.8,911.4,338.3,892.4,338.3z M786.2,199.5c-16.3,0-29.5,13.2-29.5,29.5v74.8c0,16.3,13.2,29.5,29.5,29.5h106.2
						c16.3,0,29.5-13.2,29.5-29.5V229c0-16.3-13.2-29.5-29.5-29.5H786.2z"/>
					<path fill="#DCD1C8" d="M921.9,229c0-16.3-13.2-29.5-29.5-29.5H786.2c-16.3,0-29.5,13.2-29.5,29.5v74.8
						c0,10.7,5.7,20.1,14.3,25.3c1.3-9.6,1.1-21.2,0.9-35c-0.1-4.4-0.1-9-0.2-13.8c0-2.5,0-4.9,0.1-7.2
						c19.9-2.9,52.4-12.4,67.5-42.7c15.1,30.4,47.6,39.8,67.5,42.7c0.1,2.3,0.1,4.7,0.1,7.2c0,4.9-0.1,9.5-0.2,13.8
						c-0.2,13.8-0.4,25.4,0.9,35c8.5-5.2,14.3-14.6,14.3-25.3V229z"/>
				</g>
				<g>
					<path fill="#FAECE1" d="M763.4,380.7c-1.2,9.6,6.9,17.7,16.5,16.5c6.5-0.8,11.8-6.1,12.7-12.7c1.2-9.6-6.9-17.7-16.5-16.5
						C769.5,368.9,764.2,374.2,763.4,380.7z"/>
					<path d="M778,399.8L778,399.8c-4.9,0-9.6-2.1-12.9-5.8c-3.3-3.7-4.8-8.6-4.2-13.6c1-7.6,7.2-13.9,14.8-14.8
						c5.7-0.7,11.4,1.4,15.1,5.7c3.3,3.7,4.8,8.6,4.2,13.6c-1,7.6-7.2,13.9-14.8,14.8C779.5,399.8,778.7,399.8,778,399.8z
						 M778,370.5c-0.5,0-1.1,0-1.6,0.1c-5.4,0.7-9.8,5.1-10.5,10.5c-0.4,3.6,0.6,7,2.9,9.7c2.3,2.6,5.6,4.1,9.1,4.1c0,0,0,0,0,0
						c0.5,0,1.1,0,1.6-0.1c5.4-0.7,9.8-5.1,10.5-10.5c0.4-3.6-0.6-7-2.9-9.7C784.8,372,781.5,370.5,778,370.5z"/>
				</g>
				<g>
					<path fill="#FAECE1" d="M886.1,380.4c-1.2,9.6,6.9,17.7,16.5,16.5c6.5-0.8,11.8-6.1,12.7-12.7c1.2-9.6-6.9-17.7-16.5-16.5
						C892.2,368.5,886.9,373.8,886.1,380.4z"/>
					<path d="M900.7,399.5L900.7,399.5c-4.9,0-9.6-2.1-12.9-5.8c-3.3-3.7-4.8-8.6-4.2-13.6c1-7.6,7.2-13.9,14.8-14.8
						c5.7-0.7,11.4,1.4,15.1,5.7c3.3,3.7,4.8,8.6,4.2,13.6c-1,7.6-7.2,13.9-14.8,14.8C902.2,399.4,901.4,399.5,900.7,399.5z
						 M900.7,370.1c-0.5,0-1.1,0-1.6,0.1c-5.4,0.7-9.8,5.1-10.5,10.5c-0.4,3.6,0.6,7,2.9,9.7c2.3,2.6,5.6,4.1,9.1,4.1c0,0,0,0,0,0
						c0.5,0,1.1,0,1.6-0.1c5.4-0.7,9.8-5.1,10.5-10.5c0.4-3.6-0.6-7-2.9-9.7C907.5,371.6,904.2,370.1,900.7,370.1z"/>
				</g>
				<g>
					<rect x="745.1" y="219.8" fill="#BE1E2D" width="9.1" height="28"/>
					<path d="M756.7,250.3h-14.1v-33h14.1V250.3z M747.6,245.3h4.1v-23h-4.1V245.3z"/>
				</g>
				<g>
					<path fill="#FCF8C6" d="M745.1,219.8c0,0-3.5-13.5-26.2-9.5c-22.7,4-25.6,38.7-15.1,62.3c10.5,23.7,9.5,57,0,67
						s38.2-4.3,41.4-91.8V219.8z"/>
					<path d="M703.5,344.9C703.5,344.9,703.5,344.9,703.5,344.9c-1.5,0-2.7-0.7-3.2-1.9c-0.6-1.5-0.1-3.2,1.7-5
						c8.4-8.8,9.9-40.9-0.5-64.3c-7.7-17.3-8.1-38.8-0.9-52.2c4-7.5,10.2-12.2,17.9-13.6c2.9-0.5,5.7-0.8,8.3-0.8
						c17.4,0,20.6,11.6,20.8,12.1l0.1,0.3v28.3c-1.4,39-11.6,62.7-19.9,75.7C718.3,338.2,707.9,344.9,703.5,344.9z M726.8,212
						c-2.3,0-4.8,0.2-7.4,0.7c-6.2,1.1-11.1,4.8-14.4,11c-6.4,11.9-5.9,32.1,1.1,47.8c9.5,21.5,10.3,51.8,2.4,65.8
						c10.3-7.2,32.1-31.5,34.2-89.7l0-27.5C742.1,218.8,739,212,726.8,212z"/>
				</g>
				<g>
					<rect x="924.4" y="219.8" fill="#538ECB" width="9.1" height="28"/>
					<path d="M933.5,250.3h-9.1c-1.4,0-2.5-1.1-2.5-2.5v-28c0-1.4,1.1-2.5,2.5-2.5h9.1c1.4,0,2.5,1.1,2.5,2.5v28
						C936,249.2,934.9,250.3,933.5,250.3z M926.9,245.3h4.1v-23h-4.1V245.3z"/>
				</g>
				<g>
					<path fill="#FCF8C6" d="M933.5,219.8c0,0,3.5-13.5,26.2-9.5c22.7,4,25.6,38.7,15.1,62.3c-10.5,23.7-9.5,57,0,67
						s-38.2-4.3-41.4-91.8V219.8z"/>
					<path d="M975.2,344.9c-4.4,0-14.8-6.6-24.2-21.4c-8.3-13-18.5-36.7-19.9-75.6l0-28.4l0.1-0.3c0.1-0.5,3.4-12.1,20.8-12.1
						c2.6,0,5.4,0.3,8.3,0.8c7.7,1.4,13.9,6.1,17.9,13.6c7.1,13.4,6.8,34.9-0.9,52.2c-10.4,23.4-8.9,55.4-0.5,64.3
						c1.8,1.8,2.3,3.5,1.7,5C977.9,344.1,976.7,344.9,975.2,344.9z M936,220.2v27.6c2.1,58.1,23.9,82.4,34.2,89.6
						c-7.9-14-7.1-44.3,2.4-65.8c7-15.8,7.4-35.9,1.1-47.8c-3.3-6.2-8.1-9.9-14.4-11c-2.6-0.5-5.1-0.7-7.4-0.7
						C939.7,212,936.6,218.7,936,220.2z"/>
				</g>
				<path d="M775.6,292.3c-0.7,0.5-1.5,1.3-0.8,2.4c-0.7-1.1-1.8-0.7-2.5-0.2c-0.7,0.5-2.5,2.5-0.2,4.5c2.3,1.9,6.4,1.2,6.4,1.2
					s2.3-3.5,1.3-6.3C778.9,290.9,776.3,291.8,775.6,292.3z"/>
				<g>
					<path fill="#E9C226" d="M886.9,388.4c-43.1,6.8-93.9,0-93.9,0l1.6-11.3c0,0,49.1,6.6,90.8,0L886.9,388.4z"/>
					<path d="M843.4,393.9c-27.7,0-50.5-3-50.7-3l-2.5-0.3l2.3-16.2l2.5,0.3c0.2,0,22,2.9,48.4,2.9c15.5,0,29.5-1,41.7-2.9l2.5-0.4
						l2.3,16.2l-2.4,0.4C874.5,392.9,859.7,393.9,843.4,393.9z M795.8,386.2c6.6,0.8,25.5,2.7,47.6,2.7c15,0,28.7-0.9,40.7-2.6
						l-0.9-6.3c-11.8,1.7-25.2,2.6-39.9,2.6c-21.6,0-40.1-1.9-46.6-2.6L795.8,386.2z"/>
				</g>
				<path fill="#BE1E2D" d="M710.4,284.2c5.1,19.5,4.5,41.7-2,53.2c7.8-5.5,22.2-20.8,29.6-53.2H710.4z"/>
				<path fill="#538ECB" d="M968.2,284.2c-5.1,19.5-4.5,41.7,2,53.2c-7.8-5.5-22.2-20.8-29.6-53.2H968.2z"/>
				<path fill="#BE1E2D" d="M845,308.5c-2.1-2.2-3.7-1.7-5.7-0.8c-1.9-0.9-3.6-1.4-5.7,0.8c-2.1,2.2,0,4.6,0,4.6l0.6,2
					c0,0.4,0,0.8,0.1,1.1c0.9,5.3,8.9,5.3,9.8,0c0.1-0.4,0.1-0.7,0.1-1.1l0.6-2C845,313.2,847.1,310.7,845,308.5z"/>
				<path d="M858.1,304.4c0,0-1.7,2.3-4.7,5.2c-1.5,1.4-3.4,3-5.6,4.5c-0.5,0.4-1.1,0.8-1.7,1.1c-0.6,0.4-1.2,0.7-1.9,1
					c-0.3,0.2-0.7,0.3-1,0.5c-0.4,0.2-0.7,0.3-1.1,0.4l-1.2,0.4c-0.5,0.1-1,0.2-1.6,0.2l-0.3,0l0,0l-0.1,0l-0.1,0l-0.3,0
					c-0.2,0-0.3,0-0.5-0.1c-0.5-0.1-1-0.3-1.5-0.4c-0.5-0.2-0.7-0.3-1.1-0.5c-0.4-0.2-0.7-0.3-1-0.5c-0.7-0.3-1.3-0.7-1.9-1
					c-0.6-0.4-1.2-0.7-1.7-1.1c-2.2-1.5-4.1-3.1-5.6-4.5c-3.1-2.8-4.7-5.2-4.7-5.2s0.7,0.2,1.8,0.7c1.1,0.5,2.7,1.2,4.6,2.1
					c1.8,0.9,3.9,1.9,6.2,3.1c1.1,0.6,2.3,1.1,3.4,1.6c0.3,0.1,0.6,0.2,0.8,0.3c0.3,0.1,0.6,0.2,0.8,0.3c0.2,0,0.3,0.1,0.5,0.2
					c0.1,0,0.3,0,0.5,0.1l0.3,0l0.1,0l0.1,0l0,0l0,0c-0.1,0,0.3,0-0.3,0c0.2,0,0.3,0,0.5-0.1l0.7-0.2c0.5-0.2,1.1-0.4,1.6-0.6
					c1.1-0.5,2.3-1,3.4-1.6c2.3-1.1,4.4-2.2,6.2-3.1c1.8-0.9,3.4-1.6,4.6-2.1C857.4,304.6,858.1,304.4,858.1,304.4z"/>
				<path fill="#BE1E2D" d="M794.8,273.5c0,0-9.6,3.6-16.4-4.9c0,0,0.2,15.3,17.4,19.8L794.8,273.5z"/>
				<path fill="#538ECB" d="M884.3,273.5c0,0,9.6,3.6,16.4-4.9c0,0-0.2,15.3-17.4,19.8L884.3,273.5z"/>
				<g>
					<circle cx="801.8" cy="283.3" r="12.5"/>
					<circle cx="876.8" cy="283.3" r="12.5"/>
					<circle fill="#FFFFFF" cx="798.5" cy="279.5" r="3.4"/>
					<circle fill="#FFFFFF" cx="874" cy="279.5" r="3.4"/>
				</g>
				<g>
					<path fill="#FCF8C6" d="M924.2,303.5c1.6-34.4,0.2-65.6,0.2-65.6c0-4.5,0-7.5,0-7.5c0-30.9-32.7-46-57.7-47.9
						c-7.1-0.5-14.6-1-22.3-1.2c-21.1-0.6-43.5,0.5-62,7.2c-15.7,5.6-28.2,24.3-28.2,41.9c0,0,0,2.9,0,7.5c0,0-1.3,31.2,0.2,65.6
						s-16.4,49.5-16.4,49.5c35.8-8.4,31.5-32,31.2-80.8c0-3.3,0-6.4,0.1-9.4c20.5-2.7,56.1-12.3,69.9-46.6
						c13.8,34.4,49.4,44,69.9,46.6c0.1,3,0.2,6.1,0.1,9.4c-0.3,48.8-4.7,72.4,31.2,80.8C940.6,353.1,922.6,338,924.2,303.5z"/>
					<path d="M728.5,357.9l8-6.7c0.2-0.1,17-14.8,15.5-47.5c-1.5-33.5-0.3-64.3-0.2-65.8v-7.4c0-18.9,13.1-38.3,29.8-44.3
						c14-5,31.4-7.4,53.3-7.4c3.1,0,6.4,0,9.7,0.1c6.7,0.2,13.9,0.6,22.4,1.2c24.1,1.8,60,16.7,60,50.4v7.5
						c0.1,3.2,1.3,32.9-0.2,65.8c-1.5,32.7,15.3,47.4,15.5,47.5l7.9,6.7l-10-2.3c-34.2-8-33.9-29.8-33.3-69.4
						c0.1-4.4,0.1-9,0.2-13.8c0-2.5,0-4.9-0.1-7.2c-19.9-2.9-52.4-12.4-67.5-42.7c-15.1,30.4-47.6,39.8-67.5,42.7
						c-0.1,2.3-0.1,4.7-0.1,7.2c0,4.9,0.1,9.5,0.2,13.8c0.6,39.6,1,61.4-33.3,69.4L728.5,357.9z M834.8,183.7
						c-21.2,0-38.1,2.3-51.6,7.2c-14.6,5.2-26.5,23-26.5,39.6l0,7.6c0,0.3-1.3,31.5,0.2,65.4c1,22.6-6,37.1-11.4,44.8
						c22.2-8.4,21.9-26.5,21.4-62.1c-0.1-4.4-0.1-9-0.2-13.9c0-3.3,0-6.5,0.1-9.5l0.1-2.1l2.1-0.3c19.6-2.5,54.5-11.8,67.9-45.1
						l2.3-5.8l2.3,5.8c13.4,33.3,48.3,42.5,67.9,45.1l2.1,0.3l0.1,2.1c0.1,3,0.2,6.2,0.1,9.5c0,4.9-0.1,9.5-0.2,13.9
						c-0.6,35.6-0.8,53.7,21.4,62.1c-5.4-7.7-12.5-22.2-11.4-44.8c1.5-32.7,0.4-62.1,0.2-65.4l0-0.1v-7.5
						c0-30.3-33.1-43.7-55.3-45.4c-8.5-0.6-15.6-1-22.2-1.2C841.1,183.7,837.9,183.7,834.8,183.7z"/>
				</g>
			</g>
			<g>
				<g>
					<path fill="#BE1E2D" d="M892.8,720.8c-6.1-3.8-12.7-5.7-19-6.6c-2.3-6.2-4-9.7-4-9.7h-29.6h-29.6c0,0-1.6,3.5-3.9,9.6
						c-6.4,0.9-13.1,2.8-19.3,6.6c-20.2,12.4-23.3,48.6-8.9,53.2c14.3,4.5,11.1-12.3,20.1-33.3c-5.7,23.1-9.6,54.4-1.8,85H827v-32.2
						h13.2h13.2v32.2h30.3c7.6-29.8,4.1-60.3-1.4-83.2c8,20.1,5.5,35.9,19.3,31.5C916.1,769.4,913,733.2,892.8,720.8z"/>
					<path d="M885.7,828.1h-34.7V796h-21.5v32.2h-34.7l-0.5-1.9c-4.7-18.4-5.2-37-3.7-53.7c-1.8,2.9-4.2,4.6-8.1,4.6
						c-1.5,0-3.1-0.3-4.9-0.9c-5.6-1.8-9.4-7.5-10.4-15.7c-1.7-13.7,4.3-33.1,18.7-42c5.4-3.3,11.7-5.6,18.8-6.7
						c2-5.3,3.4-8.3,3.5-8.4l0.7-1.4h62.5l0.7,1.4c0.1,0.1,1.5,3.2,3.5,8.5c7,1.2,13.2,3.4,18.5,6.7c14.4,8.9,20.4,28.3,18.7,42
						c-1,8.2-4.8,13.9-10.4,15.7c-1.8,0.6-3.4,0.9-4.9,0.9h0c-3.6,0-5.9-1.5-7.7-4.1c1.4,16.4,0.9,34.9-3.7,53.1L885.7,828.1z
						 M855.9,823.1h25.8c7.1-29.7,3-59.8-1.8-80.1l4.8-1.5c2.5,6.3,4,12.3,5.3,17.1c2.5,9.9,3.8,13.6,7.6,13.6l0,0
						c0.9,0,2.1-0.2,3.4-0.6c3.6-1.2,6.2-5.4,6.9-11.6c1.5-12.3-4.2-29.6-16.4-37.1c-5.1-3.1-11.2-5.2-18-6.2l-1.5-0.2l-0.5-1.4
						c-1.4-3.7-2.6-6.5-3.2-8.1h-56c-0.7,1.5-1.8,4.3-3.2,8l-0.5,1.4l-1.5,0.2c-7,1-13.2,3.1-18.4,6.3
						c-12.2,7.5-17.9,24.8-16.4,37.1c0.8,6.2,3.3,10.4,6.9,11.6c6.5,2.1,7.9-0.6,11-13c1.4-5.3,3.1-12,6.1-19l4.7,1.6
						c-5.1,20.7-9.5,51.6-2.3,81.9h25.8V791h31.5V823.1z"/>
				</g>
				<g>
					<path fill="#A81826" d="M774.6,767.7h12.8c0.5-1.3,1.1-3,1.6-5h-16.4C773.1,764.6,773.8,766.3,774.6,767.7z"/>
					<path fill="#A81826" d="M862.6,800.2h5v-8h17.9c0-1.7,0-3.3,0-5h-17.9v-19.5h16.7c-0.2-1.7-0.4-3.4-0.6-5h-16v-19.5H880
						c0,0,0-0.1,0-0.1l4.8-1.5c0.2,0.6,0.4,1.1,0.6,1.6h1.8v5.2c1.2,3.7,2.1,7.2,2.8,10.2c1,4,1.8,6.9,2.7,9.1h12.8
						c0.8-1.4,1.5-3.1,1.9-5h-15.3v-19.5h14c-0.5-1.7-1.2-3.4-1.9-5h-12.1v-14.9c-0.2-0.1-0.4-0.3-0.7-0.4c-1.4-0.8-2.8-1.6-4.3-2.3
						v17.6h-19.5v-19.5h14.6c-2.7-0.9-5.6-1.6-8.7-2l-1.5-0.2l-0.5-1.4c-0.2-0.5-0.4-1-0.5-1.4h-3.3V707h-5v6.7h-19.5V707h-5v6.7
						h-19.5V707h-5v6.7h-4.2c-0.2,0.4-0.3,0.9-0.5,1.4l-0.5,1.4l-1.5,0.2c-3.2,0.4-6.2,1.1-9.1,2h15.7v19.5h-19.5v-18.1
						c-1.8,0.7-3.4,1.6-5,2.5v15.6h-13.2c-0.7,1.6-1.4,3.3-1.9,5h15.1v19.2c0.3-1.2,0.6-2.4,1-3.8c1-4,2.2-8.7,4-13.7v-1.7h0.6
						c0.4-1.2,0.9-2.4,1.4-3.6l4.7,1.6c-0.2,0.7-0.3,1.3-0.5,2h13.2v19.5h-16.9c-0.2,1.6-0.4,3.3-0.6,5h17.5v19.5h-18.8
						c0,1.7,0,3.3,0,5h18.8v8h5v-8h5.8V791h31.5v1.2h6.7V800.2z M838.1,787.2h-19.5v-19.5h19.5V787.2z M838.1,762.7h-19.5v-19.5
						h19.5V762.7z M838.1,738.2h-19.5v-19.5h19.5V738.2z M843.1,718.7h19.5v19.5h-19.5V718.7z M843.1,743.2h19.5v19.5h-19.5V743.2z
						 M843.1,787.2v-19.5h19.5v19.5H843.1z"/>
				</g>
				<g>
					<g>
						<path fill="#154579" d="M840,780.3l-46.5-11.8c-2,17.8-1.8,37.6,3.2,57.2H827v-32.2h13.2h13.2v32.2h30.3
							c5-19.7,5.2-39.7,3.1-57.6l-0.3-0.4L840,780.3z"/>
						<path d="M885.7,828.1h-34.7V796h-21.5v32.2h-34.7l-0.5-1.9c-4.5-17.6-5.6-37.1-3.3-58.1l0.3-2.9l48.7,12.4l47.6-13l1.6,2.4
							l0.1,0.6c2.4,21.1,1.3,40.8-3.2,58.5L885.7,828.1z M855.9,823.1h25.8c3.8-16,4.8-33.6,2.9-52.4l-44.6,12.1l-44.4-11.3
							c-1.8,18.5-0.8,35.8,3,51.5h25.8V791h31.5V823.1z"/>
					</g>
				</g>
				<g>
					<path fill="#BE1E2D" d="M791.8,802.2c0.2,2.4,0.4,4.7,0.8,7h-4.1c-4.6,0-8.2,3.7-8.2,8.2v0c0,4.6,3.7,8.2,8.2,8.2h7.4h31.4
						v-16.5V803v-0.8H791.8z"/>
					<path d="M829.9,828.1h-41.4c-5.9,0-10.7-4.8-10.7-10.7c0-5.9,4.8-10.7,10.7-10.7h1.2c-0.2-1.4-0.3-2.8-0.4-4.3l-0.2-2.7h40.8
						V828.1z M788.5,811.6c-3.2,0-5.7,2.6-5.7,5.7s2.6,5.7,5.7,5.7h36.4v-18.4h-30.3c0.1,1.4,0.3,2.7,0.5,4.1l0.4,2.8H788.5z"/>
				</g>
				<g>
					<path fill="#BE1E2D" d="M888.7,802.2c-0.2,2.4-0.4,4.7-0.8,7h4.1c4.6,0,8.2,3.7,8.2,8.2v0c0,4.6-3.7,8.2-8.2,8.2h-7.4h-31.4
						v-16.5V803v-0.8H888.7z"/>
					<path d="M892,828.1h-41.4v-28.4h40.8l-0.2,2.7c-0.1,1.4-0.2,2.8-0.4,4.3h1.2c5.9,0,10.7,4.8,10.7,10.7S897.9,828.1,892,828.1z
						 M855.6,823.1H892c3.2,0,5.7-2.6,5.7-5.7c0-3.2-2.6-5.7-5.7-5.7h-6.9l0.4-2.8c0.2-1.4,0.4-2.7,0.5-4.1h-30.3V823.1z"/>
				</g>
				<g>
					<path fill="#154579" d="M815.8,764.7l-7.5-22.7l-16-10.2c-9,9.5-10,19-10,19l10.3,8.1c1.4-5.3,3-11.6,5.9-18.4
						c-1.5,6.1-2.9,12.8-3.9,19.9L815.8,764.7z"/>
					<path d="M819.5,768l-25.3-5.1l-0.1,0.3l-0.6-0.5l-1.8-0.4l0.1-0.9l-12.2-9.5l0.1-1.4c0-0.4,1.2-10.5,10.7-20.5l1.4-1.5
						l18.5,11.8L819.5,768z M797.4,758.5l14.7,3l-5.9-17.7l-13.5-8.6c-5.3,6.2-7.1,12.2-7.7,14.7l6.1,4.8c1.2-4.5,2.7-9.6,5-15
						l4.7,1.6C799.5,747,798.3,752.8,797.4,758.5z"/>
				</g>
				<g>
					<path fill="#154579" d="M864.3,764.7l7.5-22.7l16-10.2c9,9.5,10,19,10,19l-10.3,8.1c-1.4-5.3-3-11.6-5.9-18.4
						c1.5,6.1,2.9,12.8,3.9,19.9L864.3,764.7z"/>
					<path d="M860.6,768l9.1-27.6l18.5-11.8l1.4,1.5c9.5,10,10.6,20,10.7,20.5l0.1,1.4l-12.2,9.5l0.1,0.9l-1.8,0.4l-0.6,0.5
						l-0.1-0.3L860.6,768z M873.9,743.7l-5.9,17.7l14.7-3c-0.9-5.7-2.1-11.5-3.5-17.3l4.7-1.6c2.3,5.4,3.8,10.6,5,15l6.1-4.8
						c-0.6-2.6-2.4-8.5-7.7-14.7L873.9,743.7z"/>
				</g>
				<path d="M847.4,741.4c0-0.2,0.1-0.5,0.1-0.7c0-1.2-0.4-2.3-1.1-3.3l4.3-2.6l5.9,3.8l0.5-0.8l-6.4-4.1l-5,3
					c-0.5-0.5-1-0.9-1.7-1.3c0.2-0.4,0.3-0.8,0.3-1.3c0-2.1-2-3.7-4.5-3.7c-2.5,0-4.5,1.7-4.5,3.7c0,0.5,0.1,0.9,0.3,1.3
					c-0.6,0.3-1.1,0.7-1.5,1.1l-4.7-2.8l-6.4,4.1l0.5,0.8l5.9-3.8l4,2.4c-0.8,1-1.2,2.2-1.2,3.5c0,0.2,0,0.3,0,0.5l-2.8-1.7
					l-6.4,4.1l0.5,0.8l5.9-3.8l3.1,1.8c0.2,0.7,0.6,1.3,1.1,1.9l-4.6-0.2l-2.3,6.8h1.1l1.9-5.7l5,0.2c1.3,1,3.1,1.6,5.1,1.6
					c1.9,0,3.7-0.6,5-1.6l5.4-0.2l1.9,5.7h1.1l-2.3-6.8l-5,0.2c0.4-0.5,0.7-1,1-1.6l3.7-2.2l5.9,3.8l0.5-0.8l-6.4-4.1L847.4,741.4z"
					/>
				<g>
					<path fill="#BE1E2D" d="M866.8,566.5c-7.1-0.5-14.6-1-22.3-1.2c-21.1-0.6-43.5,0.5-62,7.2c-15.7,5.6-28.2,17-28.2,34.6
						c0,0,0,4.7,0,11.5v45.8l0,0v22.3c0,17.7,14.3,32,32,32h106.2c17.7,0,32-14.3,32-32v-22.3v-45.8v-6.7c0-3,0-4.8,0-4.8
						C924.4,576.2,891.7,568.4,866.8,566.5z"/>
					<path d="M892.4,721.2H786.2c-19,0-34.5-15.5-34.5-34.5v-79.6c0-16.7,10.9-30.2,29.8-37c14-5,31.4-7.4,53.3-7.4
						c3.1,0,6.4,0,9.7,0.1c6.7,0.2,13.8,0.6,22.4,1.2c39.2,2.9,60,17.8,60,43.1v79.6C926.9,705.7,911.4,721.2,892.4,721.2z
						 M834.8,567.7c-21.2,0-38.1,2.3-51.6,7.2c-9.9,3.5-26.5,12.4-26.5,32.3v79.6c0,16.3,13.2,29.5,29.5,29.5h106.2
						c16.3,0,29.5-13.2,29.5-29.5v-79.6c0-22.5-18.6-35.3-55.3-38.1c-8.5-0.6-15.6-1-22.2-1.2C841.1,567.7,837.9,567.7,834.8,567.7z
						"/>
				</g>
				<g>
					<path fill="#A81826" d="M794.3,716.2h5v-1.6h19.5v1.6h5v-1.6h19.5v1.6h5v-1.6h19.5v1.6h5v-1.6h19.5v1.6h0.1
						c1.7,0,3.3-0.1,4.9-0.4v-1.2h4.7c3.3-1.1,6.4-2.8,9-5h-13.7v-19.5h19.5v13.2c3.2-4.7,5.1-10.4,5.1-16.6v-1.6h-0.1v-19.5h0.1v-5
						h-0.1v-19.5h0.1v-5h-0.1v-19.5h0.1v-5h-0.1v-7.3c-0.5-6.7-2.7-12.4-6.7-17.2h-17.8v-11.9c-1.6-0.6-3.3-1.2-5-1.7v13.7h-19.5
						v-17.5c-1.6-0.2-3.3-0.3-5-0.5v18h-19.5V568c-1.3-0.1-2.7-0.1-3.9-0.1c-0.4,0-0.7,0-1.1,0v19.3h-19.5v-19.2
						c-1.7,0.1-3.4,0.2-5,0.3v18.9h-19.5v-16.5c-1.7,0.3-3.4,0.7-5,1v15.5h-19.5v-8.5c-1.7,0.9-3.4,2-5,3.2v5.2h-5.7
						c-1.3,1.5-2.5,3.2-3.6,5h9.2v19.5h-13.1v5h13.1v19.5h-13.1v5h13.1v19.5h-13.1v5h13.1v19.5h-13.1v1.6c0,1.2,0.1,2.3,0.2,3.4
						h12.9v19.5h-2.1c2.7,2.2,5.7,3.9,9,5h17.6V716.2z M897.3,592.1h19.5v19.5h-19.5V592.1z M897.3,616.6h19.5v19.5h-19.5V616.6z
						 M897.3,641.1h19.5v19.5h-19.5V641.1z M897.3,665.6h19.5v19.5h-19.5V665.6z M872.8,592.1h19.5v19.5h-19.5V592.1z M872.8,616.6
						h19.5v19.5h-19.5V616.6z M872.8,641.1h19.5v19.5h-19.5V641.1z M872.8,665.6h19.5v19.5h-19.5V665.6z M872.8,690.1h19.5v19.5
						h-19.5V690.1z M848.3,592.1h19.5v19.5h-19.5V592.1z M848.3,616.6h19.5v19.5h-19.5V616.6z M848.3,641.1h19.5v19.5h-19.5V641.1z
						 M848.3,665.6h19.5v19.5h-19.5V665.6z M848.3,690.1h19.5v19.5h-19.5V690.1z M823.8,592.1h19.5v19.5h-19.5V592.1z M823.8,616.6
						h19.5v19.5h-19.5V616.6z M823.8,641.1h19.5v19.5h-19.5V641.1z M823.8,665.6h19.5v19.5h-19.5V665.6z M823.8,690.1h19.5v19.5
						h-19.5V690.1z M799.3,592.1h19.5v19.5h-19.5V592.1z M799.3,616.6h19.5v19.5h-19.5V616.6z M799.3,641.1h19.5v19.5h-19.5V641.1z
						 M799.3,665.6h19.5v19.5h-19.5V665.6z M799.3,690.1h19.5v19.5h-19.5V690.1z M774.8,592.1h19.5v19.5h-19.5V592.1z M774.8,616.6
						h19.5v19.5h-19.5V616.6z M774.8,641.1h19.5v19.5h-19.5V641.1z M774.8,665.6h19.5v19.5h-19.5V665.6z M774.8,709.6v-19.5h19.5
						v19.5H774.8z"/>
				</g>
				<g>
					<path fill="#FFFFFF" d="M767.8,639.2c0,0,37.5-8.8,57.6,27.1c0,0-11.6,17.3-37.9,14.4C761.2,677.9,767.8,639.2,767.8,639.2z"/>
					<path d="M793.3,683.6c-2,0-4.1-0.1-6.1-0.3c-6.7-0.7-12.1-3.7-15.9-8.8c-9.7-12.8-6.1-34.7-5.9-35.7l0.3-1.6l1.6-0.4
						c0.2,0,4.4-1,10.8-1c12.4,0,35.3,3.8,49.6,29.4l0.7,1.3l-0.9,1.3C827,668.4,816.5,683.6,793.3,683.6z M770,641.3
						c-0.6,5.2-1.7,20.9,5.2,30.1c3,4,7.1,6.2,12.5,6.8c1.9,0.2,3.8,0.3,5.6,0.3c16.9,0,26.2-9.1,29-12.5
						c-13.1-22-33.3-25.4-44.4-25.4C774.5,640.8,771.7,641.1,770,641.3z"/>
				</g>
				<g>
					<path fill="#FFFFFF" d="M907.9,639.2c0,0-37.5-8.8-57.6,27.1c0,0,11.6,17.3,37.9,14.4C914.4,677.9,907.9,639.2,907.9,639.2z"/>
					<path d="M882.3,683.6C882.3,683.6,882.3,683.6,882.3,683.6c-23.2,0-33.7-15.2-34.1-15.9l-0.9-1.3l0.7-1.3
						c14.3-25.6,37.2-29.4,49.6-29.4c6.4,0,10.6,1,10.8,1l1.6,0.4l0.3,1.6c0.2,0.9,3.7,22.8-5.9,35.7c-3.8,5.1-9.2,8.1-15.9,8.8
						C886.4,683.5,884.3,683.6,882.3,683.6z M853.3,666.2c2.8,3.3,12,12.4,29,12.4c0,0,0,0,0,0c1.8,0,3.7-0.1,5.6-0.3
						c5.4-0.6,9.5-2.8,12.5-6.8c7-9.2,5.8-24.9,5.2-30.1c-1.7-0.3-4.5-0.6-8-0.6C886.6,640.8,866.3,644.1,853.3,666.2z"/>
				</g>
				<g>
					<path fill="#BE1E2D" d="M886.7,763.7c-1.2,9.6,6.9,17.7,16.5,16.5c6.5-0.8,11.8-6.1,12.7-12.7c1.2-9.6-6.9-17.7-16.5-16.5
						C892.8,751.9,887.5,757.1,886.7,763.7z"/>
					<path d="M901.3,782.8C901.3,782.8,901.3,782.8,901.3,782.8c-4.9,0-9.6-2.1-12.9-5.8c-3.3-3.7-4.8-8.6-4.2-13.6
						c1-7.6,7.2-13.9,14.8-14.8c5.7-0.7,11.4,1.4,15.1,5.7c3.3,3.7,4.8,8.6,4.2,13.6c-1,7.6-7.2,13.9-14.8,14.8
						C902.8,782.7,902,782.8,901.3,782.8z M901.3,753.4c-0.5,0-1.1,0-1.6,0.1c-5.4,0.7-9.8,5.1-10.5,10.5c-0.4,3.6,0.6,7,2.9,9.7
						c2.3,2.6,5.6,4.1,9.1,4.1c0,0,0,0,0,0c0.5,0,1.1,0,1.6-0.1c5.4-0.7,9.8-5.1,10.5-10.5c0.4-3.6-0.6-7-2.9-9.7
						C908.1,754.9,904.8,753.4,901.3,753.4z"/>
				</g>
				<path fill="#A81826" d="M911.6,762.7h-19.5v-5.1c-1.6,1.8-2.6,4-2.9,6.4c-0.4,3.6,0.6,7,2.9,9.7v-6h19.5v4.3
					c0.9-1.4,1.5-3.1,1.7-4.8c0.4-2.9-0.3-5.6-1.7-8V762.7z"/>
				<g>
					<path fill="#BE1E2D" d="M764.3,763.7c-1.2,9.6,6.9,17.7,16.5,16.5c6.5-0.8,11.8-6.1,12.7-12.7c1.2-9.6-6.9-17.7-16.5-16.5
						C770.4,751.9,765.1,757.1,764.3,763.7z"/>
					<path d="M778.9,782.8L778.9,782.8c-4.9,0-9.6-2.1-12.9-5.8c-3.3-3.7-4.8-8.6-4.2-13.6c1-7.6,7.2-13.9,14.8-14.8
						c5.7-0.7,11.4,1.4,15.1,5.7c3.3,3.7,4.8,8.6,4.2,13.6c-1,7.6-7.2,13.9-14.8,14.8C780.4,782.7,779.6,782.8,778.9,782.8z
						 M778.9,753.4c-0.5,0-1.1,0-1.6,0.1c-5.4,0.7-9.8,5.1-10.5,10.5c-0.4,3.6,0.6,7,2.9,9.7c2.3,2.6,5.6,4.1,9.1,4.1c0,0,0,0,0,0
						c0.5,0,1.1,0,1.6-0.1c5.4-0.7,9.8-5.1,10.5-10.5c0.4-3.6-0.6-7-2.9-9.7C785.7,754.9,782.4,753.4,778.9,753.4z"/>
				</g>
				<path fill="#A81826" d="M789.1,762.7h-19.5v-5c-1.5,1.8-2.5,3.9-2.8,6.3c-0.4,3.5,0.6,6.9,2.8,9.5v-5.8h19.5v4.5
					c1-1.5,1.6-3.2,1.8-5c0.4-2.9-0.3-5.8-1.8-8.2V762.7z"/>
			</g>
			<g>
				<g>
					<circle fill="#538ECB" cx="613.2" cy="263.5" r="15.3"/>
					<path d="M613.2,281.4c-9.8,0-17.8-8-17.8-17.8c0-9.8,8-17.8,17.8-17.8s17.8,8,17.8,17.8C631.1,273.3,623.1,281.4,613.2,281.4z
						 M613.2,250.7c-7.1,0-12.8,5.8-12.8,12.8s5.8,12.8,12.8,12.8s12.8-5.8,12.8-12.8S620.3,250.7,613.2,250.7z"/>
				</g>
				<g>
					<circle fill="#538ECB" cx="613.3" cy="243.6" r="15.3"/>
					<path d="M613.3,261.4c-9.8,0-17.8-8-17.8-17.8c0-9.8,8-17.8,17.8-17.8s17.8,8,17.8,17.8C631.1,253.4,623.1,261.4,613.3,261.4z
						 M613.3,230.7c-7.1,0-12.8,5.8-12.8,12.8s5.8,12.8,12.8,12.8s12.8-5.8,12.8-12.8S620.3,230.7,613.3,230.7z"/>
				</g>
				<g>
					<path fill="#399946" d="M574.9,337.8c-6.1-3.8-12.7-5.7-19-6.6c-2.3-6.2-4-9.7-4-9.7h-29.6h-29.6c0,0-1.7,3.5-4,9.7
						c-6.3,0.9-12.8,2.8-18.9,6.5c-20.2,12.4-23.3,48.6-8.9,53.2c13.7,4.4,11.4-11,19.1-30.8c-5.3,22.8-8.7,53-1.2,82.5H509v-32.2
						h13.2h13.2v32.2h30.3c7.6-29.8,4.1-60.3-1.4-83.2c8,20.1,5.5,35.9,19.3,31.5C598.2,386.4,595.1,350.3,574.9,337.8z"/>
					<path d="M567.7,445.2H533V413h-21.5v32.2h-34.7l-0.5-1.9c-4.6-18.2-5.1-36.6-3.7-53c-1.7,2.4-4.1,3.9-7.6,3.9
						c-1.5,0-3.1-0.3-4.9-0.9c-5.6-1.8-9.4-7.5-10.4-15.7c-1.7-13.7,4.3-33.1,18.7-42c5.3-3.3,11.4-5.5,18.4-6.7
						c2-5.3,3.5-8.4,3.5-8.5l0.7-1.4h62.5l0.7,1.4c0.1,0.1,1.5,3.2,3.5,8.5c7,1.2,13.2,3.4,18.5,6.7c14.4,8.9,20.4,28.3,18.7,42
						c-1,8.2-4.8,13.9-10.4,15.7c-1.8,0.6-3.4,0.9-4.9,0.9c0,0,0,0,0,0c-3.6,0-5.9-1.5-7.7-4.1c1.4,16.4,0.9,34.9-3.7,53.1
						L567.7,445.2z M538,440.2h25.8c7.1-29.7,3-59.8-1.8-80.1l4.8-1.5c2.5,6.3,4,12.3,5.3,17.1c2.5,9.9,3.8,13.6,7.6,13.6
						c0,0,0,0,0,0c0.9,0,2.1-0.2,3.4-0.6c3.6-1.2,6.2-5.4,6.9-11.6c1.5-12.3-4.2-29.6-16.4-37.1c-5.1-3.1-11.2-5.2-18-6.2l-1.5-0.2
						l-0.5-1.4c-1.4-3.7-2.6-6.5-3.2-8.1h-56c-0.7,1.6-1.8,4.3-3.2,8.1l-0.5,1.4l-1.5,0.2c-6.8,1-12.9,3.1-17.9,6.2
						c-12.2,7.5-17.9,24.8-16.4,37.1c0.8,6.2,3.3,10.4,6.9,11.6c6.5,2.1,7.9-0.6,11-13c1.2-4.9,2.6-10.3,5-16.4l4.8,1.5
						c-4.7,20.1-8.7,50-1.7,79.4h25.8V408H538V440.2z"/>
				</g>
				<g>
					<path fill="#F7EC95" d="M484.1,332.1c0,0-7.1,15.7-4.2,28.1c0,0-16.8,49.8,29.1,50.3h13.2v-78.4H484.1z"/>
					<path d="M524.8,413H509c-13.3-0.2-23-4.3-28.7-12.4c-10.2-14.4-4.2-36.3-2.9-40.5c-2.7-12.9,4.2-28.3,4.5-29l0.7-1.5h42.3V413z
						 M485.8,334.6c-1.6,4.1-5.6,15.7-3.4,25l0.2,0.7l-0.2,0.7c-0.1,0.2-7.6,23.1,2.1,36.8c4.8,6.7,13.1,10.2,24.7,10.3h10.7v-73.4
						H485.8z"/>
				</g>
				<path d="M522.3,372.7c-38.6,0-44.2-10.4-44.7-11.6l4.6-2c0,0,0,0-0.1-0.1c0,0.1,5.2,8.7,40.1,8.7V372.7z"/>
				<g>
					<path fill="#F7EC95" d="M560.5,332.1c0,0,7.1,15.7,4.2,28.1c0,0,16.8,49.8-29.1,50.3h-13.2v-78.4H560.5z"/>
					<path d="M535.6,413h-15.8v-83.4h42.3l0.7,1.5c0.3,0.7,7.2,16.1,4.5,29c1.3,4.2,7.3,26.1-2.9,40.5
						C558.6,408.7,549,412.9,535.6,413L535.6,413z M524.9,408h10.7c11.6-0.1,19.9-3.6,24.7-10.3c9.7-13.6,2.1-36.5,2.1-36.8
						l-0.2-0.7l0.2-0.7c2.2-9.3-1.8-20.9-3.4-25h-34V408z"/>
				</g>
				<path d="M522.3,372.7v-5c34.9,0,40-8.5,40.1-8.5l4.6,2C566.5,362.4,560.9,372.7,522.3,372.7z"/>
				<g>
					<path fill="#399946" d="M574.7,182.1H468.5c-17.7,0-32,14.3-32,32v89.7c0,17.7,14.3,32,32,32h106.2c17.7,0,32-14.3,32-32v-89.7
						C606.7,196.4,592.4,182.1,574.7,182.1z"/>
					<path d="M574.7,338.3H468.5c-19,0-34.5-15.5-34.5-34.5v-89.7c0-19,15.5-34.5,34.5-34.5h106.2c19,0,34.5,15.5,34.5,34.5v89.7
						C609.2,322.8,593.7,338.3,574.7,338.3z M468.5,184.6c-16.3,0-29.5,13.2-29.5,29.5v89.7c0,16.3,13.2,29.5,29.5,29.5h106.2
						c16.3,0,29.5-13.2,29.5-29.5v-89.7c0-16.3-13.2-29.5-29.5-29.5H468.5z"/>
				</g>
				<path d="M560.7,302.3c0,0-0.9,1-2.7,2.5c-1.8,1.5-4.5,3.5-8,5.4c-1.8,1-3.7,2-5.8,2.9c-2.1,0.9-4.4,1.7-6.9,2.4
					c-2.4,0.7-5,1.3-7.7,1.7c-2.7,0.4-5.3,0.6-8.1,0.6l-2,0l-2.1-0.1c-1.4-0.1-2.7-0.2-4-0.4c-2.6-0.4-5.2-0.9-7.7-1.6
					c-2.4-0.7-4.7-1.5-6.9-2.4c-2.1-0.9-4.1-1.9-5.8-2.9c-3.5-2-6.2-4-8-5.5c-1.8-1.5-2.7-2.5-2.7-2.5s1.2,0.7,3.2,1.7
					c2.1,1,5,2.3,8.6,3.7c1.8,0.7,3.8,1.3,5.9,1.9c2.1,0.6,4.3,1.2,6.7,1.6c2.3,0.5,4.7,0.8,7.2,1.1c1.2,0.1,2.5,0.2,3.7,0.3
					l1.9,0.1l2,0c2.4,0,5-0.1,7.4-0.4c2.5-0.3,4.9-0.7,7.2-1.1c2.3-0.5,4.6-1.1,6.7-1.7c2.1-0.6,4.1-1.3,5.9-1.9
					c3.6-1.3,6.6-2.7,8.7-3.7C559.6,303,560.7,302.3,560.7,302.3z"/>
				<g>
					<path fill="#538ECB" d="M510,429.9h-33.3c-2.8,0-5-2.3-5-5v-1.7c0-2.8,2.3-5,5-5H510c2.8,0,5,2.3,5,5v1.7
						C515,427.6,512.8,429.9,510,429.9z"/>
					<path d="M510,432.4h-33.3c-4.2,0-7.5-3.4-7.5-7.5v-1.7c0-4.2,3.4-7.5,7.5-7.5H510c4.2,0,7.5,3.4,7.5,7.5v1.7
						C517.5,429,514.2,432.4,510,432.4z M476.6,420.6c-1.4,0-2.5,1.1-2.5,2.5v1.7c0,1.4,1.1,2.5,2.5,2.5H510c1.4,0,2.5-1.1,2.5-2.5
						v-1.7c0-1.4-1.1-2.5-2.5-2.5H476.6z"/>
				</g>
				<g>
					<path fill="#538ECB" d="M472,369.9l-17.9-9.6c-2.5-1.3-3.4-4.4-2.1-6.8l0.8-1.5c1.3-2.5,4.4-3.4,6.8-2.1l17.9,9.6
						c2.5,1.3,3.4,4.4,2.1,6.8l-0.8,1.5C477.5,370.3,474.5,371.2,472,369.9z"/>
					<path d="M474.4,373c-1.2,0-2.5-0.3-3.6-0.9l-17.9-9.6c-3.7-2-5-6.5-3.1-10.2l0.8-1.5c1.3-2.5,3.9-4,6.6-4
						c1.2,0,2.5,0.3,3.5,0.9l17.9,9.6c3.7,2,5,6.5,3.1,10.2l-0.8,1.5C479.7,371.5,477.2,373,474.4,373z M457.3,351.9
						c-0.9,0-1.8,0.5-2.2,1.3l-0.8,1.5c-0.7,1.2-0.2,2.8,1,3.4l17.9,9.6c1.2,0.6,2.8,0.2,3.4-1l0.8-1.5c0.7-1.2,0.2-2.8-1-3.4
						l-17.9-9.6C458.1,352,457.7,351.9,457.3,351.9z"/>
				</g>
				<g>
					<path fill="#538ECB" d="M574.5,369.9l17.9-9.6c2.5-1.3,3.4-4.4,2.1-6.8l-0.8-1.5c-1.3-2.5-4.4-3.4-6.8-2.1l-17.9,9.6
						c-2.5,1.3-3.4,4.4-2.1,6.8l0.8,1.5C569,370.3,572,371.2,574.5,369.9z"/>
					<path d="M572.1,373C572.1,373,572.1,373,572.1,373c-2.8,0-5.3-1.5-6.6-4l-0.8-1.5c-2-3.7-0.6-8.2,3.1-10.2l17.9-9.6
						c1.1-0.6,2.3-0.9,3.6-0.9c2.8,0,5.3,1.5,6.6,4l0.8,1.5c2,3.7,0.6,8.2-3.1,10.2l-17.9,9.6C574.6,372.7,573.3,373,572.1,373z
						 M589.2,351.9c-0.4,0-0.8,0.1-1.2,0.3l-17.9,9.6c-1.2,0.7-1.7,2.2-1,3.4l0.8,1.5c0.4,0.8,1.3,1.3,2.2,1.3c0,0,0,0,0,0
						c0.4,0,0.8-0.1,1.2-0.3l17.9-9.6c1.2-0.7,1.7-2.2,1-3.4l-0.8-1.5C591,352.4,590.1,351.9,589.2,351.9z"/>
				</g>
				<g>
					<path fill="#538ECB" d="M568.3,429.9H535c-2.8,0-5-2.3-5-5v-1.7c0-2.8,2.3-5,5-5h33.3c2.8,0,5,2.3,5,5v1.7
						C573.4,427.6,571.1,429.9,568.3,429.9z"/>
					<path d="M568.3,432.4H535c-4.2,0-7.5-3.4-7.5-7.5v-1.7c0-4.2,3.4-7.5,7.5-7.5h33.3c4.2,0,7.5,3.4,7.5,7.5v1.7
						C575.9,429,572.5,432.4,568.3,432.4z M535,420.6c-1.4,0-2.5,1.1-2.5,2.5v1.7c0,1.4,1.1,2.5,2.5,2.5h33.3c1.4,0,2.5-1.1,2.5-2.5
						v-1.7c0-1.4-1.1-2.5-2.5-2.5H535z"/>
				</g>
				<g>
					<circle fill="#237433" cx="576.8" cy="205.3" r="6.3"/>
					<circle fill="#237433" cx="591.1" cy="207.8" r="3.8"/>
					<circle fill="#237433" cx="578.6" cy="193.8" r="1.8"/>
					<circle fill="#237433" cx="596.6" cy="219.6" r="1.8"/>
					<circle fill="#237433" cx="567.6" cy="193.8" r="3"/>
				</g>
				<rect x="439" y="249.5" fill="#237433" width="165.2" height="44.4"/>
				<g>
					<path fill="#538ECB" d="M605.6,247.2h-168c-4.2,0-7.7,3.4-7.7,7.7v24c0,4.2,3.4,7.7,7.7,7.7h168c4.2,0,7.7-3.4,7.7-7.7v-24
						C613.2,250.6,609.8,247.2,605.6,247.2z"/>
					<path d="M605.6,289.1h-168c-5.6,0-10.2-4.6-10.2-10.2v-24c0-5.6,4.6-10.2,10.2-10.2h168c5.6,0,10.2,4.6,10.2,10.2v24
						C615.7,284.5,611.2,289.1,605.6,289.1z M437.6,249.7c-2.9,0-5.2,2.3-5.2,5.2v24c0,2.9,2.3,5.2,5.2,5.2h168
						c2.9,0,5.2-2.3,5.2-5.2v-24c0-2.9-2.3-5.2-5.2-5.2H437.6z"/>
				</g>
				<g>
					<circle cx="484.1" cy="270.7" r="12.5"/>
					<circle cx="559.1" cy="270.7" r="12.5"/>
					<circle fill="#FFFFFF" cx="480.7" cy="266.9" r="3.4"/>
					<circle fill="#FFFFFF" cx="556.3" cy="266.9" r="3.4"/>
				</g>
			</g>
			<g>
				<g>
					<path fill="#AE8A5C" d="M285.8,381.1c10-8.5,21.8-8.5,21.8-8.5l-21.4-38.1c-4.4-2.6-10.6-2.5-15.4-3.2c-2.3-6.2-4-9.7-4-9.7
						h-29.6h-29.6c0,0-1.7,3.5-4,9.7c-4.8,0.7-11,0.6-15.4,3.2l-21.4,38.1c0,0,11.8,0,21.8,8.5c1.6-5.7,5.6-13.7,8.9-21.9l2.2,40.9
						l-6,42.7H224v-32.2h13.2h13.2v32.2h30.3l-6-42.7l2.2-40.9C280.2,367.4,284.2,375.4,285.8,381.1z"/>
					<path d="M283.7,445.2H248V413h-21.5v32.2h-35.7l6.4-45.3l-1.6-29.8c-1.9,4.4-3.7,8.5-4.6,11.7l-1.1,3.8l-3-2.5
						c-9.1-7.8-20.1-7.9-20.2-7.9l-4.3,0l2.1-3.7l21.7-38.7l0.6-0.3c3.8-2.2,8.6-2.7,12.8-3.1c0.7-0.1,1.4-0.1,2.1-0.2
						c2-5.3,3.4-8.3,3.5-8.5l0.7-1.4h62.5l0.7,1.4c0.1,0.1,1.5,3.1,3.5,8.5c0.7,0.1,1.4,0.1,2.1,0.2c4.2,0.4,9,0.9,12.8,3.1l0.6,0.3
						l23.8,42.5l-4.3,0c-0.1,0-11.1,0.1-20.2,7.9l-3,2.5l-1.1-3.8c-0.9-3.2-2.7-7.3-4.6-11.7l-1.6,29.8L283.7,445.2z M253,440.2
						h24.9l-5.7-40.1l2.8-52.5l4.2,10.6c1.2,3.1,2.6,6.1,3.8,9c1.5,3.4,3,6.8,4,9.7c6.1-4.3,12.5-5.9,16.5-6.5l-19.2-34.2
						c-2.8-1.4-6.6-1.8-10.2-2.1c-1.3-0.1-2.5-0.3-3.7-0.4l-1.5-0.2l-0.5-1.4c-1.4-3.7-2.6-6.5-3.2-8.1h-56
						c-0.7,1.6-1.8,4.3-3.2,8.1l-0.5,1.4l-1.5,0.2c-1.2,0.2-2.4,0.3-3.7,0.4c-3.6,0.4-7.4,0.7-10.2,2.1l-19.2,34.2
						c4,0.6,10.3,2.2,16.5,6.5c1.1-3,2.5-6.3,4-9.7c1.3-2.9,2.6-5.9,3.8-9l4.2-10.6l2.8,52.5l-5.7,40.1h24.9V408H253V440.2z"/>
				</g>
				<g>
					<path fill="none" d="M291,374.6c4.8-2.6,9.5-3.7,12.6-4.2l-13.1-23.4C291.5,356.5,291.3,367.2,291,374.6z"/>
					<path fill="#96784F" d="M241.6,358c0,0-6.1,17.6-4.8,40.1c0.2,3.2,0.2,6.5,0.1,9.9h5.9c0-0.2-0.1-0.4-0.1-0.7
						C240.3,394.4,240.8,367.2,241.6,358z"/>
					<path fill="#96784F" d="M272.6,408c-1.5-22.5-4.5-45.5,0.6-59.6c0,0-7.1,10.3-7.4,44.7c-0.3,25.8-1.2,41.1-1.7,47.1h8.6
						C273,437.2,273.8,426.8,272.6,408z"/>
					<path fill="#96784F" d="M200.6,368.7l0.3,5.3c0.4-4.4,1.2-8.4,2.5-11.9C203.3,362.1,202.1,364,200.6,368.7z"/>
					<path fill="#96784F" d="M201.5,405.5l-4.9,34.7h6.7c0-4.9-0.2-11-0.6-18.5C202.3,416.3,201.9,410.9,201.5,405.5z"/>
					<path fill="#96784F" d="M291,374.6c0.4-7.4,0.5-18.1-0.5-27.6l-6-10.7c-0.3-0.2-0.7-0.3-1-0.5c1,13.3,5.5,27.3,6.8,39.2
						C290.4,374.9,290.7,374.8,291,374.6z"/>
					<path fill="#96784F" d="M186.8,347.7c0,0-3.3,12.5-5.4,25.9c1.2,0.5,2.5,1.2,3.7,1.9C185.1,364.4,185.6,353.9,186.8,347.7z"/>
					<path fill="#96784F" d="M223.5,384.5c-1.2-16.8-8.1-34.7-7-48.1c0,0-2,21.2,0,37.8c2,16.6,2.5,46.2,0,58.4
						c0,0,2.8-10.9,4.9-23.2V408h0.2C223.1,399.8,224,391,223.5,384.5z"/>
					<path fill="#96784F" d="M256.8,369c0.2-7.9,4.3-22.2-1.3-27.9c0,0,2.1,9.9-2.4,17.5c-4.5,7.6,0.4,18.8,3,23.3
						c2.6,4.6,5.6,8.1,5.6,8.1S256.6,376.9,256.8,369z"/>
					<path fill="#96784F" d="M188.8,360.9c0,0,3.1-3.6,5.6-8.1c2-3.7,5.6-11.5,4.6-18.5c-2,0.2-3.9,0.4-5.7,0.9
						c0.2,1.7,0.4,3.3,0.4,4.6C193.9,347.7,188.8,360.9,188.8,360.9z"/>
					<path fill="#96784F" d="M231.1,335.6c-0.5,9.2,0,26.2,0,26.2s5.1-18.6,3.1-35.8c-0.1-0.6-0.1-1.3-0.2-1.9h-4.5
						C230.6,327.9,231.4,331.2,231.1,335.6z"/>
				</g>
				<g>
					<path fill="#AE8A5C" d="M161.2,380.7c-1.2,9.6,6.9,17.7,16.5,16.5c6.5-0.8,11.8-6.1,12.7-12.7c1.2-9.6-6.9-17.7-16.5-16.5
						C167.3,368.9,162,374.2,161.2,380.7z"/>
					<path d="M175.8,399.8C175.8,399.8,175.8,399.8,175.8,399.8c-4.9,0-9.6-2.1-12.9-5.8c-3.3-3.7-4.8-8.6-4.2-13.6
						c1-7.6,7.2-13.9,14.8-14.8c5.7-0.7,11.4,1.4,15.1,5.7c3.3,3.7,4.8,8.6,4.2,13.6c-1,7.6-7.2,13.9-14.8,14.8
						C177.2,399.8,176.5,399.8,175.8,399.8z M175.8,370.5c-0.5,0-1.1,0-1.6,0.1c-5.4,0.7-9.8,5.1-10.5,10.5c-0.4,3.6,0.6,7,2.9,9.7
						c2.3,2.6,5.6,4.1,9.1,4.1c0,0,0,0,0,0c0.5,0,1.1,0,1.6-0.1c5.4-0.7,9.8-5.1,10.5-10.5c0.4-3.6-0.6-7-2.9-9.7
						C182.6,372,179.2,370.5,175.8,370.5z"/>
				</g>
				<g>
					<path fill="#AE8A5C" d="M286.6,380.4c-1.2,9.6,6.9,17.7,16.5,16.5c6.5-0.8,11.8-6.1,12.7-12.7c1.2-9.6-6.9-17.7-16.5-16.5
						C292.7,368.5,287.4,373.8,286.6,380.4z"/>
					<path d="M301.1,399.5C301.1,399.5,301.1,399.5,301.1,399.5c-4.9,0-9.6-2.1-12.9-5.8c-3.3-3.7-4.8-8.6-4.2-13.6
						c1-7.6,7.2-13.9,14.8-14.8c5.7-0.7,11.4,1.4,15.1,5.7c3.3,3.7,4.8,8.6,4.2,13.6c-1,7.6-7.2,13.9-14.8,14.8
						C302.6,399.4,301.9,399.5,301.1,399.5z M301.1,370.1c-0.5,0-1.1,0-1.6,0.1c-5.4,0.7-9.8,5.1-10.5,10.5c-0.4,3.6,0.6,7,2.9,9.7
						c2.3,2.6,5.6,4.1,9.1,4.1c0,0,0,0,0,0c0.5,0,1.1,0,1.6-0.1c5.4-0.7,9.8-5.1,10.5-10.5c0.4-3.6-0.6-7-2.9-9.7
						C308,371.6,304.6,370.1,301.1,370.1z"/>
				</g>
				<path fill="#79613E" d="M288.2,343l-3.7-6.6c-2.8-1.4-6.6-1.8-10.2-2.1c-1.3-0.1-2.5-0.3-3.7-0.4l-1.5-0.2l-0.5-1.4
					c-1.4-3.7-2.6-6.5-3.2-8.1h-56c-0.7,1.6-1.8,4.3-3.2,8.1l-0.5,1.4l-1.5,0.2c-1.2,0.2-2.4,0.3-3.7,0.4c-3.6,0.4-7.4,0.7-10.2,2.1
					l-3.7,6.6H288.2z"/>
				<g>
					<path fill="#AE8A5C" d="M283.8,146v13.5h-8.5v-25h-56.8v60.6h-18.7v-27.6h-47.6V229v6v68.8c0,17.7,14.3,32,32,32h106.2
						c17.7,0,32-14.3,32-32v-41.7V229v-83H283.8z"/>
					<path d="M290.3,338.3H184.2c-19,0-34.5-15.5-34.5-34.5V165h52.6v27.6H216V132h61.8v25h3.5v-13.5h43.6v160.3
						C324.8,322.8,309.4,338.3,290.3,338.3z M154.7,170v133.8c0,16.3,13.2,29.5,29.5,29.5h106.2c16.3,0,29.5-13.2,29.5-29.5V148.5
						h-33.6V162h-13.5v-25H221v60.6h-23.7V170H154.7z"/>
				</g>
				<g>
					<path fill="#96784F" d="M232.3,184.8c3,17,2.3,52.7,1.3,64.7c0,0,8-23,6.3-52.5c-1.1-20,2.6-45.6,5.2-60h-12.5
						C231.5,150.7,230.2,173.4,232.3,184.8z"/>
					<path fill="#96784F" d="M166.8,208.5c1.9,29.5,5.9,59.6-0.8,78.1c0,0,9.3-13.6,9.8-58.6c0.3-29.5,1.3-48.4,1.9-58h-11.3
						C166,176.3,165.6,189,166.8,208.5z"/>
					<path fill="#96784F" d="M283.7,244.1c0,0,9.3-13.6,9.8-58.6c0.2-15,0.5-27.3,0.9-37.1h-8V162h-2c0.1,1.3,0.2,2.7,0.2,4.1
						C286.4,195.6,290.4,225.7,283.7,244.1z"/>
					<path fill="#96784F" d="M187.3,200c0,0-2.6,27.8,0,49.5c2.6,21.7,3.2,60.5,0,76.5c0,0,10.7-41,9.1-63S185.8,217.5,187.3,200z"
						/>
					<path fill="#96784F" d="M305.3,186.5c2.6,21.7,3.2,60.5,0,76.5c0,0,10.7-41,9.1-63c-1.3-17.5-7.2-35.9-8.9-51.5h-1
						C304,158.6,303.7,173.6,305.3,186.5z"/>
					<path fill="#96784F" d="M266.3,151.8c0,0-10.7,41-9.1,63c1.6,22,10.6,45.5,9.1,63c0,0,2.6-27.8,0-49.5
						C263.7,206.6,263.1,167.8,266.3,151.8z"/>
					<path fill="#96784F" d="M207.3,207.5c0,0,6.7,17.3,6.4,27.6s-5.6,29.1,1.7,36.6c0,0-2.7-13,3.2-23s-0.5-24.6-3.9-30.6
						C211.3,212.2,207.3,207.5,207.3,207.5z"/>
					<path fill="#96784F" d="M295.4,256.4c-3.3,6-9.7,20.6-3.9,30.6c5.9,10,3.2,23,3.2,23c7.2-7.5,2-26.2,1.7-36.6
						c-0.3-10.4,6.4-27.6,6.4-27.6S298.7,250.4,295.4,256.4z"/>
					<path fill="#96784F" d="M253.6,315.2c-1.7-18.7-7-24.3-6.3-36.3s0-34.4,0-34.4s-6.7,24.4-4,46.9c2.1,17.9-1.7,35.5-3.3,41.9
						H252C253.3,330.7,254.5,325.5,253.6,315.2z"/>
				</g>
				<g>
					<circle cx="199.8" cy="278.9" r="12.5"/>
					<circle cx="274.8" cy="278.9" r="12.5"/>
					<circle fill="#FFFFFF" cx="196.4" cy="275.1" r="3.4"/>
					<circle fill="#FFFFFF" cx="271.9" cy="275.1" r="3.4"/>
				</g>
				<path d="M256,304.4c0,0-14.2,10.8-18.8,10.8s-18.8-10.8-18.8-10.8H256z"/>
				<g>
					<path fill="#399946" d="M161.5,112.1c0,0-9.4,39.5,27,39.7C201.7,117.8,161.5,112.1,161.5,112.1z"/>
					<path d="M190.2,154.3l-1.7,0c-10.9-0.1-19-3.5-24.2-10.1c-9.8-12.5-5.4-31.8-5.2-32.7l0.5-2.2l2.3,0.3
						c0.8,0.1,20.4,3.1,28.5,16.8c4.3,7.3,4.4,16.1,0.5,26.3L190.2,154.3z M163.5,115.1c-0.8,5.2-1.8,17.8,4.7,26.1
						c4,5,10.2,7.8,18.6,8.1c2.7-7.9,2.5-14.7-0.8-20.3C180.7,119.9,168.6,116.2,163.5,115.1z"/>
				</g>
				<path d="M193.6,167.5h-5c0-19.3-14.5-33.6-14.6-33.8l3.5-3.6C178.1,130.8,193.6,146,193.6,167.5z"/>
			</g>
		</g>
	</g>
</g>
</svg>
