<?xml version="1.0" encoding="utf-8"?>
<!-- Generator: Adobe Illustrator 18.0.0, SVG Export Plug-In . SVG Version: 6.00 Build 0)  -->
<!DOCTYPE svg PUBLIC "-//W3C//DTD SVG 1.1//EN" "http://www.w3.org/Graphics/SVG/1.1/DTD/svg11.dtd" [
	<!ENTITY ns_flows "http://ns.adobe.com/Flows/1.0/">
	<!ENTITY ns_extend "http://ns.adobe.com/Extensibility/1.0/">
	<!ENTITY ns_ai "http://ns.adobe.com/AdobeIllustrator/10.0/">
	<!ENTITY ns_graphs "http://ns.adobe.com/Graphs/1.0/">
]>
<svg version="1.1" id="Layer_1" xmlns:x="&ns_extend;" xmlns:i="&ns_ai;" xmlns:graph="&ns_graphs;"
	 xmlns="http://www.w3.org/2000/svg" xmlns:xlink="http://www.w3.org/1999/xlink" xmlns:a="http://ns.adobe.com/AdobeSVGViewerExtensions/3.0/"
	 x="0px" y="0px" viewBox="0 0 1400 980" enable-background="new 0 0 1400 980" xml:space="preserve">
<g>
	<rect y="0" fill="#CFE8DF" width="1400" height="980"/>
	<g>
		<g>
			<path fill="#AEC4BE" d="M771.6,353.8c-10.4,15.1-14.3,35.3-12.3,50.5c2.4,18.5,12.3,24.7,18,26.7c3.2,1.1,6.1,1.7,9,1.7
				c2.1,0,4.6-0.3,7-1.2c0.5,5.7,1.2,11.3,2.2,16.7c2,10.6,11.3,18.3,22.1,18.3h12.2c7.7,0,14.5-3.9,18.6-9.8
				c4.1,5.9,10.9,9.8,18.6,9.8H879c10.8,0,20.1-7.7,22.1-18.2c1-5.2,1.7-10.6,2.2-16.1c1.7,0.4,3.4,0.6,5,0.6c2.9,0,5.8-0.6,9-1.7
				c5.7-2,15.5-8.2,18-26.7c2-15.5-2-36.1-12.8-51.2c13-7.9,21.6-22.2,21.6-38.1v-65.5c0-17.9-9-48.5-69.2-53
				c-8.7-0.7-16-1-22.9-1.3c-3.4-0.1-6.8-0.2-10-0.2c-23,0-41.5,2.6-56.6,8c-22.8,8.2-36.5,25.5-36.5,46.4v65.5
				C748.8,331.5,757.9,346.1,771.6,353.8z"/>
			<path fill="#AEC4BE" d="M1037.6,257.5c0.7,3.7,1.2,6.7,1.5,12.3v45.2c0,13.2,5.7,25.3,15.3,33.6c-1.3,2.9-2.2,5.9-2.6,9
				c-0.9,7,0.6,14.2,4.2,20.2c-0.4,3.5-0.5,7-0.3,10.3l0,0.2c0,0.4,0,0.7,0.1,1.1c0.1,0.8,0.2,1.7,0.3,2.5c-0.3,0.6-0.6,1.1-0.9,1.7
				c-3.5,6.3-6.6,12.3-8.6,17.1c-1.1,2.6-1.9,4.7-2.4,6.5c-2.4,8.9,3,12.7,4.7,13.6c1.5,0.9,3.3,1.3,5,1.3c0.6,0,1.2,0,1.7-0.1
				c1.5,4.1,4.9,5.7,6.3,6.2c1.1,0.4,2.2,0.6,3.4,0.6c1,0,1.9-0.1,2.7-0.3c-0.9,2.3-1.4,4.8-1.4,7.4c0,11.4,9.3,20.7,20.7,20.7h40.7
				c5.5,0,10-4.5,10-10v-22.2h1.3v8.2c0,0.7,0.1,1.3,0.2,1.9v12.1c0,5.5,4.5,10,10.1,10h40.4c11.4,0,20.7-9.3,20.7-20.7
				c0-2.6-0.5-5.1-1.4-7.4c0.8,0.2,1.7,0.3,2.6,0.3c1.2,0,2.3-0.2,3.4-0.6c1.3-0.5,4.7-2,6.3-6.2c0.6,0.1,1.1,0.1,1.7,0.1
				c1.8,0,3.5-0.5,5-1.3c1.7-1,7.1-4.8,4.7-13.6c-0.5-1.7-1.3-3.9-2.4-6.5c-2.1-4.8-5.1-10.8-8.6-17.1c-0.3-0.6-0.7-1.2-1-1.7
				c1-6.3,0.7-13.3-1-20.4c1-3,1.5-6.2,1.5-9.4l0-0.4c0-0.3,0-0.5,0-0.8c-0.1-4.3-1-8.4-2.7-12.2c9.6-8.3,15.2-20.4,15.2-33.5v-40.1
				c0.1-8.8,0.8-12.4,1.6-17c0.8-4.5,1.7-9.5,2.3-19.4c1.4-22.1-5.2-60.1-5.5-61.7c-0.5-2.8-2.1-5.2-4.5-6.7c-1.6-1-3.5-1.5-5.3-1.5
				c-0.9,0-1.8,0.1-2.7,0.4l-30.1,8.4c-1.4,0.1-2.9,0.1-4.4,0.1c-3,0-6-0.1-9.1-0.3c-3.2-0.5-6.6-0.9-10.1-1.1l-0.2,0
				c-0.6-0.1-1.2-0.2-1.8-0.2c-0.1,0-0.2,0-0.3,0c-8.4-0.6-15.4-1-22.1-1.2c-3.4-0.1-6.8-0.2-10-0.2c-8.4,0-16.3,0.4-23.5,1.1
				c-0.5,0-1,0.1-1.5,0.1l-0.1,0c-2.4,0.3-4.8,0.6-7.1,0.9c-4.1,0.4-8.2,0.6-12.2,0.6c-1.5,0-3,0-4.4-0.1l-30.1-8.4
				c-0.9-0.2-1.8-0.4-2.7-0.4c-1.9,0-3.7,0.5-5.3,1.5c-2.4,1.5-4,4-4.5,6.7c-0.3,1.6-6.9,39.6-5.5,61.7
				C1035.9,248,1036.8,253,1037.6,257.5z"/>
			<path fill="#AEC4BE" d="M614.1,184.1c-6.2-2.8-12.5-4.3-18.8-4.3c-1.2,0-2.5,0.1-3.7,0.2c-2.9,0.3-5.5,0.9-7.8,1.4
				c-1.9,0.4-3.7,0.9-4.9,0.9l-0.1,0c-2,0-4.5-0.8-7.5-1.6c-1.4-0.4-3-0.9-4.6-1.3c-8.7-2.2-17.7-3.6-26.7-4.2
				c-3.3-0.2-6.7-0.3-10-0.3c-15.7,0-30.7,2.5-44.4,7.4c-6,2.2-11.5,5-16.2,8.3c-4.9,2.7-26.2,15.8-26.2,40.6v20.4
				c-3.8,4.4-6,10.1-6,16v20.9c0,8.9,4.7,16.7,12,21v5.4c0,16.6,9.2,31.3,22.9,38.9c-4.2,6.8-7.1,14.9-8.1,23.3
				c-3,3.8-4.9,8.4-5.5,13.2c-1,7.8,1.4,15.6,6.6,21.4c5.2,5.9,12.6,9.2,20.4,9.2c0.2,0,0.4,0,0.7,0c0,2,0,4,0.1,6.1
				c-6.7,3.4-11.3,10.4-11.3,18.5c0,11.4,9.3,20.7,20.7,20.7h41.4c5.5,0,10-4.5,10-10v-21.9h0.1v21.9c0,5.5,4.5,10,10,10h41.4
				c11.4,0,20.7-9.3,20.7-20.7c0-8.1-4.6-15-11.3-18.5c0.1-2.2,0.1-4.4,0-6.5c0.1,0,0.2,0,0.3,0c1.1,0,2.3-0.1,3.5-0.2
				c12.1-1.5,22-11.4,23.5-23.5c0.9-7.5-1.2-15-6-20.8c-1.1-7.6-3.7-15-7.4-21.3c14.7-7.3,24.8-22.5,24.8-39.9v-6.8
				c6.1-4.5,9.9-11.7,9.9-19.6v-20.9c0-4.8-1.4-9.4-4-13.3C650.6,200.7,619.7,186.3,614.1,184.1z"/>
			<path fill="#AEC4BE" d="M272.1,196.4c-2.3-11.4-5.7-25.5-10.3-42c-2.3-8.2-9.6-13.8-18.2-13.8c-8.6,0-15.8,5.5-18.2,13.8
				c-4.6,16.3-8,30.3-10.3,41.6c-12.4,1.2-23.2,3.5-32.7,6.9c-22.8,8.2-36.5,25.5-36.5,46.4v65.5c0,16.9,9.4,31.7,23.4,39.2
				c-4.1,6.7-6.9,14.5-7.9,22.8c-3.1,3.9-5.1,8.5-5.7,13.4c-1,7.8,1.4,15.6,6.6,21.4c5.2,5.9,12.6,9.2,20.4,9.2c0.3,0,0.5,0,0.8,0
				c0,2,0,4,0.1,6.1c-6.7,3.4-11.3,10.4-11.3,18.5c0,11.4,9.3,20.7,20.7,20.7h41.4c5.5,0,10-4.5,10-10v-22.2h0.1v22.2
				c0,5.5,4.5,10,10,10h41.4c11.4,0,20.7-9.3,20.7-20.7c0-8.1-4.6-15-11.3-18.5c0.1-2.2,0.1-4.4,0-6.5c0,0,0.1,0,0.1,0
				c1.1,0,2.3-0.1,3.5-0.2c12.1-1.5,22-11.4,23.5-23.5c0.9-7.4-1.2-14.8-5.8-20.5c-1.1-8.2-4-16-8.1-22.7
				c13.6-7.7,22.7-22.4,22.7-38.8v-65.5C341.2,231.6,332.2,200.9,272.1,196.4z"/>
			<path fill="#AEC4BE" d="M634.3,569H459.1c-5.5,0-10,4.5-10,10v118.9c0,12.4,5,23.9,13.8,32.2c0.3,0.9,0.6,1.7,1.1,2.5l6.2,9.8
				c-4.7,9.8-6.8,21.3-5.6,31.4c1.5,12.3,7.8,21,17.3,24c1.4,0.4,2.7,0.8,4,1c-0.1,0.5-0.1,1-0.2,1.5l-0.1,3.2c-0.1,2.1,0,4.3,0,6.6
				c-6.7,3.4-11.3,10.4-11.3,18.5c0,11.4,9.3,20.7,20.7,20.7h41.5c5.5,0,10-4.5,10-10v-22.2h1.5v22.2c0,5.5,4.6,10,10.1,10h41.4
				c11.4,0,20.7-9.3,20.7-20.7c0-8.1-4.6-15-11.3-18.5c0.1-2.3,0.1-4.5,0-6.6l-0.1-3.2c0-0.5-0.1-1-0.2-1.5c1.3-0.2,2.7-0.6,4.1-1
				c9.5-3,15.8-11.8,17.3-24c1.2-10.1-0.9-21.6-5.6-31.4l6.2-9.8c0.8-1.3,1.3-2.8,1.5-4.3c7.7-8.1,12-18.9,12-30.4V579
				C644.3,573.4,639.8,569,634.3,569z"/>
			<path fill="#AEC4BE" d="M272,565.3c-8.7-0.6-16-1-22.9-1.3c-3.4-0.1-6.8-0.2-10-0.2c-23,0-41.5,2.6-56.6,8
				c-22.8,8.2-36.5,25.5-36.5,46.4v79.6c0,17,9.4,31.8,23.6,39.3c-7,11.6-9.3,25.5-8,35.8c1.5,12.3,7.8,21,17.3,24
				c1.8,0.6,3.6,1,5.3,1.2c0,3.8,0,7.6,0.2,11.4c-7.2,3.2-12.3,10.5-12.3,19c0,11.4,9.3,20.7,20.7,20.7h41.4c5.5,0,10-4.5,10-10
				v-22.2h0.8v22.2c0,5.5,4.5,10,10,10h41.4c11.4,0,20.7-9.3,20.7-20.7c0-8.5-5.1-15.8-12.4-19c0.2-3.7,0.3-7.5,0.2-11.4
				c1.6-0.2,3.2-0.6,5-1.1c9.5-3,15.8-11.8,17.3-24c1.3-10.6-1.1-24.7-8.4-36.5c13.5-7.7,22.5-22.4,22.5-38.7v-79.6
				C341.2,600.4,332.2,569.7,272,565.3z"/>
			<path fill="#AEC4BE" d="M1261.9,738.1c-0.4-5.9-3.2-11.2-7.8-14.8l-6.7-5.3c0.4-2.1,0.5-4.3,0.2-6.6c-0.7-5.7-3.5-10.7-8-14.2
				c-3.8-3-8.4-4.6-13.2-4.6c-0.2,0-0.4,0-0.6,0v-81.1c0-40.6-45.4-58.3-75.8-60.3c-9.7-0.6-17.7-1-25.4-1.2
				c-3.8-0.1-7.5-0.2-11-0.2c-25.3,0-45.6,2.6-62.2,7.9c-22.8,7.3-40,30.5-40,53.8v143c0,2.7,1.1,5.4,3.1,7.2
				c1.9,1.8,4.3,2.8,6.9,2.8c0.2,0,0.3,0,0.5,0l2.6-0.1c0.7,0,3.9-0.3,8.8-1.5c-1.8,3.1-2.9,6.4-3.3,10c-1,7.8,1.4,15.6,6.6,21.4
				c0.6,0.7,1.2,1.3,1.9,1.9v11.9c0,2.3-0.7,5-1.4,7.6c-1.5,5.5-3.7,13.7,1.8,20.9c4,5.2,9.8,6.9,15,7.5c3.7,3.2,8.5,5.1,13.6,5.1
				h41.4c3.6,0,6.8-1.9,8.5-4.8h3c1.8,2.9,4.9,4.8,8.5,4.8h41.4c5.3,0,10.2-2,14-5.5c3.8-0.7,8.9-2.5,12.4-7.1
				c5.5-7.2,3.3-15.4,1.8-20.9c-0.7-2.6-1.4-5.4-1.4-7.6v-11.3c5.3-4.4,8.8-10.6,9.7-17.5c0.2-2,0.3-3.9,0.1-5.9l4.8,3.8
				c3.6,2.9,8,4.4,12.7,4.4c6.6,0,13.1-3.2,17.3-8.5l15.5-19.7C1260.6,749.1,1262.3,743.6,1261.9,738.1z"/>
			<path fill="#AEC4BE" d="M939.8,723.9c-1.2-2.3-5.3-12.2-6.4-46.1c0-0.4,0.1-0.7,0.1-1.1v-65c0-5.8-1-11.4-2.8-16.6
				c-1.4-26.8-4-45.3-7.9-56.6c-4-11.7-10.4-17.7-19-17.7c-1.8,0-3.7,0.3-5.4,1c-7.1,2.5-24.8,17.1-39.3,29.7
				c-0.5,0-0.9-0.1-1.4-0.1c-9.7-0.6-17.7-1-25.4-1.2c-3.8-0.1-7.5-0.2-11-0.2c-10.1,0-19.5,0.4-28.2,1.3
				c-14.5-12.5-32-26.9-39.1-29.4c-1.8-0.6-3.6-1-5.4-1c-8.6,0-15,6-19,17.8c-3.9,11.4-6.5,30.1-7.9,57.2
				c-1.7,5.3-2.6,10.6-2.6,15.9l0,59.9c-0.5,30.8-3.7,47.3-6.5,52.4l-0.7,1.3c-1.8,3.2-1.6,7.1,0.3,10.2l0.8,1.2
				c1,1.5,9.2,13.5,32.3,19.2c-0.3,1.3-0.5,2.6-0.7,3.9c-3,3.8-5,8.4-5.6,13.2c-1,7.8,1.4,15.6,6.6,21.4c5.2,5.9,12.6,9.2,20.4,9.2
				c0.2,0,0.4,0,0.6,0c-0.1,2.1,0,4.2,0,6.5c-6.7,3.4-11.3,10.4-11.3,18.5c0,11.4,9.3,20.7,20.7,20.7h41.4c5.5,0,10-4.5,10-10v-22.2
				h0.1v22.2c0,5.5,4.5,10,10,10h41.4c11.4,0,20.7-9.3,20.7-20.7c0-8.1-4.6-15-11.3-18.5c0.1-2.3,0.1-4.5,0-6.6l0-0.4
				c0.2,0,0.3,0,0.5,0c1.2,0,2.3-0.1,3.5-0.2c12.1-1.5,22-11.4,23.5-23.5c1-7.6-1.3-15.3-6.3-21.1c-0.2-1-0.3-2-0.5-2.9
				c21.7-5.9,29.5-17.3,30.4-18.7l0.8-1.2c2-3.1,2.1-7,0.3-10.2L939.8,723.9z"/>
		</g>
		<g>
			<path fill="#FFFFFF" d="M767.6,348.8c-10.4,15.1-14.3,35.3-12.3,50.5c2.4,18.5,12.3,24.7,18,26.7c3.2,1.1,6.1,1.7,9,1.7
				c2.1,0,4.6-0.3,7-1.2c0.5,5.7,1.2,11.3,2.2,16.7c2,10.6,11.3,18.3,22.1,18.3h12.2c7.7,0,14.5-3.9,18.6-9.8
				c4.1,5.9,10.9,9.8,18.6,9.8H875c10.8,0,20.1-7.7,22.1-18.2c1-5.2,1.7-10.6,2.2-16.1c1.7,0.4,3.4,0.6,5,0.6c2.9,0,5.8-0.6,9-1.7
				c5.7-2,15.5-8.2,18-26.7c2-15.5-2-36.1-12.8-51.2c13-7.9,21.6-22.2,21.6-38.1v-65.5c0-17.9-9-48.5-69.2-53
				c-8.7-0.7-16-1-22.9-1.3c-3.4-0.1-6.8-0.2-10-0.2c-23,0-41.5,2.6-56.6,8c-22.8,8.2-36.5,25.5-36.5,46.4v65.5
				C744.8,326.5,753.9,341.1,767.6,348.8z"/>
			<path fill="#FFFFFF" d="M1033.6,252.5c0.7,3.7,1.2,6.7,1.5,12.3v45.2c0,13.2,5.7,25.3,15.3,33.6c-1.3,2.9-2.2,5.9-2.6,9
				c-0.9,7,0.6,14.2,4.2,20.2c-0.4,3.5-0.5,7-0.3,10.3l0,0.2c0,0.4,0,0.7,0.1,1.1c0.1,0.8,0.2,1.7,0.3,2.5c-0.3,0.6-0.6,1.1-0.9,1.7
				c-3.5,6.3-6.6,12.3-8.6,17.1c-1.1,2.6-1.9,4.7-2.4,6.5c-2.4,8.9,3,12.7,4.7,13.6c1.5,0.9,3.3,1.3,5,1.3c0.6,0,1.2,0,1.7-0.1
				c1.5,4.1,4.9,5.7,6.3,6.2c1.1,0.4,2.2,0.6,3.4,0.6c1,0,1.9-0.1,2.7-0.3c-0.9,2.3-1.4,4.8-1.4,7.4c0,11.4,9.3,20.7,20.7,20.7h40.7
				c5.5,0,10-4.5,10-10v-22.2h1.3v8.2c0,0.7,0.1,1.3,0.2,1.9v12.1c0,5.5,4.5,10,10.1,10h40.4c11.4,0,20.7-9.3,20.7-20.7
				c0-2.6-0.5-5.1-1.4-7.4c0.8,0.2,1.7,0.3,2.6,0.3c1.2,0,2.3-0.2,3.4-0.6c1.3-0.5,4.7-2,6.3-6.2c0.6,0.1,1.1,0.1,1.7,0.1
				c1.8,0,3.5-0.5,5-1.3c1.7-1,7.1-4.8,4.7-13.6c-0.5-1.7-1.3-3.9-2.4-6.5c-2.1-4.8-5.1-10.8-8.6-17.1c-0.3-0.6-0.7-1.2-1-1.7
				c1-6.3,0.7-13.3-1-20.4c1-3,1.5-6.2,1.5-9.4l0-0.4c0-0.3,0-0.5,0-0.8c-0.1-4.3-1-8.4-2.7-12.2c9.6-8.3,15.2-20.4,15.2-33.5v-40.1
				c0.1-8.8,0.8-12.4,1.6-17c0.8-4.5,1.7-9.5,2.3-19.4c1.4-22.1-5.2-60.1-5.5-61.7c-0.5-2.8-2.1-5.2-4.5-6.7c-1.6-1-3.5-1.5-5.3-1.5
				c-0.9,0-1.8,0.1-2.7,0.4l-30.1,8.4c-1.4,0.1-2.9,0.1-4.4,0.1c-3,0-6-0.1-9.1-0.3c-3.2-0.5-6.6-0.9-10.1-1.1l-0.2,0
				c-0.6-0.1-1.2-0.2-1.8-0.2c-0.1,0-0.2,0-0.3,0c-8.4-0.6-15.4-1-22.1-1.2c-3.4-0.1-6.8-0.2-10-0.2c-8.4,0-16.3,0.4-23.5,1.1
				c-0.5,0-1,0.1-1.5,0.1l-0.1,0c-2.4,0.3-4.8,0.6-7.1,0.9c-4.1,0.4-8.2,0.6-12.2,0.6c-1.5,0-3,0-4.4-0.1l-30.1-8.4
				c-0.9-0.2-1.8-0.4-2.7-0.4c-1.9,0-3.7,0.5-5.3,1.5c-2.4,1.5-4,4-4.5,6.7c-0.3,1.6-6.9,39.6-5.5,61.7
				C1031.9,243,1032.8,248,1033.6,252.5z"/>
			<path fill="#FFFFFF" d="M610.1,179.1c-6.2-2.8-12.5-4.3-18.8-4.3c-1.2,0-2.5,0.1-3.7,0.2c-2.9,0.3-5.5,0.9-7.8,1.4
				c-1.9,0.4-3.7,0.9-4.9,0.9l-0.1,0c-2,0-4.5-0.8-7.5-1.6c-1.4-0.4-3-0.9-4.6-1.3c-8.7-2.2-17.7-3.6-26.7-4.2
				c-3.3-0.2-6.7-0.3-10-0.3c-15.7,0-30.7,2.5-44.4,7.4c-6,2.2-11.5,5-16.2,8.3c-4.9,2.7-26.2,15.8-26.2,40.6v20.4
				c-3.8,4.4-6,10.1-6,16v20.9c0,8.9,4.7,16.7,12,21v5.4c0,16.6,9.2,31.3,22.9,38.9c-4.2,6.8-7.1,14.9-8.1,23.3
				c-3,3.8-4.9,8.4-5.5,13.2c-1,7.8,1.4,15.6,6.6,21.4c5.2,5.9,12.6,9.2,20.4,9.2c0.2,0,0.4,0,0.7,0c0,2,0,4,0.1,6.1
				c-6.7,3.4-11.3,10.4-11.3,18.5c0,11.4,9.3,20.7,20.7,20.7h41.4c5.5,0,10-4.5,10-10v-21.9h0.1v21.9c0,5.5,4.5,10,10,10h41.4
				c11.4,0,20.7-9.3,20.7-20.7c0-8.1-4.6-15-11.3-18.5c0.1-2.2,0.1-4.4,0-6.5c0.1,0,0.2,0,0.3,0c1.1,0,2.3-0.1,3.5-0.2
				c12.1-1.5,22-11.4,23.5-23.5c0.9-7.5-1.2-15-6-20.8c-1.1-7.6-3.7-15-7.4-21.3c14.7-7.3,24.8-22.5,24.8-39.9v-6.8
				c6.1-4.5,9.9-11.7,9.9-19.6v-20.9c0-4.8-1.4-9.4-4-13.3C646.6,195.7,615.7,181.3,610.1,179.1z"/>
			<path fill="#FFFFFF" d="M268.1,191.4c-2.3-11.4-5.7-25.5-10.3-42c-2.3-8.2-9.6-13.8-18.2-13.8c-8.6,0-15.8,5.5-18.2,13.8
				c-4.6,16.3-8,30.3-10.3,41.6c-12.4,1.2-23.2,3.5-32.7,6.9c-22.8,8.2-36.5,25.5-36.5,46.4v65.5c0,16.9,9.4,31.7,23.4,39.2
				c-4.1,6.7-6.9,14.5-7.9,22.8c-3.1,3.9-5.1,8.5-5.7,13.4c-1,7.8,1.4,15.6,6.6,21.4c5.2,5.9,12.6,9.2,20.4,9.2c0.3,0,0.5,0,0.8,0
				c0,2,0,4,0.1,6.1c-6.7,3.4-11.3,10.4-11.3,18.5c0,11.4,9.3,20.7,20.7,20.7h41.4c5.5,0,10-4.5,10-10v-22.2h0.1v22.2
				c0,5.5,4.5,10,10,10h41.4c11.4,0,20.7-9.3,20.7-20.7c0-8.1-4.6-15-11.3-18.5c0.1-2.2,0.1-4.4,0-6.5c0,0,0.1,0,0.1,0
				c1.1,0,2.3-0.1,3.5-0.2c12.1-1.5,22-11.4,23.5-23.5c0.9-7.4-1.2-14.8-5.8-20.5c-1.1-8.2-4-16-8.1-22.7
				c13.6-7.7,22.7-22.4,22.7-38.8v-65.5C337.2,226.6,328.2,195.9,268.1,191.4z"/>
			<path fill="#FFFFFF" d="M630.3,564H455.1c-5.5,0-10,4.5-10,10v118.9c0,12.4,5,23.9,13.8,32.2c0.3,0.9,0.6,1.7,1.1,2.5l6.2,9.8
				c-4.7,9.8-6.8,21.3-5.6,31.4c1.5,12.3,7.8,21,17.3,24c1.4,0.4,2.7,0.8,4,1c-0.1,0.5-0.1,1-0.2,1.5l-0.1,3.2c-0.1,2.1,0,4.3,0,6.6
				c-6.7,3.4-11.3,10.4-11.3,18.5c0,11.4,9.3,20.7,20.7,20.7h41.5c5.5,0,10-4.5,10-10v-22.2h1.5v22.2c0,5.5,4.6,10,10.1,10h41.4
				c11.4,0,20.7-9.3,20.7-20.7c0-8.1-4.6-15-11.3-18.5c0.1-2.3,0.1-4.5,0-6.6l-0.1-3.2c0-0.5-0.1-1-0.2-1.5c1.3-0.2,2.7-0.6,4.1-1
				c9.5-3,15.8-11.8,17.3-24c1.2-10.1-0.9-21.6-5.6-31.4l6.2-9.8c0.8-1.3,1.3-2.8,1.5-4.3c7.7-8.1,12-18.9,12-30.4V574
				C640.3,568.4,635.8,564,630.3,564z"/>
			<path fill="#FFFFFF" d="M268,560.3c-8.7-0.6-16-1-22.9-1.3c-3.4-0.1-6.8-0.2-10-0.2c-23,0-41.5,2.6-56.6,8
				c-22.8,8.2-36.5,25.5-36.5,46.4v79.6c0,17,9.4,31.8,23.6,39.3c-7,11.6-9.3,25.5-8,35.8c1.5,12.3,7.8,21,17.3,24
				c1.8,0.6,3.6,1,5.3,1.2c0,3.8,0,7.6,0.2,11.4c-7.2,3.2-12.3,10.5-12.3,19c0,11.4,9.3,20.7,20.7,20.7h41.4c5.5,0,10-4.5,10-10
				v-22.2h0.8v22.2c0,5.5,4.5,10,10,10h41.4c11.4,0,20.7-9.3,20.7-20.7c0-8.5-5.1-15.8-12.4-19c0.2-3.7,0.3-7.5,0.2-11.4
				c1.6-0.2,3.2-0.6,5-1.1c9.5-3,15.8-11.8,17.3-24c1.3-10.6-1.1-24.7-8.4-36.5c13.5-7.7,22.5-22.4,22.5-38.7v-79.6
				C337.2,595.4,328.2,564.7,268,560.3z"/>
			<path fill="#FFFFFF" d="M1257.9,733.1c-0.4-5.9-3.2-11.2-7.8-14.8l-6.7-5.3c0.4-2.1,0.5-4.3,0.2-6.6c-0.7-5.7-3.5-10.7-8-14.2
				c-3.8-3-8.4-4.6-13.2-4.6c-0.2,0-0.4,0-0.6,0v-81.1c0-40.6-45.4-58.3-75.8-60.3c-9.7-0.6-17.7-1-25.4-1.2
				c-3.8-0.1-7.5-0.2-11-0.2c-25.3,0-45.6,2.6-62.2,7.9c-22.8,7.3-40,30.5-40,53.8v143c0,2.7,1.1,5.4,3.1,7.2
				c1.9,1.8,4.3,2.8,6.9,2.8c0.2,0,0.3,0,0.5,0l2.6-0.1c0.7,0,3.9-0.3,8.8-1.5c-1.8,3.1-2.9,6.4-3.3,10c-1,7.8,1.4,15.6,6.6,21.4
				c0.6,0.7,1.2,1.3,1.9,1.9v11.9c0,2.3-0.7,5-1.4,7.6c-1.5,5.5-3.7,13.7,1.8,20.9c4,5.2,9.8,6.9,15,7.5c3.7,3.2,8.5,5.1,13.6,5.1
				h41.4c3.6,0,6.8-1.9,8.5-4.8h3c1.8,2.9,4.9,4.8,8.5,4.8h41.4c5.3,0,10.2-2,14-5.5c3.8-0.7,8.9-2.5,12.4-7.1
				c5.5-7.2,3.3-15.4,1.8-20.9c-0.7-2.6-1.4-5.4-1.4-7.6v-11.3c5.3-4.4,8.8-10.6,9.7-17.5c0.2-2,0.3-3.9,0.1-5.9l4.8,3.8
				c3.6,2.9,8,4.4,12.7,4.4c6.6,0,13.1-3.2,17.3-8.5l15.5-19.7C1256.6,744.1,1258.3,738.6,1257.9,733.1z"/>
			<path fill="#FFFFFF" d="M935.8,718.9c-1.2-2.3-5.3-12.2-6.4-46.1c0-0.4,0.1-0.7,0.1-1.1v-65c0-5.8-1-11.4-2.8-16.6
				c-1.4-26.8-4-45.3-7.9-56.6c-4-11.7-10.4-17.7-19-17.7c-1.8,0-3.7,0.3-5.4,1c-7.1,2.5-24.8,17.1-39.3,29.7
				c-0.5,0-0.9-0.1-1.4-0.1c-9.7-0.6-17.7-1-25.4-1.2c-3.8-0.1-7.5-0.2-11-0.2c-10.1,0-19.5,0.4-28.2,1.3
				c-14.5-12.5-32-26.9-39.1-29.4c-1.8-0.6-3.6-1-5.4-1c-8.6,0-15,6-19,17.8c-3.9,11.4-6.5,30.1-7.9,57.2
				c-1.7,5.3-2.6,10.6-2.6,15.9l0,59.9c-0.5,30.8-3.7,47.3-6.5,52.4l-0.7,1.3c-1.8,3.2-1.6,7.1,0.3,10.2l0.8,1.2
				c1,1.5,9.2,13.5,32.3,19.2c-0.3,1.3-0.5,2.6-0.7,3.9c-3,3.8-5,8.4-5.6,13.2c-1,7.8,1.4,15.6,6.6,21.4c5.2,5.9,12.6,9.2,20.4,9.2
				c0.2,0,0.4,0,0.6,0c-0.1,2.1,0,4.2,0,6.5c-6.7,3.4-11.3,10.4-11.3,18.5c0,11.4,9.3,20.7,20.7,20.7h41.4c5.5,0,10-4.5,10-10v-22.2
				h0.1v22.2c0,5.5,4.5,10,10,10h41.4c11.4,0,20.7-9.3,20.7-20.7c0-8.1-4.6-15-11.3-18.5c0.1-2.3,0.1-4.5,0-6.6l0-0.4
				c0.2,0,0.3,0,0.5,0c1.2,0,2.3-0.1,3.5-0.2c12.1-1.5,22-11.4,23.5-23.5c1-7.6-1.3-15.3-6.3-21.1c-0.2-1-0.3-2-0.5-2.9
				c21.7-5.9,29.5-17.3,30.4-18.7l0.8-1.2c2-3.1,2.1-7,0.3-10.2L935.8,718.9z"/>
		</g>
		<g>
			<g>
				<g>
					<path fill="#F2F2F2" d="M801.1,409.7c-0.2,10.1,0.6,20.6,2.6,31.1c0.9,4.7,5.1,8.1,9.8,8.1h12.2c5.5,0,10-4.5,10-10v-22.1h7.6
						h9.5v22.1c0,5.5,4.5,10,10,10H875c4.8,0,8.9-3.4,9.8-8.1c2-10.5,2.7-21,2.5-31.1H801.1z"/>
					<path d="M875,451.4h-12.2c-6.9,0-12.5-5.6-12.5-12.5v-19.6h-12v19.6c0,6.9-5.6,12.5-12.5,12.5h-12.2c-6,0-11.2-4.3-12.3-10.1
						c-1.9-10-2.8-20.6-2.6-31.6l0-2.5h91.2l0,2.5c0.2,11-0.7,21.7-2.6,31.6C886.2,447.1,881,451.4,875,451.4z M833.2,414.2h22v24.6
						c0,4.2,3.4,7.5,7.5,7.5H875c3.6,0,6.7-2.5,7.4-6c1.7-8.9,2.5-18.3,2.5-28.1h-81.3c0,9.8,0.8,19.2,2.5,28.1
						c0.7,3.5,3.8,6.1,7.4,6.1h12.2c4.2,0,7.5-3.4,7.5-7.5V414.2z"/>
				</g>
				<g>
					<path fill="#F2F2F2" d="M787.6,345.9c-23.1,16-26.7,62.4-10.2,68.3c16.3,5.8,12.7-15.8,23-42.8l9.3-33.9
						C802.4,338.6,794.7,341,787.6,345.9z"/>
					<path d="M782.2,417.7C782.2,417.7,782.2,417.7,782.2,417.7c-1.7,0-3.5-0.4-5.6-1.1c-6.1-2.2-10.1-8.8-11.4-18.6
						c-2.4-17.8,4.9-43,21-54.1c6.6-4.5,14.3-7.5,23.1-8.9l3.8-0.6l-10.4,37.9c-3.3,8.6-5.1,16.6-6.7,23.6
						C793.2,408.5,791.1,417.7,782.2,417.7z M806.2,340.6c-6.5,1.4-12.2,3.9-17.2,7.3c-14.4,10-21,33.4-18.9,49.4
						c1,7.7,4,13,8.1,14.5c1.5,0.5,2.8,0.8,3.9,0.8c4.7,0,6.4-6.1,9-17.9c1.5-6.8,3.5-15.2,6.8-24.1L806.2,340.6z"/>
				</g>
				<g>
					<path fill="#F2F2F2" d="M898.8,345.9c23.1,16,26.7,62.4,10.2,68.3c-16.3,5.8-12.7-15.8-23-42.8l-9.3-33.9
						C884,338.6,891.7,341,898.8,345.9z"/>
					<path d="M904.3,417.7c-8.9,0-11-9.2-13.9-21.8c-1.6-7-3.4-15-6.7-23.6l-0.1-0.2l-10.3-37.7l3.8,0.6c8.8,1.4,16.6,4.4,23.1,8.9
						c16.2,11.2,23.4,36.3,21,54.1c-1.3,9.8-5.3,16.4-11.4,18.6C907.8,417.3,905.9,417.7,904.3,417.7z M888.4,370.6
						c3.4,8.9,5.3,17.3,6.8,24.1c2.7,11.8,4.3,17.9,9,17.9c1.1,0,2.4-0.3,3.9-0.8c4.2-1.5,7.1-6.8,8.1-14.5
						c2.1-16-4.5-39.4-18.9-49.4c-5-3.4-10.7-5.9-17.2-7.3L888.4,370.6z"/>
				</g>
				<g>
					<path fill="#F2F2F2" d="M879.9,327.8h-36.7h-36.7c0,0-14.3,52.3-12.4,77.9c1.8,25.6,49.2,23,49.2,23s47.3,2.6,49.2-23
						C894.1,380.1,879.9,327.8,879.9,327.8z"/>
					<path d="M846.8,431.2C846.8,431.2,846.8,431.2,846.8,431.2c-1.9,0-3.2-0.1-3.7-0.1c-0.4,0-1.7,0.1-3.7,0.1
						c-10.8,0-46.3-1.8-48-25.4c-1.8-25.7,11.9-76.6,12.5-78.7l0.5-1.8h77.3l0.5,1.8c0.6,2.2,14.3,53,12.5,78.7
						C893.1,429.4,857.6,431.2,846.8,431.2z M843.1,426.2l0.1,0c0,0,1.3,0.1,3.5,0.1c9.7,0,41.6-1.5,43-20.7
						c1.6-22.2-9.4-65.8-11.9-75.2h-69.6c-2.5,9.5-13.4,53-11.9,75.2c1.4,19.2,33.3,20.7,43,20.7c2.2,0,3.5-0.1,3.5-0.1L843.1,426.2
						z"/>
				</g>
				<path fill="#DDDEDF" d="M803.3,351.5H883c-2.1-9.8-4.2-17.8-5.1-21.2h-69.6C807.4,333.7,805.4,341.7,803.3,351.5z"/>
				<g>
					<path fill="#F2F2F2" d="M869.8,203.9c-7.1-0.5-14.6-1-22.3-1.2c-21.1-0.6-43.5,0.5-62,7.2c-15.7,5.6-28.2,17-28.2,34.6
						c0,0,0,4.7,0,11.5v31.8l0,0v22.3c0,17.7,14.3,32,32,32h106.2c17.7,0,32-14.3,32-32v-22.3v-31.8v-6.7c0-3,0-4.8,0-4.8
						C927.5,213.6,894.8,205.7,869.8,203.9z"/>
					<path d="M895.5,344.4H789.3c-19,0-34.5-15.5-34.5-34.5v-65.5c0-16.7,10.9-30.2,29.8-37c14-5,31.4-7.4,53.3-7.4
						c3.1,0,6.4,0,9.7,0.1c6.7,0.2,13.9,0.6,22.4,1.2c39.2,2.9,60,17.8,60,43.1v65.5C930,329,914.5,344.4,895.5,344.4z M837.9,205
						c-21.2,0-38.1,2.3-51.6,7.2c-9.9,3.5-26.5,12.4-26.5,32.3v65.5c0,16.3,13.2,29.5,29.5,29.5h106.2c16.3,0,29.5-13.2,29.5-29.5
						v-65.5c0-22.5-18.6-35.3-55.3-38.1c-8.5-0.6-15.6-1-22.2-1.2C844.2,205,841,205,837.9,205z"/>
				</g>
				<g>
					<circle cx="799" cy="276.4" r="18.5"/>
					<circle cx="885.9" cy="276.4" r="18.5"/>
					<circle fill="#FFFFFF" cx="794" cy="270.9" r="5"/>
					<circle fill="#FFFFFF" cx="881.7" cy="270.9" r="5"/>
				</g>
				<rect x="813.4" y="273.9" width="59" height="5"/>
			</g>
			<g>
				<g>
					<ellipse transform="matrix(0.8727 0.4883 -0.4883 0.8727 327.9007 -468.4)" cx="1062.2" cy="394.6" rx="2.7" ry="25.6"/>
					<ellipse transform="matrix(0.9438 0.3305 -0.3305 0.9438 192.1438 -331.1061)" cx="1069.6" cy="399.4" rx="2.7" ry="25.6"/>
					<ellipse transform="matrix(0.9843 0.1766 -0.1766 0.9843 87.8851 -183.9228)" cx="1077.1" cy="401.7" rx="2.7" ry="25.6"/>
				</g>
				<g>
					<ellipse transform="matrix(-0.8727 0.4883 -0.4883 -0.8727 2453.1646 149.651)" cx="1207.1" cy="394.6" rx="2.7" ry="25.6"/>
					<ellipse transform="matrix(-0.9438 0.3305 -0.3305 -0.9438 2463.8765 379.8724)" cx="1199.6" cy="399.4" rx="2.7" ry="25.6"/>
					<ellipse transform="matrix(-0.9843 0.1766 -0.1766 -0.9843 2436.6228 586.5347)" cx="1192.2" cy="401.7" rx="2.7" ry="25.6"/>
				</g>
				<g>
					<path fill="#EBB787" d="M1205.1,358.8c1.6-12.5-9-23.1-21.5-21.5c-2.3,0.3-4.5,1-6.6,2.1c-2.9-0.9-5.8-1.5-8.6-1.9
						c-2.3-6.2-4-9.7-4-9.7h-29.6h-29.6c0,0-1.6,3.5-3.9,9.6c-3.9,0.5-7.9,1.5-11.8,2.9c-3.6-2.3-8-3.4-12.7-2.8
						c-8.5,1.1-15.4,8-16.5,16.5c-0.8,6,1.3,11.6,5,15.5c-2.8,12.6-0.2,25,7.8,27.6c12.3,3.9,11.7-8,17-24.8c0.5-0.3,1-0.7,1.4-1.1
						c-4.6,22.1-7.1,50.1-0.1,77.5h30.3v-32.2h13.2h13.2v32.2h30.3c6.7-26.3,4.7-53.2,0.4-74.9c0.4,0.2,0.8,0.3,1.2,0.4
						c4.6,15.7,4.6,26.5,16.4,22.8c9-2.8,11.1-17.9,6.6-31.9C1204,363.3,1204.8,361.1,1205.1,358.8z"/>
					<path d="M1180.3,451.4h-34.7v-32.2h-21.5v32.2h-34.7l-0.5-1.9c-4.2-16.5-5.4-34.4-3.7-53.6c-1.8,2.8-4.2,4.6-8,4.6
						c-1.5,0-3.1-0.3-4.9-0.9c-8.7-2.8-12.6-14.7-9.8-29.2c-3.8-4.6-5.5-10.6-4.8-16.6c1.2-9.6,9.1-17.5,18.7-18.7
						c4.6-0.6,9.3,0.3,13.2,2.5c3.1-1.1,6.3-1.9,9.8-2.4c2-5.3,3.4-8.3,3.5-8.4l0.7-1.4h62.5l0.7,1.4c0.1,0.1,1.5,3.2,3.5,8.5
						c2.2,0.4,4.4,0.9,6.5,1.5c2.1-1,4.3-1.6,6.5-1.9c7.2-0.9,14.3,1.8,19.1,7.2c4.1,4.7,6,10.9,5.2,17.1c-0.3,2.2-0.9,4.4-1.9,6.5
						c3,10,2.8,20.3-0.7,27c-1.8,3.6-4.6,6-7.9,7.1c-1.8,0.6-3.4,0.9-4.9,0.9c0,0,0,0,0,0c-3.5,0-5.9-1.5-7.6-4
						c1.7,19,0.4,36.8-3.8,53.1L1180.3,451.4z M1150.5,446.4h25.8c5.1-21.5,5.1-45.7-0.1-71.9l-0.9-4.6l4.3,1.8
						c0.3,0.1,0.7,0.3,1,0.4l1.2,0.4l0.4,1.2c0.9,2.9,1.6,5.7,2.2,8.1c2.5,9.9,3.8,13.6,7.6,13.6c0,0,0,0,0,0c0.9,0,2.1-0.2,3.4-0.6
						c2-0.6,3.7-2.2,4.9-4.6c2.9-5.7,3-15.2,0.1-24.2l-0.3-1l0.5-0.9c1-1.8,1.6-3.7,1.8-5.7c0.6-4.9-0.8-9.6-4-13.2
						c-3.6-4.1-9.1-6.2-14.7-5.5c-2,0.2-3.9,0.9-5.7,1.8l-0.9,0.5l-1-0.3c-2.6-0.8-5.4-1.4-8.2-1.8l-1.5-0.2l-0.5-1.4
						c-1.4-3.7-2.6-6.5-3.2-8.1h-56c-0.7,1.5-1.8,4.3-3.2,8l-0.5,1.4l-1.5,0.2c-4,0.6-7.8,1.5-11.3,2.8l-1.2,0.4l-1.1-0.7
						c-3.3-2.1-7.1-2.9-11-2.4c-7.4,0.9-13.4,7-14.3,14.3c-0.6,5,1,9.9,4.3,13.5l0.9,1l-0.3,1.3c-2.7,12.1,0,22.7,6.1,24.6
						c6.5,2.1,7.9-0.6,11-13c0.8-3,1.7-6.5,2.8-10.1l0.3-0.8l0.7-0.5c0.5-0.3,0.9-0.6,1.3-0.9l5.5-4.6l-1.5,7
						c-5.7,27.2-5.9,52.3-0.6,74.5h25.8v-32.2h31.5V446.4z"/>
					<path fill="#D69576" d="M1199.1,346c-0.2-0.3-0.4-0.5-0.6-0.8c-3.6-4.1-9.1-6.2-14.7-5.5c-2,0.2-3.9,0.9-5.7,1.8l-0.9,0.5
						l-1-0.3c-2.6-0.8-5.4-1.4-8.2-1.8l-1.5-0.2l-0.5-1.4c-1.4-3.7-2.6-6.5-3.2-8.1h-56c-0.7,1.5-1.8,4.3-3.2,8l-0.5,1.4l-1.5,0.2
						c-4,0.6-7.8,1.5-11.3,2.8l-1.2,0.4l-1.1-0.7c-3.3-2.1-7.1-2.9-11-2.4c-4.3,0.5-8.1,2.8-10.7,6c4.1,1.7,8.6,2.6,13.2,2.6h106.2
						C1190.5,348.7,1195,347.8,1199.1,346z"/>
				</g>
				<path d="M1112.2,350.5c0,0,3.3,6,20.4,6s20.1-6,20.1-6l9.8,26l-8.8,10.6c0,0-18.2,13.1-46.9,0l-2.3-17.3L1112.2,350.5z"/>
				<g>
					<path d="M1087.4,432.4h-4.1c-4.6,0-8.2,3.7-8.2,8.2v0c0,4.6,3.7,8.2,8.2,8.2h7.4h30.4v-16.5v-6.2h-33.8
						C1087.6,428.3,1087.2,430.4,1087.4,432.4z"/>
					<path d="M1123.7,451.4h-40.4c-5.9,0-10.7-4.8-10.7-10.7s4.8-10.7,10.7-10.7h1.5c0-0.3,0-0.6,0-0.9c0.1-0.9,0.1-1.8,0-2.6
						l-0.2-2.7h39V451.4z M1083.4,434.9c-3.2,0-5.7,2.6-5.7,5.7s2.6,5.7,5.7,5.7h35.4v-17.7h-28.8c0,0.2,0,0.4,0,0.6
						c-0.1,1-0.1,1.9,0,2.7l0.4,2.8H1083.4z"/>
				</g>
				<g>
					<path d="M1181.9,432.4h4.1c4.6,0,8.2,3.7,8.2,8.2v0c0,4.6-3.7,8.2-8.2,8.2h-7.4h-30.4v-16.5v-6.2h33.8
						C1181.7,428.3,1182.2,430.4,1181.9,432.4z"/>
					<path d="M1186,451.4h-40.4v-27.7h39l-0.2,2.7c-0.1,0.8,0,1.7,0,2.6c0,0.3,0,0.6,0,0.9h1.5c5.9,0,10.7,4.8,10.7,10.7
						S1191.9,451.4,1186,451.4z M1150.6,446.4h35.4c3.2,0,5.7-2.6,5.7-5.7s-2.6-5.7-5.7-5.7h-6.9l0.4-2.8c0.1-0.8,0.1-1.7,0-2.7
						c0-0.2,0-0.4,0-0.6h-28.8V446.4z"/>
				</g>
				<g>
					<path fill="#CDA672" d="M1181.4,392.1L1181.4,392.1c0,0-0.7-4.7-1.3-8.8c0,0-13.6,4.4-45.4,4.4s-45.4-4.4-45.4-4.4
						c-0.7,4.1-1.3,8.8-1.3,8.8c-1.2,10.7-1.6,31.2-0.6,42.8h34.1v-18.2h13.2h13.2v18.2h34.1
						C1182.9,423.3,1182.5,402.8,1181.4,392.1z"/>
					<path d="M1184.3,437.4h-38.9v-18.2h-21.5v18.2H1085l-0.2-2.3c-0.9-11.3-0.7-31.9,0.6-43.3c0-0.1,0.7-4.8,1.4-8.9l0.5-2.9
						l2.8,0.9c0.1,0,13.7,4.3,44.6,4.3s44.5-4.2,44.6-4.3l2.8-0.9l0.5,2.9c0.4,2.4,0.8,4.9,1,6.7h0.1l0.2,2.2
						c1.2,11.4,1.5,32,0.6,43.3L1184.3,437.4z M1150.4,432.4h29.3c0.7-11.3,0.4-29.5-0.7-39.9l0,0c0,0-0.4-2.9-0.9-6
						c-5.5,1.3-19.2,3.8-43.4,3.8c-24.1,0-37.9-2.5-43.4-3.8c-0.5,3.2-0.9,6-0.9,6c-1,9.4-1.5,27.8-0.7,40h29.3v-18.2h31.5V432.4z"
						/>
				</g>
				<g>
					<path fill="#654932" d="M1101.2,337.4c-3.9,0.5-7.9,1.5-11.8,2.9c-3.6-2.3-8-3.4-12.7-2.8c-8.5,1.1-15.4,8-16.5,16.5
						c-0.8,6,1.3,11.6,5,15.5c-0.8,3.8-1.2,7.6-1.1,11.1v0l22.6,3.4v0c0.9-3.5,1.9-7.4,3.2-11.7c0.5-0.3,1-0.7,1.4-1.1
						c0,0-2.7,15.9-3.6,23.3c-0.1,1.1-0.2,2.2-0.3,3.3c0,0,14.1,2.6,22.6,1.4c0,0,5.5-34,0-71.6h-4.9
						C1105.2,327.8,1103.5,331.3,1101.2,337.4z"/>
					<path d="M1104.7,402.3c-8.3,0-17.6-1.8-17.7-1.8l-2.2-0.4l0.2-2.2c0.1-1.1,0.2-2.3,0.3-3.4c0.3-2.1,0.7-4.9,1.1-7.8l0,0
						l-24.7-3.8l-0.1-2.1c-0.1-3.4,0.2-6.9,0.9-10.4c-3.8-4.6-5.5-10.6-4.8-16.6c1.2-9.6,9.1-17.5,18.7-18.7
						c4.6-0.6,9.3,0.3,13.2,2.5c3.1-1.1,6.3-1.9,9.8-2.4c2-5.3,3.4-8.3,3.5-8.4l0.7-1.4h8.6l0.3,2.1c5.5,37.5,0,72.1,0,72.4
						l-0.3,1.8l-1.8,0.3C1108.8,402.1,1106.9,402.3,1104.7,402.3z M1090.2,395.9c3.2,0.5,9.2,1.3,14.6,1.3c1.1,0,2.2,0,3.1-0.1
						c1-7.4,4.2-35.9,0-66.9h-1.1c-0.7,1.5-1.8,4.3-3.2,8l-0.5,1.4l-1.5,0.2c-4,0.6-7.8,1.5-11.3,2.8l-1.2,0.4l-1.1-0.7
						c-3.3-2.1-7.1-2.9-11-2.4c-7.4,0.9-13.4,7-14.3,14.3c-0.6,5,1,9.9,4.3,13.5l0.9,1l-0.3,1.3c-0.6,2.8-1,5.7-1,8.4l18.3,2.8
						c0.7-2.9,1.6-6.2,2.7-9.6l0.3-0.8l0.7-0.5c0.5-0.3,0.9-0.6,1.3-0.9l5.2-4.3l-1.1,6.6c0,0.2-2.7,16-3.6,23.2
						C1090.2,395.3,1090.2,395.6,1090.2,395.9z"/>
				</g>
				<g>
					<path fill="#654932" d="M1164,337.4c3.9,0.5,7.9,1.5,11.8,2.9c3.6-2.3,8-3.4,12.7-2.8c8.5,1.1,15.4,8,16.5,16.5
						c0.8,6-1.3,11.6-5,15.5c0.8,3.8,1.2,7.6,1.1,11.1v0l-22.6,3.4v0c-0.9-3.5-1.9-7.4-3.2-11.7c-0.5-0.3-1-0.7-1.4-1.1
						c0,0,2.7,15.9,3.6,23.3c0.1,1.1,0.2,2.2,0.3,3.3c0,0-14.1,2.6-22.6,1.4c0,0-5.5-34,0-71.6h4.9
						C1160.1,327.8,1161.7,331.3,1164,337.4z"/>
					<path d="M1160.5,402.3c-2.1,0-4-0.1-5.7-0.4l-1.8-0.3l-0.3-1.8c-0.1-0.3-5.5-34.9,0-72.4l0.3-2.1h8.6l0.7,1.4
						c0.1,0.1,1.5,3.1,3.5,8.4c3.4,0.6,6.7,1.4,9.8,2.4c4-2.2,8.6-3.1,13.2-2.5c9.6,1.2,17.5,9.1,18.7,18.7c0.8,6-1,12-4.8,16.6
						c0.7,3.6,1,7.1,0.9,10.4l-0.1,2.1l-24.7,3.8c0.4,2.9,0.8,5.6,1.1,7.7c0.1,1.2,0.2,2.3,0.3,3.4l0.2,2.2l-2.2,0.4
						C1178.1,400.5,1168.8,402.3,1160.5,402.3z M1157.4,397.1c0.9,0.1,2,0.1,3.1,0.1c5.4,0,11.4-0.8,14.6-1.3c0-0.3-0.1-0.7-0.1-1
						c-0.9-7.2-3.5-23-3.6-23.1l-1.1-6.6l5.2,4.3c0.4,0.3,0.8,0.6,1.3,0.9l0.7,0.5l0.3,0.8c1.1,3.5,1.9,6.7,2.7,9.6l18.3-2.8
						c-0.1-2.7-0.4-5.6-1-8.4l-0.3-1.3l0.9-1c3.4-3.6,5-8.6,4.3-13.5c-0.9-7.4-7-13.4-14.3-14.3c-3.9-0.5-7.8,0.4-11,2.4l-1.1,0.7
						l-1.2-0.4c-3.5-1.3-7.3-2.3-11.3-2.8l-1.5-0.2l-0.5-1.4c-1.4-3.7-2.5-6.5-3.2-8h-1.1C1153.2,361.3,1156.4,389.7,1157.4,397.1z"
						/>
				</g>
				<g>
					<path fill="#EBB787" d="M1185.7,203.2h-106.2c-17.7,0-32,14.3-32,32v74.7c0,17.7,14.3,32,32,32h106.2c17.7,0,32-14.3,32-32
						v-74.7C1217.7,217.5,1203.4,203.2,1185.7,203.2z"/>
					<path d="M1185.7,344.4h-106.2c-19,0-34.5-15.5-34.5-34.5v-74.7c0-19,15.5-34.5,34.5-34.5h106.2c19,0,34.5,15.5,34.5,34.5v74.8
						C1220.2,329,1204.7,344.4,1185.7,344.4z M1079.5,205.7c-16.3,0-29.5,13.2-29.5,29.5v74.7c0,16.3,13.2,29.5,29.5,29.5h106.2
						c16.3,0,29.5-13.2,29.5-29.5v-74.8c0-16.3-13.2-29.5-29.5-29.5H1079.5z"/>
					<g>
						<path fill="#D69576" d="M1131.8,231.2C1132.3,231.4,1131.8,231.2,1131.8,231.2L1131.8,231.2z"/>
						<path fill="#D69576" d="M1185.7,205.7h-106.2c-16.3,0-29.5,13.2-29.5,29.5v74.7c0,16.3,13.2,29.5,29.5,29.5h27.8
							c-0.6-5.4,0.3-11.2,0.3-11.2s-2.5,6.3-25.3,6.3c-22.9,0-29.1-31.4-29.1-51.3c0-19.9,12-22.1,12-22.1s-4.7-13.3,9.9-29.7
							c12.8-14.3,47.3-3.5,55.7-0.7l1,0.3l1-0.3c8.3-2.9,42.9-13.7,55.7,0.7c14.6,16.3,9.9,29.7,9.9,29.7s12,2.2,12,22.1
							c0,19.9-6.2,51.3-29.1,51.3c-22.9,0-25.3-6.3-25.3-6.3s0.9,5.8,0.3,11.2h29.5c16.3,0,29.5-13.2,29.5-29.5v-74.8
							C1215.2,218.9,1202,205.7,1185.7,205.7z"/>
						<path fill="#D69576" d="M1131.8,231.2C1131.8,231.2,1131.2,231.4,1131.8,231.2L1131.8,231.2z"/>
					</g>
				</g>
				<g>
					<circle cx="1095.1" cy="276.9" r="12.5"/>
					<circle cx="1170.1" cy="276.9" r="12.5"/>
					<circle fill="#FFFFFF" cx="1091.7" cy="273.1" r="3.4"/>
					<circle fill="#FFFFFF" cx="1167.3" cy="273.1" r="3.4"/>
				</g>
				<path d="M1151.4,310.6c0,0-0.5,0.4-1.4,1.1c-0.9,0.6-2.2,1.5-3.9,2.4c-1.7,0.9-3.6,1.8-5.8,2.7c-1.1,0.4-2.3,0.8-3.5,1.1
					c-0.6,0.2-1.2,0.3-1.9,0.4l-1,0.2l-1.2,0.1l-0.3,0l-0.1,0l-0.2,0l-0.5,0l-1.1-0.2c-0.4-0.1-0.7-0.1-1-0.2
					c-0.3-0.1-0.6-0.1-0.9-0.2c-1.2-0.3-2.4-0.7-3.5-1.1c-2.2-0.8-4.2-1.8-5.8-2.7c-1.7-0.9-3-1.7-3.9-2.4c-0.9-0.6-1.4-1.1-1.4-1.1
					s0.6,0,1.7,0.1c1.1,0.1,2.7,0.3,4.5,0.6c1.8,0.3,3.9,0.7,6.1,1.1c1.1,0.2,2.2,0.4,3.3,0.7c0.5,0.1,1.1,0.2,1.6,0.3l0.7,0.1
					l0.5,0l0.2,0l0.1,0l0.1,0l0,0l0,0c-0.1,0,0.1,0-0.1,0l0.7,0l0.8-0.1c0.5-0.1,1.1-0.2,1.6-0.3c1.1-0.2,2.3-0.4,3.3-0.7
					c2.2-0.4,4.3-0.9,6.1-1.1c1.8-0.3,3.4-0.5,4.5-0.6C1150.7,310.6,1151.4,310.6,1151.4,310.6z"/>
				<path d="M1218.8,173.4l-31.2,8.7c-6,0.3-11.6,0.1-16.2-0.2c-3.3-0.5-6.7-0.9-10.2-1.2c-0.5-0.1-0.7-0.1-0.7-0.1s0,0,0.1,0.1
					c-0.1,0-0.2,0-0.3,0c-8.6-0.6-15.7-1-22.4-1.2c-3.3-0.1-6.6-0.1-9.7-0.1c-8.4,0-16.1,0.4-23.3,1.1c0,0,0,0,0,0s-0.2,0-0.5,0.1
					c-2.5,0.3-4.9,0.6-7.3,0.9c-5,0.5-11.9,0.9-19.4,0.5l-31.2-8.7c0,0-6.7,38.2-5.3,59.4c1.1,17.8,3.2,18.8,3.8,32v18.1l2.5,0.2v27
					c0,17.7,14.3,32,32,32h34.3c-9.4,0-6.2-20.5-6.2-20.5s-2.5,6.3-25.3,6.3c-22.9,0-29.1-31.4-29.1-51.3c0-19.9,12-22.1,12-22.1
					s-4.7-13.3,9.9-29.7c12.8-14.3,47.3-3.5,55.7-0.7l1,0.3c0,0-0.5,0.2,0,0c0.5,0.2,0,0,0,0l1-0.3c8.3-2.9,42.9-13.7,55.7,0.7
					c14.6,16.3,9.9,29.7,9.9,29.7s12,2.2,12,22.1c0,19.9-6.2,51.3-29.1,51.3c-22.9,0-25.3-6.3-25.3-6.3s3.1,20.5-6.2,20.5h34.3
					c17.7,0,32-14.3,32-32v-23.6l4.2,17.3v-33.9c0.3-18.1,2.7-17.1,4-36.9C1225.5,211.6,1218.8,173.4,1218.8,173.4z"/>
			</g>
			<g>
				<g>
					<path fill="#EBB787" d="M532.8,346.9c0,0-22.5-4.7-31.7,16.5s-5.9,38.4-20.3,33.8c-14.4-4.6-11.3-40.7,8.9-53.2
						c17.5-10.8,39.1-6.3,45.7-6.6L532.8,346.9z"/>
					<path d="M485,400.4c-1.5,0-3.1-0.3-4.9-0.9c-5.6-1.8-9.4-7.5-10.4-15.7c-1.7-13.7,4.3-33.1,18.7-42c8.4-5.1,18.6-7.7,31.2-7.7
						c4,0,7.5,0.2,10.4,0.4c2.3,0.2,4.1,0.3,5.4,0.2l3.5-0.2l-4.2,15.1l-2.3-0.5c0,0-1.9-0.4-4.8-0.4c-6.5,0-18.2,2-24.1,15.5
						c-3,6.8-4.6,13.1-6,18.7C495,392.8,493,400.4,485,400.4C485,400.4,485,400.4,485,400.4z M519.6,339.2c-11.7,0-21,2.3-28.6,6.9
						c-12.2,7.5-17.9,24.8-16.4,37.1c0.8,6.2,3.3,10.4,6.9,11.6c1.3,0.4,2.5,0.6,3.4,0.6c0,0,0,0,0,0c3.8,0,5.1-3.7,7.6-13.6
						c1.4-5.5,3.1-12.2,6.2-19.4c7-16.1,20.9-18.5,28.7-18.5c1.4,0,2.5,0.1,3.5,0.2l1.2-4.3c-0.8,0-1.6-0.1-2.5-0.2
						C526.9,339.5,523.4,339.2,519.6,339.2z"/>
				</g>
				<g>
					<path fill="#EBB787" d="M552.2,346.9c0,0,22.5-4.7,31.7,16.5c9.2,21.2,5.9,38.4,20.3,33.8c14.4-4.6,11.3-40.7-8.9-53.2
						c-17.5-10.8-39.1-6.3-45.7-6.6L552.2,346.9z"/>
					<path d="M600,400.4c-8,0-10-7.7-12.4-17.4c-1.4-5.6-3-11.8-6-18.7C575.8,351,564,349,557.5,349c-2.9,0-4.8,0.4-4.8,0.4
						l-2.3,0.5l-4.2-15.1l3.5,0.2c1.2,0.1,3.1-0.1,5.4-0.2c2.9-0.2,6.4-0.4,10.4-0.4c12.6,0,22.8,2.5,31.2,7.7
						c14.4,8.9,20.4,28.3,18.7,42c-1,8.2-4.8,13.9-10.4,15.7C603.1,400.2,601.5,400.4,600,400.4z M557.5,344
						c7.7,0,21.7,2.4,28.7,18.5c3.1,7.2,4.8,14,6.2,19.4c3.1,12.3,4.5,15,11,13c3.6-1.2,6.2-5.4,6.9-11.6
						c1.5-12.3-4.2-29.6-16.4-37.1c-7.5-4.6-16.9-6.9-28.6-6.9c-3.8,0-7.3,0.2-10,0.4c-0.9,0.1-1.7,0.1-2.5,0.2l1.2,4.3
						C555,344,556.2,344,557.5,344z"/>
				</g>
				<g>
					<path fill="#538ECB" d="M613.1,378.8c-0.1-12.4-6.1-27.6-17.8-34.8c-6.1-3.8-12.7-5.6-19-6.5c-2.3-6.2-4-9.7-4-9.7h-29.6H513
						c0,0-1.7,3.5-4,9.7c-6.3,0.9-12.9,2.8-19,6.5c-11.7,7.2-17.7,22.4-17.8,34.8c0,0,11.8,0,21.8,8.5c1.6-5.7,3.1-13.3,6.4-21.5
						c-5.4,22.9-9,53.3-1.4,83.2h30.3v-32.2h13.2h13.2v32.2h30.3c7.6-29.8,4.1-60.2-1.4-83.2c3.3,8.3,4.8,15.8,6.4,21.5
						C601.3,378.7,613.1,378.8,613.1,378.8z"/>
					<path d="M586.2,451.4h-30.3c-1.4,0-2.5-1.1-2.5-2.5v-29.7h-21.5v29.7c0,1.4-1.1,2.5-2.5,2.5h-30.3c-1.1,0-2.1-0.8-2.4-1.9
						c-5.3-20.7-5.2-41.8-3-59.8c-0.5-0.1-0.9-0.3-1.2-0.6c-9.1-7.8-20.1-7.9-20.2-7.9c-0.7,0-1.3-0.3-1.8-0.7s-0.7-1.1-0.7-1.8
						c0.1-12.6,6.1-28.9,19-36.9c5.3-3.3,11.5-5.5,18.5-6.7c2-5.3,3.5-8.4,3.5-8.5c0.4-0.9,1.3-1.4,2.3-1.4h59.3
						c1,0,1.9,0.6,2.3,1.4c0.1,0.1,1.5,3.2,3.5,8.5c7,1.2,13.2,3.4,18.5,6.7c12.8,7.9,18.8,24,19,36.5c0,0.1,0,0.2,0,0.4
						c0,1.4-1.1,2.5-2.5,2.5c0,0,0,0,0,0c0,0,0,0,0,0c-0.1,0-11.1,0.1-20.2,7.9c-0.4,0.3-0.8,0.5-1.2,0.6c2.1,18,2.3,39-3,59.8
						C588.3,450.6,587.3,451.4,586.2,451.4z M558.4,446.4h25.8c7.1-29.7,3-59.8-1.8-80.1c-0.3-1.3,0.4-2.6,1.7-3
						c1.2-0.4,2.6,0.2,3.1,1.5c2.5,6.3,4,12.3,5.3,17.1c0.1,0.4,0.2,0.8,0.3,1.1c6.9-4.7,14-6.1,17.8-6.5
						c-0.8-10.6-6.1-23.9-16.5-30.3c-5.1-3.1-11.1-5.2-18-6.2c-0.9-0.1-1.7-0.7-2-1.6c-1.4-3.7-2.6-6.5-3.2-8.1h-56
						c-0.7,1.6-1.8,4.3-3.2,8.1c-0.3,0.9-1.1,1.5-2,1.6c-6.9,1-12.9,3.1-18,6.2c-10.5,6.4-15.7,19.7-16.5,30.3
						c3.7,0.4,10.9,1.8,17.8,6.5c0.1-0.4,0.2-0.8,0.3-1.1c1.2-4.8,2.8-10.8,5.3-17.1c0.5-1.2,1.8-1.9,3.1-1.5c1.2,0.4,2,1.7,1.7,3
						c-4.8,20.3-8.9,50.4-1.8,80.1h25.8v-29.7c0-1.4,1.1-2.5,2.5-2.5h26.5c1.4,0,2.5,1.1,2.5,2.5V446.4z"/>
				</g>
				<g>
					<path fill="#E9C226" d="M494.5,415.9c-0.2,5.7,0.3,11.5,1,16.5h-4.1c-4.6,0-8.2,3.7-8.2,8.2v0c0,4.6,3.7,8.2,8.2,8.2h7.4h31.4
						v-16.5v-6.2L494.5,415.9z"/>
					<path d="M532.8,451.4h-41.4c-5.9,0-10.7-4.8-10.7-10.7s4.8-10.7,10.7-10.7h1.2c-0.6-5-0.8-9.7-0.7-14.1l0.1-3.2l40.7,11.7
						V451.4z M491.5,434.9c-3.2,0-5.7,2.6-5.7,5.7s2.6,5.7,5.7,5.7h36.4v-18.3l-30.9-8.9c0.1,4,0.4,8.3,1,12.8l0.4,2.8H491.5z"/>
				</g>
				<g>
					<path fill="#E9C226" d="M591.3,415.9c0.2,5.7-0.3,11.5-1,16.5h4.1c4.6,0,8.2,3.7,8.2,8.2v0c0,4.6-3.7,8.2-8.2,8.2h-7.4h-31.4
						v-16.5v-6.2L591.3,415.9z"/>
					<path d="M594.3,451.4h-41.4v-27.1l40.7-11.7l0.1,3.2c0.1,4.4-0.1,9.1-0.7,14.1h1.2c5.9,0,10.7,4.8,10.7,10.7
						S600.2,451.4,594.3,451.4z M557.9,446.4h36.4c3.2,0,5.7-2.6,5.7-5.7s-2.6-5.7-5.7-5.7h-6.9l0.4-2.8c0.6-4.5,1-8.8,1-12.8
						l-30.9,8.9V446.4z"/>
				</g>
				<g>
					<path fill="#E9C226" d="M466.8,386.9c-1.2,9.6,6.9,17.7,16.5,16.5c6.5-0.8,11.8-6.1,12.7-12.7c1.2-9.6-6.9-17.7-16.5-16.5
						C472.9,375.1,467.6,380.4,466.8,386.9z"/>
					<path d="M481.3,406C481.3,406,481.3,406,481.3,406c-4.9,0-9.6-2.1-12.9-5.8c-3.3-3.7-4.8-8.6-4.2-13.6
						c1-7.6,7.2-13.9,14.8-14.8c5.7-0.7,11.4,1.4,15.1,5.7c3.3,3.7,4.8,8.6,4.2,13.6c-1,7.6-7.2,13.9-14.8,14.8
						C482.8,406,482.1,406,481.3,406z M481.3,376.7c-0.5,0-1.1,0-1.6,0.1c-5.4,0.7-9.8,5.1-10.5,10.5c-0.4,3.6,0.6,7,2.9,9.7
						c2.3,2.6,5.6,4.1,9.1,4.1c0,0,0,0,0,0c0.5,0,1.1,0,1.6-0.1c5.4-0.7,9.8-5.1,10.5-10.5c0.4-3.6-0.6-7-2.9-9.7
						C488.2,378.2,484.8,376.7,481.3,376.7z"/>
				</g>
				<g>
					<path fill="#E9C226" d="M589.5,386.6c-1.2,9.6,6.9,17.7,16.5,16.5c6.5-0.8,11.8-6.1,12.7-12.7c1.2-9.6-6.9-17.7-16.5-16.5
						C595.6,374.7,590.3,380,589.5,386.6z"/>
					<path d="M604,405.6L604,405.6c-4.9,0-9.6-2.1-12.9-5.8c-3.3-3.7-4.8-8.6-4.2-13.6c1-7.6,7.2-13.9,14.8-14.8
						c5.7-0.7,11.4,1.4,15.1,5.7c3.3,3.7,4.8,8.6,4.2,13.6c-1,7.6-7.2,13.9-14.8,14.8C605.5,405.6,604.8,405.6,604,405.6z
						 M604,376.3c-0.5,0-1.1,0-1.6,0.1c-5.4,0.7-9.8,5.1-10.5,10.5c-0.4,3.6,0.6,7,2.9,9.7c2.3,2.6,5.6,4.1,9.1,4.1c0,0,0,0,0,0
						c0.5,0,1.1,0,1.6-0.1c5.4-0.7,9.8-5.1,10.5-10.5c0.4-3.6-0.6-7-2.9-9.7C610.9,377.8,607.5,376.3,604,376.3z"/>
				</g>
				<g>
					<path fill="#E9C226" d="M552.1,397.9c29.4-30.2,31.1-65.8,31.1-65.8h-15.6c0,0-2.8,35.5-32.2,65.8H552.1z"/>
					<path d="M553.2,400.4h-23.6l4.1-4.2c28.4-29.3,31.5-63.9,31.5-64.2l0.2-2.3h20.5l-0.1,2.6c-0.1,1.5-2.1,36.8-31.8,67.4
						L553.2,400.4z M541.2,395.4h9.8c23.2-24.4,28.4-52.2,29.4-60.8h-10.6C568.8,342.7,563.6,370.1,541.2,395.4z"/>
				</g>
				<g>
					<path fill="#E9C226" d="M495.2,342.1c0,0,41.9,32.8,70.3,28.9l2.2-11.3c-22.3,3-55.1-22.7-55.1-22.7L495.2,342.1z"/>
					<path d="M560.7,373.8C560.7,373.8,560.7,373.8,560.7,373.8c-28.6,0-65.5-28.6-67-29.8l-3.9-3l23.4-6.7l1,0.8
						c0.3,0.2,28.9,22.4,49.8,22.4c0,0,0,0,0,0c1.2,0,2.4-0.1,3.4-0.2l3.5-0.5l-3.2,16.5l-1.8,0.2
						C564.2,373.7,562.4,373.8,560.7,373.8z M500.7,343.1c10.3,7.3,38.3,25.7,59.9,25.7c0,0,0,0,0,0c0.9,0,1.8,0,2.7-0.1l1.2-6.3
						c-0.2,0-0.5,0-0.7,0c-20.5,0-46.3-18.5-51.8-22.7L500.7,343.1z"/>
				</g>
				<g>
					<path fill="#EBB787" d="M595.8,203.2H489.6c-17.7,0-32,14.3-32,32v74.7c0,17.7,14.3,32,32,32h106.2c17.7,0,32-14.3,32-32v-74.7
						C627.8,217.5,613.4,203.2,595.8,203.2z"/>
					<path d="M595.8,344.4H489.6c-19,0-34.5-15.5-34.5-34.5v-74.7c0-19,15.5-34.5,34.5-34.5h106.2c19,0,34.5,15.5,34.5,34.5v74.8
						C630.3,329,614.8,344.4,595.8,344.4z M489.6,205.7c-16.3,0-29.5,13.2-29.5,29.5v74.7c0,16.3,13.2,29.5,29.5,29.5h106.2
						c16.3,0,29.5-13.2,29.5-29.5v-74.8c0-16.3-13.2-29.5-29.5-29.5H489.6z"/>
					<path fill="#D69576" d="M625.3,302.4v-42.9c-1.9-1-4-1.6-6.2-1.6H466.5c-2.3,0-4.5,0.6-6.4,1.6v42.7c1.9,1,4.1,1.6,6.4,1.6
						h59.2c4.2,0,8.1-1.9,10.8-5.2c1.5-1.9,3.8-3,6.3-3c2.5,0,4.7,1.1,6.3,3c2.6,3.3,6.5,5.2,10.8,5.2h59.4
						C621.3,303.9,623.4,303.4,625.3,302.4z"/>
					<path fill="#D69576" d="M595.8,205.7H489.6c-16.3,0-29.5,13.2-29.5,29.5v24.4c1.9-1,4.1-1.6,6.4-1.6h25.3
						c3.6-0.5,7.2-1,10.7-1.6l1.2-0.2c9.8-1.6,19.9-3.2,29.3-7.2c4.3-1.8,8.3-4.1,12.2-6.4c1.7-1,3.5-2.1,5.3-3.1
						c2.1-1.1,4.3-2.4,6.5-4c3.8-2.7,6.4-3.8,9.1-3.8c1.4,0,2.9,0.3,4.6,0.9c3,1.1,6.4,1.7,9.7,1.7c1.3,0,2.5-0.1,3.6-0.3
						c1.2-0.2,2.2-0.5,3-0.8c1.1-0.3,2.1-0.7,3.2-0.7l0.2,0c4.7,0.2,11.3,5.4,15.5,9.7c0.6,0.6,1.2,1.3,1.9,1.9
						c3.8,5.5,11.1,10.4,17.6,14v-23.1C625.3,218.9,612,205.7,595.8,205.7z"/>
				</g>
				<g>
					<path fill="#E9C226" d="M589.1,389.3l-4.8,0.9c-27.5,5.1-55.7,5.1-83.2,0l-4.8-0.9c-0.5,4.2-0.9,8.6-1.2,13.1
						c6.5,2.1,26.4,8.8,34.3,14.6h13.2h13.2c8-5.8,27.9-12.5,34.3-14.6C590,397.9,589.6,393.5,589.1,389.3z"/>
					<path d="M556.8,419.5h-28.1L528,419c-7.7-5.7-27.7-12.4-33.6-14.3l-1.8-0.6l0.1-1.9c0.2-4.3,0.7-8.8,1.2-13.2l0.3-2.6l7.4,1.4
						c27.1,5,55.2,5,82.3,0l7.4-1.4l0.3,2.6c0.6,4.4,1,8.9,1.2,13.2l0.1,1.9l-1.8,0.6c-5.9,1.9-25.9,8.6-33.6,14.3L556.8,419.5z
						 M530.2,414.5h24.9c7.8-5.4,24.1-11.1,32.5-13.9c-0.2-2.7-0.4-5.5-0.8-8.3l-2.2,0.4c-27.7,5.2-56.4,5.2-84.1,0l-2.2-0.4
						c-0.3,2.8-0.6,5.6-0.8,8.3C506.1,403.4,522.4,409.1,530.2,414.5z"/>
				</g>
				<g>
					<circle fill="#BE1E2D" cx="565.6" cy="366.4" r="13.4"/>
					<path d="M565.6,382.3c-8.8,0-15.9-7.1-15.9-15.9s7.1-15.9,15.9-15.9s15.9,7.1,15.9,15.9S574.4,382.3,565.6,382.3z M565.6,355.5
						c-6,0-10.9,4.9-10.9,10.9c0,6,4.9,10.9,10.9,10.9c6,0,10.9-4.9,10.9-10.9C576.5,360.3,571.6,355.5,565.6,355.5z"/>
				</g>
				<g>
					<path fill="#E9C226" d="M445.6,262.6v20.9c0,6.6,5.4,12,12,12v-44.8C451,250.7,445.6,256,445.6,262.6z"/>
					<path d="M460.1,298h-2.5c-8,0-14.5-6.5-14.5-14.5v-20.9c0-8,6.5-14.5,14.5-14.5h2.5V298z M455.1,253.5c-4,1.1-7,4.8-7,9.1v20.9
						c0,4.4,3,8,7,9.1V253.5z"/>
				</g>
				<g>
					<path fill="#E9C226" d="M639.7,262.6v20.9c0,6.6-5.4,12-12,12v-44.8C634.4,250.7,639.7,256,639.7,262.6z"/>
					<path d="M627.8,298h-2.5v-49.8h2.5c8,0,14.5,6.5,14.5,14.5v20.9C642.2,291.5,635.8,298,627.8,298z M630.3,253.5v39.2
						c4-1.1,7-4.8,7-9.1v-20.9C637.2,258.3,634.3,254.6,630.3,253.5z"/>
				</g>
				<g>
					<path fill="#88613E" d="M605.3,190.7c-5.2-2.4-10.9-3.7-16.6-3.2c-4.6,0.4-9.1,2.3-13.8,2.3c-5.3,0-10.3-2-15.3-3.3
						c-8-2-16.2-3.3-24.5-3.8c-16.6-1.1-33.6,0.7-49.3,6.3c-5,1.8-9.7,4.2-13.8,7.2v0c0,0-20.3,9.9-20.3,29.9c0,20,0,26.1,0,26.1
						c1.8-1,3.8-0.7,6-0.7c0,0.6,0,0,0,0c0,0,14.6-1,15.5-1.1c9.7-0.9,19.4-2,29-3.6c10-1.6,20.4-3.2,29.9-7.2
						c6.1-2.5,11.5-6.2,17.2-9.4c2.2-1.2,4.2-2.4,6.2-3.8c5.4-3.9,9.6-5.5,16-3.2c3.6,1.3,8.2,1.9,12,1.3c2.5-0.4,4.3-1.5,7-1.4
						c6,0.2,13.2,6.4,17.2,10.5c0.6,0.7,1.3,1.3,2,2c0,0,0,0,0,0c4.2,6.2,13.6,11.8,20,15.1c2.4,0.4,4.6,1.4,6.3,3
						C635.9,200.4,605.3,190.7,605.3,190.7z"/>
					<path d="M638.4,259.5l-4.2-3.8c-1.4-1.3-3.1-2.1-5-2.4l-0.4-0.1l-0.4-0.2c-7-3.6-16.2-9.3-20.7-15.7c-0.6-0.6-1.3-1.2-1.9-1.9
						c-4.2-4.4-10.8-9.6-15.5-9.7l-0.2,0c-1.1,0-2.1,0.3-3.2,0.7c-0.9,0.3-1.9,0.6-3,0.8c-1.1,0.2-2.3,0.3-3.6,0.3
						c-3.3,0-6.7-0.6-9.7-1.7c-1.7-0.6-3.2-0.9-4.6-0.9c-2.7,0-5.2,1.1-9.1,3.8c-2.2,1.6-4.4,2.8-6.5,4c-1.8,1-3.6,2-5.3,3.1
						c-3.9,2.3-7.9,4.6-12.2,6.4c-9.4,3.9-19.5,5.6-29.3,7.2l-1.2,0.2c-9.2,1.5-18.7,2.7-29.2,3.6c-0.1,0-15.3,1.1-15.7,1.1l0-2.2
						v2.2c-0.4,0-0.9,0-1.3,0c-0.4,0-0.7,0-1.1,0c-1.2,0-1.8,0.1-2.3,0.4l-3.8,2.2v-30.4c0-20.4,19.1-30.8,21.5-32.1
						c4.1-3,8.9-5.5,14.3-7.4c12.6-4.5,26.4-6.8,41-6.8c3.1,0,6.2,0.1,9.4,0.3c8.4,0.6,16.8,1.9,24.9,3.9c1.4,0.4,2.8,0.8,4.2,1.2
						c3.6,1,6.9,2,10.3,2l0.2,0c2.3,0,4.6-0.6,7.1-1.1c2.1-0.5,4.2-1,6.5-1.2c5.9-0.5,11.9,0.6,17.8,3.4c2.9,1,32.1,12.8,32.1,65.4
						V259.5z M630.4,248.4c1,0.2,2,0.5,2.9,0.8c-1.6-46.7-27.6-55.8-28.8-56.2l-0.3-0.1c-5.1-2.4-10.3-3.4-15.3-3
						c-1.9,0.2-3.8,0.6-5.8,1.1c-2.6,0.6-5.3,1.2-8.2,1.3l-0.2,0c-4.1,0-8-1.1-11.7-2.2c-1.4-0.4-2.7-0.8-4-1.1
						c-7.8-2-15.9-3.2-24-3.8c-3-0.2-6-0.3-9-0.3c-14,0-27.2,2.2-39.3,6.5c-5,1.8-9.4,4.1-13.2,6.9l-0.4,0.2
						c-0.2,0.1-18.9,9.5-18.9,27.7V249c0.8-0.1,1.5,0,2.3,0c0.4,0,0.7,0,1.1,0c1-0.1,14.5-1,15.3-1.1c10.4-0.9,19.8-2.1,28.8-3.5
						l1.2-0.2c9.5-1.5,19.3-3.1,28.2-6.8c4-1.7,7.8-3.9,11.6-6.1c1.8-1,3.6-2.1,5.5-3.1c1.9-1.1,4-2.2,6-3.6c3.4-2.5,7.3-4.7,12-4.7
						c2,0,4.1,0.4,6.3,1.2c3.3,1.2,7.6,1.7,10.8,1.2c0.8-0.1,1.5-0.4,2.3-0.6c1.4-0.4,3-0.9,5.1-0.9c7.6,0.3,15.8,8,19,11.3
						c0.6,0.6,1.3,1.3,1.9,1.9l0.2,0.2l0.2,0.2C614.7,238.7,621.3,243.7,630.4,248.4z"/>
				</g>
				<path d="M561.4,310.6c0,0-1.7,2.3-4.7,5.2c-1.5,1.4-3.4,3-5.6,4.5c-0.5,0.4-1.1,0.8-1.7,1.1c-0.6,0.4-1.2,0.7-1.9,1
					c-0.3,0.2-0.7,0.3-1,0.5c-0.4,0.2-0.7,0.3-1.1,0.4l-1.2,0.4c-0.5,0.1-1,0.2-1.6,0.2l-0.3,0l0,0l-0.1,0l-0.1,0l-0.3,0
					c-0.2,0-0.3,0-0.5-0.1c-0.5-0.1-1-0.3-1.5-0.4c-0.5-0.2-0.7-0.3-1.1-0.5c-0.4-0.2-0.7-0.3-1-0.5c-0.7-0.3-1.3-0.7-1.9-1
					c-0.6-0.4-1.2-0.7-1.7-1.1c-2.2-1.5-4.1-3.1-5.6-4.5c-3.1-2.8-4.7-5.2-4.7-5.2s0.7,0.2,1.8,0.7c1.1,0.5,2.7,1.2,4.6,2.1
					c1.8,0.9,3.9,1.9,6.2,3.1c1.1,0.6,2.3,1.1,3.4,1.6c0.3,0.1,0.6,0.2,0.8,0.3c0.3,0.1,0.6,0.2,0.8,0.3c0.2,0,0.3,0.1,0.5,0.2
					c0.1,0,0.3,0,0.5,0.1l0.3,0l0.1,0l0.1,0l0,0l0,0c-0.1,0,0.3,0-0.3,0c0.2,0,0.3,0,0.5-0.1l0.7-0.2c0.5-0.2,1.1-0.4,1.6-0.6
					c1.1-0.5,2.3-1,3.4-1.6c2.3-1.1,4.4-2.2,6.2-3.1c1.8-0.9,3.4-1.6,4.6-2.1C560.8,310.8,561.4,310.6,561.4,310.6z"/>
				<g>
					<path fill="#538ECB" d="M615.2,293.6v1.5v12.6c0,0,1,34.3-19.7,34.3h-51.8h-51.8c-20.7,0-19.7-34.3-19.7-34.3v-12.6v-1.5
						l-14.7-3.1v19.4c0,17.7,14.3,32,32,32h54.1h54.1c17.7,0,32-14.3,32-32v-19.4L615.2,293.6z"/>
					<path d="M597.9,344.4H489.6c-19,0-34.5-15.5-34.5-34.5v-19.4c0-0.8,0.3-1.5,0.9-1.9c0.6-0.5,1.4-0.7,2.1-0.5l14.7,3.1
						c1.2,0.2,2,1.3,2,2.4v14.1c0,0.3-0.4,19.4,7.8,27.9c2.6,2.6,5.6,3.9,9.4,3.9h103.6c3.7,0,6.8-1.3,9.4-3.9
						c8.3-8.5,7.8-27.6,7.8-27.8l0-14.2c0-1.2,0.8-2.2,2-2.4l14.7-3.1c0.7-0.2,1.5,0,2.1,0.5s0.9,1.2,0.9,1.9v19.4
						C632.4,329,616.9,344.4,597.9,344.4z M617.7,295.6v12.1c0,0.7,0.4,18.3-7.2,28.9c10-4.7,16.9-14.9,16.9-26.7v-16.4L617.7,295.6
						z M460.1,293.6v16.4c0,11.7,6.9,21.9,16.9,26.7c-7.6-10.6-7.2-28.2-7.2-29l0-12L460.1,293.6z"/>
				</g>
				<g>
					<path fill="#E9C226" d="M619.1,252.6h-76.4h-76.2c-6,0-10.8,4.8-10.8,10.8v19.4c0,6,4.8,10.8,10.8,10.8h59.2
						c3.4,0,6.7-1.6,8.8-4.3c4.2-5.3,12.2-5.3,16.4,0l0,0c2.1,2.7,5.4,4.3,8.8,4.3h59.3c6,0,10.8-4.8,10.8-10.8v-19.4
						C629.9,257.4,625,252.6,619.1,252.6z"/>
					<path d="M619.1,296.1h-59.4c-4.2,0-8.1-1.9-10.8-5.2c-1.5-1.9-3.8-3-6.3-3c-2.5,0-4.7,1.1-6.3,3c-2.6,3.3-6.5,5.2-10.8,5.2
						h-59.2c-7.3,0-13.3-6-13.3-13.3v-19.4c0-7.3,6-13.3,13.3-13.3h152.6c7.3,0,13.3,6,13.3,13.3v19.4
						C632.4,290.1,626.4,296.1,619.1,296.1z M542.7,282.8c4,0,7.7,1.8,10.2,4.9c1.7,2.1,4.2,3.3,6.8,3.3h59.4c4.6,0,8.3-3.7,8.3-8.3
						v-19.4c0-4.6-3.7-8.3-8.3-8.3H466.5c-4.6,0-8.3,3.7-8.3,8.3v19.4c0,4.6,3.7,8.3,8.3,8.3h59.2c2.7,0,5.2-1.2,6.8-3.3
						C535,284.6,538.7,282.8,542.7,282.8z"/>
				</g>
				<g>
					<rect x="467.4" y="264.4" fill="#BE1E2D" width="150.6" height="12.3"/>
					<path d="M620.6,279.3H464.9v-17.3h155.6V279.3z M469.9,274.3h145.6v-7.3H469.9V274.3z"/>
				</g>
			</g>
			<g>
				<g>
					<path fill="#966851" d="M292.9,344c-6.1-3.8-12.7-5.7-19-6.6c-2.3-6.2-4-9.7-4-9.7h-29.6h-29.6c0,0-1.6,3.5-3.9,9.6
						c-6.4,0.9-13.1,2.8-19.3,6.6c-20.2,12.4-23.3,48.6-8.9,53.2c14.3,4.5,11.1-12.3,20.1-33.3c-5.7,23.1-9.6,54.4-1.8,85H227v-32.2
						h13.2h13.2v32.2h30.3c7.6-29.8,4.1-60.3-1.4-83.2c8,20.1,5.5,35.9,19.3,31.5C316.2,392.6,313.1,356.5,292.9,344z"/>
					<path d="M285.8,451.4H251v-32.2h-21.5v32.2h-34.7l-0.5-1.9c-4.7-18.4-5.2-37-3.7-53.7c-1.8,2.9-4.2,4.6-8.1,4.6
						c-1.5,0-3.1-0.3-4.9-0.9c-5.6-1.8-9.4-7.5-10.4-15.7c-1.7-13.7,4.3-33.1,18.7-42c5.4-3.3,11.7-5.6,18.8-6.7
						c2-5.3,3.4-8.3,3.5-8.4l0.7-1.4h62.5l0.7,1.4c0.1,0.1,1.5,3.2,3.5,8.5c7,1.2,13.2,3.4,18.5,6.7c14.4,8.9,20.4,28.3,18.7,42
						c-1,8.2-4.8,13.9-10.4,15.7c-1.8,0.6-3.4,0.9-4.9,0.9c0,0,0,0,0,0c-3.6,0-5.9-1.5-7.7-4.1c1.4,16.4,0.9,34.9-3.7,53.1
						L285.8,451.4z M256,446.4h25.8c7.1-29.7,3-59.8-1.8-80.1l4.8-1.5c2.5,6.3,4,12.3,5.3,17.1c2.5,9.9,3.8,13.6,7.6,13.6
						c0,0,0,0,0,0c0.9,0,2.1-0.2,3.4-0.6c3.6-1.2,6.2-5.4,6.9-11.6c1.5-12.3-4.2-29.6-16.4-37.1c-5.1-3.1-11.1-5.2-18-6.2l-1.5-0.2
						l-0.5-1.4c-1.4-3.7-2.6-6.5-3.2-8.1h-56c-0.7,1.5-1.8,4.3-3.2,8l-0.5,1.4l-1.5,0.2c-7,1-13.2,3.1-18.4,6.3
						c-12.2,7.5-17.9,24.8-16.4,37.1c0.8,6.2,3.3,10.4,6.9,11.6c6.5,2.1,7.9-0.6,11-13c1.4-5.3,3.1-12,6.1-19l4.7,1.6
						c-5.1,20.7-9.5,51.6-2.3,81.9h25.8v-32.2H256V446.4z"/>
				</g>
				<g>
					<path fill="#2E2E2F" d="M193.9,389c-1.4,11.5-2,23.9-1,36.5H227v-8.8h13.2h13.2v8.8h34.1c1-12.5,0.5-24.8-0.9-36.1
						C246.1,404.3,199,390.5,193.9,389z"/>
					<path d="M290,428H251v-8.8h-21.5v8.8h-38.9l-0.2-2.3c-1-11.7-0.6-24.2,1-37l0.4-3l2.8,0.9c3.9,1.2,24.5,7.1,49.7,7.1
						c15.4,0,29.4-2.3,41.5-6.7l3-1.1l0.4,3.1c1.6,12.7,1.9,25,0.9,36.6L290,428z M256,423h29.3c0.6-9.6,0.4-19.8-0.7-30.2
						c-12,4-25.5,6-40.2,6c-22.1,0-40.8-4.5-48.3-6.5c-1.2,10.6-1.4,21-0.8,30.8h29.3v-8.8H256V423z"/>
				</g>
				<path d="M189.7,412.6l-0.1,3.2c-0.1,4.4,0.1,9.1,0.7,14.1h-1.2c-5.9,0-10.7,4.8-10.7,10.7s4.8,10.7,10.7,10.7h41.4v-27.1
					L189.7,412.6z"/>
				<path d="M291.9,429.9h-1.2c0.6-5,0.8-9.7,0.7-14.1l-0.1-3.2l-40.7,11.7v27.1h41.4c5.9,0,10.7-4.8,10.7-10.7
					S297.8,429.9,291.9,429.9z"/>
				<g>
					<path fill="#966851" d="M267.1,203.9c-7.1-0.5-14.6-1-22.3-1.2c-21.1-0.6-43.5,0.5-62,7.2c-15.7,5.6-28.2,17-28.2,34.6
						c0,0,0,4.7,0,11.5v31.8l0,0v22.3c0,17.7,14.3,32,32,32h106.2c17.7,0,32-14.3,32-32v-22.3v-31.8v-6.7c0-3,0-4.8,0-4.8
						C324.7,213.6,292,205.7,267.1,203.9z"/>
					<path d="M292.7,344.4H186.5c-19,0-34.5-15.5-34.5-34.5v-65.5c0-16.7,10.9-30.2,29.8-37c14-5,31.4-7.4,53.3-7.4
						c3.1,0,6.4,0,9.7,0.1c6.7,0.2,13.9,0.6,22.4,1.2c39.2,2.9,60,17.8,60,43.1v65.5C327.2,329,311.7,344.4,292.7,344.4z M235.1,205
						c-21.2,0-38.1,2.3-51.6,7.2c-9.9,3.5-26.5,12.4-26.5,32.3v65.5c0,16.3,13.2,29.5,29.5,29.5h106.2c16.3,0,29.5-13.2,29.5-29.5
						v-65.5c0-22.5-18.6-35.3-55.3-38.1c-8.5-0.6-15.6-1-22.2-1.2C241.4,205,238.2,205,235.1,205z"/>
				</g>
				<path d="M258.4,310.6c0,0-1.7,2.3-4.7,5.2c-1.5,1.4-3.4,3-5.6,4.5c-0.5,0.4-1.1,0.8-1.7,1.1c-0.6,0.4-1.2,0.7-1.9,1
					c-0.3,0.2-0.7,0.3-1,0.5c-0.4,0.2-0.7,0.3-1.1,0.4l-1.2,0.4c-0.5,0.1-1,0.2-1.6,0.2l-0.3,0l0,0l-0.1,0l-0.1,0l-0.3,0
					c-0.2,0-0.3,0-0.5-0.1c-0.5-0.1-1-0.3-1.5-0.4c-0.5-0.2-0.7-0.3-1.1-0.5c-0.4-0.2-0.7-0.3-1-0.5c-0.7-0.3-1.3-0.7-1.9-1
					c-0.6-0.4-1.2-0.7-1.7-1.1c-2.2-1.5-4.1-3.1-5.6-4.5c-3.1-2.8-4.7-5.2-4.7-5.2s0.7,0.2,1.8,0.7c1.1,0.5,2.7,1.2,4.6,2.1
					c1.8,0.9,3.9,1.9,6.2,3.1c1.1,0.6,2.3,1.1,3.4,1.6c0.3,0.1,0.6,0.2,0.8,0.3c0.3,0.1,0.6,0.2,0.8,0.3c0.2,0,0.3,0.1,0.5,0.2
					c0.1,0,0.3,0,0.5,0.1l0.3,0l0.1,0l0.1,0l0,0l0,0c-0.1,0,0.3,0-0.3,0c0.2,0,0.3,0,0.5-0.1l0.7-0.2c0.5-0.2,1.1-0.4,1.6-0.6
					c1.1-0.5,2.3-1,3.4-1.6c2.3-1.1,4.4-2.2,6.2-3.1c1.8-0.9,3.4-1.6,4.6-2.1C257.7,310.8,258.4,310.6,258.4,310.6z"/>
				<path d="M191.7,377.5c-3.8-4.3-9.4-6.4-15.1-5.7c-7.6,1-13.9,7.2-14.8,14.8c-0.6,4.9,0.9,9.9,4.2,13.6c3.3,3.7,8,5.8,12.9,5.8
					c0,0,0,0,0,0c0.7,0,1.5,0,2.2-0.1c7.6-1,13.9-7.2,14.8-14.8C196.4,386.1,194.9,381.2,191.7,377.5z"/>
				<path d="M314.4,377.1c-3.8-4.3-9.4-6.4-15.1-5.7c-7.6,1-13.9,7.2-14.8,14.8c-0.6,4.9,0.9,9.9,4.2,13.6c3.3,3.7,8,5.8,12.9,5.8
					c0,0,0,0,0,0c0.7,0,1.5,0,2.2-0.1c7.6-1,13.9-7.2,14.8-14.8C319.2,385.7,317.6,380.8,314.4,377.1z"/>
				<g>
					<path d="M280.8,264.9c0,0,9.1,3.8,16-3.7c0,0-0.8,11.4-11,11C275.6,271.9,280.8,264.9,280.8,264.9z"/>
					<path d="M198.5,264.9c0,0-9.1,3.8-16-3.7c0,0,0.8,11.4,11,11C203.7,271.9,198.5,264.9,198.5,264.9z"/>
					<g>
						<circle cx="202.1" cy="276.9" r="12.5"/>
						<circle cx="277.1" cy="276.9" r="12.5"/>
						<circle fill="#FFFFFF" cx="198.8" cy="273.1" r="3.4"/>
						<circle fill="#FFFFFF" cx="274.3" cy="273.1" r="3.4"/>
					</g>
				</g>
				<g>
					<path fill="#2E2E2F" d="M195.4,378.7c0,0,4.6,2.4,14.3,4.4c6.6,1.4,13.3,2.1,20.1,2.1h10.4h9.8c5.2,0,10.4-0.4,15.5-1.2
						c13-2.2,19.6-5.3,19.6-5.3l0.2,1.3c-0.5-5-1.5-12.4-3.6-16.2c0,0,0,0,0,0c-0.1-0.4-3.9-14-9.1-21.9h-14.5
						c0,0,10.2,6.8,14.2,17.9c-8.3-2.3-20.8-3-32.2,8.1c-11.4-11.1-23.9-10.5-32.2-8.1c4.1-11.1,14.2-17.9,14.2-17.9h-14.5
						c-5.3,8-9.1,21.9-9.1,21.9c-2,3.5-3,10.1-3.5,15L195.4,378.7z"/>
					<path d="M250,387.7h-20.2c-7.1,0-14-0.7-20.6-2.1c-7.2-1.5-11.8-3.3-13.7-4.1l-3.2,1.5l0.4-4.4c0.7-7.3,2-12.6,3.7-15.7
						c0.6-2.1,4.3-14.6,9.3-22.3l0.7-1.1h24.1l-6.9,4.6c-0.1,0.1-6.9,4.7-11.2,12.3c1.8-0.3,3.6-0.4,5.4-0.4
						c8.3,0,15.8,2.9,22.4,8.6c6.6-5.7,14.1-8.6,22.4-8.6c1.8,0,3.6,0.1,5.4,0.4c-4.4-7.7-11.2-12.3-11.2-12.3l-6.9-4.6H274l0.7,1.1
						c4.9,7.5,8.6,19.9,9.3,22.2c2.3,4.2,3.3,11.5,3.8,17l-2.1,0.3l0.4,0.9c-0.3,0.1-7,3.3-20.3,5.5
						C260.9,387.3,255.6,387.7,250,387.7z M197.9,377.1c1.9,0.8,6,2.3,12.4,3.6c6.3,1.3,12.9,2,19.6,2H250c5.3,0,10.3-0.4,15.1-1.2
						c9-1.5,14.8-3.4,17.4-4.4c-0.6-5.2-1.6-9.2-2.7-11.5l-0.2-0.2l-0.3-0.9c-0.1-0.5-3.5-12.4-8.1-20.1H265
						c3.3,3.3,7.4,8.2,9.7,14.5l1.7,4.6l-4.7-1.3c-3.1-0.9-6.1-1.3-9.1-1.3c-7.7,0-14.7,3-20.6,8.8l-1.7,1.7l-1.7-1.7
						c-6-5.9-12.9-8.8-20.6-8.8c-3,0-6,0.4-9.1,1.3l-4.7,1.3l1.7-4.6c2.3-6.3,6.4-11.3,9.7-14.5h-6.3c-4.6,7.7-8,20-8.1,20.1
						l-0.1,0.3l-0.2,0.3C199.6,367.3,198.5,371.5,197.9,377.1z"/>
				</g>
				<path fill="#785440" d="M231.6,249.7c2.5,1.2,5.3,1.8,8.1,1.8c2.8,0,5.6-0.6,8.1-1.8c6.2-2.9,13.5-9.6,13.5-24.4
					c0-5.1-0.9-11.9-2.3-19.5c-5.1-0.3-9.8-0.5-14.2-0.7c-3.3-0.1-6.5-0.1-9.5-0.1c-5.2,0-10,0.1-14.7,0.4
					c-1.4,7.8-2.4,14.7-2.4,19.9C218.1,240.1,225.4,246.7,231.6,249.7z"/>
				<g>
					<path fill="#D8D9DB" d="M245.8,152.8c-1.7-6.2-10.5-6.2-12.2,0c-5.6,19.9-13,49-13,63.3c0,13.6,6.6,19.5,12.1,22.1
						c4.4,2.1,9.6,2.1,14,0c5.4-2.6,12.1-8.5,12.1-22.1C258.7,201.8,251.3,172.7,245.8,152.8z"/>
					<path d="M239.6,242.3c-2.8,0-5.6-0.6-8.1-1.8c-6.2-2.9-13.5-9.6-13.5-24.4c0-14.3,7.1-42.7,13-63.9c1.1-3.9,4.5-6.5,8.5-6.5
						c4,0,7.4,2.6,8.5,6.5c6,21.3,13,49.6,13,63.9c0,14.8-7.3,21.4-13.5,24.4C245.2,241.6,242.4,242.3,239.6,242.3z M239.6,150.7
						c-1.4,0-3.1,0.7-3.7,2.8c-8.3,29.6-12.9,51.8-12.9,62.6c0,12.2,5.8,17.5,10.7,19.9c3.7,1.7,8.2,1.7,11.8,0
						c4.9-2.3,10.7-7.7,10.7-19.9c0-10.7-4.6-33-12.9-62.6C242.8,151.4,241,150.7,239.6,150.7z"/>
				</g>
			</g>
			<g>
				<g>
					<path fill="#CACACA" d="M533.7,730.5c0,0-22.5-4.7-31.7,16.5s-5.9,38.4-20.3,33.8c-14.4-4.6-11.3-40.7,8.9-53.2
						c17.5-10.8,39.1-6.3,45.7-6.6L533.7,730.5z"/>
					<path d="M485.9,784.1c-1.5,0-3.1-0.3-4.9-0.9c-5.6-1.8-9.4-7.5-10.4-15.7c-1.7-13.7,4.3-33.1,18.7-42
						c8.4-5.1,18.5-7.7,31.2-7.7c4,0,7.5,0.2,10.4,0.4c2.3,0.2,4.1,0.3,5.4,0.2l3.5-0.2l-4.2,15.1l-2.3-0.5c0,0-1.9-0.4-4.8-0.4
						c-6.5,0-18.2,2-24.1,15.5c-3,6.8-4.6,13.1-6,18.7C495.9,776.4,493.9,784.1,485.9,784.1C485.9,784.1,485.9,784.1,485.9,784.1z
						 M520.5,722.9c-11.7,0-21,2.3-28.6,6.9c-12.2,7.5-17.9,24.8-16.4,37.1c0.8,6.2,3.3,10.4,6.9,11.6c1.3,0.4,2.5,0.6,3.4,0.6
						c0,0,0,0,0,0c3.8,0,5.1-3.7,7.6-13.6c1.4-5.5,3.1-12.2,6.2-19.4c7-16.1,20.9-18.5,28.7-18.5c1.4,0,2.5,0.1,3.5,0.2l1.2-4.3
						c-0.8,0-1.6-0.1-2.5-0.2C527.8,723.1,524.3,722.9,520.5,722.9z"/>
				</g>
				<g>
					<path fill="#CACACA" d="M553.1,730.5c0,0,22.5-4.7,31.7,16.5c9.2,21.2,5.9,38.4,20.3,33.8c14.4-4.6,11.3-40.7-8.9-53.2
						c-17.5-10.8-39.1-6.3-45.7-6.6L553.1,730.5z"/>
					<path d="M600.9,784.1c-8,0-10-7.7-12.4-17.4c-1.4-5.6-3-11.8-6-18.7c-5.8-13.4-17.6-15.5-24.1-15.5c-2.9,0-4.8,0.4-4.8,0.4
						l-2.3,0.5l-4.2-15.1l3.5,0.2c1.2,0.1,3.1-0.1,5.4-0.2c2.9-0.2,6.4-0.4,10.4-0.4c12.6,0,22.8,2.5,31.2,7.7
						c14.4,8.9,20.4,28.3,18.7,42c-1,8.2-4.8,13.9-10.4,15.7C604,783.8,602.4,784.1,600.9,784.1z M558.4,727.6
						c7.7,0,21.7,2.4,28.7,18.5c3.1,7.2,4.8,14,6.2,19.4c3.1,12.3,4.5,15,11,13c3.6-1.2,6.2-5.4,6.9-11.6
						c1.5-12.3-4.2-29.6-16.4-37.1c-7.5-4.6-16.9-6.9-28.6-6.9c-3.8,0-7.3,0.2-10,0.4c-0.9,0.1-1.7,0.1-2.5,0.2l1.2,4.3
						C555.9,727.7,557.1,727.6,558.4,727.6z"/>
				</g>
				<g>
					<path fill="#BE1E2D" d="M588.9,758.7L588.9,758.7l17.1-21.8v0l7.8-12.2h-17.8c-6.1-3.8-12.7-3.4-19-4.3c-2.3-6.2-4-9.7-4-9.7
						h-29.6h-29.6c0,0-1.7,3.5-4,9.7c-6.3,0.9-12.8,0.5-18.9,4.3H473l7.8,12.2v0l17.1,21.8v0l0.5,0.7l0.2,1.4
						c-4,21.3-5.3,45.7,1.2,71.1h30.3v-32.2h13.2h13.2v32.2h30.3c6.5-25.3,5.2-49.3,1.3-70.5l0.2-1.9L588.9,758.7z"/>
					<path d="M588.8,834.3h-34.7v-32.2h-21.5v32.2h-34.7l-0.5-1.9c-5.7-22.2-6.1-45.6-1.3-71.7l-0.1-0.3l-17.4-22.2l-10.2-16h21.7
						c4.9-2.8,9.9-3.3,14.8-3.7c1-0.1,2-0.2,3-0.3c2-5.3,3.4-8.3,3.5-8.5l0.7-1.4h62.5l0.7,1.4c0.1,0.1,1.5,3.2,3.5,8.5
						c1,0.1,1.9,0.2,3,0.3c4.9,0.5,10,0.9,14.9,3.8h21.7L608,738.4l-17.2,22l-0.1,0.8c4.7,25.8,4.3,49.1-1.4,71.2L588.8,834.3z
						 M559.1,829.3h25.8c5-21,5.3-43.1,0.8-67.6l-0.1-0.4l0.4-3l18-23l5.2-8.2h-14l-0.6-0.4c-4.1-2.6-8.6-3-13.4-3.4
						c-1.5-0.1-3.1-0.3-4.7-0.5l-1.5-0.2l-0.5-1.4c-1.4-3.7-2.6-6.5-3.2-8.1h-56c-0.7,1.6-1.8,4.3-3.2,8.1l-0.5,1.4l-1.5,0.2
						c-1.6,0.2-3.1,0.4-4.7,0.5c-4.7,0.4-9.1,0.9-13.3,3.4l-0.6,0.4h-14l5.2,8.2l18,22.9l0.4,2.4l-0.1,0.4
						c-4.6,24.8-4.4,47.1,0.7,68.1h25.8v-32.2h31.5V829.3z"/>
				</g>
				<g>
					<path fill="#CACACA" d="M496.5,813.9h33.6v-14.3h13.2h13.2v14.3h33.6c2-16.1,1.2-31.5-0.9-45.8l-44.1,12.3l-47.7-12.3
						C495.3,782.4,494.5,797.9,496.5,813.9z"/>
					<path d="M592.4,816.4h-38.3v-14.3h-21.5v14.3h-38.3l-0.3-2.2c-1.8-14.6-1.5-30.2,0.9-46.4l0.4-2.7l49.8,12.9l46.2-12.9l0.4,2.8
						c2.5,16.4,2.8,31.6,1,46.4L592.4,816.4z M559.1,811.4H588c1.4-12.8,1.1-26-0.8-40.1l-42,11.7l-45.7-11.8
						c-1.9,13.9-2.2,27.4-0.8,40.1h28.9v-14.3h31.5V811.4z"/>
				</g>
				<g>
					<path fill="#BE1E2D" d="M494.2,798.8c-0.2,5.7,0.3,11.5,1,16.5h-4.1c-4.6,0-8.2,3.7-8.2,8.2v0c0,4.6,3.7,8.2,8.2,8.2h7.4H530
						v-16.5v-6.2L494.2,798.8z"/>
					<path d="M532.5,834.3h-41.4c-5.9,0-10.7-4.8-10.7-10.7c0-5.9,4.8-10.7,10.7-10.7h1.2c-0.6-5-0.8-9.7-0.7-14.1l0.1-3.2
						l40.7,11.7V834.3z M491.1,817.8c-3.2,0-5.7,2.6-5.7,5.7s2.6,5.7,5.7,5.7h36.4V811l-30.9-8.9c0.1,4,0.4,8.3,1,12.8l0.4,2.8
						H491.1z"/>
				</g>
				<g>
					<path fill="#BE1E2D" d="M592.5,798.8c0.2,5.7-0.3,11.5-1,16.5h4.1c4.6,0,8.2,3.7,8.2,8.2v0c0,4.6-3.7,8.2-8.2,8.2h-7.4h-31.4
						v-16.5v-6.2L592.5,798.8z"/>
					<path d="M595.5,834.3h-41.4v-27.1l40.7-11.7l0.1,3.2c0.1,4.4-0.1,9.1-0.7,14.1h1.2c5.9,0,10.7,4.8,10.7,10.7
						C606.3,829.5,601.5,834.3,595.5,834.3z M559.2,829.3h36.4c3.2,0,5.7-2.6,5.7-5.7s-2.6-5.7-5.7-5.7h-6.9l0.4-2.8
						c0.6-4.5,1-8.8,1-12.8l-30.9,8.9V829.3z"/>
				</g>
				<g>
					<path fill="#BE1E2D" d="M589.7,772l-46.4,1.9L497,772c-0.5,4.2-0.9,8.6-1.2,13.1c6.5,2.1,26.4,8.8,34.3,14.6h13.2h13.2
						c8-5.8,27.9-12.5,34.3-14.6C590.7,780.6,590.3,776.2,589.7,772z"/>
					<path d="M557.4,802.2h-28.1l-0.7-0.5c-7.7-5.7-27.7-12.4-33.6-14.3l-1.8-0.6l0.1-1.9c0.2-4.3,0.7-8.8,1.2-13.2l0.3-2.3
						l48.6,1.9l48.6-1.9l0.3,2.3c0.6,4.4,1,8.9,1.2,13.2l0.1,1.9l-1.8,0.6c-5.9,1.9-25.9,8.6-33.6,14.3L557.4,802.2z M530.9,797.2
						h24.9c7.8-5.4,24.1-11.1,32.5-13.9c-0.2-2.9-0.5-5.8-0.8-8.7l-44.2,1.8l-44.2-1.8c-0.3,2.9-0.6,5.8-0.8,8.7
						C506.8,786,523.1,791.8,530.9,797.2z"/>
				</g>
				<g>
					<path fill="#E9C226" d="M588.9,766.6c-10.8,1.7-22.2,2.5-33,2.8l20.1-44.6l-32.7-4.5l-32.7,4.5l20,44.4
						c-18.9-0.8-32.5-2.6-32.5-2.6l-1.6,11.3c0,0,50.8,6.8,93.9,0L588.9,766.6z"/>
					<path d="M547,783.5C547,783.5,547,783.5,547,783.5c-27.7,0-50.5-3-50.7-3l-2.5-0.3l2.3-16.2l2.5,0.3c0.1,0,11.8,1.6,28.2,2.4
						L507,722.9l36.3-5l0.3,0l36,5l-19.8,44c10.4-0.4,20-1.3,28.7-2.6l2.5-0.4l2.3,16.2l-2.4,0.4C578,782.4,563.3,783.5,547,783.5z
						 M499.4,775.8c6.6,0.8,25.5,2.7,47.6,2.7c0,0,0,0,0,0c15,0,28.7-0.9,40.7-2.6l-0.9-6.3c-9.3,1.3-19.7,2.2-30.8,2.5l-4,0.1
						l20.3-45.2l-29-4l-29,4l20.3,45l-4-0.2c-14.2-0.6-25.5-1.7-30.3-2.3L499.4,775.8z"/>
				</g>
				<g>
					<path fill="#CACACA" d="M570.1,577.8c-7.1-0.5-14.6-1-22.3-1.2c-21.1-0.6-43.5,0.5-62,7.2c-15.7,5.6-28.2,17-28.2,34.6
						c0,0,0,4.7,0,11.5v35.7v27.3c0,17.7,14.3,32,32,32h106.2c17.7,0,32-14.3,32-32v-27.3v-35.7c0-6.8,0-11.5,0-11.5
						C627.8,587.5,595.1,579.7,570.1,577.8z"/>
					<path d="M595.8,727.4H489.6c-19,0-34.5-15.5-34.5-34.5v-74.5c0-16.7,10.9-30.2,29.8-37c14-5,31.4-7.4,53.3-7.4
						c3.1,0,6.4,0,9.7,0.1c6.7,0.2,13.9,0.6,22.4,1.2c39.2,2.9,60,17.8,60,43.1v74.5C630.3,711.9,614.8,727.4,595.8,727.4z
						 M538.2,579c-21.2,0-38.1,2.3-51.6,7.2c-9.9,3.5-26.5,12.4-26.5,32.3v74.5c0,16.3,13.2,29.5,29.5,29.5h106.2
						c16.3,0,29.5-13.2,29.5-29.5v-74.5c0-22.5-18.6-35.3-55.3-38.1c-8.5-0.6-15.6-1-22.2-1.2C544.4,579,541.2,579,538.2,579z"/>
				</g>
				<path d="M561.4,693.5c0,0-1.7,2.3-4.7,5.2c-1.5,1.4-3.4,3-5.6,4.5c-0.5,0.4-1.1,0.8-1.7,1.1c-0.6,0.4-1.2,0.7-1.9,1
					c-0.3,0.2-0.7,0.3-1,0.5c-0.4,0.2-0.7,0.3-1.1,0.4l-1.2,0.4c-0.5,0.1-1,0.2-1.6,0.2l-0.3,0l0,0l-0.1,0l-0.1,0l-0.3,0
					c-0.2,0-0.3,0-0.5-0.1c-0.5-0.1-1-0.3-1.5-0.4c-0.5-0.2-0.7-0.3-1.1-0.5c-0.4-0.2-0.7-0.3-1-0.5c-0.7-0.3-1.3-0.7-1.9-1
					c-0.6-0.4-1.2-0.7-1.7-1.1c-2.2-1.5-4.1-3.1-5.6-4.5c-3.1-2.8-4.7-5.2-4.7-5.2s0.7,0.2,1.8,0.7c1.1,0.5,2.7,1.2,4.6,2.1
					c1.8,0.9,3.9,1.9,6.2,3.1c1.1,0.6,2.3,1.1,3.4,1.6c0.3,0.1,0.6,0.2,0.8,0.3c0.3,0.1,0.6,0.2,0.8,0.3c0.2,0,0.3,0.1,0.5,0.2
					c0.1,0,0.3,0,0.5,0.1l0.3,0l0.1,0l0.1,0l0,0l0,0c-0.1,0,0.3,0-0.3,0c0.2,0,0.3,0,0.5-0.1l0.7-0.2c0.5-0.2,1.1-0.4,1.6-0.6
					c1.1-0.5,2.3-1,3.4-1.6c2.3-1.1,4.4-2.2,6.2-3.1c1.8-0.9,3.4-1.6,4.6-2.1C560.8,693.7,561.4,693.5,561.4,693.5z"/>
				<g>
					<circle cx="505.2" cy="659.8" r="12.5"/>
					<circle cx="580.2" cy="659.8" r="12.5"/>
					<circle fill="#FFFFFF" cx="501.8" cy="656" r="3.4"/>
					<circle fill="#FFFFFF" cx="577.4" cy="656" r="3.4"/>
				</g>
				<path fill="#B2B2B3" d="M486.6,586.1c-9.9,3.5-26.5,12.4-26.5,32.3v42.1c2.8-14.3,14.4-26.4,30.3-31.7
					c5.1-1.7,10.3-2.6,15.4-2.6c11.1,0,22.5,3.8,36.1,12l1.5,0.9l1.4-1.1c8.9-7.2,21.5-11.4,34.4-11.4c19.8,0,41.7,10.2,46.1,32.9
					v-41.2c0-17.5-11.3-29.2-33.6-34.8h-97C491.9,584.4,489.2,585.2,486.6,586.1z"/>
				<g>
					<path d="M542.2,576.5L542.2,576.5C542.2,576.5,542.2,576.5,542.2,576.5L542.2,576.5h-84.6v51c0,6,0,14.8,0,23.1
						c3.1-16.5,16.6-28.7,32-33.8c19.3-6.5,36.8-0.5,53.6,9.7c26.5-21.5,77.5-14.2,84.6,23.2c0-8,0-16.2,0-22.2c0-5.4,0-9.1,0-9.1
						v-41.9H542.2z"/>
					<path d="M460.1,651.1l-5-0.5V574h175.2v75.7l-5,0.5C621,627.2,599,617,579.2,617c-13,0-25.5,4.2-34.4,11.4l-1.4,1.1l-1.5-0.9
						c-13.5-8.2-25-12-36.1-12c-5.2,0-10.3,0.9-15.4,2.6C474.4,624.5,462.8,636.7,460.1,651.1z M460.1,579v58
						c5.9-10.2,16.1-18.3,28.7-22.6c5.6-1.9,11.3-2.8,17-2.8c11.6,0,23.5,3.8,37.2,11.9c9.7-7.3,22.8-11.4,36.2-11.4
						c17.6,0,36.7,7.4,46.1,23.7V579h-74.2l0.5,0.3l-10.3-0.3H460.1z"/>
				</g>
			</g>
			<g>
				<g>
					<path fill="#BE1E2D" d="M293.1,727c-6.1-3.8-12.7-5.7-19-6.6c-2.3-6.2-4-9.7-4-9.7h-29.6h-29.6c0,0-1.6,3.5-3.9,9.6
						c-6.4,0.9-13.1,2.8-19.3,6.6c-20.2,12.4-23.3,48.6-8.9,53.2c14.3,4.5,11.1-12.3,20.1-33.3c-5.7,23.1-9.6,54.4-1.8,85h30.3
						v-32.2h13.2h13.2v32.2H284c7.6-29.8,4.1-60.3-1.4-83.2c8,20.1,5.5,35.9,19.3,31.5C316.4,775.6,313.3,739.4,293.1,727z"/>
					<path d="M286,834.3h-34.7v-32.2h-21.5v32.2H195l-0.5-1.9c-4.7-18.4-5.2-37-3.7-53.7c-1.8,2.9-4.2,4.6-8.1,4.6
						c-1.5,0-3.1-0.3-4.9-0.9c-5.6-1.8-9.4-7.5-10.4-15.7c-1.7-13.7,4.3-33.1,18.7-42c5.4-3.3,11.7-5.6,18.8-6.7
						c2-5.3,3.4-8.3,3.5-8.4l0.7-1.4h62.5l0.7,1.4c0.1,0.1,1.5,3.2,3.5,8.5c7,1.2,13.2,3.4,18.5,6.7c14.4,8.9,20.4,28.3,18.7,42
						c-1,8.2-4.8,13.9-10.4,15.7c-1.8,0.6-3.4,0.9-4.9,0.9c0,0,0,0,0,0c-3.6,0-5.9-1.5-7.7-4.1c1.4,16.4,0.9,34.9-3.7,53.1
						L286,834.3z M256.2,829.3h25.8c7.1-29.7,3-59.8-1.8-80.1l4.8-1.5c2.5,6.3,4,12.3,5.3,17.1c2.5,9.9,3.8,13.6,7.6,13.6
						c0,0,0,0,0,0c0.9,0,2.1-0.2,3.4-0.6c3.6-1.2,6.2-5.4,6.9-11.6c1.5-12.3-4.2-29.6-16.4-37.1c-5.1-3.1-11.2-5.2-18-6.2l-1.5-0.2
						l-0.5-1.4c-1.4-3.7-2.6-6.5-3.2-8.1h-56c-0.7,1.5-1.8,4.3-3.2,8l-0.5,1.4l-1.5,0.2c-7,1-13.2,3.1-18.4,6.3
						c-12.2,7.5-17.9,24.8-16.4,37.1c0.8,6.2,3.3,10.4,6.9,11.6c6.5,2.1,7.9-0.6,11-13c1.4-5.3,3.1-12,6.1-19l4.7,1.6
						c-5.1,20.7-9.5,51.6-2.3,81.9h25.8v-32.2h31.5V829.3z"/>
				</g>
				<g>
					<path fill="#BE1E2D" d="M193.5,811.3c0.1,1.4,0.2,2.7,0.4,4h-5c-4.6,0-8.2,3.7-8.2,8.2v0c0,4.6,3.7,8.2,8.2,8.2h7.4h31.4v-16.5
						v-4H193.5z"/>
					<path d="M230.2,834.3h-41.4c-5.9,0-10.7-4.8-10.7-10.7c0-5.9,4.8-10.7,10.7-10.7h2.3c0-0.5-0.1-0.9-0.1-1.4l-0.2-2.7h39.3
						V834.3z M188.8,817.8c-3.2,0-5.7,2.6-5.7,5.7s2.6,5.7,5.7,5.7h36.4v-15.5h-29c0,0.4,0.1,0.8,0.1,1.2l0.4,2.8H188.8z"/>
				</g>
				<g>
					<path fill="#BE1E2D" d="M292.3,815.3h-5c0.2-1.1,0.2-2.3,0.3-3.5h-34.1v3.5v16.5h31.4h7.4c4.6,0,8.2-3.7,8.2-8.2v0
						C300.6,819,296.9,815.3,292.3,815.3z"/>
					<path d="M292.3,834.3h-41.4v-25h39.2L290,812c0,0.3,0,0.6,0,0.9h2.3c5.9,0,10.7,4.8,10.7,10.7
						C303.1,829.5,298.2,834.3,292.3,834.3z M255.9,829.3h36.4c3.2,0,5.7-2.6,5.7-5.7s-2.6-5.7-5.7-5.7h-7.9l0.4-2.8
						c0-0.2,0.1-0.4,0.1-0.6h-28.9V829.3z"/>
				</g>
				<path d="M227.7,808.4h-34.4c0.2,2.4,0.2,4.7,0.5,7h33.8v-6.2V808.4z"/>
				<path d="M253.4,815.3h33.8c0.3-2.2,0.3-4.5,0.5-7h-34.3v0.8V815.3z"/>
				<path d="M206.9,720.4c-6.4,0.9-13.1,2.8-19.3,6.6c-4,2.5-7.4,5.9-10,9.9l19.2,15.3v0c0.6-1.7,1.3-3.5,2.1-5.3
					c-3.3,13.4-6,29.5-6.2,46.6h17.9c0,0,0.3-9.7,0-22.1c-0.3-12.4,10.3-52.1,10.3-52.1l-5-3.4l-4.9-5.1h-0.1
					C210.9,710.7,209.2,714.2,206.9,720.4z"/>
				<path d="M274.2,720.4c6.4,0.9,13.1,2.8,19.3,6.6c4,2.5,7.4,5.9,10,9.9l-19.2,15.3v0c-0.6-1.7-1.3-3.5-2.1-5.3
					c3.3,13.4,6,29.5,6.2,46.6h-17.9c0,0-0.3-9.7,0-22.1c0.3-12.4-10.3-52.1-10.3-52.1l5-3.4l4.9-5.1h0.1
					C270.2,710.7,271.9,714.2,274.2,720.4z"/>
				<g>
					<g>
						<path fill="#FFFFFF" d="M277.1,719l-12.6-9.1l-21.8,30.1c-0.8-0.1-1.5-0.2-2.3-0.2c-0.8,0-1.6,0.1-2.4,0.2l-21.8-30.1
							l-12.6,9.1l23.9,33c0,0.2,0,0.4,0,0.5c0,4.2,2,7.9,5.1,10.2v19.5h15.6v-19.5c3.1-2.4,5.1-6.1,5.1-10.2c0-0.2,0-0.4,0-0.6
							L277.1,719z"/>
						<path d="M250.6,784.9H230V764c-3.2-2.9-5-6.9-5.1-11.2l-24.9-34.4l16.7-12.1l22.4,30.9c0.8-0.1,1.6-0.1,2.4,0l22.4-30.9
							l16.7,12.1l-24.8,34.3c0,4.3-1.9,8.4-5.1,11.3V784.9z M235,779.9h10.6v-18.3l1-0.8c2.6-2,4.1-5,4.1-8.3c0-0.1,0-0.2,0-0.2
							l-0.1-1.1l22.9-31.6l-8.6-6.2l-21.2,29.3l-1.5-0.3c-1.3-0.2-2.5-0.2-3.8,0l-1.6,0.3l-21.2-29.3l-8.6,6.2l23,31.7l-0.1,1.1
							c0,0.1,0,0.1,0,0.2c0,3.3,1.5,6.3,4.1,8.3l1,0.8V779.9z"/>
					</g>
					<circle fill="#BE1E2D" cx="240.3" cy="752.6" r="6.4"/>
				</g>
				<g>
					<path fill="#E8C069" d="M288.1,783.7c-0.2-4.1-0.6-8.1-1.1-12c-30.5,7.6-62.5,7.6-93,0c-0.5,3.9-0.8,7.9-1.1,12
						C224.2,791.2,256.8,791.2,288.1,783.7z"/>
					<path d="M240.5,791.8C240.5,791.8,240.5,791.8,240.5,791.8c-16.2,0-32.4-1.9-48.2-5.7l-2-0.5l0.1-2.1c0.2-4,0.6-8.1,1.1-12.1
						l0.3-2.8l2.7,0.7c30,7.5,61.8,7.5,91.8,0l2.7-0.7l0.3,2.8c0.5,4.1,0.9,8.2,1.1,12.1l0.1,2.1l-2,0.5
						C272.9,789.9,256.7,791.8,240.5,791.8z M195.6,781.8c29.5,6.7,60.4,6.7,89.9,0c-0.2-2.3-0.4-4.6-0.6-6.9
						c-29,6.8-59.6,6.8-88.7,0C195.9,777.1,195.7,779.5,195.6,781.8z"/>
				</g>
				<g>
					<path fill="#BE1E2D" d="M267.1,572.7c-7.1-0.5-14.6-1-22.3-1.2c-21.1-0.6-43.5,0.5-62,7.2c-15.7,5.6-28.2,17-28.2,34.6
						c0,0,0,4.7,0,11.5v45.8l0,0v22.3c0,17.7,14.3,32,32,32h106.2c17.7,0,32-14.3,32-32v-22.3v-45.8v-6.7c0-3,0-4.8,0-4.8
						C324.7,582.4,292,574.6,267.1,572.7z"/>
					<path d="M292.7,727.4H186.5c-19,0-34.5-15.5-34.5-34.5v-79.6c0-16.7,10.9-30.2,29.8-37c14-5,31.4-7.4,53.3-7.4
						c3.1,0,6.4,0,9.7,0.1c6.7,0.2,13.9,0.6,22.4,1.2c39.2,2.9,60,17.8,60,43.1v79.6C327.2,711.9,311.7,727.4,292.7,727.4z
						 M235.1,573.9c-21.2,0-38.1,2.3-51.6,7.2c-9.9,3.5-26.5,12.4-26.5,32.3v79.6c0,16.3,13.2,29.5,29.5,29.5h106.2
						c16.3,0,29.5-13.2,29.5-29.5v-79.6c0-22.5-18.6-35.3-55.3-38.1c-8.5-0.6-15.6-1-22.2-1.2C241.4,573.9,238.2,573.9,235.1,573.9z
						"/>
				</g>
				<path d="M247.2,676.3c0,0,48.1-69,57.6-64.3c9.5,4.7,13,59.7,5.9,75c-7.1,15.3-38.7,20.8-38.7,20.8L247.2,676.3z"/>
				<circle fill="#FFFFFF" cx="286.9" cy="677.5" r="12.5"/>
				<path d="M233,676.3c0,0-48.1-69-57.6-64.3c-9.5,4.7-13,59.7-5.9,75s38.7,20.8,38.7,20.8L233,676.3z"/>
				<circle fill="#FFFFFF" cx="193.9" cy="677.5" r="12.5"/>
			</g>
			<g>
				<g>
					<path fill="#9E1522" d="M1180.6,803.2v-52.5l-133.7-3.7v56.2c0,13.1-11.1,23.8,8.4,23.8h116.8
						C1191.7,827,1180.6,816.4,1180.6,803.2z"/>
					<path d="M1172.1,829.5h-116.8c-6.7,0-10.6-1.2-12.6-3.8c-2.5-3.3-1.3-7.6-0.1-12.3c0.8-3.1,1.8-6.6,1.8-10.2v-58.8l138.7,3.9
						v54.9c0,3.6,0.9,7.1,1.8,10.2c1.2,4.6,2.4,9-0.1,12.3C1182.7,828.3,1178.8,829.5,1172.1,829.5z M1049.4,749.6v53.6
						c0,4.2-1,8.1-1.9,11.5c-0.9,3.4-1.8,6.6-0.8,7.9c0.5,0.7,2.4,1.9,8.6,1.9h116.8c6.3,0,8.1-1.2,8.6-1.9c1-1.3,0.1-4.5-0.8-7.9
						c-0.9-3.4-1.9-7.3-1.9-11.5v-50L1049.4,749.6z"/>
				</g>
				<g>
					<path fill="#EBB787" d="M1104.8,729.9c0,0-22.5-4.7-31.7,16.5s-5.9,38.4-20.3,33.8c-14.4-4.6-11.3-40.7,8.9-53.2
						c17.5-10.8,39.1-6.3,45.7-6.6L1104.8,729.9z"/>
					<path d="M1057,783.4c-1.5,0-3.1-0.3-4.9-0.9c-5.6-1.8-9.4-7.5-10.4-15.7c-1.7-13.7,4.3-33.1,18.7-42c8.4-5.1,18.5-7.7,31.2-7.7
						c4,0,7.5,0.2,10.4,0.4c2.3,0.2,4.1,0.3,5.4,0.2l3.5-0.2l-4.2,15.1l-2.3-0.5c0,0-1.9-0.4-4.8-0.4c-6.5,0-18.2,2-24.1,15.5
						c-3,6.8-4.6,13.1-6,18.7C1066.9,775.7,1065,783.4,1057,783.4L1057,783.4z M1091.6,722.2c-11.7,0-21,2.3-28.5,6.9
						c-12.2,7.5-17.9,24.8-16.4,37.1c0.8,6.2,3.3,10.4,6.9,11.6c6.5,2.1,7.9-0.6,11-13c1.4-5.5,3.1-12.2,6.2-19.4
						c7-16.1,20.9-18.5,28.7-18.5c1.4,0,2.5,0.1,3.5,0.2l1.2-4.3c-0.8,0-1.6-0.1-2.5-0.2C1098.8,722.4,1095.4,722.2,1091.6,722.2z"
						/>
				</g>
				<g>
					<path fill="#EBB787" d="M1124.2,729.9c0,0,22.5-4.7,31.7,16.5c9.2,21.2,5.9,38.4,20.3,33.8c14.4-4.6,11.3-40.7-8.9-53.2
						c-17.5-10.8-39.1-6.3-45.7-6.6L1124.2,729.9z"/>
					<path d="M1172,783.4c-8,0-10-7.7-12.4-17.4c-1.4-5.6-3-11.8-6-18.7c-5.8-13.4-17.6-15.5-24.1-15.5c-2.9,0-4.8,0.4-4.8,0.4
						l-2.3,0.5l-4.2-15.1l3.5,0.2c1.2,0.1,3.1-0.1,5.4-0.2c2.9-0.2,6.4-0.4,10.4-0.4c12.6,0,22.8,2.5,31.2,7.7
						c14.4,8.9,20.4,28.3,18.7,42c-1,8.2-4.8,13.9-10.4,15.7C1175.1,783.1,1173.5,783.4,1172,783.4z M1129.5,726.9
						c7.7,0,21.7,2.4,28.7,18.5c3.1,7.2,4.8,14,6.2,19.4c3.1,12.3,4.5,15,11,13c3.6-1.2,6.2-5.4,6.9-11.6
						c1.5-12.3-4.2-29.6-16.4-37.1c-7.5-4.6-16.9-6.9-28.6-6.9c-3.8,0-7.3,0.2-10,0.4c-0.9,0.1-1.7,0.1-2.5,0.2l1.2,4.3
						C1126.9,727,1128.1,726.9,1129.5,726.9z"/>
				</g>
				<g>
					<path fill="#524E4D" d="M1185,761.7c-0.1-12.4-6.1-27.6-17.8-34.8c-6.1-3.8-12.7-5.6-19-6.5c-2.3-6.2-4-9.7-4-9.7h-29.6H1085
						c0,0-1.7,3.5-4,9.7c-6.3,0.9-12.9,2.8-19,6.5c-11.7,7.2-17.7,22.4-17.8,34.8c0,0,11.8,0,21.8,8.5c1.6-5.7,3.1-13.3,6.4-21.5
						c-5.4,22.9-9,53.3-1.4,83.2h30.3v-32.2h13.2h13.2v32.2h30.3c7.6-29.8,4.1-60.2-1.4-83.2c3.3,8.3,4.8,15.8,6.4,21.5
						C1173.2,761.7,1185,761.7,1185,761.7z"/>
					<path d="M1160.1,834.3h-34.7v-32.2h-21.5v32.2h-34.7l-0.5-1.9c-5.3-20.6-5.2-41.4-3.1-59.3l-1.2-1c-9.1-7.8-20.1-7.9-20.2-7.9
						l-2.5,0l0-2.5c0.1-12.6,6.1-28.9,19-36.9c5.3-3.3,11.5-5.5,18.5-6.7c2-5.3,3.5-8.4,3.5-8.5l0.7-1.4h62.5l0.7,1.4
						c0.1,0.1,1.5,3.2,3.5,8.5c7,1.2,13.2,3.4,18.5,6.7c12.9,8,18.9,24.3,19,36.9l0,2.5l-2.5,0c-0.1,0-11.1,0.1-20.2,7.9l-1.2,1
						c2.1,17.9,2.2,38.7-3.1,59.3L1160.1,834.3z M1130.4,829.3h25.8c7.1-29.7,3-59.8-1.8-80.1l4.8-1.5c2.5,6.3,4,12.3,5.3,17.1
						c0.1,0.4,0.2,0.8,0.3,1.1c6.9-4.7,14-6.1,17.8-6.5c-0.8-10.6-6.1-23.9-16.5-30.3c-5.1-3.1-11.1-5.2-18-6.2l-1.5-0.2l-0.5-1.4
						c-1.4-3.7-2.6-6.5-3.2-8.1h-56c-0.7,1.6-1.8,4.3-3.2,8.1l-0.5,1.4l-1.5,0.2c-6.9,1-12.9,3.1-18,6.2
						c-10.5,6.4-15.7,19.7-16.5,30.3c3.7,0.4,10.9,1.8,17.8,6.5c0.1-0.4,0.2-0.8,0.3-1.1c1.2-4.8,2.8-10.8,5.3-17.1l4.8,1.5
						c-4.8,20.3-8.9,50.4-1.8,80.1h25.8v-32.2h31.5V829.3z"/>
				</g>
				<g>
					<path fill="#CACACA" d="M1066.4,798.8c-0.2,5.7,0.3,11.5,1,16.5h-4.1c-4.6,0-8.2,3.7-8.2,8.2v0c0,4.6,3.7,8.2,8.2,8.2h7.4h31.4
						v-16.5v-6.2L1066.4,798.8z"/>
					<path d="M1104.8,834.3h-41.4c-5.9,0-10.7-4.8-10.7-10.7c0-5.9,4.8-10.7,10.7-10.7h1.2c-0.6-5-0.8-9.7-0.7-14.1l0.1-3.2
						l40.7,11.7V834.3z M1063.4,817.8c-3.2,0-5.7,2.6-5.7,5.7s2.6,5.7,5.7,5.7h36.4V811l-30.9-8.9c0.1,4,0.4,8.3,1,12.8l0.4,2.8
						H1063.4z"/>
				</g>
				<g>
					<path fill="#CACACA" d="M1163.2,798.8c0.2,5.7-0.3,11.5-1,16.5h4.1c4.6,0,8.2,3.7,8.2,8.2v0c0,4.6-3.7,8.2-8.2,8.2h-7.4h-31.4
						v-16.5v-6.2L1163.2,798.8z"/>
					<path d="M1166.3,834.3h-41.4v-27.1l40.7-11.7l0.1,3.2c0.1,4.4-0.1,9.1-0.7,14.1h1.2c5.9,0,10.7,4.8,10.7,10.7
						C1177,829.5,1172.2,834.3,1166.3,834.3z M1129.9,829.3h36.4c3.2,0,5.7-2.6,5.7-5.7s-2.6-5.7-5.7-5.7h-6.9l0.4-2.8
						c0.6-4.5,1-8.8,1-12.8l-30.9,8.9V829.3z"/>
				</g>
				<g>
					<path fill="#EBB787" d="M1038.4,769.6c-1.2,9.6,6.9,17.7,16.5,16.5c6.5-0.8,11.8-6.1,12.7-12.7c1.2-9.6-6.9-17.7-16.5-16.5
						C1044.5,757.7,1039.2,763,1038.4,769.6z"/>
					<path d="M1052.9,788.6C1052.9,788.6,1052.9,788.6,1052.9,788.6c-4.9,0-9.6-2.1-12.9-5.8c-3.3-3.7-4.8-8.6-4.2-13.6
						c1-7.6,7.2-13.9,14.8-14.8c5.7-0.7,11.4,1.4,15.1,5.7c3.3,3.7,4.8,8.6,4.2,13.6c-1,7.6-7.2,13.9-14.8,14.8
						C1054.4,788.6,1053.7,788.6,1052.9,788.6z M1052.9,759.3c-0.5,0-1.1,0-1.6,0.1c-5.4,0.7-9.8,5.1-10.5,10.5
						c-0.4,3.6,0.6,7,2.9,9.7c2.3,2.6,5.6,4.1,9.1,4.1l0,0c0.5,0,1.1,0,1.6-0.1c5.4-0.7,9.8-5.1,10.5-10.5c0.4-3.6-0.6-7-2.9-9.7
						C1059.8,760.8,1056.4,759.3,1052.9,759.3z"/>
				</g>
				<g>
					<ellipse fill="#9E1522" cx="1077.8" cy="726.8" rx="16.8" ry="6.4"/>
					<path d="M1077.8,735.7c-9.3,0-19.3-2.8-19.3-8.9s10-8.9,19.3-8.9c9.3,0,19.3,2.8,19.3,8.9S1087.1,735.7,1077.8,735.7z
						 M1077.8,722.9c-9.2,0-14.2,2.9-14.3,3.9c0.1,1,5.1,3.9,14.3,3.9c9.2,0,14.2-2.9,14.3-3.9C1092,725.8,1087,722.9,1077.8,722.9z
						"/>
				</g>
				<g>
					<ellipse fill="#9E1522" cx="1152.7" cy="726.8" rx="16.8" ry="6.4"/>
					<path d="M1152.7,735.7c-9.3,0-19.3-2.8-19.3-8.9s10-8.9,19.3-8.9s19.3,2.8,19.3,8.9S1162,735.7,1152.7,735.7z M1152.7,722.9
						c-9.2,0-14.2,2.9-14.3,3.9c0.1,1,5.1,3.9,14.3,3.9s14.2-2.9,14.3-3.9C1166.9,725.8,1161.9,722.9,1152.7,722.9z"/>
				</g>
				<g>
					<path fill="#EBB787" d="M1167.7,586.1h-106.2c-17.7,0-32,14.3-32,32v74.7c0,17.7,14.3,32,32,32h106.2c17.7,0,32-14.3,32-32
						v-74.7C1199.7,600.5,1185.4,586.1,1167.7,586.1z"/>
					<path d="M1167.7,727.4h-106.2c-19,0-34.5-15.5-34.5-34.5v-74.7c0-19,15.5-34.5,34.5-34.5h106.2c19,0,34.5,15.5,34.5,34.5v74.8
						C1202.2,711.9,1186.7,727.4,1167.7,727.4z M1061.6,588.6c-16.3,0-29.5,13.2-29.5,29.5v74.7c0,16.3,13.2,29.5,29.5,29.5h106.2
						c16.3,0,29.5-13.2,29.5-29.5v-74.8c0-16.3-13.2-29.5-29.5-29.5H1061.6z"/>
					<path fill="#D69576" d="M1032.1,618.1v45.4c0-4.3,0.4-19.4,5.8-33.4c0.2-0.4,0.3-0.8,0.5-1.3l0.1-0.1c0.2-0.4,0.3-0.7,0.4-1
						l0.1-0.1c0.2-0.4,0.3-0.8,0.6-1.3c0.2-0.4,0.4-0.8,0.5-1.1l0.1-0.1c0.2-0.4,0.4-0.7,0.5-1l0.1-0.2c0.2-0.3,0.4-0.7,0.6-1
						l0.1-0.2c0.2-0.3,0.4-0.7,0.6-1l0.1-0.2c0.2-0.3,0.4-0.6,0.6-0.9l0.1-0.2c0.2-0.3,0.4-0.6,0.6-0.9l0.2-0.3
						c0.2-0.3,0.4-0.6,0.6-0.8l0.2-0.3c0.2-0.3,0.4-0.5,0.6-0.8l0.2-0.2c0.2-0.3,0.4-0.5,0.6-0.7l0.2-0.3c0.2-0.2,0.4-0.5,0.6-0.7
						l0.3-0.3c0.2-0.2,0.4-0.4,0.7-0.7l0.2-0.2c0.2-0.2,0.4-0.4,0.6-0.6l0.3-0.3c0.2-0.2,0.4-0.4,0.6-0.6l0.3-0.3
						c0.2-0.2,0.4-0.4,0.6-0.5l0.4-0.3c0.2-0.2,0.4-0.3,0.6-0.5l0.4-0.3c0.2-0.2,0.4-0.3,0.6-0.5l0.4-0.3c0.2-0.1,0.4-0.3,0.7-0.4
						l0.4-0.3c0.2-0.1,0.4-0.3,0.7-0.4l0.5-0.3c0.2-0.1,0.4-0.2,0.7-0.4l0.5-0.3c0.2-0.1,0.4-0.2,0.6-0.3l0.7-0.3
						c0.2-0.1,0.4-0.2,0.6-0.2l0.7-0.3c0.2-0.1,0.4-0.1,0.6-0.2l0.3-0.1c0.1,0,0.3-0.1,0.4-0.1c0.2-0.1,0.4-0.1,0.6-0.2l0.4-0.1
						c0.1,0,0.3-0.1,0.4-0.1c0.2-0.1,0.4-0.1,0.6-0.1l0.5-0.1c0.1,0,0.2-0.1,0.4-0.1c0.2,0,0.4-0.1,0.6-0.1l0.5-0.1
						c0.1,0,0.2,0,0.4-0.1c0.2,0,0.4-0.1,0.6-0.1l0.9-0.1c0.2,0,0.5-0.1,0.7-0.1l0.8-0.1c0.3,0,0.7,0,1.1-0.1l0.5,0
						c1.6-0.1,3.3,0,4.9,0c0.2,0,0.4,0,0.6,0l0.7,0c0.6,0,1.2,0.1,1.8,0.1c0.3,0,0.5,0,0.7,0.1l0.7,0.1c0.5,0,1,0.1,1.5,0.1
						c0.3,0,0.6,0.1,0.9,0.1l0.5,0.1c0.5,0.1,0.9,0.1,1.4,0.2c0.3,0,0.6,0.1,0.9,0.2l0.4,0.1c0.4,0.1,0.9,0.2,1.3,0.2
						c0.4,0.1,0.7,0.2,1.2,0.3c0.4,0.1,0.9,0.2,1.3,0.3c0.4,0.1,0.7,0.2,1.1,0.3c0.4,0.1,0.8,0.2,1.2,0.3c0.4,0.1,0.7,0.2,1.1,0.3
						c0.4,0.1,0.7,0.2,1.1,0.4c0.4,0.1,0.7,0.2,1,0.4c0.3,0.1,0.6,0.2,1,0.4c0.3,0.1,0.7,0.3,1,0.4c0.3,0.1,0.6,0.3,0.9,0.4
						c0.3,0.1,0.7,0.3,1,0.4c0.3,0.1,0.5,0.3,0.8,0.4c0.3,0.2,0.6,0.3,0.9,0.5c0.2,0.1,0.4,0.2,0.5,0.3l0.1,0.1
						c0.3,0.2,0.6,0.4,0.9,0.5l0.6,0.4c0.3,0.2,0.5,0.3,0.8,0.5l0.4,0.3c0.3,0.2,0.6,0.4,0.9,0.7l0.2,0.2c0.3,0.3,0.7,0.5,1,0.8
						c6.5,5.3,8.2,11,8.2,11l2.4,8.5l2.4-8.5c0.1-0.2,6.3-20.8,41.8-20.8c37.3,0,38.3,52.8,38.3,58.8v-45.4
						c0-16.3-13.2-29.5-29.5-29.5h-106.2C1045.3,588.6,1032.1,601.9,1032.1,618.1z"/>
				</g>
				<g>
					<circle cx="1077.1" cy="659.8" r="12.5"/>
					<circle cx="1152.1" cy="659.8" r="12.5"/>
					<circle fill="#FFFFFF" cx="1073.8" cy="656" r="3.4"/>
					<circle fill="#FFFFFF" cx="1149.3" cy="656" r="3.4"/>
				</g>
				<g>
					<path fill="#D0B867" d="M1145.2,558.8c-7.9-0.5-16.3-1-24.8-1.2c-23.5-0.6-48.5,0.5-69,7.2c-17.5,5.6-31.4,24.3-31.4,41.9
						c0,0,0,59,0,59V747c0,0,20.5-1,41.6-22.1c-17.7,0-32-14.3-32-32V656c0-5.7,0.7-20.6,6-34.3c0.2-0.4,0.3-0.9,0.5-1.3
						c0,0,0,0,0,0c0.2-0.4,0.4-0.9,0.5-1.3c0,0,0,0,0-0.1c0.2-0.4,0.4-0.8,0.5-1.2c0,0,0-0.1,0-0.1c0.2-0.4,0.4-0.8,0.6-1.2
						c0,0,0-0.1,0.1-0.1c0.2-0.4,0.4-0.8,0.6-1.1c0-0.1,0.1-0.1,0.1-0.2c0.2-0.4,0.4-0.7,0.6-1.1c0-0.1,0.1-0.1,0.1-0.2
						c0.2-0.3,0.4-0.7,0.6-1c0-0.1,0.1-0.1,0.1-0.2c0.2-0.3,0.4-0.6,0.6-1c0.1-0.1,0.1-0.2,0.2-0.2c0.2-0.3,0.4-0.6,0.6-0.9
						c0.1-0.1,0.1-0.2,0.2-0.3c0.2-0.3,0.4-0.6,0.6-0.9c0.1-0.1,0.1-0.2,0.2-0.3c0.2-0.3,0.4-0.6,0.6-0.8c0.1-0.1,0.2-0.2,0.2-0.3
						c0.2-0.3,0.4-0.5,0.6-0.8c0.1-0.1,0.2-0.2,0.3-0.3c0.2-0.3,0.4-0.5,0.6-0.7c0.1-0.1,0.2-0.2,0.3-0.3c0.2-0.2,0.4-0.5,0.7-0.7
						c0.1-0.1,0.2-0.2,0.3-0.3c0.2-0.2,0.4-0.4,0.7-0.7c0.1-0.1,0.2-0.2,0.3-0.3c0.2-0.2,0.4-0.4,0.7-0.6c0.1-0.1,0.2-0.2,0.4-0.3
						c0.2-0.2,0.5-0.4,0.7-0.6c0.1-0.1,0.3-0.2,0.4-0.3c0.2-0.2,0.5-0.4,0.7-0.5c0.1-0.1,0.3-0.2,0.4-0.3c0.2-0.2,0.5-0.3,0.7-0.5
						c0.2-0.1,0.3-0.2,0.5-0.3c0.2-0.2,0.5-0.3,0.7-0.5c0.2-0.1,0.3-0.2,0.5-0.3c0.2-0.1,0.5-0.3,0.7-0.4c0.2-0.1,0.3-0.2,0.5-0.3
						c0.2-0.1,0.5-0.3,0.8-0.4c0.2-0.1,0.4-0.2,0.5-0.3c0.3-0.1,0.5-0.2,0.8-0.4c0.2-0.1,0.4-0.2,0.6-0.3c0.3-0.1,0.5-0.2,0.8-0.3
						c0.2-0.1,0.4-0.2,0.6-0.2c0.3-0.1,0.5-0.2,0.8-0.3c0.2-0.1,0.4-0.1,0.6-0.2c0.3-0.1,0.6-0.2,0.8-0.2c0.2-0.1,0.4-0.1,0.6-0.2
						c0.3-0.1,0.6-0.1,0.9-0.2c0.2-0.1,0.4-0.1,0.7-0.2c0.3-0.1,0.6-0.1,0.9-0.2c0.2,0,0.4-0.1,0.7-0.1c0.3-0.1,0.6-0.1,0.9-0.1
						c0.2,0,0.4-0.1,0.7-0.1c0.3,0,0.7-0.1,1-0.1c0.2,0,0.4,0,0.6-0.1c0.4,0,0.8-0.1,1.2-0.1c0.2,0,0.4,0,0.5,0c0.6,0,1.2,0,1.8,0
						c1.2,0,2.3,0,3.4,0.1c0.4,0,0.7,0,1.1,0.1c0.7,0,1.4,0.1,2.1,0.1c0.4,0,0.8,0.1,1.2,0.1c0.6,0.1,1.2,0.1,1.8,0.2
						c0.4,0,0.8,0.1,1.3,0.2c0.5,0.1,1.1,0.1,1.6,0.2c0.4,0.1,0.8,0.1,1.2,0.2c0.5,0.1,1,0.2,1.5,0.3c0.4,0.1,0.8,0.2,1.2,0.3
						c0.5,0.1,0.9,0.2,1.3,0.3c0.4,0.1,0.8,0.2,1.2,0.3c0.4,0.1,0.8,0.2,1.2,0.3c0.4,0.1,0.8,0.2,1.1,0.4c0.4,0.1,0.8,0.2,1.1,0.4
						c0.4,0.1,0.7,0.3,1.1,0.4c0.3,0.1,0.7,0.3,1,0.4c0.4,0.1,0.7,0.3,1.1,0.4c0.3,0.1,0.6,0.3,0.9,0.4c0.3,0.2,0.7,0.3,1,0.5
						c0.3,0.1,0.5,0.3,0.8,0.4c0.3,0.2,0.7,0.3,1,0.5c0.2,0.1,0.5,0.3,0.7,0.4c0.3,0.2,0.7,0.4,1,0.6c0.2,0.1,0.4,0.2,0.6,0.4
						c0.3,0.2,0.7,0.4,1,0.6c0.2,0.1,0.3,0.2,0.4,0.3c0.3,0.2,0.7,0.5,1,0.7c0.1,0.1,0.2,0.1,0.3,0.2c0.4,0.3,0.7,0.5,1,0.8l0,0
						c7.2,6,9,12.3,9,12.3s6.4-22.7,44.3-22.7c37.8,0,40.8,49.7,40.8,61.3v36.9c0,17.7-14.3,32-32,32h0
						c21.1,21.1,41.6,22.1,41.6,22.1v-81.4c0,0,0-59,0-59C1209.3,575.8,1172.9,560.6,1145.2,558.8z"/>
					<path d="M1211.8,749.6l-2.6-0.1c-0.9,0-21.7-1.3-43.3-22.9l-4.3-4.3h6c16.3,0,29.5-13.2,29.5-29.5V656c0-6-1.1-58.8-38.3-58.8
						c-35.5,0-41.8,20.6-41.8,20.8l-2.4,8.5l-2.4-8.5c0,0-1.7-5.7-8.2-11c-0.3-0.3-0.6-0.5-1-0.8l-0.2-0.2c-0.3-0.2-0.6-0.4-0.9-0.7
						l-0.4-0.3c-0.3-0.2-0.5-0.4-0.8-0.5l-0.6-0.4c-0.3-0.2-0.6-0.4-0.9-0.5l-0.1-0.1c-0.2-0.1-0.3-0.2-0.5-0.3
						c-0.3-0.2-0.6-0.3-0.9-0.5c-0.3-0.1-0.5-0.3-0.8-0.4c-0.3-0.1-0.6-0.3-1-0.4c-0.3-0.1-0.6-0.3-0.9-0.4c-0.3-0.1-0.7-0.3-1-0.4
						c-0.3-0.1-0.6-0.2-1-0.4c-0.3-0.1-0.7-0.3-1-0.4c-0.3-0.1-0.7-0.2-1.1-0.4c-0.4-0.1-0.7-0.2-1.1-0.3c-0.4-0.1-0.8-0.2-1.2-0.3
						c-0.4-0.1-0.8-0.2-1.1-0.3c-0.4-0.1-0.9-0.2-1.3-0.3c-0.4-0.1-0.8-0.2-1.2-0.3c-0.4-0.1-0.9-0.2-1.3-0.2l-0.4-0.1
						c-0.3-0.1-0.6-0.1-0.9-0.2c-0.5-0.1-0.9-0.1-1.4-0.2l-0.5-0.1c-0.3,0-0.6-0.1-0.9-0.1c-0.5-0.1-1-0.1-1.5-0.1l-0.7-0.1
						c-0.2,0-0.5,0-0.7-0.1c-0.6,0-1.2-0.1-1.8-0.1l-0.7,0c-0.2,0-0.4,0-0.6,0c-1.6-0.1-3.3-0.1-4.9,0l-0.5,0c-0.4,0-0.8,0-1.1,0.1
						l-0.8,0.1c-0.2,0-0.5,0-0.7,0.1l-0.9,0.1c-0.2,0-0.4,0.1-0.6,0.1c-0.1,0-0.3,0-0.4,0.1l-0.5,0.1c-0.2,0-0.4,0.1-0.6,0.1
						c-0.1,0-0.2,0.1-0.4,0.1l-0.5,0.1c-0.2,0-0.4,0.1-0.6,0.1c-0.1,0-0.3,0.1-0.4,0.1l-0.4,0.1c-0.2,0.1-0.4,0.1-0.6,0.2
						c-0.1,0-0.3,0.1-0.4,0.1l-0.3,0.1c-0.2,0.1-0.4,0.1-0.6,0.2l-0.7,0.3c-0.2,0.1-0.4,0.2-0.6,0.2l-0.7,0.3
						c-0.2,0.1-0.4,0.2-0.6,0.3l-0.5,0.3c-0.3,0.1-0.5,0.2-0.7,0.4l-0.5,0.3c-0.2,0.1-0.5,0.3-0.7,0.4l-0.4,0.3
						c-0.2,0.2-0.5,0.3-0.7,0.4l-0.4,0.3c-0.2,0.2-0.4,0.3-0.6,0.5l-0.4,0.3c-0.2,0.2-0.4,0.3-0.6,0.5l-0.4,0.3
						c-0.2,0.2-0.4,0.3-0.6,0.5l-0.3,0.3c-0.2,0.2-0.4,0.4-0.6,0.6l-0.3,0.3c-0.2,0.2-0.4,0.4-0.6,0.6l-0.2,0.2
						c-0.3,0.3-0.5,0.5-0.7,0.7l-0.3,0.3c-0.2,0.2-0.4,0.5-0.6,0.7l-0.2,0.3c-0.2,0.2-0.4,0.5-0.6,0.7l-0.2,0.2
						c-0.2,0.3-0.4,0.6-0.6,0.8l-0.2,0.3c-0.2,0.3-0.4,0.6-0.6,0.8l-0.2,0.3c-0.2,0.3-0.4,0.6-0.6,0.9l-0.1,0.2
						c-0.2,0.3-0.4,0.6-0.6,0.9l-0.1,0.2c-0.2,0.3-0.4,0.6-0.6,1l-0.1,0.2c-0.2,0.4-0.4,0.7-0.6,1l-0.1,0.2c-0.2,0.3-0.3,0.7-0.5,1
						l-0.1,0.1c-0.2,0.4-0.4,0.7-0.5,1.1c-0.2,0.5-0.4,0.9-0.6,1.3l-0.1,0.1c-0.1,0.3-0.3,0.7-0.4,1l-0.1,0.1
						c-0.2,0.4-0.3,0.8-0.5,1.3c-5.4,14.1-5.8,29.1-5.8,33.4v36.9c0,16.3,13.2,29.5,29.5,29.5h6l-4.3,4.3
						c-21.5,21.5-42.4,22.8-43.3,22.9l-2.6,0.1v-143c0-18.9,14.5-38.4,33.1-44.3c15.5-5,34.9-7.4,59.1-7.4c3.4,0,7.1,0,10.8,0.1
						c7.5,0.2,15.4,0.6,24.9,1.2c26.7,1.8,66.5,16.7,66.5,50.4V749.6z M1173.5,726.9c14.4,12.8,27.8,16.3,33.3,17.3V606.6
						c0-30.3-37-43.7-61.8-45.4c-9.5-0.6-17.3-1-24.7-1.2c-3.7-0.1-7.2-0.1-10.6-0.1c-23.7,0-42.5,2.3-57.6,7.2
						c-16.3,5.2-29.6,23-29.6,39.6v137.5c5.5-1,19-4.6,33.3-17.3c-16.3-2.8-28.7-17-28.7-34V656c0-4.5,0.4-20.3,6.1-35.2
						c0.2-0.4,0.3-0.8,0.5-1.2l0.1-0.2c0.2-0.4,0.3-0.8,0.5-1.2c0.2-0.5,0.4-0.9,0.6-1.3l0-0.1c0.2-0.4,0.4-0.8,0.6-1.2l0.1-0.1
						c0.2-0.4,0.4-0.8,0.6-1.2l0.1-0.1c0.2-0.4,0.4-0.8,0.6-1.2l0.1-0.2c0.2-0.3,0.4-0.7,0.6-1l0.1-0.2c0.2-0.3,0.4-0.7,0.6-1
						l0.2-0.3c0.2-0.3,0.4-0.7,0.6-1l0.2-0.3c0.2-0.3,0.4-0.6,0.7-0.9l0.2-0.3c0.2-0.3,0.4-0.6,0.7-0.9l0.3-0.3
						c0.2-0.3,0.4-0.5,0.7-0.8l0.3-0.3c0.2-0.3,0.5-0.5,0.7-0.8l0.3-0.3c0.2-0.3,0.5-0.5,0.7-0.8l0.3-0.3c0.2-0.2,0.5-0.5,0.7-0.7
						l0.4-0.4c0.2-0.2,0.5-0.4,0.7-0.7l0.4-0.4c0.2-0.2,0.5-0.4,0.7-0.6l0.4-0.4c0.2-0.2,0.5-0.4,0.7-0.6l0.5-0.3
						c0.2-0.2,0.5-0.4,0.7-0.5l0.5-0.4c0.2-0.2,0.5-0.3,0.7-0.5l0.6-0.4c0.3-0.2,0.5-0.3,0.8-0.5l0.1-0.1c0.1-0.1,0.3-0.2,0.4-0.2
						c0.2-0.1,0.5-0.3,0.7-0.4l0.6-0.3c0.2-0.1,0.5-0.2,0.7-0.3l0.3-0.2c0.1-0.1,0.3-0.1,0.4-0.2c0.2-0.1,0.5-0.2,0.7-0.3l0.3-0.1
						c0.2-0.1,0.3-0.1,0.5-0.2c0.2-0.1,0.5-0.2,0.7-0.3l0.3-0.1c0.2-0.1,0.3-0.1,0.5-0.2c0.2-0.1,0.5-0.1,0.7-0.2l0.3-0.1
						c0.2-0.1,0.4-0.1,0.5-0.2c0.2-0.1,0.5-0.1,0.7-0.2l0.4-0.1c0.2,0,0.3-0.1,0.5-0.1c0.2-0.1,0.5-0.1,0.8-0.2l0.4-0.1
						c0.2,0,0.3-0.1,0.5-0.1c0.3,0,0.5-0.1,0.8-0.1l0.4-0.1c0.2,0,0.3-0.1,0.5-0.1c0.3,0,0.6-0.1,0.9-0.1l0.4,0c0.1,0,0.3,0,0.4,0
						c0.4,0,0.8-0.1,1.2-0.1l0.3,0c0.1,0,0.3,0,0.4,0c1.7-0.1,3.6,0,5.3,0c0.2,0,0.5,0,0.7,0l0.6,0c0.7,0,1.3,0.1,2,0.1
						c0.3,0,0.6,0.1,0.9,0.1l0.7,0.1c0.5,0,1.1,0.1,1.6,0.2c0.3,0,0.6,0.1,1,0.1l0.5,0.1c0.5,0.1,1,0.1,1.5,0.2
						c0.3,0.1,0.7,0.1,1,0.2l0.4,0.1c0.5,0.1,1,0.2,1.4,0.3c0.4,0.1,0.8,0.2,1.2,0.3c0.5,0.1,1,0.2,1.5,0.3c0.4,0.1,0.8,0.2,1.2,0.3
						c0.5,0.1,0.9,0.3,1.3,0.4c0.4,0.1,0.8,0.2,1.2,0.4c0.4,0.1,0.8,0.3,1.2,0.4c0.4,0.1,0.8,0.3,1.1,0.4c0.4,0.1,0.7,0.3,1.1,0.4
						c0.4,0.2,0.8,0.3,1.1,0.5c0.3,0.1,0.6,0.3,1,0.4c0.4,0.2,0.7,0.3,1.1,0.5c0.3,0.1,0.6,0.3,0.9,0.4c0.4,0.2,0.7,0.4,1.1,0.6
						c0.2,0.1,0.4,0.2,0.6,0.3l0.1,0.1c0.4,0.2,0.7,0.4,1,0.6c0.1,0.1,0.3,0.2,0.4,0.3l0.3,0.2c0.3,0.2,0.6,0.4,0.9,0.6l0.5,0.3
						c0.4,0.3,0.7,0.5,1.1,0.8l0.3,0.2c0.4,0.3,0.8,0.6,1.1,0.9c3.6,2.9,5.9,6,7.4,8.4c4.4-7.2,16-19.4,44.3-19.4
						c42.1,0,43.3,57.3,43.3,63.8v36.9C1202.2,709.9,1189.8,724.1,1173.5,726.9z"/>
				</g>
				<g>
					<path fill="#D0B867" d="M1163.9,707.7h-14.1l-5.1-14.1c-3.5-9.6-12.6-16-22.9-16h-7.6h-7.6c-10.2,0-19.4,6.4-22.9,16l-5.1,14.1
						h-14.1c-28.6,0-35.1-22.7-35.1-22.7v7.9c0,17.7,14.3,32,32,32h52.7h52.7c17.7,0,32-14.3,32-32V685
						C1199,685,1192.5,707.7,1163.9,707.7z M1129.2,707.7h-8.1V707c0-3.7-2.9-7-6.6-7.1c-3.9-0.1-7.1,3-7.1,6.8v0.9h-8.1
						c-4.7,0-8.1-4.6-6.6-9.1c1.9-5.6,7.1-9.4,13-9.4h8.5h8.5c5.9,0,11.1,3.8,13,9.4C1137.3,703,1134,707.7,1129.2,707.7z"/>
					<path d="M1167,727.4h-105.5c-19,0-34.5-15.5-34.5-34.5v-25.8l4.9,17.2c0.2,0.8,6.4,20.9,32.7,20.9h12.3l4.5-12.4
						c3.8-10.6,14-17.7,25.2-17.7h15.2c11.3,0,21.4,7.1,25.2,17.7l4.5,12.4h12.3c26.3,0,32.4-20.1,32.7-20.9l4.9-16.8l0,25.4
						C1201.5,711.9,1186,727.4,1167,727.4z M1032.1,695c1.1,15.3,13.9,27.4,29.4,27.4H1167c15.6,0,28.3-12.1,29.4-27.4
						c-5.1,6.9-14.9,15.2-32.5,15.2h-15.8l-5.7-15.7c-3.1-8.6-11.4-14.4-20.5-14.4h-15.2c-9.2,0-17.4,5.8-20.5,14.4l-5.7,15.7h-15.8
						C1047.1,710.2,1037.3,701.9,1032.1,695z M1129.2,710.2h-10.6V707c0-2.5-1.9-4.6-4.2-4.6l-0.1,0c-2.4,0-4.3,1.9-4.3,4.3v3.4
						h-10.6c-3.1,0-5.9-1.4-7.7-3.9c-1.8-2.5-2.3-5.6-1.3-8.5c2.2-6.6,8.4-11.1,15.4-11.1h17.1c7,0,13.1,4.4,15.4,11.1
						c1,2.9,0.5,6-1.3,8.5C1135.1,708.8,1132.3,710.2,1129.2,710.2z M1123.5,705.2h5.8c1.4,0,2.8-0.7,3.6-1.8c0.8-1.2,1.1-2.6,0.6-4
						c-1.5-4.6-5.8-7.6-10.6-7.6h-17.1c-4.8,0-9.1,3.1-10.6,7.6c-0.5,1.4-0.2,2.8,0.6,4c0.8,1.2,2.2,1.8,3.6,1.8h5.7
						c0.8-4.4,4.6-7.8,9.2-7.8l0.3,0C1119,697.5,1122.6,700.9,1123.5,705.2z"/>
				</g>
				<g>
					<g>
						<path fill="#966851" d="M1227.9,702.1c-3.8-3-9.4-2.4-12.4,1.5l-44.3,56.4c-3,3.8-2.4,9.4,1.5,12.4c3.8,3,9.4,2.4,12.4-1.5
							l44.3-56.4C1232.4,710.7,1231.7,705.1,1227.9,702.1z"/>
						<path d="M1178.1,776.8L1178.1,776.8c-2.6,0-5-0.8-7-2.4c-2.4-1.9-3.9-4.6-4.2-7.6s0.5-6,2.3-8.4l44.3-56.4
							c2.2-2.8,5.4-4.3,8.9-4.3c2.6,0,5,0.8,7,2.4c2.4,1.9,3.9,4.6,4.2,7.6s-0.5,6-2.3,8.4l-44.3,56.4
							C1184.8,775.2,1181.6,776.8,1178.1,776.8z M1222.4,702.7c-2,0-3.8,0.9-5,2.4l-44.3,56.4c-1,1.3-1.5,3-1.3,4.7
							c0.2,1.7,1,3.2,2.4,4.2c1.1,0.9,2.5,1.4,3.9,1.4l0,0c2,0,3.8-0.9,5-2.4l44.3-56.4c1-1.3,1.5-3,1.3-4.7c-0.2-1.7-1-3.2-2.4-4.2
							C1225.2,703.2,1223.9,702.7,1222.4,702.7z"/>
					</g>
					<g>
						<path fill="#CACACA" d="M1242.4,728.2l-42.9-33.8c-3.7-2.9-9.2-2-12.4,2.1l-15.5,19.7c-3.2,4-2.8,9.7,0.9,12.6l42.9,33.8
							c3.7,2.9,9.2,2,12.4-2.1l15.5-19.7C1246.5,736.7,1246.1,731.1,1242.4,728.2z"/>
						<path d="M1220.4,766.7C1220.4,766.7,1220.4,766.7,1220.4,766.7c-2.4,0-4.7-0.8-6.5-2.2l-42.9-33.8c-2.3-1.8-3.8-4.6-4-7.6
							c-0.2-3,0.7-6,2.6-8.4l15.5-19.7c2.3-2.9,5.8-4.7,9.4-4.7c2.4,0,4.7,0.8,6.5,2.2l42.9,33.8c2.3,1.8,3.8,4.6,4,7.6
							c0.2,3-0.7,6-2.6,8.4l-15.5,19.7C1227.5,764.9,1224,766.7,1220.4,766.7z M1194.5,695.3c-2.1,0-4.1,1-5.5,2.8l-15.5,19.7
							c-1.1,1.5-1.7,3.2-1.6,5c0.1,1.7,0.9,3.1,2.1,4.1l42.9,33.8c1,0.8,2.1,1.2,3.4,1.2l0,0c2.1,0,4.1-1,5.5-2.8l15.5-19.7
							c1.1-1.5,1.7-3.2,1.6-5c-0.1-1.7-0.9-3.1-2.1-4.1l-42.9-33.8C1197,695.7,1195.8,695.3,1194.5,695.3z"/>
					</g>
				</g>
				<g>
					<path fill="#EBB787" d="M1161.2,769c-1.2,9.6,6.9,17.7,16.5,16.5c6.5-0.8,11.8-6.1,12.7-12.7c1.2-9.6-6.9-17.7-16.5-16.5
						C1167.3,757.2,1162.1,762.5,1161.2,769z"/>
					<path d="M1175.8,788.1L1175.8,788.1c-4.9,0-9.6-2.1-12.9-5.8c-3.3-3.7-4.8-8.6-4.2-13.6c1-7.6,7.2-13.9,14.8-14.8
						c5.7-0.7,11.4,1.4,15.1,5.7c3.3,3.7,4.8,8.6,4.2,13.6c-1,7.6-7.2,13.9-14.8,14.8C1177.3,788.1,1176.5,788.1,1175.8,788.1z
						 M1175.8,758.8c-0.5,0-1.1,0-1.6,0.1c-5.4,0.7-9.8,5.1-10.5,10.5c-0.4,3.6,0.6,7,2.9,9.7c2.3,2.6,5.6,4.1,9.1,4.1l0,0
						c0.5,0,1.1,0,1.6-0.1c5.4-0.7,9.8-5.1,10.5-10.5c0.4-3.6-0.6-7-2.9-9.7C1182.6,760.3,1179.3,758.8,1175.8,758.8z"/>
				</g>
				<g>
					<circle fill="#CACACA" cx="1093.8" cy="749.5" r="8.5"/>
					<path d="M1093.8,760.6c-6.1,0-11-4.9-11-11c0-6.1,4.9-11,11-11c6.1,0,11,4.9,11,11C1104.8,755.6,1099.8,760.6,1093.8,760.6z
						 M1093.8,743.5c-3.3,0-6,2.7-6,6c0,3.3,2.7,6,6,6c3.3,0,6-2.7,6-6C1099.8,746.2,1097.1,743.5,1093.8,743.5z"/>
				</g>
				<g>
					<circle fill="#CACACA" cx="1098.9" cy="776.7" r="8.5"/>
					<path d="M1098.9,787.7c-6.1,0-11-4.9-11-11c0-6.1,4.9-11,11-11c6.1,0,11,4.9,11,11C1109.9,782.8,1105,787.7,1098.9,787.7z
						 M1098.9,770.7c-3.3,0-6,2.7-6,6c0,3.3,2.7,6,6,6c3.3,0,6-2.7,6-6C1104.9,773.4,1102.2,770.7,1098.9,770.7z"/>
				</g>
				<g>
					<circle fill="#CACACA" cx="1127.4" cy="776.7" r="8.5"/>
					<path d="M1127.4,787.7c-6.1,0-11-4.9-11-11c0-6.1,4.9-11,11-11c6.1,0,11,4.9,11,11C1138.4,782.8,1133.5,787.7,1127.4,787.7z
						 M1127.4,770.7c-3.3,0-6,2.7-6,6c0,3.3,2.7,6,6,6c3.3,0,6-2.7,6-6C1133.4,773.4,1130.7,770.7,1127.4,770.7z"/>
				</g>
				<g>
					<circle fill="#CACACA" cx="1132.8" cy="749.5" r="8.5"/>
					<path d="M1132.8,760.6c-6.1,0-11-4.9-11-11c0-6.1,4.9-11,11-11c6.1,0,11,4.9,11,11C1143.8,755.6,1138.8,760.6,1132.8,760.6z
						 M1132.8,743.5c-3.3,0-6,2.7-6,6c0,3.3,2.7,6,6,6c3.3,0,6-2.7,6-6C1138.8,746.2,1136.1,743.5,1132.8,743.5z"/>
				</g>
			</g>
			<g>
				<g>
					<path d="M783.6,558c0,0-31-27.1-37.9-29.5c-6.9-2.5-13.3,15.2-15.7,64.9L783.6,558z"/>
					<path d="M727.3,598.2l0.2-4.9c3-60.5,11.1-67.5,17-67.5c0.7,0,1.4,0.1,2.1,0.4c7.1,2.5,35.5,27.2,38.7,30l2.5,2.2L727.3,598.2z
						 M744.5,530.8c-0.4,0-8.5,0.7-11.7,57.8l46.7-30.9c-12.4-10.7-30.2-25.3-34.6-26.9C744.8,530.8,744.6,530.8,744.5,530.8z"/>
				</g>
				<g>
					<path d="M860.6,558c0,0,31-27.1,37.9-29.5c6.9-2.5,13.3,15.2,15.7,64.9L860.6,558z"/>
					<path d="M917,598.2l-60.5-39.9l2.5-2.2c3.2-2.8,31.6-27.4,38.7-30c0.7-0.2,1.4-0.4,2.1-0.4c5.9,0,14,7,17,67.5L917,598.2z
						 M864.8,557.7l46.7,30.9c-3.3-57.2-11.4-57.8-11.7-57.8c-0.1,0-0.2,0-0.4,0.1C894.9,532.4,877.1,547.1,864.8,557.7z"/>
				</g>
				<g>
					<path fill="#2E2E2F" d="M875.9,727c-6.1-3.8-12.7-5.7-19-6.6c-2.3-6.2-4-9.7-4-9.7h-29.6h-29.6c0,0-1.6,3.5-3.9,9.6
						c-6.4,0.9-13.1,2.8-19.3,6.6c-20.2,12.4-23.3,48.6-8.9,53.2c14.3,4.5,11.1-12.3,20.1-33.3c-5.7,23.1-9.6,54.4-1.8,85H810v-32.2
						h13.2h13.2v32.2h30.3c7.6-29.8,4.1-60.3-1.4-83.2c8,20.1,5.5,35.9,19.3,31.5C899.2,775.6,896.1,739.4,875.9,727z"/>
					<path d="M868.7,834.3H834v-32.2h-21.5v32.2h-34.7l-0.5-1.9c-4.7-18.4-5.2-37-3.7-53.7c-1.8,2.9-4.2,4.6-8.1,4.6
						c-1.5,0-3.1-0.3-4.9-0.9c-5.6-1.8-9.4-7.5-10.4-15.7c-1.7-13.7,4.3-33.1,18.7-42c5.4-3.3,11.7-5.6,18.8-6.7
						c2-5.3,3.4-8.3,3.5-8.4l0.7-1.4h62.5l0.7,1.4c0.1,0.1,1.5,3.2,3.5,8.5c7,1.2,13.2,3.4,18.5,6.7c14.4,8.9,20.4,28.3,18.7,42
						c-1,8.2-4.8,13.9-10.4,15.7c-1.8,0.6-3.4,0.9-4.9,0.9c0,0,0,0,0,0c-3.6,0-5.9-1.5-7.7-4.1c1.4,16.4,0.9,34.9-3.7,53.1
						L868.7,834.3z M839,829.3h25.8c7.1-29.7,3-59.8-1.8-80.1l4.8-1.5c2.5,6.3,4,12.3,5.3,17.1c2.5,9.9,3.8,13.6,7.6,13.6h0
						c0.9,0,2.1-0.2,3.4-0.6c3.6-1.2,6.2-5.4,6.9-11.6c1.5-12.3-4.2-29.6-16.4-37.1c-5.1-3.1-11.1-5.2-18-6.2l-1.5-0.2l-0.5-1.4
						c-1.4-3.7-2.6-6.5-3.2-8.1h-56c-0.7,1.5-1.8,4.3-3.2,8l-0.5,1.4l-1.5,0.2c-7,1-13.2,3.1-18.4,6.3
						c-12.2,7.5-17.9,24.8-16.4,37.1c0.8,6.2,3.3,10.4,6.9,11.6c6.5,2.1,7.9-0.6,11-13c1.4-5.3,3.1-12,6.1-19l4.7,1.6
						c-5.1,20.7-9.5,51.6-2.3,81.9h25.8v-32.2H839V829.3z"/>
				</g>
				<g>
					<path fill="#EBB787" d="M875.7,586.1H769.5c-17.7,0-32,14.3-32,32v74.7c0,17.7,14.3,32,32,32h106.2c17.7,0,32-14.3,32-32v-74.7
						C907.7,600.5,893.4,586.1,875.7,586.1z"/>
					<path d="M875.7,727.4H769.5c-19,0-34.5-15.5-34.5-34.5v-74.7c0-19,15.5-34.5,34.5-34.5h106.2c19,0,34.5,15.5,34.5,34.5v74.8
						C910.2,711.9,894.7,727.4,875.7,727.4z M769.5,588.6c-16.3,0-29.5,13.2-29.5,29.5v74.7c0,16.3,13.2,29.5,29.5,29.5h106.2
						c16.3,0,29.5-13.2,29.5-29.5v-74.8c0-16.3-13.2-29.5-29.5-29.5H769.5z"/>
					<path fill="#D69576" d="M740,618.1V641c0-5.2,1.2-10.3,3.4-14.9c3.5-7,9.7-15.4,19.6-14.9c6.8,0.4,10.7,1.8,15.2,3.4
						c7.7,2.8,17.3,6.3,44.9,6.3s37.2-3.5,44.9-6.3c4.5-1.6,8.4-3.1,15.2-3.4c0.3,0,0.6,0,0.9,0c5.2,0,9.9,2.5,14,7.5
						c4.6,5.6,7.1,13,7.1,20.7v-21.4c0-16.3-13.2-29.5-29.5-29.5H769.5C753.3,588.6,740,601.9,740,618.1z"/>
				</g>
				<path d="M841.4,693.5c0,0-1.7,2.3-4.7,5.2c-1.5,1.4-3.4,3-5.6,4.5c-0.5,0.4-1.1,0.8-1.7,1.1c-0.6,0.4-1.2,0.7-1.9,1
					c-0.3,0.2-0.7,0.3-1,0.5c-0.4,0.2-0.7,0.3-1.1,0.4l-1.2,0.4c-0.5,0.1-1,0.2-1.6,0.2l-0.3,0l0,0l-0.1,0l-0.1,0l-0.3,0
					c-0.2,0-0.3,0-0.5-0.1c-0.5-0.1-1-0.3-1.5-0.4c-0.5-0.2-0.7-0.3-1.1-0.5c-0.4-0.2-0.7-0.3-1-0.5c-0.7-0.3-1.3-0.7-1.9-1
					c-0.6-0.4-1.2-0.7-1.7-1.1c-2.2-1.5-4.1-3.1-5.6-4.5c-3.1-2.8-4.7-5.2-4.7-5.2s0.7,0.2,1.8,0.7c1.1,0.5,2.7,1.2,4.6,2.1
					c1.8,0.9,3.9,1.9,6.2,3.1c1.1,0.6,2.3,1.1,3.4,1.6c0.3,0.1,0.6,0.2,0.8,0.3c0.3,0.1,0.6,0.2,0.8,0.3c0.2,0,0.3,0.1,0.5,0.2
					c0.1,0,0.3,0,0.5,0.1l0.3,0l0.1,0l0.1,0l0,0l0,0c-0.1,0,0.3,0-0.3,0c0.2,0,0.3,0,0.5-0.1l0.7-0.2c0.5-0.2,1.1-0.4,1.6-0.6
					c1.1-0.5,2.3-1,3.4-1.6c2.3-1.1,4.4-2.2,6.2-3.1c1.8-0.9,3.4-1.6,4.6-2.1C840.7,693.7,841.4,693.5,841.4,693.5z"/>
				<g>
					<path d="M775.1,798.8c-0.2,5.7,0.3,11.5,1,16.5H772c-4.6,0-8.2,3.7-8.2,8.2l0,0c0,4.6,3.7,8.2,8.2,8.2h7.4h31.4v-16.5v-6.2
						L775.1,798.8z"/>
					<path d="M813.4,834.3H772c-5.9,0-10.7-4.8-10.7-10.7c0-5.9,4.8-10.7,10.7-10.7h1.2c-0.6-5-0.8-9.7-0.7-14.1l0.1-3.2l40.7,11.7
						V834.3z M772,817.8c-3.2,0-5.7,2.6-5.7,5.7s2.6,5.7,5.7,5.7h36.4V811l-30.9-8.9c0.1,4,0.4,8.3,1,12.8l0.4,2.8H772z"/>
				</g>
				<g>
					<path d="M871.9,798.8c0.2,5.7-0.3,11.5-1,16.5h4.1c4.6,0,8.2,3.7,8.2,8.2l0,0c0,4.6-3.7,8.2-8.2,8.2h-7.4H836v-16.5v-6.2
						L871.9,798.8z"/>
					<path d="M874.9,834.3h-41.4v-27.1l40.7-11.7l0.1,3.2c0.1,4.4-0.1,9.1-0.7,14.1h1.2c5.9,0,10.7,4.8,10.7,10.7
						C885.6,829.5,880.8,834.3,874.9,834.3z M838.5,829.3h36.4c3.2,0,5.7-2.6,5.7-5.7s-2.6-5.7-5.7-5.7H868l0.4-2.8
						c0.6-4.5,1-8.8,1-12.8l-30.9,8.9V829.3z"/>
				</g>
				<g>
					<path d="M863.8,647.8c0,0,9.1,3.8,16-3.7c0,0-0.8,11.4-11,11C858.6,654.8,863.8,647.8,863.8,647.8z"/>
					<path d="M781.5,647.8c0,0-9.1,3.8-16-3.7c0,0,0.8,11.4,11,11S781.5,647.8,781.5,647.8z"/>
					<g>
						<circle cx="785.1" cy="659.8" r="12.5"/>
						<circle cx="860.1" cy="659.8" r="12.5"/>
						<circle fill="#FFFFFF" cx="781.7" cy="656" r="3.4"/>
						<circle fill="#FFFFFF" cx="857.3" cy="656" r="3.4"/>
					</g>
				</g>
				<g>
					<path fill="#B57865" d="M916.7,665.4l0.2,0.2c0,0,0-59,0-59c0-30.9-36.4-46-64.2-47.9c-7.9-0.5-16.3-1-24.8-1.2
						c-23.5-0.6-48.5,0.5-69,7.2c-17.5,5.6-31.4,24.3-31.4,41.9c0,0,0,59,0,59l0,0c-0.3,18.5-1.8,47.8-8.1,59.3
						c0,0,8.5,13.4,38.4,16c2.9-5.6,7.1-10.6,12.5-13.9c1.3-0.8,2.5-1.5,3.8-2.1h-4.7c-17.7,0-32-14.3-32-32v-9.5c0,0,0,0,0,0V637
						v-2.8c0-5.5,1.2-11,3.7-16c3.8-7.6,10.7-16.9,21.9-16.3c19,1,16.3,9.7,60,9.7s41-8.7,60-9.7c7.4-0.4,13,3.5,17,8.4
						c5.1,6.3,7.7,14.2,7.7,22.3v9.2v6.4v44.6c0,17.7-14.3,32-32,32h-1H872c1.3,0.6,2.6,1.3,3.8,2.1c5.3,3.3,9.4,8.2,12.4,13.8
						c28.4-3,36.5-15.8,36.5-15.8C918.5,713.4,917,683.9,916.7,665.4z"/>
					<path d="M759.3,743.5l-1.7-0.1c-30.7-2.7-39.9-16.6-40.3-17.2l-0.8-1.2l0.7-1.3c4.5-8.2,7.2-28.5,7.7-57.1l0-0.9v-59
						c0-18.9,14.5-38.4,33.1-44.3c15.5-5,34.9-7.4,59.1-7.4c3.4,0,7.1,0,10.8,0.1c7.5,0.2,15.4,0.6,24.9,1.2
						c26.7,1.8,66.5,16.7,66.5,50.4v65l-0.1-0.1c0.7,26,3.4,44.4,7.6,52.1l0.7,1.3l-0.8,1.2c-0.4,0.6-9.2,13.9-38.4,17l-1.7,0.2
						l-0.8-1.5c-2.9-5.6-6.9-10-11.5-12.8c-1.1-0.7-2.3-1.3-3.6-2l-9.8-4.8h14.6c16.3,0,29.5-13.2,29.5-29.5v-60.1
						c0-7.8-2.5-15.1-7.1-20.7c-4.1-5-8.8-7.5-14-7.5c-0.3,0-0.6,0-0.9,0c-6.8,0.4-10.7,1.8-15.2,3.4c-7.7,2.8-17.3,6.3-44.9,6.3
						s-37.2-3.5-44.9-6.3c-4.5-1.6-8.4-3.1-15.2-3.4c-9.9-0.5-16.1,7.9-19.6,14.9c-2.2,4.5-3.4,9.7-3.4,14.9v58.6
						c0,16.3,13.2,29.5,29.5,29.5h15.6l-9.9,4.8c-1.4,0.7-2.6,1.3-3.6,2c-4.6,2.8-8.6,7.3-11.6,13L759.3,743.5z M722.4,724.6
						c2.7,3,12,11.4,34.1,13.7c2.5-4.4,5.7-8.2,9.3-11.1c-17.3-1.9-30.7-16.5-30.7-34.3v-58.6c0-5.9,1.4-11.8,3.9-17.1
						c5.7-11.6,13.7-17.7,23.1-17.7c0.4,0,0.8,0,1.2,0c7.6,0.4,12,2,16.7,3.7c7.3,2.7,16.5,6,43.2,6s35.8-3.3,43.2-6
						c4.7-1.7,9.1-3.3,16.7-3.7c0.4,0,0.8,0,1.2,0c6.8,0,12.8,3.1,17.9,9.3c5.3,6.5,8.2,15,8.2,23.9v60.1c0,17.4-13,31.9-29.9,34.2
						c3.6,2.9,6.7,6.6,9.3,11c20.7-2.6,29.6-10.6,32.2-13.5c-5.7-12.3-7.3-38.7-7.6-59.1l-0.1-6.1l0.3,0.3v-53
						c0-30.3-37-43.7-61.8-45.4c-9.5-0.6-17.3-1-24.7-1.2c-3.7-0.1-7.2-0.1-10.6-0.1c-23.7,0-42.5,2.3-57.6,7.2
						c-16.3,5.2-29.6,23-29.6,39.6v52.9l0.1-0.1l-0.1,6.3C729.7,686,728.1,712.3,722.4,724.6z"/>
				</g>
				<g>
					<path d="M747.4,769.6c-1.2,9.6,6.9,17.7,16.5,16.5c6.5-0.8,11.8-6.1,12.7-12.7c1.2-9.6-6.9-17.7-16.5-16.5
						C753.5,757.7,748.2,763,747.4,769.6z"/>
					<path d="M761.9,788.6L761.9,788.6c-4.9,0-9.6-2.1-12.9-5.8c-3.3-3.7-4.8-8.6-4.2-13.6c1-7.6,7.2-13.9,14.8-14.8
						c5.7-0.7,11.4,1.4,15.1,5.7c3.3,3.7,4.8,8.6,4.2,13.6c-1,7.6-7.2,13.9-14.8,14.8C763.4,788.6,762.7,788.6,761.9,788.6z
						 M761.9,759.3c-0.5,0-1.1,0-1.6,0.1c-5.4,0.7-9.8,5.1-10.5,10.5c-0.4,3.6,0.6,7,2.9,9.7c2.3,2.6,5.6,4.1,9.1,4.1c0,0,0,0,0,0
						c0.5,0,1.1,0,1.6-0.1c5.4-0.7,9.8-5.1,10.5-10.5c0.4-3.6-0.6-7-2.9-9.7C768.8,760.8,765.4,759.3,761.9,759.3z"/>
				</g>
				<g>
					<path d="M870.2,769c-1.2,9.6,6.9,17.7,16.5,16.5c6.5-0.8,11.8-6.1,12.7-12.7c1.2-9.6-6.9-17.7-16.5-16.5
						C876.3,757.2,871.1,762.5,870.2,769z"/>
					<path d="M884.8,788.1L884.8,788.1c-4.9,0-9.6-2.1-12.9-5.8c-3.3-3.7-4.8-8.6-4.2-13.6c1-7.6,7.2-13.9,14.8-14.8
						c5.7-0.7,11.4,1.4,15.1,5.7c3.3,3.7,4.8,8.6,4.2,13.6c-1,7.6-7.2,13.9-14.8,14.8C886.3,788.1,885.5,788.1,884.8,788.1z
						 M884.8,758.8c-0.5,0-1.1,0-1.6,0.1c-5.4,0.7-9.8,5.1-10.5,10.5c-0.4,3.6,0.6,7,2.9,9.7c2.3,2.6,5.6,4.1,9.1,4.1l0,0
						c0.5,0,1.1,0,1.6-0.1c5.4-0.7,9.8-5.1,10.5-10.5c0.4-3.6-0.6-7-2.9-9.7C891.6,760.3,888.3,758.8,884.8,758.8z"/>
				</g>
				<g>
					<polygon fill="#EBB787" points="823.1,724.9 797.6,724.9 823.1,737.2 848.6,724.9 					"/>
					<path d="M823.1,740l-36.4-17.6h72.9L823.1,740z M808.5,727.4l14.6,7l14.6-7H808.5z"/>
				</g>
				<g>
					<path d="M900.7,604.1c-0.5,2.6-1.2,5.2-2.2,7.7c-3.7,9.1-13.7,12.6-22.1,14.7c-8.1,2-15.7,4.6-23,8.7c-7.2,4-13.9,8.7-21,12.7
						c-5.1,2.8-8.2,3.7-10.1,3.8c-1.9-0.1-5-1-10.1-3.8c-7.2-4-13.9-8.7-21-12.7c-7.3-4.1-15-6.7-23-8.7
						c-8.4-2.1-18.5-5.6-22.1-14.7c-1-2.5-1.8-5.1-2.2-7.7c0,0-5.4,9.4-5,31.4c0.4,22.1,6.1,47.1,22.3,52.8
						c16.2,5.6,26.3-0.7,38.5-6c10.9-4.7,20.7-5.2,22.7-5.2c2,0.1,11.8,0.6,22.7,5.2c12.2,5.2,22.3,11.6,38.5,6
						c16.2-5.6,22-30.7,22.3-52.8C906.1,613.5,900.7,604.1,900.7,604.1z M801.3,666.7c-0.4,2.3-1,4.4-1.8,6
						c-2.6,5.2-8.3,5.8-13.4,5.5c-8.6-0.5-22.6-2-27.1-11c-3.9-7.6-2.4-16.7-2.1-24.9c0.1-2.2,0.6-4.6,2.3-6
						c4.4-3.8,11.8-0.4,16.4,1.5c8,3.4,19.3,7,24.1,15.1C801.7,656.3,802,661.8,801.3,666.7z M885.3,667.2c-4.6,9-18.5,10.5-27.1,11
						c-5.1,0.3-10.8-0.2-13.4-5.5c-0.8-1.7-1.4-3.8-1.8-6c-0.8-4.8-0.4-10.4,1.6-13.8c4.8-8.1,16.1-11.7,24.1-15.1
						c4.5-1.9,11.9-5.2,16.4-1.5c1.7,1.4,2.2,3.8,2.3,6C887.7,650.5,889.2,659.6,885.3,667.2z"/>
					<path d="M871.2,693c-8.6,0-15.5-3.1-22.9-6.4c-1.5-0.7-2.9-1.3-4.4-2c-10.4-4.5-19.8-5-21.7-5c-2,0.1-11.3,0.6-21.7,5
						c-1.5,0.6-3,1.3-4.4,2c-7.3,3.3-14.3,6.4-22.9,6.4c-4.2,0-8.5-0.8-13-2.3c-21.6-7.5-23.8-44-24-55.1
						c-0.4-22.5,5.1-32.3,5.4-32.7l3.4-5.8l1.3,6.6c0.5,2.5,1.2,4.9,2.1,7.2c3.2,8,12.6,11.3,20.4,13.2c9.4,2.4,16.9,5.2,23.6,8.9
						c3.6,2,7.2,4.3,10.6,6.4c3.4,2.1,6.9,4.3,10.4,6.3c4.8,2.7,7.6,3.3,8.9,3.5c1.3-0.1,4-0.8,8.9-3.5c3.5-2,7-4.2,10.4-6.3
						c3.4-2.2,7-4.4,10.6-6.4c6.7-3.7,14.2-6.6,23.6-8.9c7.8-2,17.2-5.2,20.4-13.2c0.9-2.3,1.6-4.7,2.1-7.2l1.3-6.6l3.4,5.8
						c0.2,0.4,5.7,10.2,5.4,32.7c-0.2,11-2.4,47.6-24,55.1C879.7,692.2,875.4,693,871.2,693z M822.1,674.6L822.1,674.6
						c2,0.1,12.3,0.6,23.7,5.4c1.5,0.7,3,1.3,4.5,2c6.8,3.1,13.3,6,20.8,6c3.7,0,7.4-0.7,11.4-2c18.5-6.4,20.5-40.2,20.6-50.4
						c0.2-10.7-1-18.3-2.3-23.2c-0.1,0.2-0.1,0.3-0.2,0.5c-4.1,10.1-14.9,13.9-23.8,16.2c-9,2.3-16.1,4.9-22.4,8.4
						c-3.5,2-7,4.2-10.4,6.3c-3.4,2.2-7,4.4-10.6,6.4c-4.5,2.5-8.3,3.9-11.1,4.1l-0.2,0l-0.2,0c-2.9-0.2-6.6-1.6-11.1-4.1
						c-3.6-2-7.2-4.3-10.6-6.4c-3.4-2.1-6.9-4.3-10.4-6.3c-6.3-3.5-13.4-6.2-22.4-8.4c-9-2.2-19.8-6.1-23.8-16.2
						c-0.1-0.2-0.1-0.3-0.2-0.5c-1.2,4.9-2.5,12.5-2.3,23.2c0.2,10.2,2.1,44,20.6,50.4c4,1.4,7.7,2,11.4,2c7.5,0,14-2.9,20.8-6
						c1.5-0.7,3-1.3,4.5-2C809.8,675.1,820.1,674.6,822.1,674.6L822.1,674.6z M856.1,680.8c-2.5,0-10.2,0-13.6-6.9
						c-0.9-1.9-1.6-4.2-2-6.7c-0.7-4.7-0.6-11.2,1.9-15.5c4.6-7.7,14.2-11.6,21.9-14.7c1.2-0.5,2.3-0.9,3.4-1.4l0.4-0.2
						c3.2-1.4,7.6-3.2,11.7-3.2c2.7,0,5,0.8,6.8,2.3c1.9,1.6,3,4.3,3.2,7.8c0.1,1.3,0.1,2.7,0.2,4c0.5,7.1,1,15.1-2.6,22.1
						c-5.1,9.9-19.1,11.8-29.2,12.4C857.6,680.7,856.9,680.8,856.1,680.8z M879.9,637.1c-3.2,0-7,1.6-9.8,2.8l-0.4,0.2
						c-1.1,0.5-2.3,0.9-3.4,1.4c-7.4,3-15.8,6.4-19.5,12.6c-1.5,2.6-2.1,7.3-1.3,12.1c0.3,2.1,0.9,3.9,1.6,5.3
						c1.4,2.9,4.2,4.1,9.1,4.1c0.6,0,1.3,0,1.9-0.1c5.1-0.3,20.7-1.1,25-9.6c2.9-5.8,2.5-12.7,2-19.5c-0.1-1.4-0.2-2.8-0.2-4.1
						c-0.1-2.1-0.6-3.5-1.4-4.2C882.6,637.5,881.4,637.1,879.9,637.1z M788.1,680.8c-0.7,0-1.5,0-2.2-0.1
						c-10.1-0.6-24.2-2.4-29.2-12.4c-3.6-7-3-15-2.6-22.1c0.1-1.4,0.2-2.7,0.2-4c0.2-3.5,1.2-6.1,3.2-7.8c1.8-1.5,4.1-2.3,6.8-2.3
						c4.2,0,8.6,1.9,11.7,3.2l0.4,0.2c1.1,0.5,2.2,0.9,3.4,1.4c7.7,3.1,17.3,7,21.9,14.7c2.6,4.3,2.7,10.8,1.9,15.5
						c-0.4,2.6-1.1,4.9-2,6.7C798.3,680.8,790.7,680.8,788.1,680.8z M764.3,637.1c-1.5,0-2.7,0.4-3.5,1.1c-0.8,0.7-1.3,2.1-1.4,4.2
						c-0.1,1.4-0.1,2.7-0.2,4.1c-0.4,6.7-0.9,13.7,2,19.5c4.3,8.5,19.9,9.4,25,9.6c0.6,0,1.3,0.1,1.9,0.1c4.9,0,7.7-1.3,9.1-4.1
						c0.7-1.4,1.2-3.3,1.6-5.3c0.8-4.8,0.3-9.5-1.3-12.1c-3.8-6.2-12.1-9.6-19.5-12.6c-1.2-0.5-2.3-1-3.4-1.4l-0.4-0.2
						C771.3,638.8,767.5,637.1,764.3,637.1z"/>
				</g>
			</g>
		</g>
	</g>
</g>
</svg>
