<?xml version="1.0" encoding="utf-8"?>
<!-- Generator: Adobe Illustrator 18.0.0, SVG Export Plug-In . SVG Version: 6.00 Build 0)  -->
<!DOCTYPE svg PUBLIC "-//W3C//DTD SVG 1.1//EN" "http://www.w3.org/Graphics/SVG/1.1/DTD/svg11.dtd" [
	<!ENTITY ns_flows "http://ns.adobe.com/Flows/1.0/">
	<!ENTITY ns_extend "http://ns.adobe.com/Extensibility/1.0/">
	<!ENTITY ns_ai "http://ns.adobe.com/AdobeIllustrator/10.0/">
	<!ENTITY ns_graphs "http://ns.adobe.com/Graphs/1.0/">
]>
<svg version="1.1" id="Layer_1" xmlns:x="&ns_extend;" xmlns:i="&ns_ai;" xmlns:graph="&ns_graphs;"
	 xmlns="http://www.w3.org/2000/svg" xmlns:xlink="http://www.w3.org/1999/xlink" xmlns:a="http://ns.adobe.com/AdobeSVGViewerExtensions/3.0/"
	 x="0px" y="0px" viewBox="0 0 1400 980" enable-background="new 0 0 1400 980" xml:space="preserve">
<g>
	<rect y="0" fill="#CFE8DF" width="1400" height="980"/>
	<g>
		<g>
			<path fill="#AEC4BE" d="M567.1,454.4c-5.5,0-10-4.5-10-10v-22.2h-0.1v22.2c0,5.5-4.5,10-10,10h-41.4c-11.4,0-20.7-9.3-20.7-20.7
				c0-8.1,4.6-15,11.3-18.5c-0.1-2.2-0.1-4.3-0.1-6.4c-1.2,0.2-2.4,0.2-3.6,0.2c-15,0-27.2-12.2-27.2-27.2c0-8.1,3.6-15.7,9.7-20.8
				c1.4-6.7,3.8-13.1,7.2-18.7c-14.3-7.5-23.8-22.3-23.8-39.4V167.2c0-8.4,6.9-15.3,15.3-15.3c4.2,0,8.1,1.7,11.1,4.8l21.8,23
				c12.7-3.1,27.5-4.6,44.9-4.6c3.2,0,6.6,0.1,10,0.2c6.9,0.2,14.1,0.6,22.9,1.3c7.6,0.6,14.7,1.6,21.2,3l21.7-22.9
				c2.9-3.1,6.8-4.8,11.1-4.8c8.4,0,15.3,6.8,15.3,15.3V303c0,16.4-9.1,31.1-22.7,38.8c3.8,6.2,6.6,13.4,7.9,20.9
				c5.1,5.1,8,12,8,19.2c0,15-12.2,27.2-27.2,27.2c-0.6,0-1.2,0-1.8-0.1c0,2,0,4.1-0.1,6.2c6.7,3.4,11.3,10.4,11.3,18.5
				c0,11.4-9.3,20.7-20.7,20.7H567.1z"/>
			<path fill="#AEC4BE" d="M867.4,454.4c-5.5,0-10.1-4.5-10.1-10v-14.7c0-0.5,0-0.9,0.1-1.4v-6.1h-1.5v22.2c0,5.5-4.5,10-10,10
				h-34.7c-4.6,0-8.6-3.1-9.7-7.5L801,445c-0.3-1.1-0.5-2.1-0.8-3.2c-0.1-0.4-0.2-0.8-0.3-1.1c-0.2-0.7-0.3-1.4-0.5-2.2l-0.3-1.2
				c-0.2-0.9-0.4-1.9-0.5-2.8l-0.5-2.9c-0.1-0.4-0.1-0.8-0.1-1.2c-1-6.9-1.6-14-1.8-21.3c-0.3,0-0.7,0-1,0c-7.8,0-15.2-3.4-20.4-9.2
				c-5.2-5.8-7.6-13.7-6.6-21.4c0.6-4.8,2.5-9.3,5.5-13.1c1-8.3,3.8-16.2,7.9-23c-14.1-7.5-23.5-22.3-23.5-39.3v-1.2
				c0-0.2,0-0.3,0-0.5V286c0-0.1,0-0.2,0-0.4l0-57.3c0-22.7,17.2-41.8,39.6-44.2c0.8-0.2,1.6-0.3,2.4-0.3H833c0.1,0,0.2,0,0.4,0
				l75.5,0c0.3,0,0.5,0,0.8,0l3.5,0c1.3,0,2.6,0.3,3.7,0.7c21,3.8,36.5,22.2,36.5,43.8l0,74.7c0,16.3-9,31-22.6,38.7
				c4.3,6.9,7.2,14.9,8.3,23.4c4.5,5.7,6.5,13,5.6,20.3c-1.5,12.1-11.4,22-23.5,23.5c-1.2,0.1-2.3,0.2-3.5,0.2c-0.3,0-0.5,0-0.8,0
				c-0.3,12.7-1.8,24.7-4.7,36l-0.5,1.9c-1.1,4.4-5.1,7.5-9.7,7.5H867.4z"/>
			<path fill="#AEC4BE" d="M1155.9,454.4c-5.5,0-10.1-4.5-10.1-10v-22.2h-1.5v22.2c0,5.5-4.5,10-10,10h-40.5
				c-11.4,0-20.7-9.3-20.7-20.7c0-8.3,4.9-15.4,11.9-18.8c-0.1-2-0.2-3.9-0.2-5.9c-0.5,0-1,0-1.5,0c-7.8,0-15.2-3.4-20.4-9.2
				c-5.2-5.8-7.6-13.7-6.6-21.4c0.7-5.4,3-10.5,6.7-14.6c1.2-7.7,3.8-15.1,7.7-21.4c-14.3-7.5-23.8-22.3-23.8-39.4v-86.3
				c0-1.7,0.1-3.3,0.3-5l-11.1-4.3c-10.2-4-15.3-15.6-11.3-25.8c3-7.7,10.3-12.7,18.6-12.7c2.5,0,4.9,0.5,7.2,1.4l18.4,7.2
				c4.3-2.8,9.1-5.2,14.4-7.1c15.1-5.4,33.6-8,56.6-8c3.2,0,6.6,0.1,10,0.2c6.9,0.2,14.1,0.6,22.9,1.3c20.8,1.6,37.2,6.4,48.9,14.4
				l20-7.8c2.3-0.9,4.8-1.4,7.2-1.4c8.3,0,15.6,5,18.6,12.7c1.9,5,1.8,10.4-0.3,15.3c-2.1,4.9-6.1,8.6-11,10.6l-14.3,5.6
				c0.1,1.2,0.1,2.5,0.1,3.7V303c0,5.9-1.1,11.6-3.3,16.9c4.7,3,9,6.7,12.6,10.9c11.6,13.1,16.9,30.7,14.7,48.1
				c-3.3,25.8-23.5,47.1-48.8,52c0.1,0.9,0.2,1.9,0.2,2.8c0,11.4-9.3,20.7-20.7,20.7H1155.9z"/>
			<path fill="#AEC4BE" d="M567.4,837.4c-5.5,0-10-4.5-10-10v-22.2h-0.1v22.2c0,5.5-4.5,10-10,10h-41.4c-11.4,0-20.7-9.3-20.7-20.7
				c0-8.1,4.6-15,11.3-18.5c-0.1-2.3-0.1-4.5,0-6.6l0.1-3.2c0-0.6,0.1-1.3,0.2-1.9c0,0,0-0.1,0-0.1c-1.7-0.2-3.4-0.6-5.3-1.2
				c-8.4-2.7-14.4-9.9-16.6-20.2h-16c-5.5,0-10-4.5-10-10V599.7c0-23.4,17.2-46.5,40-53.8c16.6-5.3,36.9-7.9,62.2-7.9
				c3.5,0,7.2,0.1,11,0.2c7.6,0.2,15.6,0.6,25.3,1.2c30.5,2,75.8,19.8,75.8,60.3v155.2c0,5.5-4.5,10-10,10H639
				c-2.2,10.2-8.2,17.5-16.6,20.2c-1.6,0.5-3.1,0.9-4.6,1.1c0.2,0.7,0.3,1.4,0.3,2.1l0.1,3.2c0.1,2.1,0,4.3,0,6.6
				c6.7,3.4,11.3,10.4,11.3,18.5c0,11.4-9.3,20.7-20.7,20.7H567.4z"/>
			<path fill="#AEC4BE" d="M263.3,454.4c-4.4,0-8.2-2.9-9.5-6.8c-0.3,0-1,0-1.1,0c-1.3,4-5.1,6.8-9.5,6.8h-41.4
				c-9.3,0-17.1-6.1-19.8-14.5c-12.1-2.6-19.3-4.9-19.4-4.9l-3.5-1.1c-3.2-1-5.6-3.5-6.6-6.7s-0.2-6.6,1.9-9.2l2.4-2.9
				c4.5-5.3,9.3-16.1,14.3-31.9c-0.4-1.6-0.7-3.3-1-5.1c-1.3-10.6,1-24.6,8.2-36.3c-13.7-7.7-22.9-22.5-22.9-38.9v-86.3
				c0-20.9,13.6-38.3,36.5-46.4c15.1-5.4,33.6-8,56.6-8c3.2,0,6.6,0.1,10,0.2c6.9,0.2,14.1,0.6,22.9,1.3c60.2,4.5,69.2,35.2,69.2,53
				V303c0,16.5-9.3,31.4-23.2,39c5.4,8.7,8.4,19.3,8.5,29.8l0,2.4c0,0.7-0.1,1.4-0.2,2c-0.1,0.6-0.1,1.3-0.2,1.9
				c-0.2,1.5-0.5,3-0.8,4.5c5.1,16.1,10,27.1,14.5,32.5l2.4,2.9c2.1,2.6,2.9,6,1.9,9.2s-3.4,5.7-6.6,6.7l-3.5,1.1
				c-0.1,0-7.1,2.3-19,4.8c-2.6,8.4-10.5,14.6-19.8,14.6H263.3z"/>
			<path fill="#AEC4BE" d="M256.8,837.4c-5.5,0-10-4.5-10-10v-7.5c-0.2-0.2-0.4-0.3-0.5-0.5c-0.3,0.3-0.6,0.6-1,0.9v7.2
				c0,5.5-4.5,10-10,10h-34.7c-4.6,0-8.6-3.1-9.7-7.5l-0.5-1.9c-0.7-2.6-1.3-5.2-1.8-8c-3.6-3.3-5.7-8-5.7-12.9v-1.7
				c0-3.5,1.1-6.9,3-9.7c-0.1-3.1-0.2-6.2-0.1-9.4c-1.6-0.2-3.2-0.6-4.9-1.1c-9.5-3-15.8-11.8-17.3-24c-0.6-5.1-0.4-10.6,0.6-16.1
				c-0.3-0.6-0.5-1.2-0.7-1.9c-1.4-4.5-0.9-9.2,1.3-13.4l0.8-1.5c0.9-1.7,2-3.1,3.3-4.4c-12.8-7.8-21.2-21.9-21.2-38v-10
				c-4.1-3.8-6.6-9.2-6.6-14.9v-24c0-5.8,2.5-11.2,6.6-14.9v-25.9c0-24.5,20-44.5,44.5-44.5h106.2c24.5,0,44.5,20,44.5,44.5v2.3
				c12.5,2.7,21.9,13.9,21.9,27.2c0,3.4-0.6,6.8-1.8,10c1.2,3.2,1.8,6.5,1.8,10c0,12-7.6,22.4-18.5,26.2c-0.9,1.5-2.1,2.8-3.4,4v10
				c0,15-7.6,28.6-19.4,36.7c2,1.5,3.6,3.4,4.8,5.7l0.8,1.5c2.2,4.1,2.7,8.9,1.3,13.4c-0.5,1.6-1.2,3.1-2.1,4.5
				c0.6,4.6,0.7,9.2,0.2,13.4c-1.5,12.3-7.8,21-17.3,24c-1.7,0.5-3.4,0.9-5,1.1c0,3,0,5.9-0.1,8.8c2.2,2.9,3.4,6.5,3.4,10.3v1.7
				c0,5.3-2.4,10.2-6.3,13.5c-0.5,2.6-1.1,5.1-1.7,7.5l-0.5,1.9c-1.1,4.4-5.1,7.5-9.7,7.5H256.8z"/>
			<path fill="#AEC4BE" d="M867.2,837.4c-5.5,0-10-4.5-10-10v-22.2h-1.5v22.2c0,5.5-4.5,10-10,10H811c-4.6,0-8.6-3.1-9.7-7.5
				l-0.5-1.9c-1.8-7.1-3.1-14.6-3.9-22.3c0-0.2-0.1-0.4-0.1-0.6l0-0.4c-0.6-6-0.8-12.1-0.8-18.4c-1.7-0.2-3.4-0.6-5.2-1.2
				c-12.8-4.1-19.4-18.4-17.2-36.4c-3.6-6-5.1-13.2-4.2-20.2c0.4-3.5,1.5-6.9,3-10c-9-8.3-14.3-20.1-14.3-32.6v-74.8
				c0-24.5,20-44.5,44.5-44.5h106.2c24.5,0,44.5,20,44.5,44.5v74.8c0,13.5-6.2,26.1-16.3,34.4c2,5,2.8,10.5,2.1,16
				c-0.3,2-0.7,3.9-1.3,5.8c2.7,11.4,1.9,22.8-2.3,31c-3,5.9-7.9,10.2-13.7,12c-1.7,0.5-3.3,0.9-4.9,1.1c0.1,6.3-0.2,12.5-0.8,18.5
				l0,0.3c0,0.2,0,0.4-0.1,0.5c-0.8,7.7-2.1,15.2-3.9,22.3l-0.5,1.9c-1.1,4.4-5.1,7.5-9.7,7.5H867.2z"/>
			<path fill="#AEC4BE" d="M1157.3,837.4c-5.5,0-10-4.5-10-10v-22.2h-1.3v22.2c0,5.5-4.5,10-10,10h-41c-11.4,0-20.7-8.6-20.7-19.1
				c0-7.9,5.2-14.6,12.6-17.6c0-0.2-0.1-0.9-0.1-0.9c-0.1-1.5-0.2-3-0.2-4.5c0-0.5,0-1,0-1.4c0-1.2-0.1-2.4-0.1-3.6
				c-0.1-0.4-0.1-0.9-0.1-1.3l0-2.6c-1.8-0.2-3.6-0.6-5.5-1.2c-7.5-2.4-13.2-8.7-15.9-17.4c-0.3-0.6-0.5-1.3-0.6-2l-0.4-1.9
				c0-0.1,0-0.2-0.1-0.3c-0.1-0.4-0.1-0.8-0.2-1.1l-0.1-0.6c0-0.3-0.1-0.5-0.1-0.7l-0.1-0.9c-0.1-0.5-0.1-1-0.1-1.5l0-0.4
				c0-0.4-0.1-0.9-0.1-1.4l0-0.3c0-0.5,0-1,0-1.5c0,0,0-0.4,0-0.4c0-0.5,0-1.1,0-1.6c0,0,0-0.1,0-0.1c0.3-8.3,2.8-18.8,8.5-28
				c-13.9-7.6-23.2-22.4-23.2-39.1v-79.8c0-20.9,13.5-38.2,36.2-46.4c15-5.4,33.4-8,56.2-8c1.7,0,3.5,0,5.2,0c1.6,0,3.4,0,5.1,0
				c22.8,0,41.2,2.6,56.2,8c22.6,8.2,36.2,25.5,36.2,46.4v0.1c0.2,1.7,0.3,3.3,0.3,4.9v74.8c0,16.4-9.1,31.1-22.7,38.8
				c4.8,7.7,7.8,16.9,8.5,26.4l0,0.5c0,0.4,0.1,0.8,0.1,1.2c0,0.3,0,0.5,0,0.8c0,0.3,0,0.6,0,1c0,0.2,0,0.8,0,0.8c0,0.3,0,0.6,0,0.9
				c0,0.3,0,0.6,0,0.9c0,0.3,0,0.6,0,0.8c0,0.3,0,0.6-0.1,0.9c0,0.3-0.1,0.6-0.1,0.9c0,0.2,0,0.5-0.1,0.7c0,0.2,0,0.4-0.1,0.5
				c0,0.1,0,0.3-0.1,0.5c0,0.4-0.1,0.7-0.2,1c0,0.3-0.1,0.5-0.1,0.8c0,0.1,0,0.3-0.1,0.5l-0.4,1.9c-0.1,0.7-0.3,1.4-0.6,2
				c-2.7,8.7-8.4,14.9-15.8,17.3c-1.7,0.5-3.4,0.9-4.9,1.1c0,3,0,6-0.1,8.9l0,0.2c-0.1,1.9-0.2,3.8-0.3,5.7
				c7,3.1,11.8,9.6,11.8,17.2c0,10.5-9.3,19.1-20.7,19.1H1157.3z"/>
		</g>
		<g>
			<path fill="#FFFFFF" d="M562,449.8c-5.5,0-10-4.5-10-10v-22.2h-0.1v22.2c0,5.5-4.5,10-10,10h-41.4c-11.4,0-20.7-9.3-20.7-20.7
				c0-8.1,4.6-15,11.3-18.5c-0.1-2.2-0.1-4.3-0.1-6.4c-1.2,0.2-2.4,0.2-3.6,0.2c-15,0-27.2-12.2-27.2-27.2c0-8.1,3.6-15.7,9.7-20.8
				c1.4-6.7,3.8-13.1,7.2-18.7c-14.3-7.5-23.8-22.3-23.8-39.4V162.5c0-8.4,6.9-15.3,15.3-15.3c4.2,0,8.1,1.7,11.1,4.8l21.8,23
				c12.7-3.1,27.5-4.6,44.9-4.6c3.2,0,6.6,0.1,10,0.2c6.9,0.2,14.1,0.6,22.9,1.3c7.6,0.6,14.7,1.6,21.2,3l21.7-22.9
				c2.9-3.1,6.8-4.8,11.1-4.8c8.4,0,15.3,6.8,15.3,15.3v135.8c0,16.4-9.1,31.1-22.7,38.8c3.8,6.2,6.6,13.4,7.9,20.9
				c5.1,5.1,8,12,8,19.2c0,15-12.2,27.2-27.2,27.2c-0.6,0-1.2,0-1.8-0.1c0,2,0,4.1-0.1,6.2c6.7,3.4,11.3,10.4,11.3,18.5
				c0,11.4-9.3,20.7-20.7,20.7H562z"/>
			<path fill="#FFFFFF" d="M862.4,449.8c-5.5,0-10.1-4.5-10.1-10v-14.7c0-0.5,0-0.9,0.1-1.4v-6.1h-1.5v22.2c0,5.5-4.5,10-10,10
				h-34.7c-4.6,0-8.6-3.1-9.7-7.5l-0.5-1.9c-0.3-1.1-0.5-2.1-0.8-3.2c-0.1-0.4-0.2-0.8-0.3-1.1c-0.2-0.7-0.3-1.4-0.5-2.2l-0.3-1.2
				c-0.2-0.9-0.4-1.9-0.5-2.8l-0.5-2.9c-0.1-0.4-0.1-0.8-0.1-1.2c-1-6.9-1.6-14-1.8-21.3c-0.3,0-0.7,0-1,0c-7.8,0-15.2-3.4-20.4-9.2
				c-5.2-5.8-7.6-13.7-6.6-21.4c0.6-4.8,2.5-9.3,5.5-13.1c1-8.3,3.8-16.2,7.9-23c-14.1-7.5-23.5-22.3-23.5-39.3v-1.2
				c0-0.2,0-0.3,0-0.5v-15.4c0-0.1,0-0.2,0-0.4l0-57.3c0-22.7,17.2-41.8,39.6-44.2c0.8-0.2,1.6-0.3,2.4-0.3H828c0.1,0,0.2,0,0.4,0
				l75.5,0c0.3,0,0.5,0,0.8,0l3.5,0c1.3,0,2.6,0.3,3.7,0.7c21,3.8,36.5,22.2,36.5,43.8l0,74.8c0,16.3-9,31-22.6,38.7
				c4.3,6.9,7.2,14.9,8.3,23.4c4.5,5.7,6.5,13,5.6,20.3c-1.5,12.1-11.4,22-23.5,23.5c-1.2,0.1-2.3,0.2-3.5,0.2c-0.3,0-0.5,0-0.8,0
				c-0.3,12.7-1.8,24.7-4.7,36l-0.5,1.9c-1.1,4.4-5.1,7.5-9.7,7.5H862.4z"/>
			<path fill="#FFFFFF" d="M1150.9,449.8c-5.5,0-10.1-4.5-10.1-10v-22.2h-1.5v22.2c0,5.5-4.5,10-10,10h-40.5
				c-11.4,0-20.7-9.3-20.7-20.7c0-8.3,4.9-15.4,11.9-18.8c-0.1-2-0.2-3.9-0.2-5.9c-0.5,0-1,0-1.5,0c-7.8,0-15.2-3.4-20.4-9.2
				c-5.2-5.8-7.6-13.7-6.6-21.4c0.7-5.4,3-10.5,6.7-14.6c1.2-7.7,3.8-15.1,7.7-21.4c-14.3-7.5-23.8-22.3-23.8-39.4v-86.3
				c0-1.7,0.1-3.3,0.3-5l-11.1-4.3c-10.2-4-15.3-15.6-11.3-25.8c3-7.7,10.3-12.7,18.6-12.7c2.5,0,4.9,0.5,7.2,1.4l18.4,7.2
				c4.3-2.8,9.1-5.2,14.4-7.1c15.1-5.4,33.6-8,56.6-8c3.2,0,6.6,0.1,10,0.2c6.9,0.2,14.1,0.6,22.9,1.3c20.8,1.6,37.2,6.4,48.9,14.4
				l20-7.8c2.3-0.9,4.8-1.4,7.2-1.4c8.3,0,15.6,5,18.6,12.7c1.9,5,1.8,10.4-0.3,15.3c-2.1,4.9-6.1,8.6-11,10.6l-14.3,5.6
				c0.1,1.2,0.1,2.5,0.1,3.7v86.3c0,5.9-1.1,11.6-3.3,16.9c4.7,3,9,6.7,12.6,10.9c11.6,13.1,16.9,30.7,14.7,48.1
				c-3.3,25.8-23.5,47.1-48.8,52c0.1,0.9,0.2,1.9,0.2,2.8c0,11.4-9.3,20.7-20.7,20.7H1150.9z"/>
			<path fill="#FFFFFF" d="M562.3,832.7c-5.5,0-10-4.5-10-10v-22.2h-0.1v22.2c0,5.5-4.5,10-10,10h-41.4c-11.4,0-20.7-9.3-20.7-20.7
				c0-8.1,4.6-15,11.3-18.5c-0.1-2.3-0.1-4.5,0-6.6l0.1-3.2c0-0.6,0.1-1.3,0.2-1.9c0,0,0-0.1,0-0.1c-1.7-0.2-3.4-0.6-5.3-1.2
				c-8.4-2.7-14.4-9.9-16.6-20.2h-16c-5.5,0-10-4.5-10-10V595c0-23.4,17.2-46.5,40-53.8c16.6-5.3,36.9-7.9,62.2-7.9
				c3.5,0,7.2,0.1,11,0.2c7.6,0.2,15.6,0.6,25.3,1.2c30.5,2,75.8,19.8,75.8,60.3v155.2c0,5.5-4.5,10-10,10H634
				c-2.2,10.2-8.2,17.5-16.6,20.2c-1.6,0.5-3.1,0.9-4.6,1.1c0.2,0.7,0.3,1.4,0.3,2.1l0.1,3.2c0.1,2.1,0,4.3,0,6.6
				c6.7,3.4,11.3,10.4,11.3,18.5c0,11.4-9.3,20.7-20.7,20.7H562.3z"/>
			<path fill="#FFFFFF" d="M258.3,449.8c-4.4,0-8.2-2.9-9.5-6.8c-0.3,0-1,0-1.1,0c-1.3,4-5.1,6.8-9.5,6.8h-41.4
				c-9.3,0-17.1-6.1-19.8-14.5c-12.1-2.6-19.3-4.9-19.4-4.9l-3.5-1.1c-3.2-1-5.6-3.5-6.6-6.7s-0.2-6.6,1.9-9.2l2.4-2.9
				c4.5-5.3,9.3-16.1,14.3-31.9c-0.4-1.6-0.7-3.3-1-5.1c-1.3-10.6,1-24.6,8.2-36.3c-13.7-7.7-22.9-22.5-22.9-38.9v-86.3
				c0-20.9,13.6-38.3,36.5-46.4c15.1-5.4,33.6-8,56.6-8c3.2,0,6.6,0.1,10,0.2c6.9,0.2,14.1,0.6,22.9,1.3c60.2,4.5,69.2,35.2,69.2,53
				v86.3c0,16.5-9.3,31.4-23.2,39c5.4,8.7,8.4,19.3,8.5,29.8l0,2.4c0,0.7-0.1,1.4-0.2,2c-0.1,0.6-0.1,1.3-0.2,1.9
				c-0.2,1.5-0.5,3-0.8,4.5c5.1,16.1,10,27.1,14.5,32.5l2.4,2.9c2.1,2.6,2.9,6,1.9,9.2s-3.4,5.7-6.6,6.7l-3.5,1.1
				c-0.1,0-7.1,2.3-19,4.8c-2.6,8.4-10.5,14.6-19.8,14.6H258.3z"/>
			<path fill="#FFFFFF" d="M251.8,832.7c-5.5,0-10-4.5-10-10v-7.5c-0.2-0.2-0.4-0.3-0.5-0.5c-0.3,0.3-0.6,0.6-1,0.9v7.2
				c0,5.5-4.5,10-10,10h-34.7c-4.6,0-8.6-3.1-9.7-7.5l-0.5-1.9c-0.7-2.6-1.3-5.2-1.8-8c-3.6-3.3-5.7-8-5.7-12.9v-1.7
				c0-3.5,1.1-6.9,3-9.7c-0.1-3.1-0.2-6.2-0.1-9.4c-1.6-0.2-3.2-0.6-4.9-1.1c-9.5-3-15.8-11.8-17.3-24c-0.6-5.1-0.4-10.6,0.6-16.1
				c-0.3-0.6-0.5-1.2-0.7-1.9c-1.4-4.5-0.9-9.2,1.3-13.4l0.8-1.5c0.9-1.7,2-3.1,3.3-4.4c-12.8-7.8-21.2-21.9-21.2-38v-10
				c-4.1-3.8-6.6-9.2-6.6-14.9v-24c0-5.8,2.5-11.2,6.6-14.9v-25.9c0-24.5,20-44.5,44.5-44.5h106.2c24.5,0,44.5,20,44.5,44.5v2.3
				c12.5,2.7,21.9,13.9,21.9,27.2c0,3.4-0.6,6.8-1.8,10c1.2,3.2,1.8,6.5,1.8,10c0,12-7.6,22.4-18.5,26.2c-0.9,1.5-2.1,2.8-3.4,4v10
				c0,15-7.6,28.6-19.4,36.7c2,1.5,3.6,3.4,4.8,5.7l0.8,1.5c2.2,4.1,2.7,8.9,1.3,13.4c-0.5,1.6-1.2,3.1-2.1,4.5
				c0.6,4.6,0.7,9.2,0.2,13.4c-1.5,12.3-7.8,21-17.3,24c-1.7,0.5-3.4,0.9-5,1.1c0,3,0,5.9-0.1,8.8c2.2,2.9,3.4,6.5,3.4,10.3v1.7
				c0,5.3-2.4,10.2-6.3,13.5c-0.5,2.6-1.1,5.1-1.7,7.5l-0.5,1.9c-1.1,4.4-5.1,7.5-9.7,7.5H251.8z"/>
			<path fill="#FFFFFF" d="M862.2,832.7c-5.5,0-10-4.5-10-10v-22.2h-1.5v22.2c0,5.5-4.5,10-10,10H806c-4.6,0-8.6-3.1-9.7-7.5
				l-0.5-1.9c-1.8-7.1-3.1-14.6-3.9-22.3c0-0.2-0.1-0.4-0.1-0.6l0-0.4c-0.6-6-0.8-12.1-0.8-18.4c-1.7-0.2-3.4-0.6-5.2-1.2
				c-12.8-4.1-19.4-18.4-17.2-36.4c-3.6-6-5.1-13.2-4.2-20.2c0.4-3.5,1.5-6.9,3-10c-9-8.3-14.3-20.1-14.3-32.6v-74.8
				c0-24.5,20-44.5,44.5-44.5h106.2c24.5,0,44.5,20,44.5,44.5v74.8c0,13.5-6.2,26.1-16.3,34.4c2,5,2.8,10.5,2.1,16
				c-0.3,2-0.7,3.9-1.3,5.8c2.7,11.4,1.9,22.8-2.3,31c-3,5.9-7.9,10.2-13.7,12c-1.7,0.5-3.3,0.9-4.9,1.1c0.1,6.3-0.2,12.5-0.8,18.5
				l0,0.3c0,0.2,0,0.4-0.1,0.5c-0.8,7.7-2.1,15.2-3.9,22.3l-0.5,1.9c-1.1,4.4-5.1,7.5-9.7,7.5H862.2z"/>
			<path fill="#FFFFFF" d="M1152.3,832.7c-5.5,0-10-4.5-10-10v-22.2h-1.3v22.2c0,5.5-4.5,10-10,10h-41c-11.4,0-20.7-8.6-20.7-19.1
				c0-7.9,5.2-14.6,12.6-17.6c0-0.2-0.1-0.9-0.1-0.9c-0.1-1.5-0.2-3-0.2-4.5c0-0.5,0-1,0-1.4c0-1.2-0.1-2.4-0.1-3.6
				c-0.1-0.4-0.1-0.9-0.1-1.3l0-2.6c-1.8-0.2-3.6-0.6-5.5-1.2c-7.5-2.4-13.2-8.7-15.9-17.4c-0.3-0.6-0.5-1.3-0.6-2l-0.4-1.9
				c0-0.1,0-0.2-0.1-0.3c-0.1-0.4-0.1-0.8-0.2-1.1l-0.1-0.6c0-0.3-0.1-0.5-0.1-0.7l-0.1-0.9c-0.1-0.5-0.1-1-0.1-1.5l0-0.4
				c0-0.4-0.1-0.9-0.1-1.4l0-0.3c0-0.5,0-1,0-1.5c0,0,0-0.4,0-0.4c0-0.5,0-1.1,0-1.6c0,0,0-0.1,0-0.1c0.3-8.3,2.8-18.8,8.5-28
				c-13.9-7.6-23.2-22.4-23.2-39.1v-79.8c0-20.9,13.5-38.2,36.2-46.4c15-5.4,33.4-8,56.2-8c1.7,0,3.5,0,5.2,0c1.6,0,3.4,0,5.1,0
				c22.8,0,41.2,2.6,56.2,8c22.6,8.2,36.2,25.5,36.2,46.4v0.1c0.2,1.7,0.3,3.3,0.3,4.9v74.8c0,16.4-9.1,31.1-22.7,38.8
				c4.8,7.7,7.8,16.9,8.5,26.4l0,0.5c0,0.4,0.1,0.8,0.1,1.2c0,0.3,0,0.5,0,0.8c0,0.3,0,0.6,0,1c0,0.2,0,0.8,0,0.8c0,0.3,0,0.6,0,0.9
				c0,0.3,0,0.6,0,0.9c0,0.3,0,0.6,0,0.8c0,0.3,0,0.6-0.1,0.9c0,0.3-0.1,0.6-0.1,0.9c0,0.2,0,0.5-0.1,0.7c0,0.2,0,0.4-0.1,0.5
				c0,0.1,0,0.3-0.1,0.5c0,0.4-0.1,0.7-0.2,1c0,0.3-0.1,0.5-0.1,0.8c0,0.1,0,0.3-0.1,0.5l-0.4,1.9c-0.1,0.7-0.3,1.4-0.6,2
				c-2.7,8.7-8.4,14.9-15.8,17.3c-1.7,0.5-3.4,0.9-4.9,1.1c0,3,0,6-0.1,8.9l0,0.2c-0.1,1.9-0.2,3.8-0.3,5.7
				c7,3.1,11.8,9.6,11.8,17.2c0,10.5-9.3,19.1-20.7,19.1H1152.3z"/>
		</g>
		<g>
			<g>
				<g>
					<path fill="#5E5F59" d="M622.2,367.2c-0.1-12.4-6.1-27.6-17.8-34.8c-6.1-3.8-12.7-5.6-19-6.5c-2.3-6.2-4-9.7-4-9.7h-29.6h-29.6
						c0,0-1.7,3.5-4,9.7c-6.3,0.9-12.9,2.8-19,6.5c-11.7,7.2-17.7,22.4-17.8,34.8c0,0,11.8,0,21.8,8.5c1.6-5.7,3.1-13.3,6.4-21.5
						c-5.4,22.9-9,53.3-1.4,83.2h30.3v-32.2h13.2H565v32.2h30.3c7.6-29.8,4.1-60.2-1.4-83.2c3.3,8.3,4.8,15.8,6.4,21.5
						C610.4,367.1,622.2,367.2,622.2,367.2z"/>
					<path d="M597.2,439.8h-34.7v-32.2H541v32.2h-34.7l-0.5-1.9c-5.3-20.6-5.2-41.4-3.1-59.3l-1.2-1c-9.1-7.8-20.1-7.9-20.2-7.9
						l-2.5,0l0-2.5c0.1-12.6,6.1-28.9,19-36.9c5.3-3.3,11.5-5.5,18.5-6.7c2-5.3,3.5-8.4,3.5-8.5l0.7-1.4H583l0.7,1.4
						c0.1,0.1,1.5,3.2,3.5,8.5c7,1.2,13.2,3.4,18.5,6.7c12.9,8,18.9,24.3,19,36.9l0,2.5l-2.5,0c-0.1,0-11.1,0.1-20.2,7.9l-1.2,1
						c2.1,17.9,2.2,38.7-3.1,59.3L597.2,439.8z M567.5,434.8h25.8c7.1-29.7,3-59.8-1.8-80.1l4.8-1.5c2.5,6.3,4,12.3,5.3,17.1
						c0.1,0.4,0.2,0.8,0.3,1.1c6.9-4.7,14-6.1,17.8-6.5c-0.8-10.6-6.1-23.9-16.5-30.3c-5.1-3.1-11.1-5.2-18-6.2l-1.5-0.2l-0.5-1.4
						c-1.4-3.7-2.6-6.5-3.2-8.1h-56c-0.7,1.6-1.8,4.3-3.2,8.1l-0.5,1.4l-1.5,0.2c-6.9,1-12.9,3.1-18,6.2
						c-10.5,6.4-15.7,19.7-16.5,30.3c3.7,0.4,10.9,1.8,17.8,6.5c0.1-0.4,0.2-0.8,0.3-1.1c1.2-4.8,2.8-10.8,5.3-17.1l4.8,1.5
						c-4.8,20.3-8.9,50.4-1.8,80.1H536v-32.2h31.5V434.8z"/>
				</g>
				<path d="M501.2,401l-0.1,3.2c-0.1,4.4,0.1,9.1,0.7,14.1h-1.2c-5.9,0-10.7,4.8-10.7,10.7s4.8,10.7,10.7,10.7h41.4v-27.1
					L501.2,401z"/>
				<path d="M603.4,418.3h-1.2c0.6-5,0.8-9.7,0.7-14.1l-0.1-3.2L562,412.7v27.1h41.4c5.9,0,10.7-4.8,10.7-10.7
					S609.3,418.3,603.4,418.3z"/>
				<path d="M487.5,360c-9.5,0-17.2,7.7-17.2,17.2s7.7,17.2,17.2,17.2c9.5,0,17.2-7.7,17.2-17.2S497,360,487.5,360z"/>
				<path d="M614.6,360c-9.5,0-17.2,7.7-17.2,17.2s7.7,17.2,17.2,17.2c9.5,0,17.2-7.7,17.2-17.2S624.1,360,614.6,360z"/>
				<path d="M551.9,322.6L551.9,322.6l-33.4,1.1l6.4,4.3c0.7,0.5,16.8,11.2,26.9,11.2s26.3-10.8,26.9-11.2l6.4-4.3L551.9,322.6z"/>
				<g>
					<path fill="#E9C226" d="M598,382.2c-42.5,9.5-92.5,0-92.5,0l1.5-15.8c0,0,48.4,9.2,89.4,0L598,382.2z"/>
					<path d="M555.2,388.9c-27.3,0-49.9-4.2-50.1-4.3l-2.2-0.4l2-20.8l2.7,0.5c0.2,0,21.6,4,47.5,4c15.2,0,29-1.4,40.9-4l2.8-0.6
						l2,20.8l-2.2,0.5C585.9,387.5,571.3,388.9,555.2,388.9z M508.2,380.1c6.3,1,25,3.8,46.9,3.8c14.8,0,28.3-1.2,40.2-3.7
						l-1.1-10.8c-11.6,2.4-24.8,3.6-39.2,3.6c-21,0-39.1-2.6-45.8-3.7L508.2,380.1z"/>
				</g>
				<path d="M566.2,343.5c-1.7,2.8-7.1,3-9.3,3s-2.8-2.3-2.8-2.3c-0.5,1.4-3.2,1.1-3.2,1.1s-2.7,0.3-3.2-1.1c0,0-0.6,2.4-2.8,2.3
					s-7.6-0.2-9.3-3c0,0-6.3,6.7-3.3,14.4c0,0,3.1-3.7,8.9,0.5c0,0,7.1-3.6,9.7,5.5c2.6-9.1,9.7-5.5,9.7-5.5
					c5.8-4.2,8.9-0.5,8.9-0.5C572.5,350.2,566.2,343.5,566.2,343.5z"/>
				<g>
					<path fill="#EBB787" d="M604.1,191.6H498c-17.7,0-32,14.3-32,32v74.7c0,17.7,14.3,32,32,32h106.2c17.7,0,32-14.3,32-32v-74.7
						C636.1,205.9,621.8,191.6,604.1,191.6z"/>
					<path d="M604.1,332.8H498c-19,0-34.5-15.5-34.5-34.5v-74.7c0-19,15.5-34.5,34.5-34.5h106.2c19,0,34.5,15.5,34.5,34.5v74.7
						C638.6,317.4,623.2,332.8,604.1,332.8z M498,194.1c-16.3,0-29.5,13.2-29.5,29.5v74.7c0,16.3,13.2,29.5,29.5,29.5h106.2
						c16.3,0,29.5-13.2,29.5-29.5v-74.7c0-16.3-13.2-29.5-29.5-29.5H498z"/>
				</g>
				<path fill="#D69576" d="M633.6,223.6c0-16.3-13.2-29.5-29.5-29.5H498c-16.3,0-29.5,13.2-29.5,29.5v74.7
					c0,16.3,13.2,29.5,29.5,29.5h4.8l-23.6-40l71.9,15.7l71.9-15.7l-23.6,40h4.8c16.3,0,29.5-13.2,29.5-29.5V223.6z"/>
				<path d="M633.4,157.3c-1.4,0-2.8,0.6-3.8,1.6l-25.8,27.2c-7.3-2.1-15.7-3.5-25.1-4.2c-8.6-0.6-15.7-1-22.4-1.2
					c-3.3-0.1-6.6-0.1-9.7-0.1c-19.2,0-35,1.9-48.1,5.8l-25.9-27.3c-1-1.1-2.4-1.6-3.8-1.6c-2.9,0-5.3,2.4-5.3,5.3v60.2v1.9v73.6
					c0,19,15.5,34.5,34.5,34.5h5.2l5-2.3l-29-49.2l71.9,15.7l71.9-15.7l-29,49.2l5,2.3h5.2c19,0,34.5-15.5,34.5-34.5v-73.6v-1.1v-61
					C638.6,159.6,636.3,157.3,633.4,157.3z"/>
				<path d="M569.8,299c0,0-1.7,2.3-4.7,5.2c-1.5,1.4-3.4,3-5.6,4.5c-0.5,0.4-1.1,0.8-1.7,1.1c-0.6,0.4-1.2,0.7-1.9,1
					c-0.3,0.2-0.7,0.3-1,0.5c-0.4,0.2-0.7,0.3-1.1,0.4l-1.2,0.4c-0.2,0.1-0.5,0.1-0.8,0.1l-0.4,0l-0.2,0l-0.1,0l0,0l0,0
					c-0.1,0,0.3,0-0.3,0c-0.3,0-0.7-0.1-1-0.1c-0.5-0.1-1-0.3-1.5-0.4c-0.5-0.2-0.7-0.3-1.1-0.5c-0.4-0.2-0.7-0.3-1-0.5
					c-0.7-0.3-1.3-0.7-1.9-1c-0.6-0.4-1.2-0.7-1.7-1.1c-2.2-1.5-4.1-3.1-5.6-4.5c-3.1-2.8-4.7-5.2-4.7-5.2s0.7,0.2,1.8,0.7
					c1.1,0.5,2.7,1.2,4.6,2.1c1.8,0.9,3.9,1.9,6.2,3.1c1.1,0.6,2.3,1.1,3.4,1.6c0.3,0.1,0.6,0.2,0.8,0.3c0.3,0.1,0.6,0.2,0.8,0.3
					c0.2,0,0.3,0.1,0.5,0.2c0.3,0,0.7,0.1,1,0.1c-0.5,0-0.1,0-0.3,0l0,0l0,0l0,0l0.1,0l0.1,0c0.1,0,0.1,0,0.2,0l0.7-0.2
					c0.5-0.2,1.1-0.4,1.6-0.6c1.1-0.5,2.3-1,3.4-1.6c2.3-1.1,4.4-2.2,6.2-3.1c1.8-0.9,3.4-1.6,4.6-2.1
					C569.1,299.2,569.8,299,569.8,299z"/>
				<g>
					<circle fill="#FFFFFF" cx="513.6" cy="265.2" r="12.5"/>
					<circle fill="#FFFFFF" cx="588.6" cy="265.2" r="12.5"/>
				</g>
			</g>
			<g>
				<g>
					<path fill="#BE1E2D" d="M904.2,332.4c-6.1-3.8-12.7-5.7-19-6.6c-2.3-6.2-4-9.7-4-9.7h-29.6H822c0,0-1.6,3.5-3.9,9.6
						c-6.4,0.9-13.1,2.8-19.3,6.6c-20.2,12.4-23.3,48.6-8.9,53.2c14.3,4.5,11.1-12.3,20.1-33.3c-5.7,23.1-9.6,54.4-1.8,85h30.3
						v-32.2h13.2h13.2v32.2h30.3c7.6-29.8,4.1-60.3-1.4-83.2c8,20.1,5.5,35.9,19.3,31.5C927.6,381,924.4,344.9,904.2,332.4z"/>
					<path d="M897.1,439.8h-34.7v-32.2h-21.5v32.2h-34.7l-0.5-1.9c-4.7-18.4-5.2-37-3.7-53.7c-1.8,2.9-4.2,4.6-8.1,4.6
						c-1.5,0-3.1-0.3-4.9-0.9c-5.6-1.8-9.4-7.5-10.4-15.7c-1.7-13.7,4.3-33.1,18.7-42c5.4-3.3,11.7-5.6,18.8-6.7
						c2-5.3,3.4-8.3,3.5-8.4l0.7-1.4h62.5l0.7,1.4c0.1,0.1,1.5,3.2,3.5,8.5c7,1.2,13.2,3.4,18.5,6.7c14.4,8.9,20.4,28.3,18.7,42
						c-1,8.2-4.8,13.9-10.4,15.7c-1.8,0.6-3.4,0.9-4.9,0.9h0c-3.6,0-5.9-1.5-7.7-4.1c1.4,16.4,0.9,34.9-3.7,53.1L897.1,439.8z
						 M867.4,434.8h25.8c7.1-29.7,3-59.8-1.8-80.1l4.8-1.5c2.5,6.3,4,12.3,5.3,17.1c2.5,9.9,3.8,13.6,7.6,13.6l0,0
						c0.9,0,2.1-0.2,3.4-0.6c3.6-1.2,6.2-5.4,6.9-11.6c1.5-12.3-4.2-29.6-16.4-37.1c-5.1-3.1-11.2-5.2-18-6.2l-1.5-0.2l-0.5-1.4
						c-1.4-3.7-2.6-6.5-3.2-8.1h-56c-0.7,1.5-1.8,4.3-3.2,8l-0.5,1.4l-1.5,0.2c-7,1-13.2,3.1-18.4,6.3
						c-12.2,7.5-17.9,24.8-16.4,37.1c0.8,6.2,3.3,10.4,6.9,11.6c6.5,2.1,7.9-0.6,11-13c1.4-5.3,3.1-12,6.1-19l4.7,1.6
						c-5.1,20.7-9.5,51.6-2.3,81.9h25.8v-32.2h31.5V434.8z"/>
				</g>
				<g>
					<circle fill="#AED7D7" cx="851.7" cy="359.8" r="16"/>
					<path d="M851.7,378.3c-10.2,0-18.5-8.3-18.5-18.5s8.3-18.5,18.5-18.5c10.2,0,18.5,8.3,18.5,18.5S861.9,378.3,851.7,378.3z
						 M851.7,346.4c-7.4,0-13.5,6.1-13.5,13.5s6.1,13.5,13.5,13.5s13.5-6.1,13.5-13.5S859.1,346.4,851.7,346.4z"/>
				</g>
				<g>
					<path fill="#E9C226" d="M775.8,375.3c-1.2,9.6,6.9,17.7,16.5,16.5c6.5-0.8,11.8-6.1,12.7-12.7c1.2-9.6-6.9-17.7-16.5-16.5
						C781.9,363.5,776.6,368.8,775.8,375.3z"/>
					<path d="M790.3,394.4L790.3,394.4c-4.9,0-9.6-2.1-12.9-5.8c-3.3-3.7-4.8-8.6-4.2-13.6c1-7.6,7.2-13.9,14.8-14.8
						c5.7-0.7,11.4,1.4,15.1,5.7c3.3,3.7,4.8,8.6,4.2,13.6c-1,7.6-7.2,13.9-14.8,14.8C791.8,394.4,791.1,394.4,790.3,394.4z
						 M790.3,365c-0.5,0-1.1,0-1.6,0.1c-5.4,0.7-9.8,5.1-10.5,10.5c-0.4,3.6,0.6,7,2.9,9.7c2.3,2.6,5.6,4.1,9.1,4.1c0,0,0,0,0,0
						c0.5,0,1.1,0,1.6-0.1c5.4-0.7,9.8-5.1,10.5-10.5c0.4-3.6-0.6-7-2.9-9.7C797.2,366.6,793.8,365,790.3,365z"/>
				</g>
				<g>
					<path fill="#E9C226" d="M898.2,375.3c-1.2,9.6,6.9,17.7,16.5,16.5c6.5-0.8,11.8-6.1,12.7-12.7c1.2-9.6-6.9-17.7-16.5-16.5
						C904.3,363.5,899,368.8,898.2,375.3z"/>
					<path d="M912.7,394.4C912.7,394.4,912.7,394.4,912.7,394.4c-4.9,0-9.6-2.1-12.9-5.8c-3.3-3.7-4.8-8.6-4.2-13.6
						c1-7.6,7.2-13.9,14.8-14.8c5.7-0.7,11.4,1.4,15.1,5.7c3.3,3.7,4.8,8.6,4.2,13.6c-1,7.6-7.2,13.9-14.8,14.8
						C914.2,394.4,913.5,394.4,912.7,394.4z M912.7,365c-0.5,0-1.1,0-1.6,0.1c-5.4,0.7-9.8,5.1-10.5,10.5c-0.4,3.6,0.6,7,2.9,9.7
						c2.3,2.6,5.6,4.1,9.1,4.1c0,0,0,0,0,0c0.5,0,1.1,0,1.6-0.1c5.4-0.7,9.8-5.1,10.5-10.5c0.4-3.6-0.6-7-2.9-9.7
						C919.6,366.6,916.2,365,912.7,365z"/>
				</g>
				<g>
					<path fill="#E9C226" d="M808.1,437.3h30.3v-9.7h-32.4C806.6,430.8,807.3,434,808.1,437.3z"/>
					<path d="M840.9,439.8h-34.7l-0.5-1.9c-0.8-3.1-1.5-6.5-2.1-9.9l-0.5-2.9h37.8V439.8z M810.1,434.8h25.8v-4.7h-26.8
						C809.4,431.7,809.7,433.2,810.1,434.8z"/>
				</g>
				<g>
					<path fill="#E9C226" d="M895.1,437.3h-30.3v-9.7h32.4C896.6,430.8,895.9,434,895.1,437.3z"/>
					<path d="M897,439.8h-34.7v-14.7h37.8l-0.5,2.9c-0.6,3.4-1.3,6.7-2.1,9.9L897,439.8z M867.3,434.8h25.8c0.4-1.5,0.7-3.1,1-4.7
						h-26.8V434.8z"/>
				</g>
				<path fill="#8B0E1A" d="M906.3,337c-1.1-0.9-2.2-1.7-3.4-2.5c-5.1-3.1-11.2-5.2-18-6.2l-1.5-0.2l-0.5-1.4
					c-1.4-3.7-2.6-6.5-3.2-8.1h-56c-0.7,1.5-1.8,4.3-3.2,8l-0.5,1.4l-1.5,0.2c-7,1-13.2,3.1-18.4,6.3c-1.2,0.8-2.4,1.6-3.5,2.6
					c0.4,0,0.8,0,1.2,0l106.2,0C904.7,337.1,905.5,337.1,906.3,337z"/>
				<g>
					<path fill="#BE1E2D" d="M903.9,191.6l-106.2,0c-17.7,0-32,14.3-32,32l0,74.7c0,17.7,14.3,32,32,32l106.2,0
						c17.7,0,32-14.3,32-32l0-74.7C935.9,205.9,921.5,191.6,903.9,191.6z"/>
					<path d="M903.9,332.8l-106.2,0c-19,0-34.5-15.5-34.5-34.5l0-74.7c0-19,15.5-34.5,34.5-34.5l106.2,0c19,0,34.5,15.5,34.5,34.5
						l0,74.7C938.4,317.3,922.9,332.8,903.9,332.8z M797.7,194.1c-16.3,0-29.5,13.2-29.5,29.5l0,74.7c0,16.3,13.2,29.5,29.5,29.5
						l106.2,0c16.3,0,29.5-13.2,29.5-29.5l0-74.7c0-16.3-13.2-29.5-29.5-29.5L797.7,194.1z"/>
				</g>
				<g>
					<polygon fill="#E9C226" points="905.6,234.1 905.6,191.6 877.5,191.6 871.3,236.8 851.7,236.8 832,236.8 825.8,191.6 
						797.7,191.6 797.7,234.1 765.7,282.1 765.7,295.4 814.5,330.3 851.7,330.3 888.8,330.3 935.5,295.4 935.5,282.1 					"/>
					<path d="M889.6,332.8h-75.9l-50.5-36.1v-15.4l32-48v-44.2H828l6.2,45.2h34.9l6.2-45.2h32.8v44.3l29.9,48v15.3L889.6,332.8z
						 M815.3,327.8H888l45-33.7v-11.4l-29.9-48v-40.7h-23.4l-6.2,45.2h-43.6l-6.2-45.2h-23.4v40.8l-32,48v11.3L815.3,327.8z"/>
				</g>
				<polygon points="887,332 868.6,312.3 834.7,312.3 816.4,332 812.7,328.6 832.6,307.3 870.8,307.3 890.6,328.6 				"/>
				<g>
					
						<rect x="798.6" y="268.4" transform="matrix(0.9283 0.3719 -0.3719 0.9283 160.0536 -283.784)" fill="#AED7D7" width="34" height="9.2"/>
					<path d="M831.1,286.8l-36.2-14.5l5.3-13.2l36.2,14.5L831.1,286.8z M801.4,269.6l26.9,10.8l1.6-3.9L803,265.6L801.4,269.6z"/>
				</g>
				<g>
					
						<rect x="868.1" y="268.4" transform="matrix(-0.9283 0.3719 -0.3719 -0.9283 1808.3296 197.1748)" fill="#AED7D7" width="34" height="9.2"/>
					<path d="M869.7,286.8l-5.3-13.2l36.2-14.5l5.3,13.2L869.7,286.8z M870.9,276.4l1.6,3.9l26.9-10.8l-1.6-3.9L870.9,276.4z"/>
				</g>
			</g>
			<g>
				<g>
					<path fill="#154579" d="M1210.5,367.2c-0.1-12.4-6.1-27.6-17.8-34.8c-6.1-3.8-12.7-5.6-19-6.5c-2.3-6.2-4-9.7-4-9.7H1140h-29.6
						c0,0-1.7,3.5-4,9.7c-6.3,0.9-12.8,2.8-18.9,6.5c-11.7,7.2-17.7,22.4-17.8,34.8c0,0,11.8,0,21.8,8.5c1.6-5.6,3-12.8,6.2-20.9
						c-5.3,22.8-8.7,53-1.2,82.5h30.3v-32.2h13.2h13.2v32.2h30.3c7.6-29.8,4.1-60.2-1.3-83.1c3.3,8.3,4.8,15.8,6.4,21.5
						C1198.6,367.1,1210.5,367.2,1210.5,367.2z"/>
					<path d="M1185.5,439.8h-34.7v-32.2h-21.5v32.2h-34.7l-0.5-1.9c-5.3-20.6-5.2-41.5-3.1-59.4l-1.1-0.9
						c-9.1-7.8-20.1-7.9-20.2-7.9l-2.5,0l0-2.5c0.1-12.6,6.1-28.9,19-36.9c5.3-3.2,11.4-5.5,18.4-6.6c2-5.3,3.5-8.4,3.5-8.5l0.7-1.4
						h62.5l0.7,1.4c0.1,0.1,1.5,3.2,3.5,8.5c7,1.2,13.2,3.4,18.5,6.7c12.9,8,18.9,24.3,19,36.9l0,2.5l-2.5,0
						c-0.1,0-11.1,0.1-20.2,7.9l-1.2,1c2.1,17.9,2.2,38.7-3.1,59.3L1185.5,439.8z M1155.8,434.8h25.8c7.1-29.6,3-59.8-1.8-80
						l4.8-1.5c2.5,6.3,4,12.2,5.3,17c0.1,0.4,0.2,0.7,0.3,1.1c6.9-4.7,14-6.1,17.8-6.5c-0.8-10.6-6.1-23.9-16.5-30.3
						c-5.1-3.1-11.1-5.2-18-6.2l-1.5-0.2l-0.5-1.4c-1.4-3.7-2.6-6.5-3.2-8.1h-56c-0.7,1.6-1.8,4.3-3.3,8.1l-0.5,1.4l-1.5,0.2
						c-6.8,1-12.9,3.1-17.9,6.2c-10.5,6.4-15.7,19.7-16.5,30.3c3.7,0.4,10.9,1.8,17.8,6.5c0.1-0.4,0.2-0.7,0.3-1.1
						c1.2-4.9,2.7-10.4,5-16.4l4.8,1.5c-4.7,20.1-8.7,50-1.7,79.4h25.8v-32.2h31.5V434.8z"/>
				</g>
				<g>
					<path fill="#BE1E2D" d="M1063.6,375.3c-1.2,9.6,6.9,17.7,16.5,16.5c6.5-0.8,11.8-6.1,12.7-12.7c1.2-9.6-6.9-17.7-16.5-16.5
						C1069.7,363.5,1064.5,368.8,1063.6,375.3z"/>
					<path d="M1078.2,394.4C1078.2,394.4,1078.2,394.4,1078.2,394.4c-4.9,0-9.6-2.1-12.9-5.8c-3.3-3.7-4.8-8.6-4.2-13.6
						c1-7.6,7.2-13.9,14.8-14.8c5.7-0.7,11.4,1.4,15.1,5.7c3.3,3.7,4.8,8.6,4.2,13.6c-1,7.6-7.2,13.9-14.8,14.8
						C1079.7,394.4,1078.9,394.4,1078.2,394.4z M1078.2,365c-0.5,0-1.1,0-1.6,0.1c-5.4,0.7-9.8,5.1-10.5,10.5
						c-0.4,3.6,0.6,7,2.9,9.7c2.3,2.6,5.6,4.1,9.1,4.1c0,0,0,0,0,0c0.5,0,1.1,0,1.6-0.1c5.4-0.7,9.8-5.1,10.5-10.5
						c0.4-3.6-0.6-7-2.9-9.7C1085,366.6,1081.7,365,1078.2,365z"/>
				</g>
				<g>
					<path fill="#EBB787" d="M1166.8,171.5c-7.1-0.5-14.6-1-22.3-1.2c-21.1-0.6-43.5,0.5-62,7.2c-15.7,5.6-28.2,17-28.2,34.6
						c0,0,0,4.7,0,11.5v47.5v27.3c0,17.7,14.3,32,32,32h106.2c17.7,0,32-14.3,32-32v-27.3v-47.5c0-6.8,0-11.5,0-11.5
						C1224.5,181.2,1191.8,173.4,1166.8,171.5z"/>
					<path d="M1192.5,332.8h-106.2c-19,0-34.5-15.5-34.5-34.5v-86.3c0-16.7,10.9-30.2,29.8-37c14-5,31.4-7.4,53.3-7.4
						c3.1,0,6.4,0,9.7,0.1c6.7,0.2,13.9,0.6,22.4,1.2c39.2,2.9,60,17.8,60,43.1v86.3C1227,317.4,1211.5,332.8,1192.5,332.8z
						 M1134.9,172.6c-21.2,0-38.1,2.3-51.6,7.2c-9.9,3.5-26.5,12.4-26.5,32.3v86.3c0,16.3,13.2,29.5,29.5,29.5h106.2
						c16.3,0,29.5-13.2,29.5-29.5v-86.3c0-22.5-18.6-35.3-55.3-38.1c-8.5-0.6-15.6-1-22.2-1.2
						C1141.1,172.7,1137.9,172.6,1134.9,172.6z"/>
					<path fill="#D69576" d="M1167,175.6c-8.6-0.6-15.7-1-22.4-1.2c-3.3-0.1-6.6-0.1-9.7-0.1c-21.8,0-39.2,2.4-53.3,7.4
						c-6.1,2.2-11.3,5-15.6,8.5c-5.2,5.1-9.2,12.2-9.2,21.9v86.1H1222v-86.1c0-8.8-2.9-16.2-8.6-22
						C1203.3,182.1,1187.7,177.2,1167,175.6z"/>
				</g>
				<g>
					<path fill="#154579" d="M1166.8,171.5c-7.1-0.5-14.6-1-22.3-1.2c-21.1-0.6-43.5,0.5-62,7.2c-15.7,5.6-28.2,17-28.2,34.6
						c0,0,0,4.7,0,11.5v47.5v18h170.2v-18v-47.5c0-6.8,0-11.5,0-11.5C1224.5,181.2,1191.8,173.4,1166.8,171.5z"/>
					<path d="M1227,291.6h-175.2v-79.5c0-16.7,10.9-30.2,29.8-37c14-5,31.4-7.4,53.3-7.4c3.1,0,6.4,0,9.7,0.1
						c6.7,0.2,13.9,0.6,22.4,1.2c39.2,2.9,60,17.8,60,43.1V291.6z M1056.8,286.6H1222v-74.5c0-22.5-18.6-35.3-55.3-38.1
						c-8.5-0.6-15.6-1-22.2-1.2c-3.3-0.1-6.5-0.1-9.5-0.1c-21.2,0-38.1,2.3-51.6,7.2c-9.9,3.5-26.5,12.4-26.5,32.3V286.6z"/>
				</g>
				<g>
					<circle cx="1101.9" cy="265.2" r="12.5"/>
					<circle cx="1176.9" cy="265.2" r="12.5"/>
					<circle fill="#FFFFFF" cx="1098.5" cy="261.5" r="3.4"/>
					<circle fill="#FFFFFF" cx="1174.1" cy="261.5" r="3.4"/>
				</g>
				<path d="M1158.1,299c0,0-1.7,2.3-4.7,5.2c-1.5,1.4-3.4,3-5.6,4.5c-0.5,0.4-1.1,0.8-1.7,1.1c-0.6,0.4-1.2,0.7-1.9,1
					c-0.3,0.2-0.7,0.3-1,0.5c-0.4,0.2-0.7,0.3-1.1,0.4l-1.2,0.4c-0.2,0.1-0.5,0.1-0.8,0.1l-0.4,0l-0.2,0l-0.1,0l0,0l0,0
					c-0.1,0,0.3,0-0.3,0c-0.3,0-0.7-0.1-1-0.1c-0.5-0.1-1-0.3-1.5-0.4c-0.5-0.2-0.7-0.3-1.1-0.5c-0.4-0.2-0.7-0.3-1-0.5
					c-0.7-0.3-1.3-0.7-1.9-1c-0.6-0.4-1.2-0.7-1.7-1.1c-2.2-1.5-4.1-3.1-5.6-4.5c-3.1-2.8-4.7-5.2-4.7-5.2s0.7,0.2,1.8,0.7
					c1.1,0.5,2.7,1.2,4.6,2.1c1.8,0.9,3.9,1.9,6.2,3.1c1.1,0.6,2.3,1.1,3.4,1.6c0.3,0.1,0.6,0.2,0.8,0.3c0.3,0.1,0.6,0.2,0.8,0.3
					c0.2,0,0.3,0.1,0.5,0.2c0.3,0,0.7,0.1,1,0.1c-0.5,0-0.1,0-0.3,0l0,0l0,0l0,0l0.1,0l0.1,0c0.1,0,0.1,0,0.2,0l0.7-0.2
					c0.5-0.2,1.1-0.4,1.6-0.6c1.1-0.5,2.3-1,3.4-1.6c2.3-1.1,4.4-2.2,6.2-3.1c1.8-0.9,3.4-1.6,4.6-2.1
					C1157.5,299.2,1158.1,299,1158.1,299z"/>
				<g>
					<path fill="#FFFFFF" d="M1073.1,189.8l-32.1-12.5c-3.8-1.5-8.1,0.4-9.6,4.2v0c-1.5,3.8,0.4,8.1,4.2,9.6l32.1,12.5
						c3.8,1.5,8.1-0.4,9.6-4.2C1078.8,195.6,1076.9,191.3,1073.1,189.8z"/>
					<path d="M1070.4,206.7C1070.4,206.7,1070.4,206.7,1070.4,206.7c-1.2,0-2.5-0.2-3.6-0.7l-32.1-12.5c-5.1-2-7.6-7.8-5.7-12.9
						c1.5-3.8,5.1-6.3,9.3-6.3c1.2,0,2.5,0.2,3.6,0.7l32.1,12.5c2.5,1,4.4,2.8,5.5,5.3c1.1,2.4,1.1,5.1,0.2,7.6
						C1078.1,204.2,1074.5,206.7,1070.4,206.7z M1038.2,179.3c-2.1,0-3.9,1.2-4.6,3.2c-1,2.5,0.3,5.4,2.8,6.4l32.1,12.5
						c0.6,0.2,1.2,0.3,1.8,0.3c2.1,0,3.9-1.2,4.6-3.2c0.5-1.2,0.5-2.6-0.1-3.8s-1.5-2.1-2.7-2.6l-32.1-12.5
						C1039.4,179.4,1038.8,179.3,1038.2,179.3z"/>
				</g>
				<g>
					<path fill="#FFFFFF" d="M1209,189.8l32.1-12.5c3.8-1.5,8.1,0.4,9.6,4.2v0c1.5,3.8-0.4,8.1-4.2,9.6l-32.1,12.5
						c-3.8,1.5-8.1-0.4-9.6-4.2C1203.3,195.6,1205.2,191.3,1209,189.8z"/>
					<path d="M1211.8,206.7c-4.1,0-7.8-2.5-9.3-6.3c-1-2.5-0.9-5.2,0.2-7.6c1.1-2.4,3-4.3,5.5-5.3l32.1-12.5
						c1.2-0.5,2.4-0.7,3.6-0.7c4.1,0,7.8,2.5,9.3,6.3c1,2.5,0.9,5.2-0.2,7.6c-1.1,2.4-3,4.3-5.5,5.3l-32.1,12.5
						C1214.2,206.5,1213,206.7,1211.8,206.7z M1243.9,179.3c-0.6,0-1.2,0.1-1.8,0.3l-32.1,12.5c-1.2,0.5-2.2,1.4-2.7,2.6
						s-0.6,2.6-0.1,3.8c0.7,1.9,2.6,3.2,4.6,3.2c0.6,0,1.2-0.1,1.8-0.3l32.1-12.5c1.2-0.5,2.2-1.4,2.7-2.6s0.6-2.6,0.1-3.8
						C1247.8,180.5,1245.9,179.3,1243.9,179.3z"/>
				</g>
				<g>
					<path fill="#FFFFFF" d="M1146.9,231.3h-15.5l-2.1,8.9h-13.9l16.6-53.7h14.9l16.6,53.7h-14.3L1146.9,231.3z M1144.1,219.7
						l-4.9-19.3l-4.8,19.3H1144.1z"/>
				</g>
				<polygon fill="#FFFFFF" points="1140.1,334 1143.6,344.9 1155.1,344.9 1145.8,351.7 1149.4,362.5 1140.1,355.8 1130.8,362.5 
					1134.4,351.7 1125.1,344.9 1136.6,344.9 				"/>
				<g>
					<path fill="#BE1E2D" d="M1092.9,420.8h-4.1c-4.6,0-8.2,3.7-8.2,8.2v0c0,4.6,3.7,8.2,8.2,8.2h7.4h30.4v-16.5v-6.2h-33.8
						C1093.1,416.7,1092.6,418.8,1092.9,420.8z"/>
					<path d="M1129.2,439.8h-40.4c-5.9,0-10.7-4.8-10.7-10.7c0-5.9,4.8-10.7,10.7-10.7h1.5c0-0.3,0-0.6,0-0.9c0.1-0.9,0.1-1.8,0-2.6
						l-0.2-2.7h39V439.8z M1088.8,423.3c-3.2,0-5.7,2.6-5.7,5.7s2.6,5.7,5.7,5.7h35.4v-17.7h-28.8c0,0.2,0,0.4,0,0.6
						c-0.1,1-0.1,1.9,0,2.7l0.4,2.8H1088.8z"/>
				</g>
				<g>
					<path fill="#BE1E2D" d="M1191.7,420.8h-4.1c0.3-2-0.6-4-0.4-6.2h-33.8v6.2v16.5h30.9h7.4c4.6,0,8.2-3.7,8.2-8.2v0
						C1199.9,424.5,1196.2,420.8,1191.7,420.8z"/>
					<path d="M1191.7,439.8h-40.8v-27.7h39l-0.2,2.7c-0.1,0.7,0.1,1.6,0.2,2.5c0.1,0.3,0.1,0.7,0.2,1h1.6c5.9,0,10.7,4.8,10.7,10.7
						S1197.6,439.8,1191.7,439.8z M1155.9,434.8h35.8c3.2,0,5.7-2.6,5.7-5.7c0-3.2-2.6-5.7-5.7-5.7h-6.9l0.4-2.8
						c0.1-0.6,0-1.5-0.2-2.4c0-0.3-0.1-0.6-0.1-1h-28.9V434.8z"/>
				</g>
				<g>
					<path fill="#FFFFFF" d="M1186.4,382.2c-42.5,9.5-92.5,0-92.5,0l1.5-15.8c0,0,48.4,9.2,89.4,0L1186.4,382.2z"/>
					<path d="M1143.5,388.9c-27.3,0-49.9-4.2-50.1-4.3l-2.2-0.4l2-20.8l2.7,0.5c0.2,0,21.6,4,47.5,4c15.2,0,29-1.4,40.9-4l2.8-0.6
						l2,20.8l-2.2,0.5C1174.2,387.5,1159.6,388.9,1143.5,388.9z M1096.6,380.1c6.3,1,25,3.8,46.9,3.8c14.8,0,28.3-1.2,40.2-3.7
						l-1.1-10.8c-11.6,2.4-24.8,3.6-39.2,3.6c-21,0-39.1-2.6-45.8-3.7L1096.6,380.1z"/>
				</g>
				<g>
					<path fill="#BE1E2D" d="M1109.5,370.9l-1.1,10.9c3.5,0.4,7.6,0.8,12.1,1.2l1.1-10.9C1117.2,371.7,1113.1,371.3,1109.5,370.9z"
						/>
					<path fill="#BE1E2D" d="M1170.4,371.3c-3.9,0.5-7.9,0.9-12.1,1.1l1.1,10.9c4.2-0.3,8.2-0.7,12.1-1.2L1170.4,371.3z"/>
					<path fill="#BE1E2D" d="M1143.4,372.9c-3.3,0-6.5-0.1-9.6-0.2l-0.6,10.9c3.3,0.1,6.8,0.2,10.3,0.2c0.6,0,1.2,0,1.9,0l0.6-11
						C1145.1,372.9,1144.2,372.9,1143.4,372.9z"/>
				</g>
				<g>
					<path fill="#BE1E2D" d="M1152.5,360.1c-4,31.7,22.7,58.3,54.3,54.3c21.6-2.7,39-20.2,41.7-41.7c4-31.7-22.7-58.3-54.3-54.3
						C1172.7,321,1155.3,338.5,1152.5,360.1z"/>
					<path d="M1200.6,417.3C1200.6,417.3,1200.6,417.3,1200.6,417.3c-14.6,0-28.5-6.3-38.2-17.3c-9.7-11-14.1-25.6-12.3-40.3
						c2.8-22.6,21.3-41.1,43.9-43.9c2.2-0.3,4.4-0.4,6.6-0.4c14.6,0,28.5,6.3,38.2,17.3c9.7,11,14.1,25.6,12.3,40.3
						c-2.8,22.6-21.3,41.1-43.9,43.9C1205,417.1,1202.8,417.3,1200.6,417.3z M1200.6,320.4c-2,0-4,0.1-6,0.4
						c-20.4,2.6-37,19.2-39.6,39.6c-1.7,13.4,2.2,26.3,11.1,36.3c8.7,9.9,21.3,15.6,34.5,15.6c0,0,0,0,0,0c2,0,4-0.1,6-0.4
						c20.4-2.6,37-19.2,39.6-39.6c1.7-13.4-2.2-26.3-11.1-36.4C1226.3,326.1,1213.8,320.4,1200.6,320.4z"/>
				</g>
				<path fill="#FFFFFF" d="M1196.1,332.1c-15.4,1.9-27.8,14.4-29.7,29.7c-2.8,22.6,16.1,41.6,38.7,38.7
					c15.4-1.9,27.8-14.4,29.7-29.7C1237.7,348.3,1218.7,329.3,1196.1,332.1z M1226.1,369.7c-1.4,11.5-10.7,20.8-22.2,22.2
					c-16.9,2.1-31-12.1-28.9-28.9c1.4-11.5,10.7-20.8,22.2-22.2C1214.1,338.7,1228.3,352.8,1226.1,369.7z"/>
				<path fill="#154579" d="M1179.8,363.6c-1.7,13.7,9.8,25.2,23.5,23.5c9.3-1.2,16.9-8.7,18.1-18.1c1.7-13.7-9.8-25.2-23.5-23.5
					C1188.5,346.7,1181,354.3,1179.8,363.6z"/>
				<polygon fill="#FFFFFF" points="1200.6,353.3 1203.8,363.3 1214.3,363.3 1205.8,369.4 1209.1,379.4 1200.6,373.2 1192.1,379.4 
					1195.3,369.4 1186.8,363.3 1197.3,363.3 				"/>
			</g>
			<g>
				<g>
					<rect x="456.3" y="624.7" width="189.4" height="123"/>
					<path d="M648.3,750.3H453.8v-128h194.4V750.3z M458.8,745.3h184.4v-118H458.8V745.3z"/>
				</g>
				<g>
					<path fill="#EBB787" d="M604.7,715.4c-6.1-3.8-12.7-5.7-19-6.6c-2.3-6.2-4-9.7-4-9.7h-29.6h-29.6c0,0-1.6,3.5-3.9,9.6
						c-6.4,0.9-13.1,2.8-19.3,6.6c-20.2,12.4-23.3,48.6-8.9,53.2c14.3,4.5,11.1-12.3,20.1-33.3c-5.7,23.1-9.6,54.4-1.8,85h30.3
						v-32.2h13.2h13.2v32.2h30.3c7.6-29.8,4.1-60.3-1.4-83.2c8,20.1,5.5,35.9,19.3,31.5C628,764,624.9,727.8,604.7,715.4z"/>
					<path d="M597.6,822.7h-34.7v-32.2h-21.5v32.2h-34.7l-0.5-1.9c-4.7-18.4-5.2-37-3.7-53.7c-1.8,2.9-4.2,4.6-8.1,4.6
						c-1.5,0-3.1-0.3-4.9-0.9c-5.6-1.8-9.4-7.5-10.4-15.7c-1.7-13.7,4.3-33.1,18.7-42c5.4-3.3,11.7-5.6,18.8-6.7
						c2-5.3,3.4-8.3,3.5-8.4l0.7-1.4h62.5l0.7,1.4c0.1,0.1,1.5,3.2,3.5,8.5c7,1.2,13.2,3.4,18.5,6.7c14.4,8.9,20.4,28.3,18.7,42
						c-1,8.2-4.8,13.9-10.4,15.7c-1.8,0.6-3.4,0.9-4.9,0.9c0,0,0,0,0,0c-3.6,0-5.9-1.5-7.7-4.1c1.4,16.4,0.9,34.9-3.7,53.1
						L597.6,822.7z M567.8,817.7h25.8c7.1-29.7,3-59.8-1.8-80.1l4.8-1.5c2.5,6.3,4,12.3,5.3,17.1c2.5,9.9,3.8,13.6,7.6,13.6
						c0,0,0,0,0,0c0.9,0,2.1-0.2,3.4-0.6c3.6-1.2,6.2-5.4,6.9-11.6c1.5-12.3-4.2-29.6-16.4-37.1c-5.1-3.1-11.2-5.2-18-6.2l-1.5-0.2
						l-0.5-1.4c-1.4-3.7-2.6-6.5-3.2-8.1h-56c-0.7,1.5-1.8,4.3-3.2,8l-0.5,1.4l-1.5,0.2c-7,1-13.2,3.1-18.4,6.3
						c-12.2,7.5-17.9,24.8-16.4,37.1c0.8,6.2,3.3,10.4,6.9,11.6c6.5,2.1,7.9-0.6,11-13c1.4-5.3,3.1-12,6.1-19l4.7,1.6
						c-5.1,20.7-9.5,51.6-2.3,81.9h25.8v-32.2h31.5V817.7z"/>
					<path fill="#D69576" d="M606.8,720c-1.1-0.9-2.2-1.8-3.4-2.5c-5.1-3.1-11.2-5.2-18-6.2l-1.5-0.2l-0.5-1.4
						c-1.4-3.7-2.6-6.5-3.2-8.1h-56c-0.7,1.5-1.8,4.3-3.2,8l-0.5,1.4l-1.5,0.2c-7,1-13.2,3.1-18.4,6.3c-1.2,0.8-2.4,1.6-3.5,2.5
						c0.4,0,0.9,0,1.3,0h106.2C605.3,720.1,606,720,606.8,720z"/>
				</g>
				<g>
					<path fill="#EBB787" d="M604.5,574.5H498.3c-17.7,0-32,14.3-32,32v74.7c0,17.7,14.3,32,32,32h106.2c17.7,0,32-14.3,32-32v-74.7
						C636.5,588.9,622.2,574.5,604.5,574.5z"/>
					<path d="M604.5,715.8H498.3c-19,0-34.5-15.5-34.5-34.5v-74.8c0-19,15.5-34.5,34.5-34.5h106.2c19,0,34.5,15.5,34.5,34.5v74.8
						C639,700.3,623.5,715.8,604.5,715.8z M498.3,577c-16.3,0-29.5,13.2-29.5,29.5v74.8c0,16.3,13.2,29.5,29.5,29.5h106.2
						c16.3,0,29.5-13.2,29.5-29.5v-74.8c0-16.3-13.2-29.5-29.5-29.5H498.3z"/>
					<path fill="#D69576" d="M568.9,596.6l-17.5-17.5l-17.5,17.5h-59.2c-1.6,0-3.1,0.4-4.5,1c-0.9,2.8-1.4,5.8-1.4,9v20.7
						c1.7,1.1,3.7,1.7,5.9,1.7h59.2l17.5,17.5l17.5-17.5h59.2c2.2,0,4.2-0.6,5.9-1.7v-20.7c0-3.1-0.5-6.1-1.4-9
						c-1.4-0.6-2.9-1-4.5-1H568.9z"/>
				</g>
				<g>
					<path d="M581.6,547.2c-7.9-0.5-16.3-1-24.8-1.2c-23.5-0.6-48.5,0.5-69,7.2c-17.5,5.6-31.4,24.3-31.4,41.9c0,0,0,59,0,59
						l6.3-6.2c0,0,0.5-3.4,2.1-8.5v-29.1h15.5c12.3-14.3,32.9-25,66.5-15.4h8.5c28.3-8.1,47.3-1.8,59.9,8.8h21.3v33.1
						c2.2,6.6,2.9,11.1,2.9,11.1l6.3,6.2c0,0,0-59,0-59C645.8,564.2,609.4,549,581.6,547.2z"/>
					<path d="M453.8,660v-65c0-18.9,14.5-38.4,33.1-44.3c15.5-5,34.9-7.4,59.1-7.4c3.4,0,7.1,0,10.8,0.1c7.5,0.2,15.4,0.6,24.9,1.2
						c26.7,1.8,66.5,16.7,66.5,50.4v65l-11.2-11l-0.1-0.8c0,0-0.7-4.5-2.8-10.7L634,637v-31h-19.7l-0.7-0.6
						c-9.4-7.9-20.9-11.9-34.2-11.9c-7.3,0-15.2,1.2-23.5,3.6l-0.3,0.1h-9.2l-0.3-0.1c-8.3-2.4-16.2-3.6-23.5-3.6
						c-16.4,0-30,6.1-40.5,18.2l-0.7,0.9h-14.1v27l-0.1,0.4c-1.5,4.9-2,8.2-2,8.2L465,649L453.8,660z M641.8,646.6l1.5,1.5v-53
						c0-30.3-37-43.7-61.8-45.4c-9.5-0.6-17.3-1-24.7-1.2c-3.7-0.1-7.2-0.1-10.6-0.1c-23.7,0-42.5,2.3-57.6,7.2
						c-16.3,5.2-29.6,23-29.6,39.6v53l1.5-1.5c0.2-1.3,0.8-4.1,1.9-7.7v-31.3h16.9c11.3-12.6,26-19.1,43.5-19.1
						c7.6,0,15.9,1.2,24.5,3.7h7.8c8.6-2.5,16.9-3.7,24.5-3.7c14.1,0,26.5,4.2,36.7,12.5H639v35.2
						C640.7,641.2,641.5,645,641.8,646.6z"/>
				</g>
				<g>
					<circle cx="513.9" cy="648.2" r="12.5"/>
					<circle cx="588.9" cy="648.2" r="12.5"/>
					<circle fill="#FFFFFF" cx="510.6" cy="644.4" r="3.4"/>
					<circle fill="#FFFFFF" cx="586.1" cy="644.4" r="3.4"/>
				</g>
				<path d="M570.2,681.9c0,0-1.7,2.3-4.7,5.2c-1.5,1.4-3.4,3-5.6,4.5c-0.5,0.4-1.1,0.8-1.7,1.1c-0.6,0.4-1.2,0.7-1.9,1
					c-0.3,0.2-0.7,0.3-1,0.5c-0.4,0.2-0.7,0.3-1.1,0.4L553,695c-0.5,0.1-1,0.2-1.6,0.2l-0.3,0l0,0l-0.1,0l-0.1,0l-0.3,0
					c-0.2,0-0.3,0-0.5-0.1c-0.5-0.1-1-0.3-1.5-0.4c-0.5-0.2-0.7-0.3-1.1-0.5c-0.4-0.2-0.7-0.3-1-0.5c-0.7-0.3-1.3-0.7-1.9-1
					c-0.6-0.4-1.2-0.7-1.7-1.1c-2.2-1.5-4.1-3.1-5.6-4.5c-3.1-2.8-4.7-5.2-4.7-5.2s0.7,0.2,1.8,0.7c1.1,0.5,2.7,1.2,4.6,2.1
					c1.8,0.9,3.9,1.9,6.2,3.1c1.1,0.6,2.3,1.1,3.4,1.6c0.3,0.1,0.6,0.2,0.8,0.3c0.3,0.1,0.6,0.2,0.8,0.3c0.2,0,0.3,0.1,0.5,0.2
					c0.1,0,0.3,0,0.5,0.1l0.3,0l0.1,0l0.1,0l0,0l0,0c-0.1,0,0.3,0-0.3,0c0.2,0,0.3,0,0.5-0.1l0.7-0.2c0.5-0.2,1.1-0.4,1.6-0.6
					c1.1-0.5,2.3-1,3.4-1.6c2.3-1.1,4.4-2.2,6.2-3.1c1.8-0.9,3.4-1.6,4.6-2.1C569.5,682.1,570.2,681.9,570.2,681.9z"/>
				<g>
					<path fill="#E9C226" d="M628.1,592.1h-60.2l-16.5-16.5L535,592.1h-60.2c-4.6,0-8.4,3.8-8.4,8.4V611c0,4.6,3.8,8.4,8.4,8.4H535
						l16.5,16.5l16.5-16.5h60.2c4.6,0,8.4-3.8,8.4-8.4v-10.6C636.5,595.8,632.8,592.1,628.1,592.1z"/>
					<path d="M551.4,639.4l-17.5-17.5h-59.2c-6,0-10.9-4.9-10.9-10.9v-10.6c0-6,4.9-10.9,10.9-10.9h59.2l17.5-17.5l17.5,17.5h59.2
						c6,0,10.9,4.9,10.9,10.9V611c0,6-4.9,10.9-10.9,10.9h-59.2L551.4,639.4z M474.7,594.6c-3.2,0-5.9,2.6-5.9,5.9V611
						c0,3.2,2.6,5.9,5.9,5.9H536l15.4,15.4l15.4-15.4h61.3c3.2,0,5.9-2.6,5.9-5.9v-10.6c0-3.2-2.6-5.9-5.9-5.9h-61.3l-15.4-15.4
						L536,594.6H474.7z"/>
				</g>
				<polygon fill="#BE1E2D" points="551.4,591.6 555,602.4 566.3,602.4 557.1,609.1 560.6,619.9 551.4,613.2 542.2,619.9 
					545.7,609.1 536.5,602.4 547.9,602.4 				"/>
				<g>
					<g>
						<path fill="#154579" d="M599.5,796.8c1.3-16.5,0-32.6-2.5-46.8h-89.7c-2.5,14.2-3.9,30.2-2.5,46.8h34.1v-8.8h13.2h13.2v8.8
							H599.5z"/>
						<path d="M601.8,799.3h-38.9v-8.8h-21.5v8.8h-38.9l-0.2-2.3c-1.2-14.9-0.4-30.8,2.5-47.4l0.4-2.1H599l0.4,2.1
							c2.9,16.5,3.8,32.5,2.5,47.4L601.8,799.3z M567.8,794.3h29.3c0.9-13.2,0.1-27.2-2.3-41.8h-85.5c-2.4,14.5-3.2,28.6-2.3,41.8
							h29.3v-8.8h31.5V794.3z"/>
					</g>
				</g>
				<g>
					<path fill="#BE1E2D" d="M503.9,787.2c-0.2,5.7,0.3,11.5,1,16.5h-4.1c-4.6,0-8.2,3.7-8.2,8.2v0c0,4.6,3.7,8.2,8.2,8.2h7.4h31.4
						v-16.5v-6.2L503.9,787.2z"/>
					<path d="M542.2,822.7h-41.4c-5.9,0-10.7-4.8-10.7-10.7c0-5.9,4.8-10.7,10.7-10.7h1.2c-0.6-5-0.8-9.7-0.7-14.1l0.1-3.2
						l40.7,11.7V822.7z M500.9,806.2c-3.2,0-5.7,2.6-5.7,5.7s2.6,5.7,5.7,5.7h36.4v-18.3l-30.9-8.9c0.1,4,0.4,8.3,1,12.8l0.4,2.8
						H500.9z"/>
				</g>
				<g>
					<path fill="#BE1E2D" d="M600.7,787.2c0.2,5.7-0.3,11.5-1,16.5h4.1c4.6,0,8.2,3.7,8.2,8.2v0c0,4.6-3.7,8.2-8.2,8.2h-7.4h-31.4
						v-16.5v-6.2L600.7,787.2z"/>
					<path d="M603.7,822.7h-41.4v-27.1l40.7-11.7l0.1,3.2c0.1,4.4-0.1,9.1-0.7,14.1h1.2c5.9,0,10.7,4.8,10.7,10.7
						C614.5,817.9,609.6,822.7,603.7,822.7z M567.3,817.7h36.4c3.2,0,5.7-2.6,5.7-5.7s-2.6-5.7-5.7-5.7h-6.9l0.4-2.8
						c0.6-4.5,1-8.8,1-12.8l-30.9,8.9V817.7z"/>
				</g>
				<g>
					<path fill="#E9C226" d="M596.3,750.1h-44.2h-44.2c-0.8,4.7-1.5,9.7-2.1,14.8l46.2,8.6l46.2-8.6
						C597.8,759.8,597.1,754.8,596.3,750.1z"/>
					<path d="M552.1,776l-49-9.1l0.2-2.3c0.5-4.9,1.2-10,2.1-15l0.4-2.1h92.6l0.4,2.1c0.9,5,1.6,10,2.1,15l0.2,2.3L552.1,776z
						 M508.6,762.8l43.5,8.1l43.5-8.1c-0.4-3.4-0.9-6.8-1.4-10.2H510C509.5,756,509,759.4,508.6,762.8z"/>
				</g>
				<g>
					<path fill="#BE1E2D" d="M593.5,735.2c0,0-22.4-14.6-41.5,4.1c-19.1-18.7-41.5-4.1-41.5-4.1c-3.5,6.1-4,21.4-4,21.4H552h45.5
						C597.5,756.6,597,741.3,593.5,735.2z"/>
					<path d="M600.1,759.1h-96.2l0.1-2.6c0.1-1.6,0.6-16.1,4.3-22.5l0.3-0.5l0.5-0.3c0.4-0.2,9.1-5.8,20.5-5.8
						c8.3,0,15.8,2.9,22.4,8.6c6.6-5.7,14.1-8.6,22.4-8.6c11.4,0,20.2,5.6,20.5,5.8l0.5,0.3l0.3,0.5c3.7,6.5,4.2,20.9,4.3,22.5
						L600.1,759.1z M509.1,754.1h85.7c-0.3-4.9-1.2-13.1-3.2-17.1c-1.9-1.1-8.8-4.7-17.3-4.7c-7.7,0-14.7,3-20.6,8.8l-1.7,1.7
						l-1.7-1.7c-6-5.9-12.9-8.8-20.6-8.8c-8.4,0-15.4,3.6-17.3,4.7C510.4,741,509.5,749.2,509.1,754.1z"/>
				</g>
				<polygon fill="#FFFFFF" points="513.6,770.6 513.5,772.8 515.5,773.6 513.4,774.1 513.3,776.3 512.1,774.5 510,775 511.4,773.3 
					510.2,771.5 512.2,772.3 				"/>
				<polygon fill="#FFFFFF" points="524.9,773.5 524.8,775.6 526.8,776.4 524.7,777 524.6,779.1 523.4,777.3 521.3,777.8 
					522.7,776.2 521.5,774.3 523.6,775.1 				"/>
				<polygon fill="#FFFFFF" points="536.4,776.3 536.3,778.4 538.3,779.2 536.2,779.8 536.1,781.9 534.9,780.1 532.8,780.7 
					534.2,779 533,777.2 535.1,778 				"/>
				<polygon fill="#FFFFFF" points="546.1,778.4 546,780.6 548,781.4 545.9,781.9 545.8,784.1 544.6,782.3 542.5,782.8 543.9,781.1 
					542.7,779.3 544.8,780.1 				"/>
				<polygon fill="#FFFFFF" points="517,779.1 516.9,781.3 518.9,782.1 516.8,782.6 516.7,784.8 515.5,783 513.4,783.5 514.8,781.8 
					513.6,780 515.7,780.8 				"/>
				<polygon fill="#FFFFFF" points="529.3,782.7 529.1,784.9 531.2,785.7 529.1,786.2 528.9,788.4 527.8,786.6 525.7,787.1 
					527,785.5 525.9,783.6 527.9,784.4 				"/>
				<polygon fill="#FFFFFF" points="590.5,770.6 590.6,772.8 588.6,773.6 590.7,774.1 590.8,776.3 592,774.5 594.1,775 592.7,773.3 
					593.9,771.5 591.8,772.3 				"/>
				<polygon fill="#FFFFFF" points="579.1,773.5 579.3,775.6 577.2,776.4 579.3,777 579.5,779.1 580.6,777.3 582.7,777.8 
					581.4,776.2 582.5,774.3 580.5,775.1 				"/>
				<polygon fill="#FFFFFF" points="567.6,776.3 567.8,778.4 565.7,779.2 567.8,779.8 568,781.9 569.1,780.1 571.2,780.7 569.9,779 
					571,777.2 569,778 				"/>
				<polygon fill="#FFFFFF" points="557.9,778.4 558.1,780.6 556,781.4 558.1,781.9 558.3,784.1 559.4,782.3 561.5,782.8 
					560.1,781.1 561.3,779.3 559.3,780.1 				"/>
				<polygon fill="#FFFFFF" points="587,779.1 587.2,781.3 585.2,782.1 587.2,782.6 587.4,784.8 588.5,783 590.6,783.5 589.3,781.8 
					590.4,780 588.4,780.8 				"/>
				<polygon fill="#FFFFFF" points="574.8,782.7 574.9,784.9 572.9,785.7 575,786.2 575.1,788.4 576.3,786.6 578.4,787.1 577,785.5 
					578.2,783.6 576.2,784.4 				"/>
				<polygon fill="#FFFFFF" points="531.2,797.7 524.1,795.6 524.1,817.7 531.2,817.7 				"/>
				<polygon fill="#FFFFFF" points="572.9,797.7 580,795.6 580,817.7 572.9,817.7 				"/>
			</g>
			<g>
				<g>
					<path fill="#9E1522" d="M304.3,333.7c-4.9-12.9-15.2-8.6-15.2-8.6l-41-0.7l-41,0.7c0,0-10.4-4.3-15.2,8.6
						c-4.9,12.9-14.9,66.2-30.4,84.7c0,0,37.6,12,86.6,12c49,0,86.6-12,86.6-12C319.2,399.9,309.1,346.6,304.3,333.7z"/>
					<path d="M248,432.9c-48.8,0-87-12-87.4-12.1l-3.5-1.1l2.4-2.9c10.9-13.1,19.2-44.8,24.7-65.8c2.1-8.2,3.8-14.6,5.2-18.2
						c3.6-9.5,10.1-10.9,13.6-10.9c2,0,3.6,0.4,4.4,0.7L248,322l40.7,0.7c0.8-0.3,2.4-0.7,4.4-0.7c3.5,0,10,1.4,13.6,10.9
						c1.4,3.6,3.1,10.1,5.2,18.2c5.5,21,13.8,52.7,24.7,65.8l2.4,2.9l-3.5,1.1C335,421,296.8,432.9,248,432.9z M165.6,417.1
						c10.3,2.9,42.8,10.9,82.5,10.9c39.7,0,72.2-8,82.5-10.9c-10.5-15.2-18.2-44.7-23.5-64.7c-2-7.7-3.8-14.4-5-17.7
						c-1.9-5.1-4.9-7.7-8.9-7.7c-1.7,0-3,0.5-3,0.5l-0.5,0.2l-0.5,0l-41-0.7l-41.5,0.7l-0.5-0.2l0,0c0,0-1.3-0.5-3-0.5
						c-4,0-7,2.6-8.9,7.7c-1.3,3.4-3,10-5,17.7C183.8,372.3,176,401.9,165.6,417.1z"/>
				</g>
				<g>
					<path fill="#EBB787" d="M238.1,335.3c0,0-22.5-4.7-31.7,16.5s-5.9,38.4-20.3,33.8c-14.4-4.6-11.3-40.7,8.9-53.2
						c17.5-10.8,39.1-6.3,45.7-6.6L238.1,335.3z"/>
					<path d="M190.3,388.8c-1.5,0-3.1-0.3-4.9-0.9c-5.6-1.8-9.4-7.5-10.4-15.7c-1.7-13.7,4.3-33.1,18.7-42
						c8.4-5.1,18.6-7.7,31.2-7.7c4,0,7.5,0.2,10.4,0.4c2.3,0.2,4.1,0.3,5.4,0.2l3.5-0.2l-4.2,15.1l-2.3-0.5c0,0-1.9-0.4-4.8-0.4
						c-6.5,0-18.2,2-24.1,15.5c-3,6.8-4.6,13.1-6,18.7C200.3,381.2,198.3,388.8,190.3,388.8C190.3,388.8,190.3,388.8,190.3,388.8z
						 M225,327.6c-11.7,0-21,2.3-28.6,6.9c-12.2,7.5-17.9,24.8-16.4,37.1c0.8,6.2,3.3,10.4,6.9,11.6c1.3,0.4,2.5,0.6,3.4,0.6
						c0,0,0,0,0,0c3.8,0,5.1-3.7,7.6-13.6c1.4-5.5,3.1-12.2,6.2-19.4c7-16.1,20.9-18.5,28.7-18.5c1.4,0,2.5,0.1,3.5,0.2l1.2-4.3
						c-0.8,0-1.6-0.1-2.5-0.2C232.2,327.9,228.7,327.6,225,327.6z"/>
				</g>
				<g>
					<path fill="#EBB787" d="M257.6,335.3c0,0,22.5-4.7,31.7,16.5s5.9,38.4,20.3,33.8c14.4-4.6,11.3-40.7-8.9-53.2
						c-17.5-10.8-39.1-6.3-45.7-6.6L257.6,335.3z"/>
					<path d="M305.4,388.8c-8,0-10-7.7-12.4-17.4c-1.4-5.6-3-11.8-6-18.7c-5.8-13.4-17.6-15.5-24.1-15.5c-2.9,0-4.8,0.4-4.8,0.4
						l-2.3,0.5l-4.2-15.1l3.5,0.2c1.2,0.1,3.1-0.1,5.4-0.2c2.9-0.2,6.4-0.4,10.4-0.4c12.6,0,22.8,2.5,31.2,7.7
						c14.4,8.9,20.4,28.3,18.7,42c-1,8.2-4.8,13.9-10.4,15.7C308.4,388.6,306.8,388.8,305.4,388.8z M262.9,332.4
						c7.7,0,21.7,2.4,28.7,18.5c3.1,7.2,4.8,14,6.2,19.4c3.1,12.3,4.5,15,11,13c3.6-1.2,6.2-5.4,6.9-11.6
						c1.5-12.3-4.2-29.6-16.4-37.1c-7.5-4.6-16.9-6.9-28.6-6.9c-3.8,0-7.3,0.2-10,0.4c-0.9,0.1-1.7,0.1-2.5,0.2l1.2,4.3
						C260.3,332.4,261.5,332.4,262.9,332.4z"/>
				</g>
				<g>
					<path fill="#154579" d="M318.4,367.2c-0.1-12.4-6.1-27.6-17.8-34.8c-6.1-3.8-12.7-5.6-19-6.5c-2.3-6.2-4-9.7-4-9.7H248h-29.6
						c0,0-1.7,3.5-4,9.7c-6.3,0.9-12.9,2.8-19,6.5c-11.7,7.2-17.7,22.4-17.8,34.8c0,0,11.8,0,21.8,8.5c1.6-5.7,3.1-13.3,6.4-21.5
						c-5.4,22.9-9,53.3-1.4,83.2h30.3v-32.2H248h13.2v32.2h30.3c7.6-29.8,4.1-60.2-1.4-83.2c3.3,8.3,4.8,15.8,6.4,21.5
						C306.6,367.1,318.4,367.2,318.4,367.2z"/>
					<path d="M293.5,439.8h-34.7v-32.2h-21.5v32.2h-34.7l-0.5-1.9c-5.3-20.6-5.2-41.4-3.1-59.3l-1.2-1c-9.1-7.8-20.1-7.9-20.2-7.9
						l-2.5,0l0-2.5c0.1-12.6,6.1-28.9,19-36.9c5.3-3.3,11.5-5.5,18.5-6.7c2-5.3,3.5-8.4,3.5-8.5l0.7-1.4h62.5l0.7,1.4
						c0.1,0.1,1.5,3.2,3.5,8.5c7,1.2,13.2,3.4,18.5,6.7c12.9,8,18.9,24.3,19,36.9l0,2.5l-2.5,0c-0.1,0-11.1,0.1-20.2,7.9l-1.2,1
						c2.1,17.9,2.2,38.7-3.1,59.3L293.5,439.8z M263.7,434.8h25.8c7.1-29.7,3-59.8-1.8-80.1l4.8-1.5c2.5,6.3,4,12.3,5.3,17.1
						c0.1,0.4,0.2,0.8,0.3,1.1c6.9-4.7,14-6.1,17.8-6.5c-0.8-10.6-6.1-23.9-16.5-30.3c-5.1-3.1-11.1-5.2-18-6.2l-1.5-0.2l-0.5-1.4
						c-1.4-3.7-2.6-6.5-3.2-8.1h-56c-0.7,1.6-1.8,4.3-3.2,8.1l-0.5,1.4l-1.5,0.2c-6.9,1-12.9,3.1-18,6.2
						c-10.5,6.4-15.7,19.7-16.5,30.3c3.7,0.4,10.9,1.8,17.8,6.5c0.1-0.4,0.2-0.8,0.3-1.1c1.2-4.8,2.8-10.8,5.3-17.1l4.8,1.5
						c-4.8,20.3-8.9,50.4-1.8,80.1h25.8v-32.2h31.5V434.8z"/>
				</g>
				<g>
					<path fill="#BE1E2D" d="M199.8,404.3c-0.2,5.7,0.3,11.5,1,16.5h-4.1c-4.6,0-8.2,3.7-8.2,8.2v0c0,4.6,3.7,8.2,8.2,8.2h7.4h31.4
						v-16.5v-6.2L199.8,404.3z"/>
					<path d="M238.1,439.8h-41.4c-5.9,0-10.7-4.8-10.7-10.7s4.8-10.7,10.7-10.7h1.2c-0.6-5-0.8-9.7-0.7-14.1l0.1-3.2l40.7,11.7
						V439.8z M196.8,423.3c-3.2,0-5.7,2.6-5.7,5.7s2.6,5.7,5.7,5.7h36.4v-18.3l-30.9-8.9c0.1,4,0.4,8.3,1,12.8l0.4,2.8H196.8z"/>
				</g>
				<g>
					<path fill="#BE1E2D" d="M296.6,404.3c0.2,5.7-0.3,11.5-1,16.5h4.1c4.6,0,8.2,3.7,8.2,8.2v0c0,4.6-3.7,8.2-8.2,8.2h-7.4h-31.4
						v-16.5v-6.2L296.6,404.3z"/>
					<path d="M299.6,439.8h-41.4v-27.1L299,401l0.1,3.2c0.1,4.4-0.1,9.1-0.7,14.1h1.2c5.9,0,10.7,4.8,10.7,10.7
						S305.5,439.8,299.6,439.8z M263.3,434.8h36.4c3.2,0,5.7-2.6,5.7-5.7s-2.6-5.7-5.7-5.7h-6.9l0.4-2.8c0.6-4.5,1-8.8,1-12.8
						l-30.9,8.9V434.8z"/>
				</g>
				<g>
					<polygon fill="#FFD100" points="270.3,340.9 248,340.9 225.7,340.9 222.4,355.9 248,380.2 273.7,355.9 					"/>
					<path d="M248,383.6l-28.4-26.9l4.1-18.3h48.7l4.1,18.3L248,383.6z M225.1,355.1l22.9,21.7l22.9-21.7l-2.6-11.7h-40.7
						L225.1,355.1z"/>
				</g>
				<path fill="#BE1E2D" d="M263.7,352.1c-2.4-1.1-7.1-2-14.1-2.6l-5.6-0.4c-3.2-0.3-5.3-0.6-6.5-0.9c-1.1-0.3-1.7-0.8-1.7-1.5
					c0-1.4,2.4-2.1,7.1-2.1c7.8,0,15.2,2.3,22.1,6.8v-7.8h-35.6c-0.8,0.7-1.5,1.4-2,2.3l-1,4.5c0.3,3,2.4,5.3,6.6,6.9
					c2.8,1.1,7.5,1.9,14.2,2.4l5.8,0.4c2.7,0.2,4.4,0.4,5.1,0.6c0.7,0.2,1.1,0.7,1.1,1.3c0,1.4-2.6,2.1-7.9,2.1
					c-5,0-9.5-0.8-13.7-2.3c-4.1-1.5-7.4-3.6-9.7-6.3v1.7l10.6,10.1c4.7,1.2,9.3,1.8,13.8,1.8c1.3,0,2.6-0.1,3.7-0.2l13-12.3
					C268,354.8,266.3,353.3,263.7,352.1z"/>
				<g>
					<path fill="#EBB787" d="M301.1,191.6H194.9c-17.7,0-32,14.3-32,32v74.7c0,17.7,14.3,32,32,32h106.2c17.7,0,32-14.3,32-32v-74.7
						C333.1,205.9,318.8,191.6,301.1,191.6z"/>
					<path d="M301.1,332.8H194.9c-19,0-34.5-15.5-34.5-34.5v-74.7c0-19,15.5-34.5,34.5-34.5h106.2c19,0,34.5,15.5,34.5,34.5v74.7
						C335.6,317.4,320.1,332.8,301.1,332.8z M194.9,194.1c-16.3,0-29.5,13.2-29.5,29.5v74.7c0,16.3,13.2,29.5,29.5,29.5h106.2
						c16.3,0,29.5-13.2,29.5-29.5v-74.7c0-16.3-13.2-29.5-29.5-29.5H194.9z"/>
				</g>
				<g>
					<circle cx="210.5" cy="265.2" r="12.5"/>
					<circle cx="285.5" cy="265.2" r="12.5"/>
					<circle fill="#FFFFFF" cx="207.1" cy="261.5" r="3.4"/>
					<circle fill="#FFFFFF" cx="282.7" cy="261.5" r="3.4"/>
				</g>
				<path d="M266.8,299c0,0-1.7,2.3-4.7,5.2c-1.5,1.4-3.4,3-5.6,4.5c-0.5,0.4-1.1,0.8-1.7,1.1c-0.6,0.4-1.2,0.7-1.9,1
					c-0.3,0.2-0.7,0.3-1,0.5c-0.4,0.2-0.7,0.3-1.1,0.4l-1.2,0.4c-0.2,0.1-0.5,0.1-0.8,0.1l-0.4,0l-0.2,0l-0.1,0l0,0l0,0
					c-0.1,0,0.3,0-0.3,0c-0.3,0-0.7-0.1-1-0.1c-0.5-0.1-1-0.3-1.5-0.4c-0.5-0.2-0.7-0.3-1.1-0.5c-0.4-0.2-0.7-0.3-1-0.5
					c-0.7-0.3-1.3-0.7-1.9-1c-0.6-0.4-1.2-0.7-1.7-1.1c-2.2-1.5-4.1-3.1-5.6-4.5c-3.1-2.8-4.7-5.2-4.7-5.2s0.7,0.2,1.8,0.7
					c1.1,0.5,2.7,1.2,4.6,2.1c1.8,0.9,3.9,1.9,6.2,3.1c1.1,0.6,2.3,1.1,3.4,1.6c0.3,0.1,0.6,0.2,0.8,0.3c0.3,0.1,0.6,0.2,0.8,0.3
					c0.2,0,0.3,0.1,0.5,0.2c0.3,0,0.7,0.1,1,0.1c-0.5,0-0.1,0-0.3,0l0,0l0,0l0,0l0.1,0l0.1,0c0.1,0,0.1,0,0.2,0l0.7-0.2
					c0.5-0.2,1.1-0.4,1.6-0.6c1.1-0.5,2.3-1,3.4-1.6c2.3-1.1,4.4-2.2,6.2-3.1c1.8-0.9,3.4-1.6,4.6-2.1
					C266.1,299.2,266.8,299,266.8,299z"/>
				<path fill="#D69576" d="M301.1,194.1H194.9c-16.3,0-29.5,13.2-29.5,29.5v56l5.5-6.1l0.1-0.8c0.1-0.5,8.2-54.6,51.4-54.6
					c7.5,0,15.8,1.6,24.7,4.9l0,0c-2.4,2.9-5.1,7.8-5.1,15.3c0,13.3,21.3,12.7,21,0c0,0-13,11.7-12.3-0.7c0.4-7.9,10.4-12.2,17.2-16
					c2.8-1.1,7.4-3.2,14.6-2.7c13.8,2.6,24.8,11.3,32.9,26.1c7.5,13.6,9.5,27.5,9.5,27.7l0.1,0.8l5.5,6.1v-56
					C330.6,207.3,317.4,194.1,301.1,194.1z"/>
				<path d="M275.6,169c-8.6-0.6-15.7-1-22.4-1.2c-3.3-0.1-6.6-0.1-9.7-0.1c-21.8,0-39.2,2.4-53.3,7.4c-19,6.8-29.8,20.3-29.8,37
					v65.5l10.5-11.6l0.1-0.8c0.1-0.5,8.2-54.6,51.4-54.6c7.5,0,15.8,1.6,24.7,4.9l0,0c-2.4,2.9-5.1,7.8-5.1,15.3
					c0,13.3,21.3,12.7,21,0c0,0-13,11.7-12.3-0.7c0.4-7.9,10.4-12.2,17.2-16c2.8-1.1,7.4-3.2,14.6-2.7c13.8,2.6,24.8,11.3,32.9,26.1
					c7.5,13.6,9.5,27.5,9.5,27.7l0.1,0.8l10.5,11.6v-65.5C335.6,186.8,314.9,171.9,275.6,169z"/>
			</g>
			<g>
				<g>
					<circle fill="#BE1E2D" cx="332" cy="641" r="15.3"/>
					<path d="M332,658.9c-9.8,0-17.8-8-17.8-17.8s8-17.8,17.8-17.8c9.8,0,17.8,8,17.8,17.8S341.8,658.9,332,658.9z M332,628.2
						c-7.1,0-12.8,5.8-12.8,12.8s5.8,12.8,12.8,12.8s12.8-5.8,12.8-12.8S339.1,628.2,332,628.2z"/>
				</g>
				<g>
					<circle fill="#BE1E2D" cx="332" cy="621.1" r="15.3"/>
					<path d="M332,638.9c-9.8,0-17.8-8-17.8-17.8s8-17.8,17.8-17.8c9.8,0,17.8,8,17.8,17.8S341.8,638.9,332,638.9z M332,608.2
						c-7.1,0-12.8,5.8-12.8,12.8s5.8,12.8,12.8,12.8s12.8-5.8,12.8-12.8S339.1,608.2,332,608.2z"/>
				</g>
				<g>
					<path fill="#399946" d="M293.6,715.4c-6.1-3.8-12.7-5.7-19-6.6c-2.3-6.2-4-9.7-4-9.7H241h-29.6c0,0-1.7,3.5-4,9.7
						c-6.3,0.9-12.8,2.8-18.9,6.5c-20.2,12.4-23.3,48.6-8.9,53.2c13.7,4.4,11.4-11,19.1-30.8c-5.3,22.8-8.7,53-1.2,82.5h30.3v-32.2
						H241h13.2v32.2h30.3c7.6-29.8,4.1-60.3-1.4-83.2c8,20.1,5.5,35.9,19.3,31.5C316.9,764,313.8,727.8,293.6,715.4z"/>
					<path d="M286.5,822.7h-34.7v-32.2h-21.5v32.2h-34.7l-0.5-1.9c-4.6-18.2-5.1-36.6-3.7-53c-1.7,2.4-4.1,3.9-7.6,3.9
						c-1.5,0-3.1-0.3-4.9-0.9c-5.6-1.8-9.4-7.5-10.4-15.7c-1.7-13.7,4.3-33.1,18.7-42c5.3-3.3,11.5-5.5,18.4-6.7
						c2-5.3,3.5-8.4,3.5-8.5l0.7-1.4h62.5l0.7,1.4c0.1,0.1,1.5,3.2,3.5,8.5c7,1.2,13.2,3.4,18.5,6.7c14.4,8.9,20.4,28.3,18.7,42
						c-1,8.2-4.8,13.9-10.4,15.7c-1.8,0.6-3.4,0.9-4.9,0.9c0,0,0,0,0,0c-3.6,0-5.9-1.5-7.7-4.1c1.4,16.4,0.9,34.9-3.7,53.1
						L286.5,822.7z M256.8,817.7h25.8c7.1-29.7,3-59.8-1.8-80.1l4.8-1.5c2.5,6.3,4,12.3,5.3,17.1c2.5,9.9,3.8,13.6,7.6,13.6
						c0,0,0,0,0,0c0.9,0,2.1-0.2,3.4-0.6c3.6-1.2,6.2-5.4,6.9-11.6c1.5-12.3-4.2-29.6-16.4-37.1c-5.1-3.1-11.2-5.2-18-6.2l-1.5-0.2
						l-0.5-1.4c-1.4-3.7-2.6-6.5-3.2-8.1h-56c-0.7,1.6-1.8,4.3-3.2,8.1l-0.5,1.4l-1.5,0.2c-6.8,1-12.9,3.1-17.9,6.2
						c-12.2,7.5-17.9,24.8-16.4,37.1c0.8,6.2,3.3,10.4,6.9,11.6c6.5,2.1,7.9-0.6,11-13c1.2-4.8,2.6-10.3,5-16.4l4.8,1.5
						c-4.7,20.1-8.7,50-1.7,79.4h25.8v-32.2h31.5V817.7z"/>
				</g>
				<g>
					<path fill="#F7EC95" d="M202.9,709.7c0,0-7.1,15.7-4.2,28.1c0,0-16.8,49.8,29.1,50.3H241v-78.4H202.9z"/>
					<path d="M243.5,790.5h-15.7c-13.3-0.2-23-4.3-28.7-12.4c-10.2-14.4-4.2-36.3-2.9-40.5c-2.7-12.9,4.2-28.3,4.5-29l0.7-1.5h42.3
						V790.5z M204.5,712.2c-1.6,4.1-5.6,15.7-3.4,25l0.2,0.7l-0.2,0.7c-0.1,0.2-7.6,23.1,2.1,36.8c4.8,6.7,13.1,10.2,24.7,10.3h10.7
						v-73.4H204.5z"/>
				</g>
				<path d="M241.1,750.3c-38.6,0-44.2-10.4-44.7-11.6l4.6-2c0,0,0,0-0.1-0.1c0,0.1,5.2,8.7,40.1,8.7V750.3z"/>
				<g>
					<path fill="#F7EC95" d="M279.3,709.7c0,0,7.1,15.7,4.2,28.1c0,0,16.8,49.8-29.1,50.3h-13.2v-78.4H279.3z"/>
					<path d="M254.4,790.5h-15.8v-83.4h42.3l0.7,1.5c0.3,0.7,7.2,16.1,4.5,29c1.3,4.2,7.3,26.1-2.9,40.5
						C277.4,786.2,267.7,790.4,254.4,790.5L254.4,790.5z M243.6,785.5h10.7c11.6-0.1,19.9-3.6,24.7-10.3c9.7-13.7,2.1-36.5,2.1-36.7
						l-0.2-0.7l0.2-0.7c2.2-9.3-1.8-20.9-3.4-25h-34V785.5z"/>
				</g>
				<path d="M241.1,750.3v-5c34.9,0,40.1-8.6,40.1-8.7c0,0.1-0.1,0.1-0.1,0.1l4.6,2C285.2,739.9,279.7,750.3,241.1,750.3z"/>
				<g>
					<path fill="#399946" d="M293.5,559.6H187.3c-17.7,0-32,14.3-32,32v89.7c0,17.7,14.3,32,32,32h106.2c17.7,0,32-14.3,32-32v-89.7
						C325.5,573.9,311.1,559.6,293.5,559.6z"/>
					<path d="M293.5,715.8H187.3c-19,0-34.5-15.5-34.5-34.5v-89.7c0-19,15.5-34.5,34.5-34.5h106.2c19,0,34.5,15.5,34.5,34.5v89.7
						C328,700.3,312.5,715.8,293.5,715.8z M187.3,562.1c-16.3,0-29.5,13.2-29.5,29.5v89.7c0,16.3,13.2,29.5,29.5,29.5h106.2
						c16.3,0,29.5-13.2,29.5-29.5v-89.7c0-16.3-13.2-29.5-29.5-29.5H187.3z"/>
				</g>
				<path d="M279.5,679.8c0,0-0.9,1-2.7,2.5c-1.8,1.5-4.5,3.5-8,5.4c-1.8,1-3.7,2-5.8,2.9c-2.1,0.9-4.4,1.7-6.9,2.4
					c-2.4,0.7-5,1.3-7.7,1.7c-2.7,0.4-5.3,0.6-8.1,0.6l-2,0l-2.1-0.1c-1.4-0.1-2.7-0.2-4-0.4c-2.6-0.4-5.2-0.9-7.7-1.6
					c-2.4-0.7-4.7-1.5-6.9-2.4c-2.1-0.9-4.1-1.9-5.8-2.9c-3.5-2-6.2-4-8-5.5c-1.8-1.5-2.7-2.5-2.7-2.5s1.2,0.7,3.2,1.7
					c2.1,1,5,2.3,8.6,3.7c1.8,0.7,3.8,1.3,5.9,1.9c2.1,0.6,4.3,1.2,6.7,1.6c2.3,0.5,4.7,0.8,7.2,1.1c1.2,0.1,2.5,0.2,3.7,0.3
					l1.9,0.1l2,0c2.4,0,5-0.1,7.4-0.4c2.5-0.3,4.9-0.7,7.2-1.1c2.3-0.5,4.6-1.1,6.7-1.7c2.1-0.6,4.1-1.3,5.9-1.9
					c3.6-1.3,6.6-2.7,8.7-3.7C278.3,680.5,279.5,679.8,279.5,679.8z"/>
				<g>
					<path fill="#BE1E2D" d="M228.7,807.4h-33.3c-2.8,0-5-2.3-5-5v-1.7c0-2.8,2.3-5,5-5h33.3c2.8,0,5,2.3,5,5v1.7
						C233.8,805.2,231.5,807.4,228.7,807.4z"/>
					<path d="M228.7,809.9h-33.3c-4.2,0-7.5-3.4-7.5-7.5v-1.7c0-4.2,3.4-7.5,7.5-7.5h33.3c4.2,0,7.5,3.4,7.5,7.5v1.7
						C236.3,806.5,232.9,809.9,228.7,809.9z M195.4,798.1c-1.4,0-2.5,1.1-2.5,2.5v1.7c0,1.4,1.1,2.5,2.5,2.5h33.3
						c1.4,0,2.5-1.1,2.5-2.5v-1.7c0-1.4-1.1-2.5-2.5-2.5H195.4z"/>
				</g>
				<g>
					<path fill="#BE1E2D" d="M190.8,747.4l-17.9-9.6c-2.5-1.3-3.4-4.4-2.1-6.8l0.8-1.5c1.3-2.5,4.4-3.4,6.8-2.1l17.9,9.6
						c2.5,1.3,3.4,4.4,2.1,6.8l-0.8,1.5C196.3,747.8,193.2,748.7,190.8,747.4z"/>
					<path d="M193.2,750.5c-1.2,0-2.5-0.3-3.5-0.9l-17.9-9.6c-1.8-0.9-3.1-2.5-3.7-4.5s-0.4-4,0.6-5.7l0.8-1.5c1.3-2.5,3.9-4,6.6-4
						c1.2,0,2.5,0.3,3.5,0.9l17.9,9.6c3.7,2,5,6.5,3.1,10.2l-0.8,1.5C198.5,749,196,750.5,193.2,750.5z M176.1,729.4
						c-0.9,0-1.8,0.5-2.2,1.3l-0.8,1.5c-0.3,0.6-0.4,1.3-0.2,1.9c0.2,0.6,0.6,1.2,1.2,1.5l17.9,9.6c1.2,0.6,2.8,0.2,3.4-1l0.8-1.5
						c0.7-1.2,0.2-2.8-1-3.4l-17.9-9.6C176.9,729.5,176.5,729.4,176.1,729.4z"/>
				</g>
				<g>
					<path fill="#BE1E2D" d="M293.2,747.4l17.9-9.6c2.5-1.3,3.4-4.4,2.1-6.8l-0.8-1.5c-1.3-2.5-4.4-3.4-6.8-2.1l-17.9,9.6
						c-2.5,1.3-3.4,4.4-2.1,6.8l0.8,1.5C287.7,747.8,290.8,748.7,293.2,747.4z"/>
					<path d="M290.9,750.5C290.9,750.5,290.9,750.5,290.9,750.5c-2.8,0-5.3-1.5-6.6-4l-0.8-1.5c-2-3.7-0.6-8.2,3.1-10.2l17.9-9.6
						c1.1-0.6,2.3-0.9,3.5-0.9c2.8,0,5.3,1.5,6.6,4l0.8,1.5c0.9,1.8,1.2,3.8,0.6,5.7c-0.6,1.9-1.9,3.5-3.7,4.5l-17.9,9.6
						C293.3,750.2,292.1,750.5,290.9,750.5z M307.9,729.4c-0.4,0-0.8,0.1-1.2,0.3l-17.9,9.6c-1.2,0.7-1.7,2.2-1,3.4l0.8,1.5
						c0.4,0.8,1.3,1.3,2.2,1.3l0,0c0.4,0,0.8-0.1,1.2-0.3l17.9-9.6c0.6-0.3,1-0.9,1.2-1.5s0.1-1.3-0.2-1.9l-0.8-1.5
						C309.7,729.9,308.9,729.4,307.9,729.4z"/>
				</g>
				<g>
					<path fill="#BE1E2D" d="M287.1,807.4h-33.3c-2.8,0-5-2.3-5-5v-1.7c0-2.8,2.3-5,5-5h33.3c2.8,0,5,2.3,5,5v1.7
						C292.1,805.2,289.9,807.4,287.1,807.4z"/>
					<path d="M287.1,809.9h-33.3c-4.2,0-7.5-3.4-7.5-7.5v-1.7c0-4.2,3.4-7.5,7.5-7.5h33.3c4.2,0,7.5,3.4,7.5,7.5v1.7
						C294.6,806.5,291.2,809.9,287.1,809.9z M253.7,798.1c-1.4,0-2.5,1.1-2.5,2.5v1.7c0,1.4,1.1,2.5,2.5,2.5h33.3
						c1.4,0,2.5-1.1,2.5-2.5v-1.7c0-1.4-1.1-2.5-2.5-2.5H253.7z"/>
				</g>
				<g>
					<circle fill="#237433" cx="292.4" cy="582.6" r="6.3"/>
					<circle fill="#237433" cx="306.7" cy="585.1" r="3.8"/>
					<circle fill="#237433" cx="294.2" cy="571.1" r="1.8"/>
					<circle fill="#237433" cx="312.2" cy="596.8" r="1.8"/>
					<circle fill="#237433" cx="283.2" cy="571.1" r="3"/>
				</g>
				<rect x="157.8" y="629.2" fill="#237433" width="165.2" height="44.4"/>
				<g>
					<path fill="#BE1E2D" d="M324.3,624.7h-168c-4.2,0-7.7,3.4-7.7,7.7v24c0,4.2,3.4,7.7,7.7,7.7h168c4.2,0,7.7-3.4,7.7-7.7v-24
						C332,628.2,328.6,624.7,324.3,624.7z"/>
					<path d="M324.3,666.6h-168c-5.6,0-10.2-4.6-10.2-10.2v-24c0-5.6,4.6-10.2,10.2-10.2h168c5.6,0,10.2,4.6,10.2,10.2v24
						C334.5,662,329.9,666.6,324.3,666.6z M156.3,627.2c-2.9,0-5.2,2.3-5.2,5.2v24c0,2.9,2.3,5.2,5.2,5.2h168c2.9,0,5.2-2.3,5.2-5.2
						v-24c0-2.9-2.3-5.2-5.2-5.2H156.3z"/>
				</g>
				<g>
					<circle cx="202.9" cy="648.2" r="12.5"/>
					<circle cx="277.9" cy="648.2" r="12.5"/>
					<circle fill="#FFFFFF" cx="199.5" cy="644.4" r="3.4"/>
					<circle fill="#FFFFFF" cx="275" cy="644.4" r="3.4"/>
				</g>
			</g>
			<g>
				<g>
					<path fill="#399946" d="M921.7,730.1c1.6-12.5-9-23.1-21.5-21.5c-2.3,0.3-4.5,1-6.6,2.1c-2.9-0.9-5.8-1.5-8.6-1.9
						c-2.3-6.2-4-9.7-4-9.7h-29.6h-29.6c0,0-1.6,3.5-3.9,9.6c-3.9,0.5-7.9,1.5-11.8,2.9c-3.6-2.3-8-3.4-12.7-2.8
						c-8.5,1.1-15.4,8-16.5,16.5c-0.8,6,1.3,11.6,5,15.5c-2.8,12.6-0.2,25,7.8,27.6c12.3,3.9,11.7-8,17-24.8c0.5-0.3,1-0.7,1.4-1.1
						c-4.6,22.1-7.1,50.1-0.1,77.5h30.3v-32.2h13.2h13.2v32.2H895c6.7-26.3,4.7-53.2,0.4-74.9c0.4,0.2,0.8,0.3,1.2,0.4
						c4.6,15.7,4.6,26.5,16.4,22.8c9-2.8,11.1-17.9,6.6-31.9C920.7,734.6,921.4,732.4,921.7,730.1z"/>
					<path d="M896.9,822.7h-34.7v-32.2h-21.5v32.2H806l-0.5-1.9c-4.2-16.5-5.4-34.4-3.7-53.6c-1.8,2.8-4.2,4.6-8,4.6
						c-1.5,0-3.1-0.3-4.9-0.9c-8.7-2.8-12.6-14.7-9.8-29.2c-3.8-4.6-5.5-10.6-4.8-16.6c1.2-9.6,9.1-17.5,18.7-18.7
						c4.6-0.6,9.3,0.3,13.2,2.5c3.1-1.1,6.3-1.9,9.8-2.4c2-5.3,3.4-8.3,3.5-8.4l0.7-1.4h62.5l0.7,1.4c0.1,0.1,1.5,3.2,3.5,8.5
						c2.2,0.4,4.4,0.9,6.5,1.5c2.1-1,4.3-1.6,6.5-1.9c7.2-0.9,14.3,1.8,19.1,7.2c4.1,4.7,6,10.9,5.2,17.1c-0.3,2.2-0.9,4.4-1.9,6.5
						c3,10,2.8,20.3-0.7,27c-1.8,3.6-4.6,6-7.9,7.1c-1.8,0.6-3.4,0.9-4.9,0.9h0c-3.5,0-5.9-1.5-7.6-4c1.7,19,0.4,36.8-3.8,53.1
						L896.9,822.7z M867.2,817.7H893c5.1-21.5,5.1-45.7-0.1-71.9l-0.9-4.6l4.3,1.8c0.3,0.1,0.7,0.3,1,0.4l1.2,0.4l0.4,1.2
						c0.9,2.9,1.6,5.7,2.2,8.1c2.5,9.9,3.8,13.6,7.6,13.6c0,0,0,0,0,0c0.9,0,2.1-0.2,3.4-0.6c2-0.7,3.7-2.2,4.9-4.6
						c2.9-5.7,3-15.2,0.1-24.2l-0.3-1l0.5-0.9c1-1.8,1.6-3.7,1.8-5.7c0.6-4.9-0.8-9.6-4-13.2c-3.6-4.1-9.1-6.2-14.7-5.5
						c-2,0.2-3.9,0.9-5.7,1.8l-0.9,0.5l-1-0.3c-2.6-0.8-5.4-1.4-8.2-1.8l-1.5-0.2l-0.5-1.4c-1.4-3.7-2.6-6.5-3.2-8.1h-56
						c-0.7,1.5-1.8,4.3-3.2,8l-0.5,1.4l-1.5,0.2c-4,0.6-7.8,1.5-11.3,2.8l-1.2,0.4l-1.1-0.7c-3.3-2-7.2-2.9-11-2.4
						c-7.4,0.9-13.4,7-14.3,14.3c-0.6,5,1,9.9,4.3,13.5l0.9,1l-0.3,1.3c-2.7,12.1,0,22.7,6.1,24.6c6.5,2.1,7.9-0.6,11-13
						c0.8-3,1.7-6.5,2.8-10.1l0.3-0.8l0.7-0.5c0.5-0.3,0.9-0.6,1.3-0.9l5.5-4.6l-1.5,7c-5.7,27.2-5.9,52.3-0.6,74.5h25.8v-32.2h31.5
						V817.7z"/>
				</g>
				<g>
					<g>
						<path fill="#5153A3" d="M898.8,797.1c1-11.6,0.6-23-0.6-33.6h-93.5c-1.2,10.7-1.6,22-0.6,33.6h34.1v-9h13.2h13.2v9H898.8z"/>
						<path d="M901.1,799.6h-38.9v-9h-21.5v9h-38.9l-0.2-2.3c-0.9-10.8-0.7-22.3,0.6-34.1l0.2-2.2h98l0.2,2.2
							c1.3,11.8,1.5,23.3,0.6,34.1L901.1,799.6z M867.2,794.6h29.3c0.6-9.2,0.4-18.8-0.5-28.6h-89c-1,9.9-1.1,19.5-0.5,28.6h29.3v-9
							h31.5V794.6z"/>
					</g>
				</g>
				<path fill="#277B36" d="M916.2,717.8c-0.3-0.4-0.6-0.8-1-1.2c-3.6-4.1-9.1-6.2-14.7-5.5c-2,0.2-3.9,0.9-5.7,1.8l-0.9,0.5l-1-0.3
					c-2.6-0.8-5.4-1.4-8.2-1.8l-1.5-0.2l-0.5-1.4c-1.4-3.7-2.6-6.5-3.2-8.1h-56c-0.7,1.5-1.8,4.3-3.2,8l-0.5,1.4l-1.5,0.2
					c-4,0.6-7.8,1.5-11.3,2.8l-1.2,0.4l-1.1-0.7c-3.3-2-7.2-2.9-11-2.4c-4,0.5-7.7,2.6-10.3,5.5c4.4,2,9.2,3.1,14.3,3.1h106.2
					C908.2,720.1,912.3,719.3,916.2,717.8z"/>
				<g>
					<path fill="#399946" d="M903.9,574.5H797.7c-17.7,0-32,14.3-32,32v74.7c0,17.7,14.3,32,32,32h106.2c17.7,0,32-14.3,32-32v-74.7
						C935.9,588.9,921.5,574.5,903.9,574.5z"/>
					<path d="M903.9,715.8H797.7c-19,0-34.5-15.5-34.5-34.5v-74.8c0-19,15.5-34.5,34.5-34.5h106.2c19,0,34.5,15.5,34.5,34.5v74.8
						C938.4,700.3,922.9,715.8,903.9,715.8z M797.7,577c-16.3,0-29.5,13.2-29.5,29.5v74.8c0,16.3,13.2,29.5,29.5,29.5h106.2
						c16.3,0,29.5-13.2,29.5-29.5v-74.8c0-16.3-13.2-29.5-29.5-29.5H797.7z"/>
					<path fill="#277B36" d="M903.9,579.4H797.7c-9,0-17.3,3.5-23.4,9.2c-3.8,5-6,11.2-6,17.9v21.6l14.2-9.6l15.6,11.3l17.7-11.4
						l17.8,11.3l17.7-11.3l16.1,11.3l17.7-11.4l20.1,11.4l17.5-12.6l10.6,10.1v-20.8c0-6.7-2.3-12.9-6-17.9
						C921.2,582.9,912.9,579.4,903.9,579.4z"/>
				</g>
				<g>
					<circle cx="813.3" cy="648.2" r="12.5"/>
					<circle cx="888.3" cy="648.2" r="12.5"/>
					<circle fill="#FFFFFF" cx="809.9" cy="644.4" r="3.4"/>
					<circle fill="#FFFFFF" cx="885.5" cy="644.4" r="3.4"/>
				</g>
				<path d="M869.5,692.7c0,0-14.2-10.8-18.8-10.8c-4.6,0-18.8,10.8-18.8,10.8H869.5z"/>
				<path d="M903.9,572H797.7c-19,0-34.5,15.5-34.5,34.5v17.6l19.2-13l15.6,11.3l17.7-11.4l17.8,11.3l17.7-11.3l16.1,11.3l17.7-11.4
					l20.1,11.4l17.5-12.6l15.6,14.9v-18.1C938.4,587.5,922.9,572,903.9,572z"/>
				<rect x="800.8" y="628.1" transform="matrix(0.9615 0.2748 -0.2748 0.9615 204.4938 -199.2609)" width="25" height="4"/>
				<rect x="875.8" y="628.1" transform="matrix(-0.9615 0.2748 -0.2748 -0.9615 1915.5352 991.7575)" width="25" height="4"/>
			</g>
			<g>
				<g>
					<path fill="#FAECE1" d="M1194.3,715.4c-6.1-3.8-12.7-5.7-19-6.6c-2.3-6.2-4-9.7-4-9.7h-29.6h-29.6c0,0-1.6,3.5-3.9,9.6
						c-6.5,0.9-13.3,2.8-19.6,6.6c-20.2,12.4-23.3,48.6-8.9,53.2c14.4,4.6,11.1-12.6,20.3-33.8c0.1-0.3,0.3-0.6,0.5-1
						c-5.8,23.2-10.1,55.2-2.1,86.4h30.3v-32.2h13.2h13.2v32.2h30.3c7.6-29.8,4.1-60.3-1.4-83.2c8,20.1,5.5,35.9,19.3,31.5
						C1217.6,764,1214.5,727.8,1194.3,715.4z"/>
					<path d="M1187.2,822.7h-34.7v-32.2H1131v32.2h-34.7l-0.5-1.9c-4.7-18.6-5.2-37.4-3.6-54.3c-1.8,3.2-4.3,5.2-8.4,5.2
						c-1.5,0-3.1-0.3-4.9-0.9c-5.6-1.8-9.4-7.5-10.4-15.7c-1.7-13.7,4.3-33.1,18.7-42c5.5-3.4,11.9-5.6,19.1-6.8
						c2-5.3,3.4-8.3,3.5-8.4l0.7-1.4h62.5l0.7,1.4c0.1,0.1,1.5,3.2,3.5,8.5c7,1.2,13.2,3.4,18.5,6.7c14.4,8.9,20.4,28.3,18.7,42
						c-1,8.2-4.8,13.9-10.4,15.7c-1.8,0.6-3.4,0.9-4.9,0.9c0,0,0,0,0,0c-3.6,0-5.9-1.5-7.7-4.1c1.4,16.4,0.9,34.9-3.7,53.1
						L1187.2,822.7z M1157.5,817.7h25.8c7.1-29.7,3-59.8-1.8-80.1l4.8-1.5c2.5,6.3,4,12.3,5.3,17.1c2.5,9.9,3.8,13.6,7.6,13.6h0
						c0.9,0,2.1-0.2,3.4-0.6c3.6-1.2,6.2-5.4,6.9-11.6c1.5-12.3-4.2-29.6-16.4-37.1c-5.1-3.1-11.2-5.2-18-6.2l-1.5-0.2l-0.5-1.4
						c-1.4-3.7-2.6-6.5-3.2-8.1h-56c-0.7,1.5-1.8,4.3-3.2,8l-0.5,1.4l-1.5,0.2c-7.1,0.9-13.4,3.1-18.6,6.3
						c-12.2,7.5-17.9,24.8-16.4,37.1c0.8,6.2,3.3,10.4,6.9,11.6c6.5,2.1,7.9-0.6,11-13c1.4-5.5,3.1-12.2,6.2-19.4
						c0.1-0.3,0.2-0.5,0.3-0.8l0.1-0.3l4.7,1.7c-5.3,21.1-10,52.5-2.6,83.3h25.8v-32.2h31.5V817.7z"/>
				</g>
				<g>
					<path d="M1094,807h-4.1c-4.6,0-8.2,3-8.2,6.6v0c0,3.6,3.7,6.6,8.2,6.6h7.4h30.4V807v-4.9h-31.7
						C1096.3,803.8,1093.7,805.5,1094,807z"/>
					<path d="M1130.3,822.7H1090c-5.9,0-10.7-4.1-10.7-9.1s4.8-9.1,10.7-9.1h2.2c0.3-0.5,0.6-1,0.9-1.4c0.2-0.3,0.5-0.7,0.6-1
						l-0.3-2.6h37V822.7z M1090,809.5c-3.1,0-5.7,1.9-5.7,4.1c0,2.2,2.6,4.1,5.7,4.1h35.4v-13.1H1098c-0.3,0.6-0.6,1.1-0.9,1.5
						c-0.2,0.3-0.4,0.6-0.6,0.8l0.5,2.6H1090z"/>
				</g>
				<g>
					<path d="M1188.6,807h4.1c4.6,0,8.2,3,8.2,6.6v0c0,3.6-3.7,6.6-8.2,6.6h-7.4h-30.4V807v-4.9h31.7
						C1186.3,803.8,1188.9,805.5,1188.6,807z"/>
					<path d="M1192.7,822.7h-40.4v-23.1h37l-0.3,2.6c0.1,0.2,0.4,0.7,0.6,1c0.3,0.4,0.6,0.9,0.9,1.4h2.2c5.9,0,10.7,4.1,10.7,9.1
						S1198.6,822.7,1192.7,822.7z M1157.3,817.7h35.4c3.1,0,5.7-1.9,5.7-4.1c0-2.2-2.6-4.1-5.7-4.1h-7l0.5-2.6
						c-0.1-0.2-0.4-0.6-0.6-0.8c-0.3-0.4-0.7-0.9-0.9-1.5h-27.3V817.7z"/>
				</g>
				<g>
					<path fill="#5153A3" d="M1187.7,808.6c2.6-15.8,2.4-31.4,0.8-45.7H1095c-1.6,14.3-1.8,30,0.7,45.7h32.7v-20.5h13.2h13.2v20.5
						H1187.7z"/>
					<path d="M1189.8,811.1h-37.3v-20.5H1131v20.5h-37.3l-0.3-2.1c-2.4-14.4-2.6-30-0.8-46.4l0.3-2.2h97.9l0.3,2.2
						c1.8,16.4,1.6,32-0.8,46.4L1189.8,811.1z M1157.5,806.1h28.1c1.9-12.7,2.1-26.4,0.6-40.7h-88.9c-1.4,14.3-1.2,28,0.6,40.7h28.1
						v-20.5h31.5V806.1z"/>
				</g>
				<g>
					<polygon fill="#ED1C24" points="1172.1,708.6 1141.7,702.8 1111.4,708.6 1097.9,772.6 1122.4,783.1 1141.7,768.8 1161.1,783.1 
						1185.6,772.6 					"/>
					<path d="M1160.7,785.9l-19-14l-19,14l-27.7-11.9l14.3-67.6l32.4-6.1l32.4,6.1l14.3,67.6L1160.7,785.9z M1141.7,765.7l19.7,14.5
						l21.3-9.1l-12.7-60.4l-28.2-5.4l-28.2,5.4l-12.7,60.4l21.3,9.1L1141.7,765.7z"/>
				</g>
				<g>
					<path fill="#5153A3" d="M1108.1,708.7c-6.5,0.9-13.3,2.8-19.6,6.6c-13.9,8.6-19.7,28.5-17.3,41.5l21.4,1.4v0
						c1.7-6.2,3.4-14.5,7.3-23.5c0.1-0.3,0.3-0.6,0.5-1c-1.6,6.2-3,13-4.1,20.3l-0.8,5.3c-0.6,4.2-1,8.6-1.3,13.1
						c-0.3,4.6-0.3,8.1-0.3,8.1l36.3-15.5l-12-51.8l-3.9-14.2h-2.1C1112.1,699.1,1110.4,702.6,1108.1,708.7z"/>
					<path d="M1091.3,784.4l0.1-3.9c0-0.1,0.1-3.6,0.3-8.2c0.2-3.8,0.6-7.7,1.1-11.5l-23.6-1.5l-0.4-1.9c-2.7-14.1,3.6-35,18.4-44.1
						c5.5-3.4,11.9-5.6,19.1-6.8c2-5.3,3.4-8.3,3.5-8.4l0.7-1.4h5.6l4.5,16.1l12.5,53.8L1091.3,784.4z M1098.1,732.7l4.7,1.7
						c-1.7,6.7-3.1,13.4-4.1,20.1l-0.8,5.3c-0.6,4.3-1,8.6-1.2,12.9c-0.1,1.5-0.2,2.9-0.2,4.2l30.7-13.1l-11.5-49.7l-2.9-10.3
						c-0.6,1.5-1.5,3.6-2.4,6l-0.5,1.4l-1.5,0.2c-7.1,0.9-13.4,3.1-18.6,6.3c-12,7.4-17.9,24.6-16.4,37l17.3,1.1
						c0.2-0.8,0.4-1.6,0.6-2.4c1.4-5.5,3.1-12.2,6.2-19.4c0.1-0.3,0.2-0.5,0.3-0.8L1098.1,732.7z"/>
				</g>
				<g>
					<path fill="#5153A3" d="M1174.7,708.7c6.5,0.9,13.3,2.8,19.6,6.6c13.9,8.6,19.7,28.5,17.3,41.5l-21.4,1.4v0
						c-1.7-6.2-3.4-14.5-7.3-23.5c-0.1-0.3-0.3-0.6-0.5-1c1.6,6.2,3,13,4.1,20.3l0.8,5.3c0.6,4.2,1,8.6,1.3,13.1
						c0.3,4.6,0.3,8.1,0.3,8.1l-36.3-15.5l12-51.8l3.9-14.2h2.1C1170.8,699.1,1172.4,702.6,1174.7,708.7z"/>
					<path d="M1191.5,784.4l-41.7-17.8l12.5-54l4.4-16h5.6l0.7,1.4c0.1,0.1,1.5,3.1,3.5,8.4c7.2,1.1,13.7,3.4,19.1,6.8
						c14.8,9.1,21.1,30,18.4,44.1l-0.4,1.9l-23.6,1.5c0.5,3.9,0.8,7.7,1.1,11.5c0.3,4.6,0.3,8.1,0.3,8.3L1191.5,784.4z
						 M1155.6,763.6l30.7,13.1c0-1.2-0.1-2.6-0.2-4.2c-0.3-4.2-0.7-8.6-1.2-12.9l-0.8-5.3c-1-6.6-2.4-13.3-4.1-20l4.7-1.7l0.1,0.3
						c0.1,0.2,0.2,0.5,0.4,0.8c3.1,7.2,4.8,14,6.2,19.4c0.2,0.8,0.4,1.6,0.6,2.4l17.3-1.1c1.5-12.4-4.4-29.6-16.4-37
						c-5.2-3.2-11.5-5.3-18.6-6.3l-1.5-0.2l-0.5-1.4c-0.9-2.4-1.7-4.5-2.4-6l-2.9,10.3L1155.6,763.6z"/>
				</g>
				<g>
					<path fill="#FAECE1" d="M1194.1,574.5H1088c-17.7,0-32,14.3-32,32v74.7c0,17.7,14.3,32,32,32h106.2c17.7,0,32-14.3,32-32v-74.7
						C1226.1,588.9,1211.8,574.5,1194.1,574.5z"/>
					<path d="M1194.1,715.8H1088c-19,0-34.5-15.5-34.5-34.5v-74.8c0-19,15.5-34.5,34.5-34.5h106.2c19,0,34.5,15.5,34.5,34.5v74.8
						C1228.6,700.3,1213.2,715.8,1194.1,715.8z M1088,577c-16.3,0-29.5,13.2-29.5,29.5v74.8c0,16.3,13.2,29.5,29.5,29.5h106.2
						c16.3,0,29.5-13.2,29.5-29.5v-74.8c0-16.3-13.2-29.5-29.5-29.5H1088z"/>
				</g>
				<g>
					<circle cx="1103.6" cy="648.2" r="12.5"/>
					<circle cx="1178.6" cy="648.2" r="12.5"/>
					<circle fill="#FFFFFF" cx="1100.2" cy="644.4" r="3.4"/>
					<circle fill="#FFFFFF" cx="1175.7" cy="644.4" r="3.4"/>
				</g>
				<path fill="#ED1C24" d="M1180.2,679.8c0,0-0.9,1-2.7,2.5c-1.8,1.5-4.5,3.5-8,5.4c-1.8,1-3.7,2-5.8,2.9c-2.1,0.9-4.4,1.7-6.9,2.4
					c-2.4,0.7-5,1.3-7.7,1.7c-2.7,0.4-5.3,0.6-8.1,0.6l-2,0l-2.1-0.1c-1.4-0.1-2.7-0.2-4-0.4c-2.6-0.4-5.2-0.9-7.7-1.6
					c-2.4-0.7-4.7-1.5-6.9-2.4c-2.1-0.9-4.1-1.9-5.8-2.9c-3.5-2-6.2-4-8-5.5c-1.8-1.5-2.7-2.5-2.7-2.5s1.2,0.7,3.2,1.7
					c2.1,1,5,2.3,8.6,3.7c1.8,0.7,3.8,1.3,5.9,1.9c2.1,0.6,4.3,1.2,6.7,1.6c2.3,0.5,4.7,0.8,7.2,1.1c1.2,0.1,2.5,0.2,3.7,0.3
					l1.9,0.1l2,0c2.4,0,5-0.1,7.4-0.4c2.5-0.3,4.9-0.7,7.2-1.1c2.3-0.5,4.6-1.1,6.7-1.7c2.1-0.6,4.1-1.3,5.9-1.9
					c3.6-1.3,6.6-2.7,8.7-3.7C1179,680.5,1180.2,679.8,1180.2,679.8z"/>
				<g>
					<polygon fill="#6066AE" points="1130.1,765.1 1104.8,734.1 1110.5,720.4 1093.8,713.3 1118.1,713.3 					"/>
					<path d="M1130.1,767.6c-0.7,0-1.4-0.3-1.9-0.9l-25.4-31c-0.6-0.7-0.7-1.7-0.4-2.5l4.7-11.4l-14.4-6.2c-1.1-0.5-1.7-1.6-1.5-2.8
						c0.2-1.2,1.3-2,2.4-2h24.3c1.2,0,2.2,0.8,2.4,1.9l11.9,51.5c0.1,0.3,0.2,0.6,0.2,0.9C1132.7,766.5,1131.5,767.6,1130.1,767.6
						C1130.2,767.6,1130.1,767.6,1130.1,767.6z M1107.7,733.7l17.6,21.5l-9.1-39.4H1106l5.5,2.3c1.3,0.5,1.8,2,1.3,3.3L1107.7,733.7
						z"/>
				</g>
				<g>
					<polygon fill="#6066AE" points="1152.7,765.1 1178.1,734.1 1172.4,720.4 1189,713.3 1164.7,713.3 					"/>
					<path d="M1152.7,767.6c-0.4,0-0.7-0.1-1.1-0.3c-1-0.5-1.6-1.7-1.3-2.8l12-51.8c0.3-1.1,1.3-1.9,2.4-1.9h24.3
						c1.2,0,2.2,0.8,2.4,2c0.2,1.2-0.4,2.3-1.5,2.8l-14.4,6.2l4.7,11.4c0.4,0.9,0.2,1.8-0.4,2.5l-25.4,31
						C1154.2,767.3,1153.4,767.6,1152.7,767.6z M1166.7,715.8l-9.1,39.4l17.6-21.5l-5.1-12.3c-0.5-1.3,0.1-2.7,1.3-3.3l5.5-2.3
						H1166.7z"/>
				</g>
				<circle cx="1141.7" cy="726.7" r="4"/>
				<circle cx="1141.7" cy="748.7" r="4"/>
				<path fill="#DCD1C8" d="M1194.1,577H1088c-16.3,0-29.5,13.2-29.5,29.5v29.1c1-8.6,7.2-22.9,37.8-22.9h89.3
					c30.8,0,36.9,14.4,37.8,23.1l0.3,0v-29.2C1223.6,590.3,1210.4,577,1194.1,577z"/>
				<g>
					<path fill="#58BA55" d="M1198,566.9c-17-6.1-37.5-7.6-57-7.3c-19.6-0.3-40,1.1-57,7.3c-15.5,5.6-27.9,17-27.9,34.6v26.4
						c0.9-8.7,7-25.3,40.3-25.3h44.7h44.7c33.2,0,39.4,16.6,40.3,25.3v-26.4C1225.9,583.9,1213.5,572.5,1198,566.9z"/>
					<path d="M1223.4,628.1c-0.9-8.6-7-23.1-37.8-23.1h-89.3c-30.8,0-36.9,14.4-37.8,23.1l-5-0.3v-26.4c0-16.7,10.8-30.2,29.6-37
						c13.9-5,31.1-7.4,52.8-7.4c1.7,0,3.5,0,5.2,0c1.6,0,3.4,0,5.1,0c21.6,0,38.9,2.4,52.8,7.4c18.8,6.8,29.6,20.3,29.6,37v26.4
						L1223.4,628.1z M1096.3,600.1h89.3c21.7,0,32.5,7,37.8,14.4v-12.9c0-19.9-16.4-28.8-26.3-32.3c-13.3-4.8-30-7.1-51.1-7.1
						c-1.7,0-3.4,0-5.1,0c-1.8,0-3.5,0-5.2,0c-21,0-37.7,2.3-51.1,7.1c-9.8,3.5-26.3,12.4-26.3,32.3v12.9
						C1063.8,607.1,1074.6,600.1,1096.3,600.1z"/>
				</g>
			</g>
		</g>
	</g>
</g>
</svg>
